<?xml version="1.0" encoding="UTF-8" standalone="no"?>
<!-- Created with Inkscape (http://www.inkscape.org/) -->

<svg
   xmlns:dc="http://purl.org/dc/elements/1.1/"
   xmlns:cc="http://creativecommons.org/ns#"
   xmlns:rdf="http://www.w3.org/1999/02/22-rdf-syntax-ns#"
   xmlns:svg="http://www.w3.org/2000/svg"
   xmlns="http://www.w3.org/2000/svg"
   xmlns:sodipodi="http://sodipodi.sourceforge.net/DTD/sodipodi-0.dtd"
   xmlns:inkscape="http://www.inkscape.org/namespaces/inkscape"
   width="21.34375"
   height="21.3125"
   id="svg2"
   version="1.1"
   inkscape:version="0.48.4 r9939"
   sodipodi:docname="ball.svg"
   inkscape:export-filename="C:\Users\Schmid\Desktop\ball.png"
   inkscape:export-xdpi="90"
   inkscape:export-ydpi="90">
  <defs
     id="defs4" />
  <sodipodi:namedview
     id="base"
     pagecolor="#ffffff"
     bordercolor="#666666"
     borderopacity="1.0"
     inkscape:pageopacity="0.0"
     inkscape:pageshadow="2"
     inkscape:zoom="8.237794"
     inkscape:cx="24.675456"
     inkscape:cy="8.4918994"
     inkscape:document-units="px"
     inkscape:current-layer="layer1"
     showgrid="false"
     fit-margin-top="0"
     fit-margin-left="0"
     fit-margin-right="0"
     fit-margin-bottom="0"
     inkscape:window-width="1360"
     inkscape:window-height="706"
     inkscape:window-x="-8"
     inkscape:window-y="-8"
     inkscape:window-maximized="1" />
  <metadata
     id="metadata7">
    <rdf:RDF>
      <cc:Work
         rdf:about="">
        <dc:format>image/svg+xml</dc:format>
        <dc:type
           rdf:resource="http://purl.org/dc/dcmitype/StillImage" />
        <dc:title></dc:title>
      </cc:Work>
    </rdf:RDF>
  </metadata>
  <g
     inkscape:label="Ebene 1"
     inkscape:groupmode="layer"
     id="layer1"
     transform="translate(-838.39699,-776.26603)">
    <path
       sodipodi:type="arc"
       style="fill:#ff0000;fill-opacity:0.67953671;stroke:none"
       id="path3775"
       sodipodi:cx="27.467812"
       sodipodi:cy="25.193132"
       sodipodi:rx="7.553648"
       sodipodi:ry="7.553648"
       d="m 35.02146,25.193132 c 0,4.171765 -3.381884,7.553648 -7.553648,7.553648 -4.171765,0 -7.553648,-3.381883 -7.553648,-7.553648 0,-4.171764 3.381883,-7.553648 7.553648,-7.553648 4.171764,0 7.553648,3.381884 7.553648,7.553648 z"
       transform="matrix(1.0284091,0,0,1.0284091,820.82072,761.01343)" />
    <path
       style="fill:#00c19f;fill-opacity:0.75686275;stroke:none"
       d="m 849.05324,776.26603 c -5.89273,0 -10.65625,4.76351 -10.65625,10.65625 0,5.89273 4.76352,10.65625 10.65625,10.65625 5.89274,0 10.6875,-4.76352 10.6875,-10.65625 0,-5.89274 -4.79476,-10.65625 -10.6875,-10.65625 z m 0,2.96875 c 4.25393,0 7.71875,3.43357 7.71875,7.6875 0,4.25392 -3.46482,7.6875 -7.71875,7.6875 -4.25392,0 -7.6875,-3.43358 -7.6875,-7.6875 0,-4.25393 3.43358,-7.6875 7.6875,-7.6875 z"
       id="path2996"
       inkscape:connector-curvature="0" />
    <path
       sodipodi:type="star"
       style="fill:#ffff00;fill-opacity:0.67953671;stroke:none"
       id="path3005"
       sodipodi:sides="5"
       sodipodi:cx="-10.682472"
       sodipodi:cy="26.692789"
       sodipodi:r1="7.4527497"
       sodipodi:r2="3.7263749"
       sodipodi:arg1="0.78539816"
       sodipodi:arg2="1.4137167"
       inkscape:flatsided="false"
       inkscape:rounded="0"
       inkscape:randomized="0"
       d="m -5.4125823,31.962679 -4.6869567,-1.589393 -3.966411,2.959952 0.06325,-4.94871 -4.040769,-2.857606 4.726049,-1.469078 1.469078,-4.726049 2.8576056,4.04077 4.9487098,-0.06325 -2.9599516,3.966412 z"
       transform="matrix(1.0260098,0,0,1.0346797,860.05236,759.28587)"
       inkscape:transform-center-x="0.3696405"
       inkscape:transform-center-y="-0.37276965" />
  </g>
</svg>
