<?xml version="1.0" encoding="UTF-8" standalone="no"?>
<!-- Created with Inkscape (http://www.inkscape.org/) -->

<svg
   xmlns:dc="http://purl.org/dc/elements/1.1/"
   xmlns:cc="http://creativecommons.org/ns#"
   xmlns:rdf="http://www.w3.org/1999/02/22-rdf-syntax-ns#"
   xmlns:svg="http://www.w3.org/2000/svg"
   xmlns="http://www.w3.org/2000/svg"
   xmlns:sodipodi="http://sodipodi.sourceforge.net/DTD/sodipodi-0.dtd"
   xmlns:inkscape="http://www.inkscape.org/namespaces/inkscape"
   width="21.34375"
   height="21.3125"
   id="svg2"
   version="1.1"
   inkscape:version="0.48.4 r9939"
   sodipodi:docname="ball.svg"
   inkscape:export-filename="C:\Users\Andreas\Desktop\ball2.png"
   inkscape:export-xdpi="90"
   inkscape:export-ydpi="90">
  <defs
     id="defs4" />
  <sodipodi:namedview
     id="base"
     pagecolor="#ffffff"
     bordercolor="#666666"
     borderopacity="1.0"
     inkscape:pageopacity="0.0"
     inkscape:pageshadow="2"
     inkscape:zoom="11.65"
     inkscape:cx="16.086984"
     inkscape:cy="10.14923"
     inkscape:document-units="px"
     inkscape:current-layer="layer1"
     showgrid="false"
     fit-margin-top="0"
     fit-margin-left="0"
     fit-margin-right="0"
     fit-margin-bottom="0"
     inkscape:window-width="1366"
     inkscape:window-height="705"
     inkscape:window-x="-8"
     inkscape:window-y="-8"
     inkscape:window-maximized="1" />
  <metadata
     id="metadata7">
    <rdf:RDF>
      <cc:Work
         rdf:about="">
        <dc:format>image/svg+xml</dc:format>
        <dc:type
           rdf:resource="http://purl.org/dc/dcmitype/StillImage" />
        <dc:title></dc:title>
      </cc:Work>
    </rdf:RDF>
  </metadata>
  <g
     inkscape:label="Ebene 1"
     inkscape:groupmode="layer"
     id="layer1"
     transform="translate(-838.39699,-776.26603)">
    <path
       sodipodi:type="arc"
       style="fill:#edf800;fill-opacity:0.69884171;stroke:none"
       id="path3775"
       sodipodi:cx="27.467812"
       sodipodi:cy="25.193132"
       sodipodi:rx="7.553648"
       sodipodi:ry="7.553648"
       d="m 35.02146,25.193132 a 7.553648,7.553648 0 1 1 -15.107296,0 7.553648,7.553648 0 1 1 15.107296,0 z"
       transform="matrix(0.83503698,-0.60028203,0.60028203,0.83503698,811.00924,782.37351)" />
    <path
       style="fill:#2c5cff;fill-opacity:0.75686275;stroke:none"
       d="m 842.83613,778.27885 c -4.78472,3.43958 -5.87209,10.08787 -2.4325,14.8726 3.43958,4.78472 10.08788,5.87209 14.8726,2.4325 4.78472,-3.43959 5.89746,-10.10612 2.45787,-14.89084 -3.43959,-4.78473 -10.11325,-5.85385 -14.89797,-2.41426 z m 1.73286,2.41053 c 3.45406,-2.48301 8.27156,-1.71747 10.75458,1.73659 2.48301,3.45405 1.67386,8.26443 -1.7802,10.74745 -3.45405,2.48301 -8.2462,1.69923 -10.72921,-1.75483 -2.48302,-3.45406 -1.69923,-8.24619 1.75483,-10.72921 z"
       id="path2996"
       inkscape:connector-curvature="0" />
    <path
       sodipodi:type="star"
       style="fill:#ff0000;fill-opacity:0.67953671;stroke:none"
       id="path3005"
       sodipodi:sides="5"
       sodipodi:cx="-10.682472"
       sodipodi:cy="26.692789"
       sodipodi:r1="7.4527497"
       sodipodi:r2="3.7263749"
       sodipodi:arg1="0.78539816"
       sodipodi:arg2="1.4137167"
       inkscape:flatsided="false"
       inkscape:rounded="0"
       inkscape:randomized="0"
       d="m -5.4125823,31.962679 -4.6869567,-1.589393 -3.966411,2.959952 0.06325,-4.94871 -4.040769,-2.857606 4.726049,-1.469078 1.469078,-4.726049 2.8576056,4.04077 4.9487098,-0.06325 -2.9599516,3.966412 z"
       transform="matrix(0.83308882,-0.59888156,0.60394218,0.84012852,841.85577,758.07129)"
       inkscape:transform-center-x="-0.36826246"
       inkscape:transform-center-y="0.39286173" />
  </g>
</svg>
