<?xml version="1.0" encoding="UTF-8" standalone="no"?>
<!-- Created with Inkscape (http://www.inkscape.org/) -->

<svg
   xmlns:dc="http://purl.org/dc/elements/1.1/"
   xmlns:cc="http://creativecommons.org/ns#"
   xmlns:rdf="http://www.w3.org/1999/02/22-rdf-syntax-ns#"
   xmlns:svg="http://www.w3.org/2000/svg"
   xmlns="http://www.w3.org/2000/svg"
   xmlns:xlink="http://www.w3.org/1999/xlink"
   xmlns:sodipodi="http://sodipodi.sourceforge.net/DTD/sodipodi-0.dtd"
   xmlns:inkscape="http://www.inkscape.org/namespaces/inkscape"
   width="800"
   height="600"
   id="svg2"
   version="1.1"
   inkscape:version="0.48.4 r9939"
   sodipodi:docname="clickagain.svg"
   inkscape:export-filename="C:\Users\Schmid\Desktop\text3785.png"
   inkscape:export-xdpi="90"
   inkscape:export-ydpi="90">
  <defs
     id="defs4">
    <linearGradient
       id="linearGradient3805"
       inkscape:collect="always">
      <stop
         id="stop3807"
         offset="0"
         style="stop-color:#919191;stop-opacity:1" />
      <stop
         id="stop3809"
         offset="1"
         style="stop-color:#404040;stop-opacity:1" />
    </linearGradient>
    <linearGradient
       inkscape:collect="always"
       id="linearGradient3761">
      <stop
         style="stop-color:#a2a2a2;stop-opacity:1"
         offset="0"
         id="stop3763" />
      <stop
         style="stop-color:#5f5f5f;stop-opacity:1"
         offset="1"
         id="stop3765" />
    </linearGradient>
    <linearGradient
       inkscape:collect="always"
       xlink:href="#linearGradient3761"
       id="linearGradient3767"
       x1="454.28571"
       y1="189.28572"
       x2="454.28571"
       y2="312.21759"
       gradientUnits="userSpaceOnUse" />
    <linearGradient
       inkscape:collect="always"
       xlink:href="#linearGradient3761"
       id="linearGradient3774"
       gradientUnits="userSpaceOnUse"
       x1="454.28571"
       y1="189.28572"
       x2="454.28571"
       y2="312.21759" />
    <linearGradient
       inkscape:collect="always"
       xlink:href="#linearGradient3761"
       id="linearGradient3779"
       gradientUnits="userSpaceOnUse"
       x1="454.28571"
       y1="189.28572"
       x2="454.28571"
       y2="312.21759"
       gradientTransform="translate(-2.1428452,428.36218)" />
    <linearGradient
       inkscape:collect="always"
       xlink:href="#linearGradient3761"
       id="linearGradient3800"
       gradientUnits="userSpaceOnUse"
       gradientTransform="translate(-9.213913,435.43325)"
       x1="454.28571"
       y1="189.28572"
       x2="454.28571"
       y2="312.21759" />
    <linearGradient
       inkscape:collect="always"
       xlink:href="#linearGradient3805"
       id="linearGradient3802"
       gradientUnits="userSpaceOnUse"
       gradientTransform="translate(-2.1428452,-24)"
       x1="454.28571"
       y1="189.28572"
       x2="454.28571"
       y2="312.21759" />
    <linearGradient
       inkscape:collect="always"
       xlink:href="#linearGradient3805"
       id="linearGradient3769"
       gradientUnits="userSpaceOnUse"
       gradientTransform="translate(-2.1428452,428.36218)"
       x1="454.28571"
       y1="189.28572"
       x2="454.28571"
       y2="312.21759" />
    <linearGradient
       inkscape:collect="always"
       xlink:href="#linearGradient3761"
       id="linearGradient3775"
       gradientUnits="userSpaceOnUse"
       gradientTransform="translate(-2.1428452,428.36218)"
       x1="454.28571"
       y1="189.28572"
       x2="454.28571"
       y2="312.21759" />
    <linearGradient
       inkscape:collect="always"
       xlink:href="#linearGradient3761"
       id="linearGradient3783"
       gradientUnits="userSpaceOnUse"
       gradientTransform="translate(-2.1428452,256.36218)"
       x1="454.28571"
       y1="189.28572"
       x2="454.28571"
       y2="312.21759" />
    <linearGradient
       inkscape:collect="always"
       xlink:href="#linearGradient3761"
       id="linearGradient3808"
       gradientUnits="userSpaceOnUse"
       gradientTransform="translate(-2.1428452,428.36218)"
       x1="454.28571"
       y1="189.28572"
       x2="454.28571"
       y2="312.21759" />
    <linearGradient
       inkscape:collect="always"
       xlink:href="#linearGradient3805"
       id="linearGradient3810"
       gradientUnits="userSpaceOnUse"
       gradientTransform="translate(-2.1428452,428.36218)"
       x1="454.28571"
       y1="189.28572"
       x2="454.28571"
       y2="312.21759" />
    <linearGradient
       inkscape:collect="always"
       xlink:href="#linearGradient3761"
       id="linearGradient3812"
       gradientUnits="userSpaceOnUse"
       gradientTransform="translate(-2.1428452,256.36218)"
       x1="454.28571"
       y1="189.28572"
       x2="454.28571"
       y2="312.21759" />
    <linearGradient
       inkscape:collect="always"
       xlink:href="#linearGradient3805"
       id="linearGradient3011"
       gradientUnits="userSpaceOnUse"
       gradientTransform="translate(-2.1428452,470.36218)"
       x1="454.28571"
       y1="189.28572"
       x2="454.28571"
       y2="312.21759" />
    <linearGradient
       inkscape:collect="always"
       xlink:href="#linearGradient3761"
       id="linearGradient3016"
       gradientUnits="userSpaceOnUse"
       gradientTransform="translate(-2.1428452,470.36218)"
       x1="454.28571"
       y1="189.28572"
       x2="454.28571"
       y2="312.21759" />
  </defs>
  <sodipodi:namedview
     id="base"
     pagecolor="#ffffff"
     bordercolor="#666666"
     borderopacity="1.0"
     inkscape:pageopacity="0.0"
     inkscape:pageshadow="2"
     inkscape:zoom="0.728125"
     inkscape:cx="392.40747"
     inkscape:cy="539.09015"
     inkscape:document-units="px"
     inkscape:current-layer="layer1"
     showgrid="false"
     inkscape:window-width="1360"
     inkscape:window-height="706"
     inkscape:window-x="-8"
     inkscape:window-y="-8"
     inkscape:window-maximized="1" />
  <metadata
     id="metadata7">
    <rdf:RDF>
      <cc:Work
         rdf:about="">
        <dc:format>image/svg+xml</dc:format>
        <dc:type
           rdf:resource="http://purl.org/dc/dcmitype/StillImage" />
        <dc:title></dc:title>
      </cc:Work>
    </rdf:RDF>
  </metadata>
  <g
     inkscape:label="Ebene 1"
     inkscape:groupmode="layer"
     id="layer1"
     transform="translate(0,-452.36218)">
    <g
       id="g3796"
       transform="translate(0,42)"
       inkscape:export-filename="C:\Users\Schmid\Desktop\clickagain.png"
       inkscape:export-xdpi="90"
       inkscape:export-ydpi="90">
      <rect
         style="fill:url(#linearGradient3812);fill-opacity:1;stroke:none"
         id="rect3777"
         width="632.85712"
         height="115.71429"
         x="83.571442"
         y="449.2193"
         ry="57.857143" />
      <text
         xml:space="preserve"
         style="font-size:79.70437622px;font-style:oblique;font-variant:normal;font-weight:bold;font-stretch:normal;line-height:125%;letter-spacing:0px;word-spacing:0px;fill:#ffffff;fill-opacity:1;stroke:none;font-family:Dragon is Coming;-inkscape-font-specification:Dragon is Coming Bold Oblique"
         x="105.70094"
         y="522.42969"
         id="text3779"
         sodipodi:linespacing="125%"><tspan
           sodipodi:role="line"
           id="tspan3781"
           x="105.70094"
           y="522.42969"
           style="font-style:normal;font-variant:normal;font-weight:normal;font-stretch:normal;fill:#ffffff;fill-opacity:1;font-family:Vijaya;-inkscape-font-specification:Vijaya">Click here to try again</tspan></text>
    </g>
    <g
       id="g3018">
      <rect
         inkscape:export-ydpi="90"
         inkscape:export-xdpi="90"
         inkscape:export-filename="C:\Users\Schmid\Desktop\text3785.png"
         ry="57.857143"
         y="663.2193"
         x="83.571442"
         height="115.71429"
         width="632.85712"
         id="rect2989"
         style="fill:url(#linearGradient3016);fill-opacity:1;stroke:none" />
      <text
         inkscape:export-ydpi="90"
         inkscape:export-xdpi="90"
         inkscape:export-filename="C:\Users\Schmid\Desktop\text3785.png"
         sodipodi:linespacing="125%"
         id="text2985"
         y="736.42969"
         x="105.70094"
         style="font-size:79.70437622px;font-style:oblique;font-variant:normal;font-weight:bold;font-stretch:normal;line-height:125%;letter-spacing:0px;word-spacing:0px;fill:#ffffff;fill-opacity:1;stroke:none;font-family:Dragon is Coming;-inkscape-font-specification:Dragon is Coming Bold Oblique"
         xml:space="preserve"><tspan
           style="font-style:normal;font-variant:normal;font-weight:normal;font-stretch:normal;fill:#ffffff;fill-opacity:1;font-family:Vijaya;-inkscape-font-specification:Vijaya"
           y="736.42969"
           x="105.70094"
           id="tspan2987"
           sodipodi:role="line">Click here to try again</tspan></text>
      <path
         inkscape:export-ydpi="90"
         inkscape:export-xdpi="90"
         inkscape:export-filename="C:\Users\Schmid\Desktop\text3785.png"
         id="rect3783"
         d="m 141.4375,663.20593 c -17.78943,0 -33.65322,7.97753 -44.25,20.53125 10.03921,-8.40095 22.98219,-13.4375 37.15625,-13.4375 l 517.15625,0 c 32.05286,0 57.84375,25.79089 57.84375,57.84375 0,14.2156 -5.05473,27.19851 -13.5,37.25 12.59465,-10.59684 20.59375,-26.48963 20.59375,-44.3125 0,-32.05286 -25.82214,-57.875 -57.875,-57.875 l -517.125,0 z"
         style="fill:url(#linearGradient3011);fill-opacity:1;stroke:none"
         inkscape:connector-curvature="0" />
      <path
         inkscape:export-ydpi="90"
         inkscape:export-xdpi="90"
         inkscape:export-filename="C:\Users\Schmid\Desktop\text3785.png"
         id="text3785"
         d="m 167.9371,691.69051 -10.71875,1.78125 0,1.09375 8.40625,-1.40625 -10.71875,37.28125 c -0.51892,1.86808 -0.78126,2.99113 -0.78125,3.40625 -10e-6,0.31135 0.1179,0.57369 0.3125,0.78125 0.19458,0.20757 0.43334,0.3125 0.71875,0.3125 0.41512,0 0.84017,-0.16801 1.28125,-0.53125 0.33073,-0.25986 0.65971,-0.56035 1,-0.90625 -0.27179,-0.007 -0.50002,-0.11251 -0.6875,-0.3125 -0.1946,-0.20756 -0.31251,-0.4699 -0.3125,-0.78125 -10e-6,-0.41512 0.26233,-1.56942 0.78125,-3.4375 l 10.71875,-37.28125 z m 63.59375,0 -10.875,1.875 0,1.0625 1.34375,-0.21875 7.21875,-1.25 -8.90625,30.8125 2.46875,-2.09375 8.75,-30.1875 z m 44.96875,0 -10.84375,1.84375 0,1.0625 8.53125,-1.4375 -8.78125,30.4375 c 1.16895,-1.76943 2.23918,-3.28497 3.25,-4.6875 l 7.84375,-27.21875 z m -139.0625,1.09375 c -4.41075,4e-5 -8.76088,1.26459 -13.09375,3.78125 -0.69846,0.4057 -1.38066,0.82701 -2.03125,1.28125 4.24012,-2.40819 8.5291,-3.59371 12.84375,-3.59375 1.78451,4e-5 3.7596,0.37768 5.9375,1.125 0.14331,0.0442 0.2978,0.0748 0.4375,0.125 0.15572,0.056 0.28933,0.12608 0.4375,0.1875 0.0319,0.0121 0.0618,0.019 0.0937,0.0312 1.14156,0.41517 1.97575,0.62504 2.46875,0.625 0.49292,4e-5 0.93625,-0.1049 1.3125,-0.3125 0.28212,-0.15564 0.74574,-0.59398 1.3125,-1.1875 -0.10608,0.0107 -0.20038,0.0313 -0.3125,0.0312 -0.493,4e-5 -1.32719,-0.20983 -2.46875,-0.625 -2.56863,-0.98588 -4.88784,-1.46871 -6.9375,-1.46875 z m 12.59375,0 c -0.60879,0.68041 -1.10094,1.15906 -1.46875,1.46875 l 0.3125,0 -2.09375,9.09375 0.125,3.21875 1.125,0 3.15625,-13.78125 -1.15625,0 z m 31.09375,2.6875 c -0.88216,4e-5 -1.6403,0.29657 -2.25,0.90625 -0.17821,0.17822 -0.31138,0.39448 -0.4375,0.59375 0.12639,-0.0138 0.24246,-0.0312 0.375,-0.0312 0.88213,4e-5 1.62199,0.29657 2.21875,0.90625 0.59673,0.60976 0.90623,1.33134 0.90625,2.1875 -10e-6,0.6173 -0.1831,1.19161 -0.5,1.6875 0.72221,-0.0681 1.34148,-0.36137 1.875,-0.90625 0.6097,-0.62265 0.90623,-1.36251 0.90625,-2.21875 -2e-5,-0.85616 -0.27827,-1.60899 -0.875,-2.21875 -0.59676,-0.60968 -1.33662,-0.90621 -2.21875,-0.90625 z m 470.75,0 c -0.88216,4e-5 -1.6403,0.29657 -2.25,0.90625 -0.17821,0.17822 -0.31138,0.39448 -0.4375,0.59375 0.12639,-0.0138 0.24246,-0.0312 0.375,-0.0312 0.88213,4e-5 1.62199,0.29657 2.21875,0.90625 0.59673,0.60976 0.90623,1.33134 0.90625,2.1875 -10e-6,0.6173 -0.1831,1.19161 -0.5,1.6875 0.72221,-0.0681 1.34148,-0.36137 1.875,-0.90625 0.6097,-0.62265 0.93748,-1.36251 0.9375,-2.21875 -2e-5,-0.85616 -0.30952,-1.60899 -0.90625,-2.21875 -0.59676,-0.60968 -1.33662,-0.90621 -2.21875,-0.90625 z m -524.125,2.59375 c -0.7589,0.38431 -1.48698,0.83134 -2.1875,1.34375 -3.58049,2.62052 -6.38252,6.31452 -8.40625,11.0625 -1.66052,3.94373 -2.46876,7.91598 -2.46875,11.9375 -1e-5,4.12534 1.19379,7.42316 3.59375,9.875 2.39994,2.45185 5.50381,3.6875 9.34375,3.6875 2.90586,0 5.511,-0.67148 7.78125,-1.96875 0.56755,-0.32432 1.10897,-0.68187 1.65625,-1.09375 -2.10985,1.06334 -4.49416,1.59375 -7.125,1.59375 -3.83994,0 -6.94381,-1.23565 -9.34375,-3.6875 -2.39996,-2.45184 -3.62501,-5.71841 -3.625,-9.84375 -1e-5,-4.02152 0.83948,-8.02502 2.5,-11.96875 2.00005,-4.69244 4.76065,-8.32303 8.28125,-10.9375 z m 275.34375,2.0625 c -0.32597,0.52691 -0.62267,0.99564 -0.9375,1.46875 l -2.4375,8.53125 4.9375,0 -0.15625,0.53125 1.90625,0 0.5625,-2 -4.9375,0 2.4375,-8.53125 -1.375,0 z m 66.03125,0 c -0.32695,0.52849 -0.65301,0.99438 -0.96875,1.46875 l -2.4375,8.53125 4.9375,0 -0.15625,0.53125 1.90625,0 0.5625,-2 -4.9375,0 2.4375,-8.53125 -1.34375,0 z m -287.625,7.75 -10.8125,1.8125 0,1.0625 8.5,-1.40625 -6.1875,22 c -0.41514,1.47889 -0.62501,2.3396 -0.625,2.625 -10e-6,0.33729 0.1179,0.60494 0.3125,0.8125 0.19458,0.20757 0.42804,0.3125 0.6875,0.3125 0.33728,0 0.70986,-0.16271 1.125,-0.5 0.3601,-0.28182 0.70003,-0.61371 1.0625,-0.96875 -0.2158,-0.0248 -0.39486,-0.10242 -0.5625,-0.28125 -0.1946,-0.20756 -0.31251,-0.47521 -0.3125,-0.8125 -10e-6,-0.2854 0.20986,-1.17736 0.625,-2.65625 l 6.1875,-22 z m 23.65625,0 c -2.90591,3e-5 -5.86534,0.97334 -8.875,2.90625 -0.37621,0.24162 -0.73659,0.49014 -1.09375,0.75 2.60091,-1.45676 5.16478,-2.18748 7.6875,-2.1875 0.48157,10e-6 0.91355,0.051 1.34375,0.0937 0.41925,-0.0607 0.82911,-0.12499 1.25,-0.125 1.08969,3e-5 1.97104,0.2099 2.59375,0.625 0.38916,0.28543 0.56248,0.6527 0.5625,1.09375 -10e-6,0.11677 -0.005,0.23348 -0.0312,0.34375 0.72061,0.83375 1.09373,1.80748 1.09375,2.90625 -2e-5,1.1272 -0.33029,2.10415 -0.9375,2.9375 0.80036,-0.0342 1.48868,-0.40322 2.03125,-1.09375 0.80428,-0.90807 1.18747,-2.01521 1.1875,-3.3125 -3e-5,-1.37508 -0.5589,-2.53999 -1.6875,-3.5 -1.12865,-0.95995 -2.84182,-1.43747 -5.125,-1.4375 z m 77.53125,0 c -1.69628,2e-5 -3.447,0.72691 -5.28125,2.15625 1.01836,-0.47026 1.99578,-0.68749 2.96875,-0.6875 1.01185,3e-5 1.86961,0.362 2.53125,1.0625 0.66158,0.70055 0.96872,1.60843 0.96875,2.75 -3e-5,1.37513 -0.27298,3.05942 -0.84375,5.03125 l -3.8125,13.09375 c -0.49299,1.58268 -0.75002,2.47464 -0.75,2.65625 -2e-5,0.2854 0.0996,0.50589 0.28125,0.6875 0.18159,0.18162 0.39147,0.28125 0.625,0.28125 0.25943,0 0.57424,-0.11554 0.9375,-0.375 0.41349,-0.32361 0.80837,-0.72042 1.21875,-1.125 -0.17115,-0.032 -0.32856,-0.0785 -0.46875,-0.21875 -0.18164,-0.18161 -0.28127,-0.43335 -0.28125,-0.71875 -2e-5,-0.18161 0.25701,-1.04232 0.75,-2.625 l 3.8125,-13.125 c 0.57077,-1.97183 0.84372,-3.65612 0.84375,-5.03125 -3e-5,-1.14157 -0.30717,-2.04945 -0.96875,-2.75 -0.66164,-0.7005 -1.5194,-1.06247 -2.53125,-1.0625 z m 28.15625,0 c -3.08752,3e-5 -6.07585,0.9026 -8.96875,2.71875 -0.41752,0.26213 -0.82149,0.55163 -1.21875,0.84375 2.55257,-1.39049 5.17342,-2.09373 7.875,-2.09375 2.20534,3e-5 3.84246,0.43569 4.90625,1.34375 1.06374,0.90812 1.59372,1.99934 1.59375,3.21875 -3e-5,1.73837 -0.68742,3.3861 -2.0625,4.96875 -0.65422,0.74768 -1.4361,1.41919 -2.3125,2.0625 1.89839,-1.00791 3.44699,-2.18496 4.625,-3.53125 1.37508,-1.58265 2.06247,-3.23038 2.0625,-4.96875 -3e-5,-1.21941 -0.53001,-2.27938 -1.59375,-3.1875 -1.06379,-0.90806 -2.70091,-1.37497 -4.90625,-1.375 z m 21.5625,0 -10.84375,1.8125 0.21875,1.03125 8.3125,-1.375 -4.53125,15.25 c 1.22,-2.08524 2.38627,-3.95815 3.53125,-5.625 l 3.3125,-11.09375 z m 9.5625,0 c -0.95569,3e-5 -2.16677,0.62953 -3.625,1.78125 0.48648,-0.20067 0.91358,-0.31249 1.3125,-0.3125 0.7005,3e-5 1.23579,0.2099 1.625,0.625 0.38916,0.41515 0.59372,1.00291 0.59375,1.78125 -3e-5,1.35221 -0.3539,2.64827 -1.03125,3.875 0.0412,0.003 0.0829,0 0.125,0 0.95996,2e-5 1.66326,-0.47219 2.15625,-1.40625 0.7005,-1.24536 1.06247,-2.56237 1.0625,-3.9375 -3e-5,-0.77834 -0.20459,-1.3661 -0.59375,-1.78125 -0.38921,-0.4151 -0.9245,-0.62497 -1.625,-0.625 z m 22.40625,0 c -3.08752,3e-5 -6.07585,0.9026 -8.96875,2.71875 -0.41863,0.26282 -0.82049,0.55078 -1.21875,0.84375 2.55257,-1.39049 5.17342,-2.09373 7.875,-2.09375 2.20534,3e-5 3.84246,0.43569 4.90625,1.34375 1.06374,0.90812 1.59372,1.99934 1.59375,3.21875 -3e-5,1.73837 -0.68742,3.3861 -2.0625,4.96875 -0.64989,0.74273 -1.4121,1.42276 -2.28125,2.0625 1.88719,-1.00503 3.42078,-2.19073 4.59375,-3.53125 1.37508,-1.58265 2.06247,-3.23038 2.0625,-4.96875 -3e-5,-1.21941 -0.53001,-2.27938 -1.59375,-3.1875 -1.06379,-0.90806 -2.70091,-1.37497 -4.90625,-1.375 z m 61.5,0 c -2.75023,3e-5 -5.60473,0.91557 -8.5625,2.71875 -0.48631,0.29648 -0.9522,0.6063 -1.40625,0.9375 2.64165,-1.45886 5.1825,-2.18747 7.65625,-2.1875 0.84922,10e-6 1.6505,0.0788 2.40625,0.25 0.17072,0.0387 0.33405,0.0776 0.5,0.125 0.30116,0.0796 0.60213,0.17904 0.875,0.3125 0.0727,0.0356 0.14806,0.0544 0.21875,0.0937 1.04995,0.45539 2.01236,1.11312 2.84375,1.96875 1.77723,1.82918 2.65622,4.18258 2.65625,7.0625 -3e-5,3.13941 -0.83952,6.23798 -2.5,9.3125 -1.38378,2.56212 -3.21537,4.67352 -5.5,6.34375 0.29422,-0.16112 0.57922,-0.32098 0.875,-0.5 2.95776,-1.79023 5.27697,-4.23796 6.9375,-7.3125 1.66048,-3.07452 2.49997,-6.17309 2.5,-9.3125 -3e-5,-2.87992 -0.87902,-5.23332 -2.65625,-7.0625 -1.77729,-1.82913 -4.06761,-2.74997 -6.84375,-2.75 z m 60,0 -10.8125,1.8125 0.21875,1.03125 8.3125,-1.375 -4.53125,15.25 c 1.21483,-2.07642 2.3908,-3.93219 3.53125,-5.59375 l 3.28125,-11.125 z m 9.59375,0 c -0.95827,3e-5 -2.19273,0.62332 -3.65625,1.78125 0.48648,-0.20067 0.94483,-0.31249 1.34375,-0.3125 0.7005,3e-5 1.23579,0.2099 1.625,0.625 0.38916,0.41515 0.59372,1.00291 0.59375,1.78125 -3e-5,1.35221 -0.3539,2.64827 -1.03125,3.875 0.031,10e-4 0.0622,0 0.0937,0 0.95996,2e-5 1.69451,-0.47219 2.1875,-1.40625 0.29413,-0.52291 0.51687,-1.04796 0.6875,-1.59375 -0.40308,0.0323 -0.8739,0.0558 -1.46875,0.125 l -0.3125,-1.15625 2.09375,-0.53125 c 0.0252,-0.25608 0.0625,-0.5205 0.0625,-0.78125 -3e-5,-0.77834 -0.20459,-1.3661 -0.59375,-1.78125 -0.38921,-0.4151 -0.9245,-0.62497 -1.625,-0.625 z m 11.5625,0 -9.1875,2.28125 0.21875,0.8125 6.65625,-1.625 c 0.72646,1.21946 1.22756,2.35549 1.5,3.40625 0.27242,1.05081 0.52178,3.13657 0.78125,6.25 l 1.375,15.40625 c 0.60141,-0.71188 1.34222,-1.64329 2.1875,-2.75 l -1.25,-14.125 c -0.25947,-3.11343 -0.50883,-5.19919 -0.78125,-6.25 -0.27244,-1.05076 -0.77354,-2.18679 -1.5,-3.40625 z m 14.59375,0 c -0.75244,3e-5 -1.40034,0.28065 -1.90625,0.8125 -0.18295,0.19233 -0.28946,0.42152 -0.40625,0.65625 0.90806,3e-5 1.69509,0.39089 2.34375,1.15625 0.64861,0.76542 0.96872,1.80711 0.96875,3.15625 -10e-6,0.51181 -0.1081,1.06486 -0.21875,1.625 -0.24274,1.22879 -0.72478,2.5699 -1.5,4.03125 -1.12865,2.12754 -3.28279,5.36523 -6.5,9.75 -3.21725,4.38478 -7.12112,9.18591 -11.6875,14.375 -2.4339,2.73314 -4.35269,4.69118 -5.8125,5.875 0.3527,-0.17513 0.7143,-0.36024 1.09375,-0.59375 1.51781,-0.93405 3.8659,-3.19548 7.03125,-6.75 4.56638,-5.18909 8.47025,-9.95897 11.6875,-14.34375 3.21721,-4.38477 5.37135,-7.65371 6.5,-9.78125 1.1286,-2.12751 1.68747,-3.99042 1.6875,-5.625 -3e-5,-1.34914 -0.32014,-2.42208 -0.96875,-3.1875 -0.64866,-0.76536 -1.40444,-1.15622 -2.3125,-1.15625 z m 38.5625,0 c -2.12754,3e-5 -4.39428,0.89199 -6.78125,2.65625 1.54241,-0.79247 3.04286,-1.18748 4.46875,-1.1875 0.62573,10e-6 1.19865,0.0931 1.71875,0.25 0.22248,-0.0344 0.43868,-0.0625 0.65625,-0.0625 1.19347,3e-5 2.15617,0.38322 2.84375,1.1875 0.22671,0.26523 0.37929,0.59914 0.53125,0.96875 l 0.5,-1.5625 0.28125,-0.0312 c -0.29845,-0.48353 -0.61979,-0.88331 -1,-1.1875 -0.84325,-0.67455 -1.9215,-1.03122 -3.21875,-1.03125 z m 11.25,0 -5,0.78125 -0.375,1.15625 3.0625,-0.46875 -6.125,21.25 -0.6875,2.875 c -0.0519,0.25946 -0.0938,0.47464 -0.0937,0.65625 -2e-5,0.33729 0.10491,0.6468 0.3125,0.90625 0.15565,0.18162 0.36552,0.28125 0.625,0.28125 0.25943,0 0.6214,-0.19396 1.0625,-0.53125 0.30161,-0.22378 0.64937,-0.56254 1.03125,-0.96875 -0.15504,-0.0393 -0.29979,-0.12577 -0.40625,-0.25 -0.20759,-0.25945 -0.31252,-0.53771 -0.3125,-0.875 -2e-5,-0.18161 0.0418,-0.42804 0.0937,-0.6875 l 0.6875,-2.875 6.125,-21.25 z m 20.15625,0 c -3.99259,3e-5 -7.23344,1.03756 -9.75,3.03125 2.10623,-1.02853 4.5698,-1.56248 7.4375,-1.5625 0.4374,10e-6 0.85664,0.006 1.25,0.0312 0.11793,-0.006 0.22368,0 0.34375,0 0.83302,10e-6 1.59188,0.14332 2.25,0.4375 0.99888,0.32435 1.97749,0.82014 2.9375,1.46875 l 8.4375,0 -0.5,1.8125 1.90625,0 0.90625,-3.25 -8.46875,0 c -0.96001,-0.64861 -1.93862,-1.1444 -2.9375,-1.46875 -0.99892,-0.32429 -2.25579,-0.49997 -3.8125,-0.5 z m 32.71875,0 c -2.12754,3e-5 -4.39428,0.89199 -6.78125,2.65625 -0.0423,0.0302 -0.0829,0.0633 -0.125,0.0937 1.59623,-0.8446 3.12171,-1.28123 4.59375,-1.28125 0.62573,10e-6 1.19865,0.0931 1.71875,0.25 0.019,0.006 0.0436,-0.006 0.0625,0 0.20928,-0.0305 0.42008,-0.0625 0.625,-0.0625 1.19347,3e-5 2.12492,0.38322 2.8125,1.1875 0.23342,0.27307 0.40832,0.61628 0.5625,1 l 0.5,-1.59375 0.25,-0.0312 c -0.29667,-0.47811 -0.62291,-0.88581 -1,-1.1875 -0.84325,-0.67455 -1.9215,-1.03122 -3.21875,-1.03125 z m 11.25,0 -4.96875,0.78125 -0.375,1.15625 3.03125,-0.46875 -6.09375,21.25 -0.71875,2.875 c -0.0519,0.25946 -0.0625,0.47464 -0.0625,0.65625 -2e-5,0.33729 0.10491,0.6468 0.3125,0.90625 0.15565,0.18162 0.36552,0.28125 0.625,0.28125 0.25943,0 0.59015,-0.19396 1.03125,-0.53125 0.30354,-0.22521 0.67765,-0.55876 1.0625,-0.96875 -0.16269,-0.0374 -0.29582,-0.12115 -0.40625,-0.25 -0.20759,-0.25945 -0.31252,-0.53771 -0.3125,-0.875 -2e-5,-0.18161 0.0106,-0.42804 0.0625,-0.6875 l 0.71875,-2.875 6.09375,-21.25 z m 16.6875,0 -10.8125,1.8125 0,1.0625 8.53125,-1.40625 -6.1875,22 c -0.41514,1.47889 -0.62501,2.3396 -0.625,2.625 -10e-6,0.33729 0.0866,0.60494 0.28125,0.8125 0.19458,0.20757 0.42804,0.3125 0.6875,0.3125 0.33728,0 0.70986,-0.16271 1.125,-0.5 0.36117,-0.28265 0.73021,-0.61244 1.09375,-0.96875 -0.21918,-0.0231 -0.42397,-0.10014 -0.59375,-0.28125 -0.1946,-0.20756 -0.31251,-0.47521 -0.3125,-0.8125 -10e-6,-0.2854 0.20986,-1.17736 0.625,-2.65625 l 6.1875,-22 z m 17.34375,0 -10.875,1.96875 0.15625,1 8.40625,-1.5 -4.1875,14.28125 c 1.17053,-1.7558 2.24259,-3.2619 3.25,-4.65625 l 3.25,-11.09375 z m 10.8125,0 c -1.70633,3e-5 -3.50426,0.73257 -5.34375,2.1875 1.03264,-0.48779 2.04326,-0.71874 3.03125,-0.71875 1.03779,3e-5 1.88789,0.362 2.5625,1.0625 0.67455,0.70055 1.03122,1.56657 1.03125,2.65625 -3e-5,1.27135 -0.30953,2.95564 -0.90625,5.03125 l -3.8125,13.1875 c -0.4411,1.53079 -0.65627,2.47521 -0.65625,2.8125 -2e-5,0.2854 0.0813,0.52416 0.25,0.71875 0.16862,0.19459 0.34961,0.28125 0.53125,0.28125 0.23348,0 0.51174,-0.11554 0.875,-0.375 0.39631,-0.31336 0.8275,-0.69704 1.25,-1.125 -0.1216,-0.042 -0.22826,-0.11672 -0.34375,-0.25 -0.16867,-0.19459 -0.28127,-0.43335 -0.28125,-0.71875 -2e-5,-0.33729 0.2464,-1.25046 0.6875,-2.78125 l 3.8125,-13.21875 c 0.59672,-2.07561 0.87497,-3.72865 0.875,-5 -3e-5,-1.08968 -0.32545,-1.98695 -1,-2.6875 -0.67461,-0.7005 -1.52471,-1.06247 -2.5625,-1.0625 z m -284.75,0.1875 c -1.02629,0.52689 -2.14321,1.00317 -3.40625,1.34375 l -0.1875,0.71875 c 1.36617,-0.5518 2.57943,-1.23381 3.59375,-2.0625 z m 66,0 c -1.02629,0.52689 -2.14321,1.00317 -3.40625,1.34375 l -0.1875,0.75 c 1.37448,-0.55312 2.57452,-1.26105 3.59375,-2.09375 z m -230.90625,0.59375 -0.3125,1.1875 1.09375,0 c 0.90807,3e-5 1.54299,0.0525 1.90625,0.15625 0.14299,0.0409 0.23695,0.0741 0.34375,0.125 l 8.03125,0 c 0.71116,-0.13984 1.48364,-0.22598 2.3125,-0.28125 l 0.3125,-1.1875 -13.6875,0 z m 355.75,2.5 c -1.45289,0.50735 -2.69299,1.57949 -3.75,3.21875 -1.53079,2.37403 -2.31251,4.83767 -2.3125,7.40625 -10e-6,1.60863 0.49579,2.94392 1.46875,3.96875 0.4413,0.46485 0.93937,0.8085 1.46875,1.0625 0.44612,0.14029 0.91634,0.28142 1.40625,0.375 -0.0231,0.01 -0.0395,0.0216 -0.0625,0.0312 0.24742,0.036 0.48755,0.0625 0.75,0.0625 1.11564,10e-6 2.18092,-0.29652 3.21875,-0.90625 0.47438,-0.2787 0.90859,-0.62643 1.3125,-1 -0.72664,0.28522 -1.45571,0.43751 -2.21875,0.4375 -1.40107,10e-6 -2.58956,-0.50639 -3.5625,-1.53125 -0.97296,-1.02483 -1.46876,-2.32887 -1.46875,-3.9375 -10e-6,-2.56858 0.78171,-5.03222 2.3125,-7.40625 0.44799,-0.69476 0.9184,-1.28981 1.4375,-1.78125 z m -30.375,0.1875 c -0.77623,0.3143 -1.57455,0.82861 -2.40625,1.53125 -2.15348,1.76431 -4.05825,4.38536 -5.71875,7.875 -1.66052,3.48967 -2.50001,6.67196 -2.5,9.5 -10e-6,1.40106 0.34899,2.5135 1.0625,3.34375 0.71349,0.83026 1.53471,1.25 2.46875,1.25 1.38936,0 2.85961,-0.65966 4.40625,-1.9375 -0.71733,0.30582 -1.41406,0.46875 -2.09375,0.46875 -0.93404,0 -1.75526,-0.41974 -2.46875,-1.25 -0.71351,-0.83025 -1.06251,-1.94269 -1.0625,-3.34375 -10e-6,-2.82804 0.80823,-5.97908 2.46875,-9.46875 1.6605,-3.48964 3.59652,-6.11069 5.75,-7.875 0.0358,-0.0302 0.058,-0.0642 0.0937,-0.0937 z m 64.125,0 c -0.77623,0.3143 -1.57455,0.82861 -2.40625,1.53125 -2.15348,1.76431 -4.05825,4.38536 -5.71875,7.875 -1.66052,3.48967 -2.50001,6.67196 -2.5,9.5 -10e-6,1.40106 0.38024,2.5135 1.09375,3.34375 0.71349,0.83026 1.53471,1.25 2.46875,1.25 1.38985,0 2.85901,-0.65876 4.40625,-1.9375 -0.71733,0.30582 -1.44531,0.46875 -2.125,0.46875 -0.93404,0 -1.75526,-0.41974 -2.46875,-1.25 -0.71351,-0.83025 -1.06251,-1.94269 -1.0625,-3.34375 -10e-6,-2.82804 0.83948,-5.97908 2.5,-9.46875 1.6605,-3.48964 3.56527,-6.11069 5.71875,-7.875 0.0358,-0.0302 0.058,-0.0642 0.0937,-0.0937 z m -199.96875,0.125 c -2.12578,0.8757 -4.12692,2.90293 -6,6.09375 -2.58158,4.39777 -3.87501,8.79743 -3.875,13.15625 -10e-6,1.97186 0.51937,3.48577 1.53125,4.5625 0.25297,0.26918 0.52872,0.51686 0.8125,0.71875 0.0547,0.0268 0.10095,0.068 0.15625,0.0937 0.91713,0.42629 1.94297,0.68787 3.03125,0.8125 1.5176,-0.0577 2.98834,-0.72132 4.40625,-1.9375 -0.76469,0.31317 -1.55211,0.46875 -2.34375,0.46875 -1.50485,0 -2.73814,-0.54826 -3.75,-1.625 -1.01188,-1.07673 -1.53126,-2.59064 -1.53125,-4.5625 -10e-6,-4.35882 1.29342,-8.72723 3.875,-13.125 1.17966,-2.00956 2.40761,-3.56496 3.6875,-4.65625 z m -116.03125,0.21875 c -1.18873,0.5625 -2.3951,1.43239 -3.65625,2.625 -2.38699,2.25727 -4.17091,5.62585 -5.3125,10.0625 3.0875,-0.36322 5.61658,-0.98754 7.5625,-1.84375 1.45749,-0.64777 2.70601,-1.36228 3.75,-2.15625 -0.45808,0.24374 -0.92911,0.46155 -1.4375,0.6875 -1.94592,0.85621 -4.475,1.48053 -7.5625,1.84375 1.14159,-4.43665 2.92551,-7.77398 5.3125,-10.03125 0.45932,-0.43436 0.89404,-0.83673 1.34375,-1.1875 z m 53.5625,0 c -1.18873,0.5625 -2.42635,1.43239 -3.6875,2.625 -2.38699,2.25727 -4.13966,5.62585 -5.28125,10.0625 3.0875,-0.36322 5.61658,-0.98754 7.5625,-1.84375 1.47369,-0.65497 2.73031,-1.38306 3.78125,-2.1875 -0.47586,0.25524 -0.96932,0.48289 -1.5,0.71875 -1.94592,0.85621 -4.44375,1.48053 -7.53125,1.84375 1.14159,-4.43665 2.89426,-7.77398 5.28125,-10.03125 0.45932,-0.43436 0.92529,-0.83673 1.375,-1.1875 z m -158.875,0.125 c -0.62369,0.30709 -1.22377,0.68102 -1.84375,1.125 -2.01078,1.43999 -3.72926,3.47859 -5.15625,6.125 -1.71241,3.21725 -2.59376,6.43903 -2.59375,9.65625 -10e-6,2.12753 0.62431,3.81712 1.84375,5.0625 1.21943,1.24538 2.86185,1.875 4.9375,1.875 1.6086,0 3.19856,-0.41444 4.78125,-1.21875 0.63974,-0.32512 1.33215,-0.77542 2.03125,-1.3125 -1.48965,0.71113 -2.98744,1.0625 -4.5,1.0625 -2.07565,0 -3.71807,-0.62962 -4.9375,-1.875 -1.21944,-1.24538 -1.84376,-2.93497 -1.84375,-5.0625 -10e-6,-3.21722 0.85009,-6.40775 2.5625,-9.625 1.32057,-2.44905 2.89822,-4.39664 4.71875,-5.8125 z m 200.3125,0.28125 -5.40625,18.46875 c -0.57081,1.9978 -0.87501,3.27295 -0.875,3.84375 -10e-6,0.36324 0.0943,0.64916 0.25,0.84375 0.15566,0.19459 0.32898,0.28125 0.5625,0.28125 0.5189,0 1.20629,-0.37258 2.0625,-1.125 0.10121,-0.081 0.25866,-0.22791 0.40625,-0.375 -0.0494,0.006 -0.10955,0.0312 -0.15625,0.0312 -0.23352,0 -0.40684,-0.0867 -0.5625,-0.28125 -0.15568,-0.19459 -0.25001,-0.48051 -0.25,-0.84375 -10e-6,-0.5708 0.27294,-1.84595 0.84375,-3.84375 l 5,-17 -1.875,0 z m 66,0 -5.40625,18.46875 c -0.57081,1.9978 -0.87501,3.27295 -0.875,3.84375 -10e-6,0.36324 0.0943,0.64916 0.25,0.84375 0.15566,0.19459 0.36023,0.28125 0.59375,0.28125 0.5189,0 1.20629,-0.37258 2.0625,-1.125 0.10464,-0.0837 0.25201,-0.22059 0.40625,-0.375 -0.0597,0.009 -0.13172,0.0312 -0.1875,0.0312 -0.23352,0 -0.40684,-0.0867 -0.5625,-0.28125 -0.15568,-0.19459 -0.25001,-0.48051 -0.25,-0.84375 -10e-6,-0.5708 0.30419,-1.84595 0.875,-3.84375 l 5,-17 -1.90625,0 z m -228.6875,0.46875 c -0.71238,0.34996 -1.41325,0.76673 -2.09375,1.28125 -2.1016,1.55675 -3.48169,2.65328 -4.15625,3.25 l -2.6875,2.375 c 0.44106,1.50485 0.98165,3.58294 1.65625,6.28125 1.14158,4.48857 1.9233,7.16975 2.3125,8 0.38916,0.83026 0.77235,1.25 1.1875,1.25 0.36321,0 0.78826,-0.19926 1.28125,-0.5625 0.33717,-0.24671 0.67583,-0.56309 1.03125,-0.90625 -0.41515,0 -0.79834,-0.41974 -1.1875,-1.25 -0.3892,-0.83025 -1.17092,-3.48018 -2.3125,-7.96875 -0.6746,-2.69831 -1.24644,-4.80765 -1.6875,-6.3125 l 2.6875,-2.375 c 0.64694,-0.57229 2.00926,-1.60721 3.96875,-3.0625 z m 39.9375,0.6875 c -0.33624,0.11668 -0.68312,0.30363 -1.0625,0.53125 -1.42702,0.88217 -3.06414,2.51929 -4.90625,4.90625 -0.51892,0.64865 -2.17196,3.24612 -5,7.8125 -0.88215,1.45295 -1.61671,3.04291 -2.1875,4.78125 l -1.53125,4.96875 1.84375,0 2,-6.40625 c 0.57079,-1.73834 1.2741,-3.35955 2.15625,-4.8125 2.82804,-4.56638 4.51233,-7.16385 5.03125,-7.8125 1.32464,-1.71644 2.54625,-3.03043 3.65625,-3.96875 z m 397.53125,0.0937 c -0.27486,0.11554 -0.56366,0.25265 -0.875,0.4375 -1.5308,0.93406 -3.13904,2.48983 -4.8125,4.65625 -1.67349,2.16646 -3.44444,4.90305 -5.3125,8.25 -0.98594,1.79024 -1.78887,3.74218 -2.4375,5.84375 l -1.125,3.71875 1.875,0 1.53125,-5.15625 c 0.64863,-2.10157 1.48281,-4.05351 2.46875,-5.84375 1.86806,-3.34695 3.63901,-6.11479 5.3125,-8.28125 1.16788,-1.51191 2.2766,-2.7133 3.375,-3.625 z m -184.71875,0.8125 c -0.32537,0.0131 -0.62366,0.10872 -0.90625,0.25 -0.54487,0.28542 -1.38436,1.08836 -2.5,2.4375 -1.26521,1.49182 -2.61487,3.31348 -4.03125,5.4375 -0.0432,0.0647 -0.0817,0.12218 -0.125,0.1875 -0.13098,0.22049 -0.24314,0.43087 -0.375,0.65625 l 0.0312,-0.125 c -0.37853,0.57941 -0.73592,1.15773 -1.125,1.78125 -0.85621,1.37512 -1.63262,2.94917 -2.28125,4.6875 -0.85621,2.38699 -1.33903,3.81954 -1.46875,4.3125 l -0.625,2.46875 1.9375,0 1,-3.9375 c 0.12972,-0.49296 0.61254,-1.92551 1.46875,-4.3125 0.64863,-1.73833 1.39379,-3.28113 2.25,-4.65625 2.02373,-3.24316 3.91789,-5.88779 5.65625,-7.9375 0.40569,-0.4906 0.76354,-0.90006 1.09375,-1.25 z m -153.53125,0.0313 c -0.30276,0.0197 -0.60989,0.0862 -0.875,0.21875 -0.54487,0.28542 -1.38436,1.08836 -2.5,2.4375 -1.30377,1.53728 -2.66071,3.4164 -4.125,5.625 -0.0585,0.0985 -0.12882,0.18182 -0.1875,0.28125 -0.0648,0.0985 -0.12241,0.21271 -0.1875,0.3125 l -0.0312,0.0625 c -0.35505,0.54514 -0.72945,1.07244 -1.09375,1.65625 -0.85621,1.37512 -1.60137,2.94917 -2.25,4.6875 -0.85621,2.38699 -1.37028,3.81954 -1.5,4.3125 l -0.625,2.46875 1.9375,0 1,-3.9375 c 0.12972,-0.49296 0.61254,-1.92551 1.46875,-4.3125 0.64863,-1.73833 1.42504,-3.28113 2.28125,-4.65625 2.02373,-3.24316 3.88664,-5.88779 5.625,-7.9375 0.39301,-0.47527 0.74032,-0.87549 1.0625,-1.21875 z m 262.5625,0.375 c 0.38915,1.14162 0.59372,2.19629 0.59375,3.15625 -3e-5,2.77618 -1.16494,5.22154 -3.5,7.375 -0.17516,0.15784 -0.37777,0.29009 -0.5625,0.4375 1.06271,-0.51776 2.03324,-1.11649 2.875,-1.875 2.33506,-2.15346 3.49997,-4.63007 3.5,-7.40625 -2e-5,-0.53458 -0.0668,-1.09658 -0.1875,-1.6875 l -2.71875,0 z m -374.46875,8.28125 -4.28125,3.75 -2.78125,9.65625 1.875,0 3.21875,-11.125 2.0625,-1.8125 c -0.0393,-0.17037 -0.054,-0.29536 -0.0937,-0.46875 z m 73.375,2.78125 c -0.71214,0.10198 -1.4115,0.19135 -2.1875,0.28125 -0.12973,1.03783 -0.18751,1.91918 -0.1875,2.59375 -10e-6,1.86808 0.6585,3.43976 1.96875,4.75 1.31023,1.31025 2.88722,1.96875 4.78125,1.96875 1.50482,0 2.95565,-0.31481 4.34375,-0.9375 0.83878,-0.37628 1.95454,-1.05245 3.28125,-1.96875 -0.35071,0.19617 -0.67705,0.40039 -0.96875,0.53125 -1.3881,0.62269 -2.83893,0.90625 -4.34375,0.90625 -1.89403,0 -3.50227,-0.62725 -4.8125,-1.9375 -1.31025,-1.31024 -1.96876,-2.91317 -1.96875,-4.78125 0,-0.39734 0.0487,-0.88288 0.0937,-1.40625 z m 53.5625,0 c -0.71214,0.10198 -1.4115,0.19135 -2.1875,0.28125 -0.12973,1.03783 -0.21876,1.91918 -0.21875,2.59375 -10e-6,1.86808 0.6585,3.43976 1.96875,4.75 1.31023,1.31025 2.91847,1.96875 4.8125,1.96875 1.50482,0 2.95565,-0.31481 4.34375,-0.9375 0.83878,-0.37628 1.95454,-1.05245 3.28125,-1.96875 -0.35071,0.19617 -0.67705,0.40039 -0.96875,0.53125 -1.3881,0.62269 -2.83893,0.90625 -4.34375,0.90625 -1.89403,0 -3.50227,-0.62725 -4.8125,-1.9375 -1.31025,-1.31024 -1.96876,-2.91317 -1.96875,-4.78125 0,-0.39744 0.0487,-0.88272 0.0937,-1.40625 z m -206.78125,0.9375 c -0.37376,0.51828 -0.77052,1.00216 -1.15625,1.46875 l 0.28125,0 c -1.92889,3.09057 -4.04456,5.47647 -6.34375,7.1875 0.34606,-0.17967 0.70038,-0.39002 1.03125,-0.59375 2.80207,-1.72537 5.34176,-4.40419 7.625,-8.0625 l -1.4375,0 z m 437.90625,1.96875 c -0.83875,0.45288 -1.53592,0.89778 -2.03125,1.3125 0.74517,-0.3888 1.56878,-0.77108 2.5625,-1.1875 -0.18224,-0.0348 -0.35507,-0.0837 -0.53125,-0.125 z m -373.40625,0.0937 c -0.64078,0.69203 -1.27362,1.29239 -1.875,1.84375 l 0.5,0.4375 c -1.48672,1.76989 -2.99519,3.21376 -4.5,4.34375 0.0632,-0.0336 0.12454,-0.0591 0.1875,-0.0937 2.21831,-1.21943 4.41431,-3.1242 6.59375,-5.71875 l -0.90625,-0.8125 z m 105.90625,0.125 c -0.78638,0.60663 -1.48121,1.14159 -2.15625,1.625 l 0.53125,0.71875 c -1.53259,1.51654 -3.04333,2.76497 -4.53125,3.8125 2.22324,-1.22133 4.5176,-2.97947 6.84375,-5.28125 l -0.6875,-0.875 z m 53.5625,0 c -0.79361,0.61221 -1.50729,1.13829 -2.1875,1.625 l 0.53125,0.7188 c -1.54862,1.5324 -3.05949,2.79022 -4.5625,3.84375 2.24237,-1.22251 4.52786,-2.98995 6.875,-5.3125 l -0.65625,-0.875 z m -205.84375,0.21875 c -0.55413,0.83118 -1.09325,1.55766 -1.625,2.1875 l 0.25,0.25 c -1.5758,2.23929 -3.04398,3.93149 -4.4375,5.09375 0.41951,-0.17816 0.84868,-0.41139 1.28125,-0.6875 1.68644,-1.11565 3.49688,-3.07289 5.46875,-5.875 l -0.9375,-0.96875 z m 239.40625,0.125 c -0.66916,0.82895 -1.16779,1.42863 -1.65625,2 l 0.34375,0.28125 c -1.54445,2.23318 -2.99613,3.93273 -4.40625,5.125 0.42637,-0.17982 0.85829,-0.40553 1.28125,-0.6875 1.71239,-1.16754 3.51752,-3.13008 5.4375,-5.90625 l -1,-0.8125 z m 66,0 c -0.66916,0.82895 -1.16779,1.42863 -1.65625,2 l 0.34375,0.28125 c -1.54445,2.23318 -2.99613,3.93273 -4.40625,5.125 0.42637,-0.17982 0.85829,-0.40553 1.28125,-0.6875 1.71239,-1.16754 3.51752,-3.13008 5.4375,-5.90625 l -1,-0.8125 z m -287.15625,0.0312 c -0.51798,0.73839 -1.01796,1.40673 -1.53125,2 l 0.3125,0.21875 c -1.36178,2.05504 -2.93931,3.78566 -4.75,5.25 0.67458,-0.27243 1.36197,-0.6739 2.0625,-1.21875 1.91995,-1.50483 3.57299,-3.34652 5,-5.5 l -1.09375,-0.75 z m 470.75,0 c -0.51278,0.73099 -1.02306,1.37999 -1.53125,1.96875 l 0.34375,0.25 c -1.36178,2.05504 -2.97056,3.78566 -4.78125,5.25 0.67458,-0.27243 1.36197,-0.6739 2.0625,-1.21875 1.91995,-1.50483 3.57299,-3.34652 5,-5.5 l -1.09375,-0.75 z m -411.3125,0.0938 c -0.53736,0.75006 -1.05896,1.39742 -1.5625,1.96875 l 0.34375,0.25 c -2.01676,2.52093 -3.57336,4.2473 -4.75,5.25 0.58382,-0.22626 1.1742,-0.58207 1.8125,-1.0625 1.20644,-0.90809 2.96678,-2.771 5.25,-5.625 l -1.09375,-0.78125 z m 46.3125,0.0312 c -0.51081,0.70377 -1.01548,1.3316 -1.53125,1.90625 l 0.1875,0.125 c -0.7265,1.11566 -1.71042,2.33304 -2.96875,3.65625 -0.62919,0.66161 -1.20839,1.23021 -1.75,1.6875 0.26351,-0.1087 0.52871,-0.2169 0.8125,-0.375 0.90807,-0.50594 1.99162,-1.42678 3.25,-2.75 1.25833,-1.32321 2.24225,-2.54059 2.96875,-3.65625 l -0.96875,-0.59375 z m 397.78125,0 c -0.5293,0.7161 -1.03517,1.33545 -1.53125,1.90625 l 0.1875,0.125 c -1.60921,2.29578 -3.12652,4.03656 -4.59375,5.25 0.444,-0.19267 0.88994,-0.43007 1.375,-0.75 1.73832,-1.19349 3.58531,-3.16133 5.53125,-5.9375 l -0.96875,-0.59375 z m -125.40625,0.18755 c -2.27802,2.96571 -4.38616,5.168 -6.34375,6.65625 0.36978,-0.17648 0.72003,-0.39727 1.09375,-0.625 1.47007,-0.9188 3.05505,-2.28219 4.71875,-4.09375 l 0.53125,-1.9375 z m 64.15625,0 c -2.26927,2.95432 -4.39246,5.13682 -6.34375,6.625 0.35844,-0.17255 0.73161,-0.37307 1.09375,-0.59375 1.4695,-0.91844 3.02453,-2.28324 4.6875,-4.09375 l 0.5625,-1.9375 z m -52.90625,0.15625 c -0.56565,0.77909 -1.06219,1.44041 -1.53125,2 l 0.28125,0.1875 c -1.2937,1.97579 -2.62106,3.51282 -4,4.625 0.60493,-0.27536 1.2284,-0.61703 1.875,-1.09375 1.53075,-1.12862 3.01047,-2.78933 4.4375,-4.96875 l -1.0625,-0.75 z m 64.15625,0 c -0.56391,0.7767 -1.06333,1.44146 -1.53125,2 l 0.28125,0.1875 c -1.29739,1.98143 -2.64813,3.51212 -4.03125,4.625 0.61036,-0.27605 1.22216,-0.61242 1.875,-1.09375 1.53075,-1.12862 3.01047,-2.78933 4.4375,-4.96875 l -1.03125,-0.75 z m -51,0.0937 c -0.88321,0.41783 -1.6171,0.88608 -2.1875,1.375 -0.41514,0.31135 -0.62501,0.63677 -0.625,1 -10e-6,0.41513 0.18628,0.80599 0.5625,1.15625 0.3762,0.35027 1.3389,0.69396 2.84375,1.03125 l 6.09375,1.4375 c 3.34694,0.77836 5.56652,1.72279 6.65625,2.8125 1.06374,1.11565 1.59372,2.3855 1.59375,3.8125 -3e-5,1.71239 -0.61667,3.26049 -1.875,4.6875 -0.31459,0.35675 -0.67413,0.71342 -1.0625,1.03125 1.38837,-0.67974 2.5251,-1.50498 3.375,-2.46875 1.25833,-1.42701 1.87497,-3.00636 1.875,-4.71875 -3e-5,-1.427 -0.53001,-2.69685 -1.59375,-3.8125 -1.08973,-1.08971 -3.30931,-2.03414 -6.65625,-2.8125 l -6.125,-1.4375 c -1.50485,-0.33729 -2.4363,-0.68098 -2.8125,-1.03125 -0.37622,-0.35026 -0.56251,-0.70987 -0.5625,-1.125 -10e-6,-0.32565 0.16631,-0.65355 0.5,-0.9375 z m -5.78125,7.125 c -1.13955,0.66504 -2.02152,1.21167 -2.375,1.46875 -0.0769,0.0543 -0.14403,0.13057 -0.21875,0.1875 0.74528,-0.43756 1.56841,-0.93093 2.6875,-1.5625 -0.0369,-0.0289 -0.0583,-0.0646 -0.0937,-0.0937 z m 1.28125,1 c -1.58994,0.76403 -2.82102,1.71564 -3.65625,2.875 -0.86917,1.20646 -1.3125,2.39495 -1.3125,3.5625 0,1.3751 0.62962,2.5294 1.875,3.4375 1.81617,1.29726 4.4555,1.93749 7.90625,1.9375 2.98371,-10e-6 5.52871,-0.51939 7.65625,-1.53125 0.83445,-0.39688 1.52408,-0.82382 2.03125,-1.3125 -2.07048,0.92555 -4.52138,1.37499 -7.375,1.375 -3.45075,-10e-6 -6.09008,-0.64024 -7.90625,-1.9375 -1.24538,-0.9081 -1.875,-2.0624 -1.875,-3.4375 0,-1.16755 0.44333,-2.35604 1.3125,-3.5625 0.37305,-0.51782 0.82014,-0.96729 1.34375,-1.40625 z m -83.5625,6.625 c -0.80431,-10e-6 -1.54417,0.32541 -2.21875,1 -0.14709,0.14708 -0.25999,0.3155 -0.375,0.46875 0.0935,-0.009 0.18595,-0.0312 0.28125,-0.0312 0.41513,-10e-6 0.7718,0.0996 1.03125,0.28125 0.18162,0.10377 0.36791,0.41328 0.5625,0.90625 0.19459,0.49295 0.38088,0.81837 0.5625,1 0.10378,0.10377 0.21402,0.15624 0.34375,0.15625 0.12973,-10e-6 0.3449,-0.10495 0.65625,-0.3125 0.4878,-0.31042 1.0349,-0.69898 1.59375,-1.15625 -0.10517,-0.0141 -0.1943,-0.0693 -0.28125,-0.15625 -0.18162,-0.18163 -0.39916,-0.50705 -0.59375,-1 -0.19459,-0.49297 -0.38088,-0.80248 -0.5625,-0.90625 -0.25945,-0.18163 -0.58487,-0.25001 -1,-0.25 z"
         style="font-size:79.70437622px;font-style:oblique;font-variant:normal;font-weight:bold;font-stretch:normal;line-height:125%;letter-spacing:0px;word-spacing:0px;fill:#000000;fill-opacity:1;stroke:none;font-family:Dragon is Coming;-inkscape-font-specification:Dragon is Coming Bold Oblique"
         inkscape:connector-curvature="0" />
    </g>
  </g>
</svg>
