<?xml version="1.0" encoding="UTF-8" standalone="no"?>
<!-- Created with Inkscape (http://www.inkscape.org/) -->

<svg
   xmlns:dc="http://purl.org/dc/elements/1.1/"
   xmlns:cc="http://creativecommons.org/ns#"
   xmlns:rdf="http://www.w3.org/1999/02/22-rdf-syntax-ns#"
   xmlns:svg="http://www.w3.org/2000/svg"
   xmlns="http://www.w3.org/2000/svg"
   xmlns:xlink="http://www.w3.org/1999/xlink"
   xmlns:sodipodi="http://sodipodi.sourceforge.net/DTD/sodipodi-0.dtd"
   xmlns:inkscape="http://www.inkscape.org/namespaces/inkscape"
   width="800"
   height="600"
   id="svg2"
   version="1.1"
   inkscape:version="0.48.4 r9939"
   sodipodi:docname="Neues Dokument 1">
  <defs
     id="defs4">
    <linearGradient
       id="linearGradient3805"
       inkscape:collect="always">
      <stop
         id="stop3807"
         offset="0"
         style="stop-color:#919191;stop-opacity:1" />
      <stop
         id="stop3809"
         offset="1"
         style="stop-color:#404040;stop-opacity:1" />
    </linearGradient>
    <linearGradient
       inkscape:collect="always"
       id="linearGradient3761">
      <stop
         style="stop-color:#a2a2a2;stop-opacity:1"
         offset="0"
         id="stop3763" />
      <stop
         style="stop-color:#5f5f5f;stop-opacity:1"
         offset="1"
         id="stop3765" />
    </linearGradient>
    <linearGradient
       inkscape:collect="always"
       xlink:href="#linearGradient3761"
       id="linearGradient3767"
       x1="454.28571"
       y1="189.28572"
       x2="454.28571"
       y2="312.21759"
       gradientUnits="userSpaceOnUse" />
    <linearGradient
       inkscape:collect="always"
       xlink:href="#linearGradient3761"
       id="linearGradient3774"
       gradientUnits="userSpaceOnUse"
       x1="454.28571"
       y1="189.28572"
       x2="454.28571"
       y2="312.21759" />
    <linearGradient
       inkscape:collect="always"
       xlink:href="#linearGradient3761"
       id="linearGradient3779"
       gradientUnits="userSpaceOnUse"
       x1="454.28571"
       y1="189.28572"
       x2="454.28571"
       y2="312.21759"
       gradientTransform="translate(-2.1428452,428.36218)" />
    <linearGradient
       inkscape:collect="always"
       xlink:href="#linearGradient3761"
       id="linearGradient3800"
       gradientUnits="userSpaceOnUse"
       gradientTransform="translate(-9.213913,435.43325)"
       x1="454.28571"
       y1="189.28572"
       x2="454.28571"
       y2="312.21759" />
    <linearGradient
       inkscape:collect="always"
       xlink:href="#linearGradient3805"
       id="linearGradient3802"
       gradientUnits="userSpaceOnUse"
       gradientTransform="translate(-2.1428452,-24)"
       x1="454.28571"
       y1="189.28572"
       x2="454.28571"
       y2="312.21759" />
  </defs>
  <sodipodi:namedview
     id="base"
     pagecolor="#ffffff"
     bordercolor="#666666"
     borderopacity="1.0"
     inkscape:pageopacity="0.0"
     inkscape:pageshadow="2"
     inkscape:zoom="0.7"
     inkscape:cx="401.34042"
     inkscape:cy="307.17496"
     inkscape:document-units="px"
     inkscape:current-layer="layer1"
     showgrid="false"
     inkscape:window-width="1366"
     inkscape:window-height="705"
     inkscape:window-x="-8"
     inkscape:window-y="-8"
     inkscape:window-maximized="1" />
  <metadata
     id="metadata7">
    <rdf:RDF>
      <cc:Work
         rdf:about="">
        <dc:format>image/svg+xml</dc:format>
        <dc:type
           rdf:resource="http://purl.org/dc/dcmitype/StillImage" />
        <dc:title></dc:title>
      </cc:Work>
    </rdf:RDF>
  </metadata>
  <g
     inkscape:label="Ebene 1"
     inkscape:groupmode="layer"
     id="layer1"
     transform="translate(0,-452.36218)">
    <g
       id="g3821">
      <rect
         ry="57.857143"
         y="621.2193"
         x="83.571442"
         height="115.71429"
         width="632.85712"
         id="rect2989"
         style="fill:url(#linearGradient3779);fill-opacity:1;stroke:none" />
      <text
         sodipodi:linespacing="125%"
         id="text2985"
         y="694.42969"
         x="105.70094"
         style="font-size:79.70437622px;font-style:oblique;font-variant:normal;font-weight:bold;font-stretch:normal;line-height:125%;letter-spacing:0px;word-spacing:0px;fill:#ffffff;fill-opacity:1;stroke:none;font-family:Dragon is Coming;-inkscape-font-specification:Dragon is Coming Bold Oblique"
         xml:space="preserve"><tspan
           style="font-style:normal;font-variant:normal;font-weight:normal;font-stretch:normal;fill:#ffffff;fill-opacity:1;font-family:Vijaya;-inkscape-font-specification:Vijaya"
           y="694.42969"
           x="105.70094"
           id="tspan2987"
           sodipodi:role="line">Click to start the game</tspan></text>
      <path
         id="rect3783"
         transform="translate(0,452.36218)"
         d="M 141.4375 168.84375 C 123.64807 168.84375 107.78428 176.82128 97.1875 189.375 C 107.22671 180.97405 120.16969 175.9375 134.34375 175.9375 L 651.5 175.9375 C 683.55286 175.9375 709.34375 201.72839 709.34375 233.78125 C 709.34375 247.99685 704.28902 260.97976 695.84375 271.03125 C 708.4384 260.43441 716.4375 244.54162 716.4375 226.71875 C 716.4375 194.66589 690.61536 168.84375 658.5625 168.84375 L 141.4375 168.84375 z "
         style="fill:url(#linearGradient3802);fill-opacity:1;stroke:none" />
      <path
         id="text3811"
         transform="translate(0,452.36218)"
         d="M 167.59375 197.5 L 156.875 199.28125 L 156.875 200.375 L 165.4375 198.9375 L 154.75 236.21875 C 154.23108 238.08683 153.96874 239.24113 153.96875 239.65625 C 153.96874 239.9676 154.0554 240.19869 154.25 240.40625 C 154.44458 240.61382 154.68334 240.71875 154.96875 240.71875 C 155.38387 240.71875 155.80892 240.55074 156.25 240.1875 C 156.57101 239.93528 156.91998 239.64578 157.25 239.3125 C 157.20864 239.31606 157.1661 239.3125 157.125 239.3125 C 156.83959 239.3125 156.60083 239.20757 156.40625 239 C 156.21165 238.79244 156.09374 238.5301 156.09375 238.21875 C 156.09374 237.80363 156.35608 236.64933 156.875 234.78125 L 167.59375 197.5 z M 231.1875 197.5 L 220.3125 199.375 L 220.3125 200.4375 L 221.65625 200.21875 L 229.03125 198.9375 L 220.125 229.75 L 222.40625 227.8125 L 231.1875 197.5 z M 494.09375 197.5 L 483.25 199.34375 L 483.25 200.375 L 491.96875 198.9375 L 483.15625 229.375 C 484.23052 227.74887 485.21552 226.31625 486.15625 225 L 494.09375 197.5 z M 137.09375 198.59375 C 132.683 198.59379 128.33287 199.85834 124 202.375 C 123.06089 202.92048 122.16507 203.52302 121.3125 204.15625 C 121.49547 204.04454 121.65737 203.92076 121.84375 203.8125 C 126.17662 201.29584 130.558 200.03129 134.96875 200.03125 C 137.01841 200.03129 139.33762 200.51412 141.90625 201.5 C 143.04781 201.91517 143.85075 202.12504 144.34375 202.125 C 144.83667 202.12504 145.28 202.0201 145.65625 201.8125 C 145.9333 201.65966 146.38598 201.23134 146.9375 200.65625 C 146.79271 200.67719 146.65656 200.68751 146.5 200.6875 C 146.007 200.68754 145.17281 200.47767 144.03125 200.0625 C 141.46262 199.07662 139.14341 198.59379 137.09375 198.59375 z M 149.6875 198.59375 C 149.09632 199.25448 148.61394 199.7201 148.25 200.03125 L 148.71875 200.03125 L 146.46875 209.84375 L 146.5625 212.375 L 147.6875 212.375 L 150.84375 198.59375 L 149.6875 198.59375 z M 180.78125 201.28125 C 179.89909 201.28129 179.14095 201.57782 178.53125 202.1875 C 178.34896 202.36979 178.19029 202.57693 178.0625 202.78125 C 178.24738 202.75031 178.4263 202.71876 178.625 202.71875 C 179.50713 202.71879 180.24699 203.01532 180.84375 203.625 C 181.44048 204.23476 181.74998 204.95634 181.75 205.8125 C 181.74999 206.43982 181.57727 207.02931 181.25 207.53125 C 181.90873 207.43665 182.47296 207.13135 182.96875 206.625 C 183.57845 206.00235 183.87498 205.26249 183.875 204.40625 C 183.87498 203.55009 183.59673 202.79726 183 202.1875 C 182.40324 201.57782 181.66338 201.28129 180.78125 201.28125 z M 127.09375 204.125 C 126.5141 204.44584 125.95064 204.78929 125.40625 205.1875 C 121.82576 207.80802 119.02373 211.50202 117 216.25 C 115.33948 220.19373 114.49999 224.16598 114.5 228.1875 C 114.49999 232.31284 115.69379 235.61066 118.09375 238.0625 C 120.49369 240.51435 123.62881 241.75 127.46875 241.75 C 130.37461 241.75 132.9485 241.10977 135.21875 239.8125 C 135.8627 239.44453 136.47589 238.9807 137.09375 238.5 C 134.88869 239.69735 132.38545 240.3125 129.59375 240.3125 C 125.75381 240.3125 122.64994 239.07685 120.25 236.625 C 117.85004 234.17316 116.62499 230.90659 116.625 226.78125 C 116.62499 222.75973 117.46448 218.75623 119.125 214.8125 C 121.06441 210.26235 123.72461 206.72129 127.09375 204.125 z M 272.625 205.9375 C 272.30394 206.45648 271.99775 206.90821 271.6875 207.375 L 271.84375 207.375 L 269.375 215.90625 L 274.34375 215.90625 L 274.1875 216.46875 L 275.9375 216.46875 L 276.46875 214.46875 L 271.53125 214.46875 L 273.96875 205.9375 L 272.625 205.9375 z M 363.6875 205.9375 C 363.36644 206.45648 363.06025 206.90821 362.75 207.375 L 362.90625 207.375 L 360.46875 215.90625 L 365.40625 215.90625 L 365.25 216.46875 L 367 216.46875 L 367.53125 214.46875 L 362.59375 214.46875 L 365.0625 205.9375 L 363.6875 205.9375 z M 438.71875 205.9375 C 438.39769 206.45648 438.0915 206.90821 437.78125 207.375 L 437.9375 207.375 L 435.5 215.90625 L 440.4375 215.90625 L 440.28125 216.46875 L 442.03125 216.46875 L 442.5625 214.46875 L 437.625 214.46875 L 440.09375 205.9375 L 438.71875 205.9375 z M 472.65625 205.9375 C 472.33519 206.45648 472.029 206.90821 471.71875 207.375 L 471.875 207.375 L 469.4375 215.90625 L 474.375 215.90625 L 474.21875 216.46875 L 475.96875 216.46875 L 476.5 214.46875 L 471.5625 214.46875 L 474.03125 205.9375 L 472.65625 205.9375 z M 181.15625 213.6875 L 170.34375 215.5 L 170.34375 216.5625 L 179.03125 215.125 L 172.84375 237.125 C 172.42861 238.60389 172.21874 239.4646 172.21875 239.75 C 172.21874 240.08729 172.3054 240.35494 172.5 240.5625 C 172.69458 240.77007 172.92804 240.875 173.1875 240.875 C 173.52478 240.875 173.89736 240.71229 174.3125 240.375 C 174.64688 240.11331 174.97608 239.79358 175.3125 239.46875 C 175.05304 239.46875 174.85083 239.36382 174.65625 239.15625 C 174.46165 238.94869 174.34374 238.68104 174.34375 238.34375 C 174.34374 238.05835 174.55361 237.16639 174.96875 235.6875 L 181.15625 213.6875 z M 204.8125 213.6875 C 201.90659 213.68753 198.94716 214.66084 195.9375 216.59375 C 195.44662 216.90902 194.98969 217.24742 194.53125 217.59375 C 197.29319 215.95694 200.01341 215.12503 202.6875 215.125 C 203.18022 215.12501 203.62355 215.17404 204.0625 215.21875 C 204.42064 215.17449 204.76566 215.125 205.125 215.125 C 206.21469 215.12503 207.09604 215.3349 207.71875 215.75 C 208.10791 216.03543 208.28123 216.4027 208.28125 216.84375 C 208.28124 216.90788 208.25783 216.96908 208.25 217.03125 C 209.0609 217.8986 209.49998 218.89692 209.5 220.0625 C 209.49998 221.1897 209.16971 222.16665 208.5625 223 C 209.29373 222.92741 209.93096 222.58217 210.4375 221.9375 C 211.24178 221.02943 211.62497 219.92229 211.625 218.625 C 211.62497 217.24992 211.0661 216.08501 209.9375 215.125 C 208.80885 214.16505 207.09568 213.68753 204.8125 213.6875 z M 295.375 213.6875 C 292.62477 213.68753 289.77027 214.60307 286.8125 216.40625 C 286.18738 216.78736 285.60306 217.18653 285.03125 217.625 C 287.863 215.9629 290.60954 215.12503 293.25 215.125 C 296.02614 215.12503 298.28521 216.04587 300.0625 217.875 C 301.83973 219.70418 302.74997 222.05758 302.75 224.9375 C 302.74997 228.07691 301.91048 231.17548 300.25 234.25 C 298.92676 236.70002 297.17824 238.74053 295.03125 240.375 C 295.17875 240.28996 295.32086 240.21451 295.46875 240.125 C 298.42651 238.33477 300.74572 235.88704 302.40625 232.8125 C 304.06673 229.73798 304.87497 226.63941 304.875 223.5 C 304.87497 220.62008 303.99598 218.26668 302.21875 216.4375 C 300.44146 214.60837 298.15114 213.68753 295.375 213.6875 z M 337.15625 213.6875 C 334.84709 213.68753 332.94763 214.41147 331.46875 215.8125 C 332.51298 215.35991 333.68756 215.12502 335 215.125 C 335.67457 215.12503 336.29888 215.1775 336.84375 215.28125 C 336.88301 215.29196 337.07076 215.35815 337.125 215.375 C 337.30993 215.35816 337.4904 215.34375 337.6875 215.34375 C 338.99449 215.34377 340.1293 215.75449 341.09375 216.59375 C 341.93063 216.5718 342.64984 216.1092 343.25 215.1875 C 343.22859 215.18809 343.20907 215.1875 343.1875 215.1875 C 342.82424 215.18753 342.10797 214.96468 341.03125 214.5625 C 339.9545 214.16037 339.25413 213.92161 338.96875 213.84375 C 338.42388 213.74 337.83082 213.68753 337.15625 213.6875 z M 345.4375 213.6875 C 344.91604 214.51315 344.29713 214.99078 343.59375 215.125 L 344.46875 215.125 L 343.3125 221 C 343.43613 221.71293 343.49955 222.48807 343.53125 223.34375 L 344.6875 223.34375 L 346.59375 213.6875 L 345.4375 213.6875 z M 385.1875 213.6875 C 383.05996 213.68753 380.79322 214.57949 378.40625 216.34375 C 378.29121 216.42592 378.17601 216.50951 378.0625 216.59375 C 379.79024 215.61586 381.4473 215.12502 383.03125 215.125 C 383.65698 215.12501 384.2299 215.21805 384.75 215.375 C 384.76903 215.38074 384.79361 215.36905 384.8125 215.375 C 384.95948 215.35977 385.10519 215.34375 385.25 215.34375 C 386.44347 215.34378 387.37492 215.72697 388.0625 216.53125 C 388.33316 216.84789 388.55464 217.25335 388.71875 217.71875 L 389.28125 215.90625 L 389.375 215.875 C 389.08166 215.40686 388.74632 215.01583 388.375 214.71875 C 387.53175 214.0442 386.48475 213.68753 385.1875 213.6875 z M 396.40625 213.6875 L 391.4375 214.46875 L 391.0625 215.625 L 394.28125 215.125 L 388.15625 236.375 L 387.46875 239.25 C 387.41684 239.50946 387.37498 239.72464 387.375 239.90625 C 387.37498 240.24354 387.47991 240.55305 387.6875 240.8125 C 387.84315 240.99412 388.05302 241.09375 388.3125 241.09375 C 388.57193 241.09375 388.9339 240.89979 389.375 240.5625 C 389.66858 240.34468 390.00537 240.01567 390.375 239.625 C 390.16435 239.60313 389.97761 239.53119 389.84375 239.375 C 389.63616 239.11555 389.53123 238.83729 389.53125 238.5 C 389.53123 238.31839 389.54184 238.07196 389.59375 237.8125 L 390.3125 234.9375 L 396.40625 213.6875 z M 412.53125 213.6875 L 401.71875 215.5 L 401.90625 216.53125 L 410.375 215.125 L 405.875 230.375 C 407.0001 228.45195 408.09495 226.72346 409.15625 225.15625 L 412.53125 213.6875 z M 422.09375 213.6875 C 421.10675 213.68753 419.8355 214.33409 418.3125 215.5625 C 418.92062 215.27089 419.48787 215.12501 419.96875 215.125 C 420.66925 215.12503 421.20454 215.3349 421.59375 215.75 C 421.98291 216.16515 422.18747 216.75291 422.1875 217.53125 C 422.18747 218.89263 421.84281 220.20331 421.15625 221.4375 C 422.0846 221.41714 422.79926 220.94447 423.28125 220.03125 C 423.98175 218.78589 424.31247 217.46888 424.3125 216.09375 C 424.31247 215.31541 424.13916 214.72765 423.75 214.3125 C 423.36079 213.8974 422.79425 213.68753 422.09375 213.6875 z M 500.28125 213.6875 C 498.50092 213.68753 496.65107 214.48801 494.71875 216.0625 C 495.8932 215.44508 497.04139 215.12502 498.15625 215.125 C 499.1681 215.12503 499.99461 215.487 500.65625 216.1875 C 501.31783 216.88805 501.65622 217.79593 501.65625 218.9375 C 501.65622 220.31263 501.35202 221.99692 500.78125 223.96875 L 496.96875 237.0625 C 496.47576 238.64518 496.24998 239.53714 496.25 239.71875 C 496.24998 240.00415 496.31836 240.22464 496.5 240.40625 C 496.68159 240.58787 496.89147 240.6875 497.125 240.6875 C 497.38443 240.6875 497.69924 240.57196 498.0625 240.3125 C 498.45677 240.00394 498.85856 239.63219 499.25 239.25 C 499.02893 239.24236 498.82985 239.17363 498.65625 239 C 498.47461 238.81839 498.37498 238.56665 498.375 238.28125 C 498.37498 238.09964 498.63201 237.23893 499.125 235.65625 L 502.9375 222.53125 C 503.50827 220.55942 503.78122 218.87513 503.78125 217.5 C 503.78122 216.35843 503.47408 215.45055 502.8125 214.75 C 502.15086 214.0495 501.2931 213.68753 500.28125 213.6875 z M 528.4375 213.6875 C 525.34998 213.68753 522.36165 214.5901 519.46875 216.40625 C 518.93244 216.74295 518.40912 217.11382 517.90625 217.5 C 520.61456 215.9227 523.40391 215.12503 526.28125 215.125 C 528.48659 215.12503 530.12371 215.59194 531.1875 216.5 C 532.25124 217.40812 532.78122 218.46809 532.78125 219.6875 C 532.78122 221.42587 532.09383 223.0736 530.71875 224.65625 C 530.14924 225.30712 529.48788 225.92822 528.75 226.5 C 530.42405 225.55348 531.8004 224.44686 532.875 223.21875 C 534.25008 221.6361 534.93747 219.98837 534.9375 218.25 C 534.93747 217.03059 534.40749 215.97062 533.34375 215.0625 C 532.27996 214.15444 530.64284 213.68753 528.4375 213.6875 z M 570.0625 213.6875 C 565.98193 213.68753 562.69503 214.76123 560.15625 216.84375 C 562.33032 215.70553 564.92075 215.12502 567.9375 215.125 C 568.4564 215.12501 568.91807 215.15146 569.375 215.1875 C 569.95435 215.18751 570.474 215.26395 570.96875 215.40625 C 571.11485 215.43746 571.23809 215.46344 571.375 215.5 C 571.38725 215.5047 571.39406 215.52645 571.40625 215.53125 C 571.52265 215.56295 571.64033 215.5894 571.75 215.625 C 572.74888 215.94935 573.72749 216.41389 574.6875 217.0625 L 583.15625 217.0625 L 582.65625 218.90625 L 584.40625 218.90625 L 585.28125 215.65625 L 576.84375 215.65625 C 575.88374 215.00764 574.90513 214.51185 573.90625 214.1875 C 572.90733 213.86321 571.61921 213.68753 570.0625 213.6875 z M 602.8125 213.6875 C 600.68496 213.68753 598.41822 214.57949 596.03125 216.34375 C 595.91621 216.42592 595.80101 216.50951 595.6875 216.59375 C 597.41568 215.61539 599.07193 215.12502 600.65625 215.125 C 601.28198 215.12501 601.8549 215.21805 602.375 215.375 C 602.39403 215.38074 602.41861 215.36905 602.4375 215.375 C 602.58448 215.35977 602.73019 215.34375 602.875 215.34375 C 604.06847 215.34378 604.99992 215.72697 605.6875 216.53125 C 605.9636 216.85426 606.17852 217.27219 606.34375 217.75 L 606.9375 215.90625 L 607 215.90625 C 606.70333 215.42814 606.37709 215.02044 606 214.71875 C 605.15675 214.0442 604.10975 213.68753 602.8125 213.6875 z M 614.0625 213.6875 L 609.0625 214.46875 L 608.6875 215.625 L 611.90625 215.125 L 605.78125 236.375 L 605.09375 239.25 C 605.04184 239.50946 605.03123 239.72464 605.03125 239.90625 C 605.03123 240.24354 605.13616 240.55305 605.34375 240.8125 C 605.4994 240.99412 605.67802 241.09375 605.9375 241.09375 C 606.19693 241.09375 606.5589 240.89979 607 240.5625 C 607.29179 240.346 607.63307 240.01225 608 239.625 C 607.78935 239.60313 607.60261 239.53119 607.46875 239.375 C 607.26116 239.11555 607.15623 238.83729 607.15625 238.5 C 607.15623 238.31839 607.19809 238.07196 607.25 237.8125 L 607.9375 234.9375 L 614.0625 213.6875 z M 629.875 213.6875 L 619.09375 215.6875 L 619.34375 216.6875 L 627.75 215.125 L 623.6875 229.28125 C 624.94468 226.9824 626.06638 225.10939 627.0625 223.59375 L 629.875 213.6875 z M 639.75 213.6875 C 638.55649 213.68753 637.39688 214.0442 636.28125 214.71875 C 635.77519 215.03071 635.26161 215.39868 634.75 215.8125 C 635.67228 215.3631 636.61959 215.12502 637.59375 215.125 C 638.63154 215.12503 639.48695 215.45045 640.1875 216.125 C 640.888 216.79961 641.24997 217.68096 641.25 218.71875 C 641.24997 219.75659 640.99294 221.08421 640.5 222.71875 L 638.28125 230.6875 C 639.41746 228.55383 640.52647 226.64494 641.625 224.9375 L 642.65625 221.28125 C 643.14919 219.64671 643.40622 218.31909 643.40625 217.28125 C 643.40622 216.24346 643.04425 215.39336 642.34375 214.71875 C 641.6432 214.0442 640.78779 213.68753 639.75 213.6875 z M 655.09375 213.6875 C 653.45915 213.68753 651.81142 214.41678 650.125 215.84375 C 651.08203 215.37195 652.02886 215.12502 652.96875 215.125 C 653.92869 215.12503 654.72102 215.46342 655.34375 216.125 C 655.9664 216.78664 656.28121 217.81242 656.28125 219.1875 C 656.28121 220.40696 656.07664 221.68211 655.6875 223.03125 L 652.25 235.21875 C 651.49754 237.89114 651.12496 239.37085 651.125 239.65625 C 651.12496 239.94165 651.22459 240.16744 651.40625 240.375 C 651.53594 240.53068 651.69865 240.625 651.90625 240.625 C 652.11378 240.625 652.48105 240.42043 653 240.03125 C 653.34099 239.76438 653.67172 239.46971 654 239.15625 C 653.82491 239.14009 653.67693 239.10611 653.5625 238.96875 C 653.38084 238.76119 653.28121 238.50415 653.28125 238.21875 C 653.28121 237.93335 653.65379 236.45364 654.40625 233.78125 L 657.84375 221.59375 C 658.23289 220.24461 658.40621 218.96946 658.40625 217.75 C 658.40621 216.37492 658.0914 215.34914 657.46875 214.6875 C 656.84602 214.02592 656.05369 213.68753 655.09375 213.6875 z M 683.46875 213.6875 C 680.38123 213.68753 677.3929 214.5901 674.5 216.40625 C 673.94782 216.75291 673.42298 217.13213 672.90625 217.53125 C 675.63341 215.93043 678.44504 215.12503 681.34375 215.125 C 683.54909 215.12503 685.18621 215.59194 686.25 216.5 C 687.31374 217.40812 687.84372 218.46809 687.84375 219.6875 C 687.84372 221.42587 687.15633 223.0736 685.78125 224.65625 C 685.2299 225.28636 684.58415 225.88152 683.875 226.4375 C 685.50815 225.50309 686.85108 224.42466 687.90625 223.21875 C 689.28133 221.6361 689.96872 219.98837 689.96875 218.25 C 689.96872 217.03059 689.43874 215.97062 688.375 215.0625 C 687.31121 214.15444 685.67409 213.68753 683.46875 213.6875 z M 265.53125 213.71875 C 264.41851 214.32887 263.15619 214.83957 261.75 215.21875 L 261.5625 216 C 263.02062 215.43224 264.30797 214.71928 265.375 213.84375 C 265.42254 213.80474 265.48334 213.75954 265.53125 213.71875 z M 356.59375 213.71875 C 355.48101 214.32887 354.24994 214.83957 352.84375 215.21875 L 352.65625 216 C 354.10288 215.43387 355.3771 214.71384 356.4375 213.84375 C 356.48504 213.80474 356.54584 213.75954 356.59375 213.71875 z M 431.59375 213.71875 C 430.48947 214.32025 429.26673 214.84347 427.875 215.21875 L 427.6875 216 C 429.13413 215.43387 430.40835 214.71384 431.46875 213.84375 C 431.51088 213.80918 431.55133 213.75472 431.59375 213.71875 z M 465.53125 213.71875 C 464.42697 214.32025 463.20423 214.84347 461.8125 215.21875 L 461.625 216 C 463.07163 215.43387 464.34585 214.71384 465.40625 213.84375 C 465.44838 213.80918 465.48883 213.75472 465.53125 213.71875 z M 230.40625 214.46875 L 230.09375 215.65625 L 231.1875 215.65625 C 232.09557 215.65628 232.73049 215.70874 233.09375 215.8125 C 233.19811 215.84233 233.25866 215.87107 233.34375 215.90625 L 241.59375 215.90625 C 242.26833 215.77977 243.00287 215.70815 243.78125 215.65625 L 244.09375 214.46875 L 230.40625 214.46875 z M 334.125 216.96875 C 333.5034 217.13876 332.94814 217.40234 332.5 217.8125 C 331.7346 218.51305 331.34374 219.36315 331.34375 220.375 C 331.34374 221.0496 331.48287 221.70811 331.78125 222.34375 C 332.07961 222.97943 332.77467 223.85312 333.8125 224.96875 C 336.51081 227.95249 338.2399 230.19565 339.03125 231.6875 C 339.82257 233.17937 340.21873 234.58835 340.21875 235.9375 C 340.21873 238.11692 339.30319 240.04527 337.5 241.71875 C 337.45038 241.7648 337.39408 241.79897 337.34375 241.84375 C 338.18676 241.44625 338.95603 240.93109 339.65625 240.28125 C 341.45944 238.60777 342.37498 236.71067 342.375 234.53125 C 342.37498 233.1821 341.97882 231.74187 341.1875 230.25 C 340.39615 228.75815 338.63581 226.51499 335.9375 223.53125 C 334.89967 222.41562 334.23586 221.54193 333.9375 220.90625 C 333.63912 220.27061 333.49999 219.6121 333.5 218.9375 C 333.49999 218.18832 333.70541 217.54727 334.125 216.96875 z M 564.90625 217.03125 C 563.55963 217.57111 562.40174 218.61241 561.40625 220.15625 C 559.87546 222.53028 559.09374 225.02517 559.09375 227.59375 C 559.09374 229.20238 559.58954 230.50642 560.5625 231.53125 C 561.17059 232.17178 561.84968 232.60355 562.625 232.84375 C 562.74898 232.8738 562.87298 232.91069 563 232.9375 C 563.03261 232.94467 563.06086 232.96224 563.09375 232.96875 C 563.14643 232.97946 563.1968 232.98984 563.25 233 C 563.52748 233.04595 563.82833 233.0625 564.125 233.0625 C 565.24064 233.06251 566.30592 232.76598 567.34375 232.15625 C 567.83072 231.87016 568.27479 231.51107 568.6875 231.125 C 567.89454 231.46797 567.08673 231.62501 566.25 231.625 C 564.84893 231.62501 563.66044 231.11861 562.6875 230.09375 C 561.71454 229.06892 561.24999 227.76488 561.25 226.15625 C 561.24999 223.58767 562.00046 221.12403 563.53125 218.75 C 563.9594 218.08601 564.41315 217.50953 564.90625 217.03125 z M 380.90625 217.34375 C 380.24787 217.65988 379.57238 218.06709 378.875 218.65625 C 376.72152 220.42056 374.81675 223.07286 373.15625 226.5625 C 371.49573 230.05217 370.65624 233.20321 370.65625 236.03125 C 370.65624 237.43231 371.00524 238.54475 371.71875 239.375 C 372.43224 240.20526 373.25346 240.625 374.1875 240.625 C 375.59828 240.625 377.08331 239.94254 378.65625 238.625 C 377.86346 238.99468 377.09104 239.1875 376.34375 239.1875 C 375.40971 239.1875 374.58849 238.76776 373.875 237.9375 C 373.16149 237.10725 372.78124 235.99481 372.78125 234.59375 C 372.78124 231.76571 373.62073 228.61467 375.28125 225.125 C 376.91536 221.69082 378.7947 219.10701 380.90625 217.34375 z M 598.53125 217.34375 C 597.87287 217.65988 597.19738 218.06709 596.5 218.65625 C 594.34652 220.42056 592.44175 223.07286 590.78125 226.5625 C 589.12073 230.05217 588.28124 233.20321 588.28125 236.03125 C 588.28124 237.43231 588.63024 238.54475 589.34375 239.375 C 590.05724 240.20526 590.87846 240.625 591.8125 240.625 C 593.24302 240.625 594.77774 239.91718 596.375 238.5625 C 595.54671 238.96407 594.74761 239.1875 593.96875 239.1875 C 593.03471 239.1875 592.21349 238.76776 591.5 237.9375 C 590.78649 237.10725 590.43749 235.99481 590.4375 234.59375 C 590.43749 231.76571 591.24573 228.61467 592.90625 225.125 C 594.54036 221.69082 596.4197 219.10701 598.53125 217.34375 z M 289.6875 217.40625 C 287.66946 218.34267 285.75657 220.29816 283.96875 223.34375 C 281.38717 227.74152 280.09374 232.14118 280.09375 236.5 C 280.09374 238.47186 280.58187 239.98577 281.59375 241.0625 C 281.9732 241.46628 282.39498 241.81014 282.84375 242.0625 C 282.91793 242.09263 282.98726 242.12799 283.0625 242.15625 C 283.73069 242.4072 284.43559 242.5841 285.1875 242.6875 C 285.25271 242.68958 285.30884 242.6875 285.375 242.6875 C 287.02093 242.6875 288.62681 241.9788 290.15625 240.625 C 289.29876 241.02233 288.42293 241.25 287.53125 241.25 C 286.0264 241.25 284.76186 240.70174 283.75 239.625 C 282.73812 238.54827 282.21874 237.03436 282.21875 235.0625 C 282.21874 230.70368 283.51217 226.33527 286.09375 221.9375 C 287.23608 219.99152 288.45118 218.49114 289.6875 217.40625 z M 676.75 217.625 C 675.65993 218.18857 674.55657 219.00595 673.40625 220.09375 C 671.01926 222.35102 669.23534 225.7196 668.09375 230.15625 C 671.18125 229.79303 673.71033 229.16871 675.65625 228.3125 C 677.20388 227.62467 678.51235 226.85267 679.59375 226 C 679.03187 226.31378 678.45465 226.5896 677.8125 226.875 C 675.86658 227.73121 673.3375 228.35553 670.25 228.71875 C 671.39159 224.2821 673.14426 220.94477 675.53125 218.6875 C 675.93692 218.30388 676.35182 217.94342 676.75 217.625 z M 521.625 217.6875 C 520.56411 218.24954 519.46153 219.03672 518.34375 220.09375 C 515.95676 222.35102 514.20409 225.7196 513.0625 230.15625 C 516.15 229.79303 518.64783 229.16871 520.59375 228.3125 C 522.12518 227.63187 523.42509 226.87329 524.5 226.03125 C 523.95494 226.33318 523.36985 226.59951 522.75 226.875 C 520.80408 227.73121 518.275 228.35553 515.1875 228.71875 C 516.32909 224.2821 518.11301 220.94477 520.5 218.6875 C 520.88214 218.32613 521.24951 217.99102 521.625 217.6875 z M 198.40625 217.78125 C 197.90113 218.05124 197.40894 218.35876 196.90625 218.71875 C 194.89547 220.15874 193.17699 222.19734 191.75 224.84375 C 190.03759 228.061 189.18749 231.28278 189.1875 234.5 C 189.18749 236.62753 189.78056 238.31712 191 239.5625 C 192.21943 240.80788 193.86185 241.4375 195.9375 241.4375 C 197.5461 241.4375 199.16731 241.02306 200.75 240.21875 C 201.42586 239.87528 202.13289 239.39255 202.875 238.8125 C 201.29231 239.61681 199.70235 240 198.09375 240 C 196.0181 240 194.37568 239.37038 193.15625 238.125 C 191.93681 236.87962 191.31249 235.19003 191.3125 233.0625 C 191.31249 229.84528 192.16259 226.65475 193.875 223.4375 C 195.14887 221.07506 196.66715 219.18229 198.40625 217.78125 z M 268.90625 217.875 L 263.5 236.34375 C 262.92919 238.34155 262.65624 239.6167 262.65625 240.1875 C 262.65624 240.55074 262.71932 240.83666 262.875 241.03125 C 263.03066 241.22584 263.23523 241.3125 263.46875 241.3125 C 263.98765 241.3125 264.67504 240.93992 265.53125 240.1875 C 265.62753 240.11047 265.76798 239.98063 265.90625 239.84375 C 265.80704 239.866 265.71423 239.875 265.625 239.875 C 265.39148 239.875 265.18691 239.78834 265.03125 239.59375 C 264.87557 239.39916 264.81249 239.11324 264.8125 238.75 C 264.81249 238.1792 265.08544 236.90405 265.65625 234.90625 L 270.65625 217.875 L 268.90625 217.875 z M 360 217.875 L 354.59375 236.34375 C 354.02294 238.34155 353.71874 239.6167 353.71875 240.1875 C 353.71874 240.55074 353.81307 240.83666 353.96875 241.03125 C 354.12441 241.22584 354.29773 241.3125 354.53125 241.3125 C 355.05015 241.3125 355.73754 240.93992 356.59375 240.1875 C 356.69003 240.11047 356.83048 239.98063 356.96875 239.84375 C 356.86954 239.866 356.77673 239.875 356.6875 239.875 C 356.45398 239.875 356.24941 239.78834 356.09375 239.59375 C 355.93807 239.39916 355.87499 239.11324 355.875 238.75 C 355.87499 238.1792 356.14794 236.90405 356.71875 234.90625 L 361.71875 217.875 L 360 217.875 z M 435.03125 217.875 L 429.625 236.34375 C 429.05419 238.34155 428.74999 239.6167 428.75 240.1875 C 428.74999 240.55074 428.84432 240.83666 429 241.03125 C 429.15566 241.22584 429.32898 241.3125 429.5625 241.3125 C 430.0814 241.3125 430.76879 240.93992 431.625 240.1875 C 431.72621 240.10653 431.88366 239.95959 432.03125 239.8125 C 431.91812 239.84071 431.81923 239.875 431.71875 239.875 C 431.48523 239.875 431.28066 239.78834 431.125 239.59375 C 430.96932 239.39916 430.90624 239.11324 430.90625 238.75 C 430.90624 238.1792 431.17919 236.90405 431.75 234.90625 L 436.75 217.875 L 435.03125 217.875 z M 468.96875 217.875 L 463.5625 236.34375 C 462.99169 238.34155 462.68749 239.6167 462.6875 240.1875 C 462.68749 240.55074 462.78182 240.83666 462.9375 241.03125 C 463.09316 241.22584 463.26648 241.3125 463.5 241.3125 C 464.0189 241.3125 464.70629 240.93992 465.5625 240.1875 C 465.66371 240.10653 465.82116 239.95959 465.96875 239.8125 C 465.85562 239.84071 465.75673 239.875 465.65625 239.875 C 465.42273 239.875 465.21816 239.78834 465.0625 239.59375 C 464.90682 239.39916 464.84374 239.11324 464.84375 238.75 C 464.84374 238.1792 465.11669 236.90405 465.6875 234.90625 L 470.6875 217.875 L 468.96875 217.875 z M 235.90625 218.59375 C 235.35491 218.89537 234.81312 219.22286 234.28125 219.625 C 232.17965 221.18175 230.79956 222.27828 230.125 222.875 L 227.4375 225.25 C 227.87856 226.75485 228.41915 228.86419 229.09375 231.5625 C 230.23533 236.05107 231.01705 238.701 231.40625 239.53125 C 231.79541 240.36151 232.20985 240.78125 232.625 240.78125 C 232.98821 240.78125 233.41326 240.58199 233.90625 240.21875 C 234.24478 239.97104 234.58058 239.65743 234.9375 239.3125 C 234.87295 239.32271 234.8109 239.34375 234.75 239.34375 C 234.33485 239.34375 233.95166 238.92401 233.5625 238.09375 C 233.1733 237.2635 232.39158 234.61357 231.25 230.125 C 230.5754 227.42669 230.00356 225.31735 229.5625 223.8125 L 232.25 221.4375 C 232.85775 220.89988 234.14015 219.91064 235.90625 218.59375 z M 649.28125 219 C 648.66233 219.19679 648.03015 219.59901 647.375 220.21875 C 644.91451 222.45955 642.60033 225.48394 640.4375 229.25 C 640.04596 229.93178 639.66304 230.61199 639.28125 231.34375 C 637.78945 234.18745 636.3658 237.79486 635.0625 242.0625 L 636.78125 242.0625 C 638.20823 237.13287 639.74572 233.10285 641.40625 229.9375 C 643.83288 225.28642 646.46053 221.63169 649.28125 219 z M 633.71875 219.03125 C 633.39824 219.15209 633.05367 219.31914 632.71875 219.53125 C 631.47335 220.36153 629.87809 222.10889 627.90625 224.78125 C 627.31625 225.58085 626.76102 226.34631 626.25 227.125 C 626.10927 227.37831 625.98791 227.6114 625.84375 227.875 L 625.875 227.71875 C 624.85133 229.33178 623.99257 230.91543 623.3125 232.4375 C 622.84371 233.46884 621.68585 236.88082 620.03125 242.0625 L 621.71875 242.0625 C 623.6906 235.8356 624.91858 232.14161 625.4375 231 C 626.5272 228.56114 628.05938 226.01615 630.03125 223.34375 C 631.44351 221.42976 632.67913 220.00031 633.71875 219.03125 z M 494 219.15625 C 493.74751 219.26299 493.49393 219.39739 493.21875 219.5625 C 491.79173 220.44467 490.15461 222.08179 488.3125 224.46875 C 487.79358 225.1174 486.10929 227.71487 483.28125 232.28125 C 482.3991 233.7342 481.66454 235.32416 481.09375 237.0625 L 479.5625 242.0625 L 481.25 242.0625 L 483.25 235.65625 C 483.82079 233.91791 484.55535 232.2967 485.4375 230.84375 C 488.26554 226.27737 489.91858 223.6799 490.4375 223.03125 C 491.72435 221.36378 492.91572 220.08937 494 219.15625 z M 415.96875 219.96875 C 415.70039 219.99679 415.45676 220.06851 415.21875 220.1875 C 414.67388 220.47292 413.83439 221.27586 412.71875 222.625 C 410.98039 224.67471 409.11748 227.31934 407.09375 230.5625 C 406.23754 231.93762 405.46113 233.51167 404.8125 235.25 C 403.95629 237.63699 403.47347 239.06954 403.34375 239.5625 L 402.71875 242.0625 L 404.46875 242.0625 L 405.5 238.125 C 405.62972 237.63204 406.11254 236.19949 406.96875 233.8125 C 407.61738 232.07417 408.36254 230.53137 409.21875 229.15625 C 411.24248 225.91309 413.13664 223.26846 414.875 221.21875 C 415.28356 220.72467 415.63673 220.32017 415.96875 219.96875 z M 577 220.34375 C 577.38915 221.48537 577.59372 222.54004 577.59375 223.5 C 577.59372 226.27618 576.42881 228.72154 574.09375 230.875 C 573.98458 230.97338 573.86289 231.06192 573.75 231.15625 C 574.65272 230.6777 575.48425 230.1306 576.21875 229.46875 C 578.55381 227.31529 579.71872 224.83868 579.71875 222.0625 C 579.71873 221.5185 579.65623 220.94609 579.53125 220.34375 L 577 220.34375 z M 223.6875 228.625 L 219.40625 232.375 L 216.59375 242.0625 L 218.34375 242.0625 L 221.5625 230.9375 L 223.78125 229 C 223.74942 228.86186 223.71964 228.76511 223.6875 228.625 z M 514.84375 231.4375 C 514.18445 231.53034 513.52575 231.63612 512.8125 231.71875 C 512.68277 232.75658 512.62499 233.60668 512.625 234.28125 C 512.62499 236.14933 513.2835 237.72101 514.59375 239.03125 C 515.90398 240.3415 517.51222 241 519.40625 241 C 520.91107 241 522.3619 240.68519 523.75 240.0625 C 524.75719 239.61067 526.13301 238.79299 527.84375 237.5625 C 527.10522 238.02586 526.41288 238.41496 525.875 238.65625 C 524.4869 239.27894 523.03607 239.5625 521.53125 239.5625 C 519.63722 239.5625 518.06023 238.93525 516.75 237.625 C 515.43975 236.31476 514.78124 234.71183 514.78125 232.84375 C 514.78125 232.44641 514.79874 231.96087 514.84375 231.4375 z M 669.90625 231.4375 C 669.24076 231.53139 668.59555 231.63527 667.875 231.71875 C 667.74527 232.75658 667.68749 233.60668 667.6875 234.28125 C 667.68749 236.14933 668.346 237.72101 669.65625 239.03125 C 670.96648 240.3415 672.54347 241 674.4375 241 C 675.94232 241 677.39315 240.68519 678.78125 240.0625 C 679.79547 239.60752 681.17864 238.77579 682.90625 237.53125 C 682.15192 238.00617 681.4844 238.41091 680.9375 238.65625 C 679.5494 239.27894 678.09857 239.5625 676.59375 239.5625 C 674.69972 239.5625 673.09148 238.93525 671.78125 237.625 C 670.471 236.31476 669.81249 234.71183 669.8125 232.84375 C 669.8125 232.44631 669.86122 231.96103 669.90625 231.4375 z M 143.6875 232.375 C 143.32264 232.88094 142.93876 233.35582 142.5625 233.8125 L 142.96875 233.8125 C 141.14105 236.74092 139.16015 239.02891 137 240.71875 C 137.16304 240.62613 137.34049 240.53571 137.5 240.4375 C 140.30207 238.71213 142.84176 236.03331 145.125 232.375 L 143.6875 232.375 z M 324.65625 232.65625 L 323.90625 236.625 C 324.20533 238.49188 324.78111 239.91731 325.625 240.84375 C 325.82052 241.0584 326.0308 241.22677 326.25 241.40625 C 326.61542 241.44098 327.05783 241.53186 327.625 241.75 C 329.05396 242.25766 330.34754 242.57898 331.53125 242.71875 C 332.64994 242.56624 333.5861 242.15479 334.3125 241.46875 C 334.44929 241.33956 334.53949 241.20059 334.65625 241.0625 C 334.0641 241.2503 333.38648 241.375 332.65625 241.375 C 330.58061 241.375 328.97473 240.7165 327.78125 239.40625 C 326.58776 238.09601 325.91628 235.84754 325.8125 232.65625 L 324.65625 232.65625 z M 560.5 234.3125 C 559.5133 234.84017 558.71032 235.33637 558.1875 235.8125 C 559.00605 235.36637 559.97159 234.92084 561.125 234.4375 C 560.9122 234.39685 560.70454 234.36196 560.5 234.3125 z M 208.1875 234.4375 C 207.58213 235.09129 206.97646 235.65926 206.40625 236.1875 L 206.96875 236.6875 C 205.56508 238.35852 204.13855 239.74313 202.71875 240.84375 C 204.86346 239.6207 206.98542 237.7599 209.09375 235.25 L 208.1875 234.4375 z M 532.0625 234.5625 C 531.32013 235.13518 530.61189 235.63089 529.96875 236.09375 L 530.5625 236.875 C 529.3236 238.10092 528.11596 239.17431 526.90625 240.09375 C 528.79625 238.92068 530.75545 237.38024 532.71875 235.4375 L 532.0625 234.5625 z M 687.09375 234.5625 C 686.35212 235.13461 685.67385 235.63124 685.03125 236.09375 L 685.625 236.875 C 684.27842 238.20748 682.93709 239.3421 681.625 240.3125 C 683.62808 239.11726 685.66418 237.50147 687.75 235.4375 L 687.09375 234.5625 z M 161.8125 234.78125 C 161.29164 235.56253 160.78234 236.24036 160.28125 236.84375 L 160.625 237.1875 C 159.08327 239.37837 157.61725 241.05883 156.25 242.21875 C 156.59011 242.05985 156.93266 241.8475 157.28125 241.625 C 158.96769 240.50935 160.77813 238.55211 162.75 235.75 L 161.8125 234.78125 z M 271.0625 234.90625 C 270.42737 235.69305 269.97235 236.25775 269.5 236.8125 L 269.9375 237.15625 C 268.40528 239.37174 266.93126 241.05899 265.53125 242.25 C 265.89954 242.08255 266.25925 241.86883 266.625 241.625 C 268.33739 240.45746 270.14252 238.49492 272.0625 235.71875 L 271.0625 234.90625 z M 362.125 234.90625 C 361.49606 235.68538 361.03181 236.22967 360.5625 236.78125 L 361 237.15625 C 359.46778 239.37174 357.99376 241.05899 356.59375 242.25 C 356.96204 242.08255 357.32175 241.86883 357.6875 241.625 C 359.39989 240.45746 361.23627 238.49492 363.15625 235.71875 L 362.125 234.90625 z M 437.15625 234.90625 C 436.51733 235.69774 436.06793 236.25584 435.59375 236.8125 L 436.03125 237.15625 C 434.50691 239.36035 433.04974 241.02862 431.65625 242.21875 C 432.01179 242.05452 432.36558 241.86044 432.71875 241.625 C 434.43114 240.45746 436.26752 238.49492 438.1875 235.71875 L 437.15625 234.90625 z M 471.09375 234.90625 C 470.45483 235.69774 470.00543 236.25584 469.53125 236.8125 L 469.96875 237.15625 C 468.43653 239.37174 466.96251 241.05899 465.5625 242.25 C 465.93079 242.08255 466.2905 241.86883 466.65625 241.625 C 468.36864 240.45746 470.20502 238.49492 472.125 235.71875 L 471.09375 234.90625 z M 180.0625 234.9375 C 179.56895 235.64107 179.08305 236.27194 178.59375 236.84375 L 179.03125 237.125 C 177.71592 239.10993 176.17163 240.7849 174.4375 242.21875 C 174.99917 241.95447 175.57683 241.63816 176.15625 241.1875 C 178.0762 239.68267 179.72924 237.84098 181.15625 235.6875 L 180.0625 234.9375 z M 658.5 234.9375 C 658.03116 235.6173 657.53184 236.24919 657.03125 236.8125 L 657.40625 237.03125 C 656.8873 237.86151 655.94818 239.00284 654.625 240.46875 C 653.96337 241.20171 653.34881 241.81629 652.78125 242.3125 C 652.97587 242.22533 653.17268 242.14211 653.375 242.03125 C 654.32197 241.51234 655.45799 240.52842 656.78125 239.0625 C 658.10443 237.59659 659.0123 236.42401 659.53125 235.59375 L 658.5 234.9375 z M 239.5 235.03125 C 238.98796 235.74595 238.48133 236.35382 238 236.90625 L 238.4375 237.21875 C 236.46872 239.67969 234.94941 241.39214 233.78125 242.40625 C 234.29088 242.18099 234.79366 241.85154 235.34375 241.4375 C 236.55019 240.52941 238.31053 238.6665 240.59375 235.8125 L 239.5 235.03125 z M 503.75 235.0625 C 503.26373 235.73246 502.77201 236.32205 502.28125 236.875 L 502.59375 237.0625 C 501.86725 238.17816 500.85208 239.39554 499.59375 240.71875 C 498.98915 241.3545 498.42998 241.89666 497.90625 242.34375 C 498.10086 242.25526 498.29479 242.17683 498.5 242.0625 C 499.40807 241.55656 500.49162 240.63572 501.75 239.3125 C 503.00833 237.98929 503.99225 236.77191 504.71875 235.65625 L 503.75 235.0625 z M 383.6875 235.21875 C 381.53038 238.02706 379.52604 240.14149 377.65625 241.625 C 377.8626 241.51433 378.07369 241.40773 378.28125 241.28125 C 379.81621 240.32189 381.4727 238.87017 383.21875 236.9375 L 383.6875 235.21875 z M 601.3125 235.21875 C 599.14215 238.04429 597.12949 240.17181 595.25 241.65625 C 595.47281 241.53806 595.68202 241.41789 595.90625 241.28125 C 597.44121 240.32189 599.0977 238.87017 600.84375 236.9375 L 601.3125 235.21875 z M 394.78125 235.40625 C 394.2436 236.14677 393.76289 236.77029 393.3125 237.3125 L 393.6875 237.59375 C 392.43594 239.50519 391.14384 240.95933 389.8125 242.0625 C 390.32833 241.80364 390.86076 241.52718 391.40625 241.125 C 392.937 239.99638 394.41672 238.33567 395.84375 236.15625 L 394.78125 235.40625 z M 612.40625 235.40625 C 611.8686 236.14677 611.38789 236.77029 610.9375 237.3125 L 611.3125 237.59375 C 610.06094 239.50519 608.76884 240.95933 607.4375 242.0625 C 607.95333 241.80364 608.48576 241.52718 609.03125 241.125 C 610.562 239.99638 612.04172 238.33567 613.46875 236.15625 L 612.40625 235.40625 z M 561.28125 235.65625 C 560.54618 236.02848 559.90355 236.41749 559.40625 236.84375 C 558.99111 237.1551 558.78124 237.48052 558.78125 237.84375 C 558.78124 238.25888 558.96753 238.64974 559.34375 239 C 559.71995 239.35027 560.6514 239.69396 562.15625 240.03125 L 568.28125 241.46875 C 571.62819 242.24711 573.84777 243.19154 574.9375 244.28125 C 576.00124 245.3969 576.53122 246.66675 576.53125 248.09375 C 576.53122 249.80614 575.91458 251.38549 574.65625 252.8125 C 574.38342 253.12189 574.07832 253.40738 573.75 253.6875 C 574.99761 253.03886 575.99476 252.26687 576.78125 251.375 C 578.03958 249.94799 578.68747 248.36864 578.6875 246.65625 C 578.68747 245.22925 578.12624 243.9594 577.0625 242.84375 C 575.97277 241.75404 573.78444 240.80961 570.4375 240.03125 L 564.3125 238.59375 C 562.80765 238.25646 561.8762 237.91277 561.5 237.5625 C 561.12378 237.21224 560.93749 236.85263 560.9375 236.4375 C 560.93749 236.16508 561.04774 235.89949 561.28125 235.65625 z M 555.75 242.5625 C 554.5501 243.26114 553.61442 243.82871 553.25 244.09375 C 553.0725 244.21905 552.91595 244.36052 552.75 244.5 C 553.54782 244.0265 554.596 243.42694 555.90625 242.6875 C 555.85074 242.644 555.8023 242.60652 555.75 242.5625 z M 323.875 242.78125 C 323.79716 242.78125 323.73102 242.80583 323.65625 242.8125 L 323.875 242.8125 C 323.87933 242.80406 323.87063 242.78961 323.875 242.78125 z M 556.8125 243.75 C 555.36111 244.49038 554.2224 245.37926 553.4375 246.46875 C 552.56833 247.67521 552.125 248.8637 552.125 250.03125 C 552.125 251.40635 552.75462 252.56065 554 253.46875 C 555.81617 254.76601 558.4555 255.40624 561.90625 255.40625 C 564.88996 255.40624 567.43496 254.88686 569.5625 253.875 C 570.43123 253.46182 571.111 253.01268 571.625 252.5 C 569.51481 253.48467 566.97459 253.96874 564.03125 253.96875 C 560.5805 253.96874 557.94117 253.32851 556.125 252.03125 C 554.87962 251.12315 554.28125 249.96885 554.28125 248.59375 C 554.28125 247.4262 554.69333 246.23771 555.5625 245.03125 C 555.90286 244.55881 556.34682 244.15679 556.8125 243.75 z "
         style="font-size:79.70437622000000000px;font-style:oblique;font-variant:normal;font-weight:bold;font-stretch:normal;line-height:125%;letter-spacing:0px;word-spacing:0px;fill:#1f1f1f;fill-opacity:1;stroke:none;font-family:Dragon is Coming;-inkscape-font-specification:Dragon is Coming Bold Oblique" />
    </g>
  </g>
</svg>
