<?xml version="1.0" encoding="UTF-8" standalone="no"?>
<svg
   xmlns:dc="http://purl.org/dc/elements/1.1/"
   xmlns:cc="http://creativecommons.org/ns#"
   xmlns:rdf="http://www.w3.org/1999/02/22-rdf-syntax-ns#"
   xmlns:svg="http://www.w3.org/2000/svg"
   xmlns="http://www.w3.org/2000/svg"
   xmlns:sodipodi="http://sodipodi.sourceforge.net/DTD/sodipodi-0.dtd"
   xmlns:inkscape="http://www.inkscape.org/namespaces/inkscape"
   style="fill:#000000;fill-opacity:0.5;stroke:none"
   width="81.770676"
   height="52.540985"
   id="svg1"
   sodipodi:docname="dolphin1.svg"
   version="1.1"
   inkscape:version="0.48.4 r9939"
   inkscape:export-filename="C:\Users\Schmid\Google Drive\dolphingame\images\dolphin3151.png"
   inkscape:export-xdpi="90"
   inkscape:export-ydpi="90">
  <title
     id="title2993">Other dolphin</title>
  <metadata
     id="metadata16">
    <rdf:RDF>
      <cc:Work
         rdf:about="">
        <dc:format>image/svg+xml</dc:format>
        <dc:type
           rdf:resource="http://purl.org/dc/dcmitype/StillImage" />
        <dc:title>Other dolphin</dc:title>
        <dc:date>2003</dc:date>
        <dc:creator>
          <cc:Agent>
            <dc:title>Enrique Meza C</dc:title>
          </cc:Agent>
        </dc:creator>
        <dc:rights>
          <cc:Agent>
            <dc:title>Public Domain</dc:title>
          </cc:Agent>
        </dc:rights>
      </cc:Work>
    </rdf:RDF>
  </metadata>
  <defs
     id="defs3" />
  <sodipodi:namedview
     id="base"
     showgrid="false"
     fit-margin-top="0"
     fit-margin-left="0"
     fit-margin-right="0"
     fit-margin-bottom="0"
     inkscape:zoom="1"
     inkscape:cx="85.919023"
     inkscape:cy="66.048153"
     inkscape:window-width="929"
     inkscape:window-height="608"
     inkscape:window-x="166"
     inkscape:window-y="55"
     inkscape:window-maximized="0"
     inkscape:current-layer="svg1"
     showguides="true"
     inkscape:guide-bbox="true">
    <sodipodi:guide
       orientation="0,1"
       position="44.221594,567.73043"
       id="guide3179" />
  </sodipodi:namedview>
  <g
     id="g3031"
     transform="matrix(0.98921812,0,0,0.98921812,-284.67187,-586.0652)">
    <path
       inkscape:connector-curvature="0"
       sodipodi:nodetypes="ccccc"
       d="m 501.8365,604.1009 c -1.04868,-0.55725 0.0643,-2.32836 -0.27002,-4.29978 -2.70438,-3.78158 -3.31174,-4.43728 -1.90495,-4.88304 1.30128,-0.2023 2.35596,0.63204 4.42222,4.94304 1.48991,4.22168 -1.34511,4.0925 -2.24725,4.23978 z"
       id="path15"
       style="fill:#7f7f7f;fill-opacity:1;stroke:none" />
    <path
       inkscape:connector-curvature="0"
       sodipodi:nodetypes="cccccc"
       d="m 499.16659,619.04382 c 8.3555,-6.11208 23.43703,-0.0833 33.30876,2.4198 5.4267,2.92987 3.49672,-4.62879 4.14043,-0.73936 0.56474,2.87228 1.04643,3.11605 -10.5796,1.73644 -1.18464,2.61456 -20.57009,-6.00091 -32.93391,5.36843 -10.72594,6.5632 2.4079,-6.99852 6.06432,-8.78531 z"
       id="path11"
       style="fill:#fcf5fd;fill-opacity:1;stroke:none" />
    <path
       inkscape:connector-curvature="0"
       sodipodi:nodetypes="csccccccccccccccccssssssssc"
       id="path33"
       d="m 500.83611,603.98087 c 1.5714,-0.64989 1.96978,-1.93172 1.9387,-3.74317 -0.12485,-2.44928 -4.16193,-3.72442 -3.38,-5.07375 4.61661,-1.20522 9.88507,6.02422 8.85926,8.47 1.28859,0.05 2.95492,-0.46719 4.79373,-0.0801 12.04967,0 19.72371,7.95272 21.92487,13.08246 0.53745,1.0043 1.81936,1.95637 1.93346,7.26319 1.07721,1.01234 2.90789,3.1072 3.33123,5.04001 1.32459,1.74178 -4.67353,2.25478 -6.78323,-0.66463 -2.80772,-1.87547 -8.81746,-3.7263 -11.76019,-3.89988 -2.40209,-0.4763 -2.27345,0.39754 -4.33816,-0.0788 -1.93579,1.07155 -3.87129,2.14309 -5.80707,3.21463 -0.77438,0.35709 -1.54846,0.71445 -2.32282,1.07154 -1.80659,0.11894 -3.61346,0.23814 -5.42004,0.3571 1.54846,-0.8334 3.0972,-1.66678 4.64566,-2.50018 0.25812,0 0.51624,0 0.77438,0 0.58069,-0.71446 1.92678,-3.58485 2.50748,-4.2993 -5.17846,0.14895 -9.17778,1.45569 -12.56213,2.61215 -2.66951,0.9301 -7.98044,4.39436 -11.09208,5.64087 -16.85415,6.75168 -23.38083,-0.83593 -23.43512,0.009 -0.0224,1.47255 -7.99721,10.22975 -9.23295,9.32402 -1.23574,-0.90599 1.07054,-5.46728 0.79528,-7.88709 -0.16086,-1.45301 -2.12423,-1.02332 -1.47586,-2.53981 0.3673,-0.82134 -1.83243,-2.18784 -3.10301,-2.65154 -1.88294,-0.62015 -2.67357,-0.90761 0.14982,-1.34693 2.90267,-0.38469 8.98224,1.46033 12.12138,0.64534 20.19751,-5.24375 14.59719,-4.26897 36.93741,-21.96435 z"
       style="fill:#5c729b;fill-opacity:1;stroke:none" />
    <path
       inkscape:connector-curvature="0"
       sodipodi:nodetypes="cccccscssccscc"
       d="m 503.36597,618.17479 c 14.34781,-1.83662 16.79984,1.05119 20.01173,2.25158 3.59777,0.34264 6.84624,3.09462 12.72212,2.34025 0.92274,-1.63999 0.93349,0.0488 0.40737,0.55479 -0.78046,0.38817 -2.15211,0.60757 -10.10372,-0.60702 -5.46822,0.65846 1.22471,2.10209 3.20405,2.68877 2.69507,0.91134 4.26733,4.27813 7.26174,4.53369 2.60186,0.0568 4.65262,-1.25048 3.10242,0.2553 -2.53478,2.34962 -7.90631,-2.78066 -9.13481,-3.07559 -0.95032,-0.21352 -2.25836,-0.0734 -3.99525,-0.51784 -3.15353,-0.573 -5.67903,-1.35013 -9.48584,-2.12405 -1.67767,-0.0895 -7.52102,-0.85805 -10.75673,-0.35389 -3.33586,0.32468 -8.14295,1.58347 -12.24855,3.43349 -11.67017,5.44933 2.3298,-8.66476 9.01547,-9.37948 z"
       id="path12"
       style="fill:#cdcbd4;fill-opacity:1;stroke:none" />
    <path
       inkscape:connector-curvature="0"
       sodipodi:nodetypes="cccc"
       d="m 521.33187,625.48646 c 1.35508,0.23816 3.7711,0.77902 5.1262,1.01717 1.60506,0.20091 2.93982,-0.17922 -0.54095,1.24353 -7.75068,2.4332 -8.021,0.20225 -4.58525,-2.2607 z"
       id="path8"
       style="fill:#5c749c;fill-opacity:1;stroke:none" />
    <path
       inkscape:connector-curvature="0"
       sodipodi:nodetypes="cscccsc"
       d="m 522.89978,620.92544 c 1.48603,-0.73293 3.30161,1.38738 7.08492,1.9103 0.93405,0.10792 5.56926,0.97189 6.34973,0.27699 0.26799,-0.23601 0.91054,-1.42248 0.63703,0.54542 -0.19482,0.45218 -1.45147,1.32844 -9.01053,0.12134 -0.88064,-0.16527 -3.13233,-0.38923 -4.96969,-1.56123 -0.6951,-0.43343 -0.4666,-0.14519 -0.0914,-1.29282 z"
       id="path9"
       style="fill:#7f7f7f;fill-opacity:1;stroke:none" />
    <path
       inkscape:connector-curvature="0"
       sodipodi:nodetypes="ccccc"
       d="m 524.94605,621.04737 c -0.54228,-0.49279 -1.20203,-0.53861 -1.86779,-0.41324 -0.91387,0.0562 -0.76354,1.50247 -0.17792,1.89659 0.71209,0.42054 0.99009,0.70392 1.81291,0.53322 1.09385,-0.20749 0.91965,-1.28468 0.2328,-2.01657 z"
       id="path6"
       style="fill:#d6d6d6;fill-opacity:1;stroke:none" />
    <path
       inkscape:connector-curvature="0"
       sodipodi:nodetypes="ccccc"
       d="m 516.14587,622.48802 c -2.0647,-0.082 -2.73454,0.54408 -4.21855,1.19878 -3.91164,0.12645 -4.37909,3.6679 -6.0646,3.89105 -1.12918,0.32736 -5.49261,2.3215 3.50834,1.18298 3.43576,-1.45837 10.3479,-4.25617 6.77481,-6.27281 z"
       id="path7"
       style="fill:#5c739c;fill-opacity:1;stroke:none" />
    <ellipse
       sodipodi:ry="4"
       sodipodi:rx="5.75"
       sodipodi:cy="282.90918"
       sodipodi:cx="441.58432"
       transform="matrix(0.17983059,0,0,0.22888113,444.99845,557.23584)"
       ry="4"
       rx="5.75"
       cy="282.90918"
       cx="441.58432"
       id="ellipse13"
       style="fill:#040203;fill-opacity:1;stroke:none"
       d="m 447.33432,282.90918 c 0,2.20914 -2.57436,4 -5.75,4 -3.17564,0 -5.75,-1.79086 -5.75,-4 0,-2.20914 2.57436,-4 5.75,-4 3.17564,0 5.75,1.79086 5.75,4 z" />
    <ellipse
       sodipodi:ry="4"
       sodipodi:rx="4.75"
       sodipodi:cy="430.76065"
       sodipodi:cx="509.41229"
       transform="matrix(0.05639336,0,0,0.06220042,495.82173,595.6623)"
       ry="4"
       rx="4.75"
       cy="430.76065"
       cx="509.41229"
       id="ellipse14"
       style="fill:#fbfbfb;fill-opacity:1;stroke:none"
       d="m 514.16229,430.76065 c 0,2.20914 -2.12664,4 -4.75,4 -2.62335,0 -4.75,-1.79086 -4.75,-4 0,-2.20914 2.12665,-4 4.75,-4 2.62336,0 4.75,1.79086 4.75,4 z" />
    <ellipse
       sodipodi:ry="4"
       sodipodi:rx="5.75"
       sodipodi:cy="282.90918"
       sodipodi:cx="441.58432"
       transform="matrix(0.1284793,0,0,0.07069986,474.29709,593.33961)"
       ry="4"
       rx="5.75"
       cy="282.90918"
       cx="441.58432"
       id="ellipse16"
       style="fill:#494d57;fill-opacity:1;stroke:none"
       d="m 447.33432,282.90918 c 0,2.20914 -2.57436,4 -5.75,4 -3.17564,0 -5.75,-1.79086 -5.75,-4 0,-2.20914 2.57436,-4 5.75,-4 3.17564,0 5.75,1.79086 5.75,4 z" />
  </g>
  <g
     id="g3133">
    <path
       inkscape:connector-curvature="0"
       sodipodi:nodetypes="ccccc"
       d="m 46.275978,8.4539166 c -0.96254,-0.51148 0.0591,-2.13711 -0.24782,-3.94658 -2.48224,-3.47096 -3.0397,-4.07279002 -1.74847,-4.48195002 1.19437,-0.18567 2.16242,0.58013 4.05896,4.53702002 1.36752,3.87488 -1.23463,3.75632 -2.06267,3.89151 z"
       id="path15-5"
       style="fill:#7f7f7f;fill-opacity:1;stroke:none" />
    <path
       inkscape:connector-curvature="0"
       sodipodi:nodetypes="cccccc"
       d="m 43.825398,22.169377 c 7.66915,-5.61001 21.51184,-0.0765 30.57269,2.22104 4.98093,2.6892 3.20948,-4.24857 3.80032,-0.67863 0.51834,2.63633 0.96047,2.86008 -9.71057,1.59379 -1.08733,2.39981 -18.88039,-5.50797 -30.22862,4.92745 -9.84489,6.0241 2.21011,-6.42363 5.56618,-8.06365 z"
       id="path11-4"
       style="fill:#fcf5fd;fill-opacity:1;stroke:none" />
    <path
       inkscape:connector-curvature="0"
       sodipodi:nodetypes="csccccccccccccccccssssssssc"
       id="path33-2"
       d="m 45.357778,8.3437466 c 1.44233,-0.5965 1.80796,-1.77304 1.77945,-3.4357 -0.1146,-2.24809 -3.82005,-3.41848 -3.10236,-4.65698002 4.2374,-1.10621 9.07309,5.52937002 8.13154,7.77427002 1.18273,0.0459 2.71219,-0.42882 4.39995,-0.0735 11.05987,0 18.10355,7.2994704 20.12391,12.0078304 0.4933,0.92182 1.6699,1.79567 1.77465,6.66657 0.98872,0.92919 2.66902,2.85198 3.05757,4.626 1.21579,1.59872 -4.28962,2.06958 -6.22603,-0.61002 -2.57709,-1.72142 -8.09316,-3.42021 -10.79417,-3.57954 -2.20478,-0.43717 -2.08672,0.36488 -3.98182,-0.0723 -1.77677,0.98352 -3.55328,1.96705 -5.33006,2.95057 -0.71076,0.32776 -1.42126,0.65577 -2.13202,0.98353 -1.65818,0.10916 -3.31663,0.21858 -4.97481,0.32775 1.42126,-0.76493 2.84278,-1.52986 4.26405,-2.2948 0.23691,0 0.47384,0 0.71076,0 0.533,-0.65577 1.76852,-3.29038 2.30152,-3.94614 -4.75308,0.1367 -8.42389,1.33611 -11.53025,2.39758 -2.45022,0.8537 -7.93086,3.07917 -10.18094,5.17752 -13.1258,12.44747 -20.09299,10.56156 -20.14282,11.33632 -0.0205,1.35161 -7.3403002,9.38945 -8.4745302,8.55813 -1.13424,-0.83157 0.98259,-5.01817 0.72995,-7.23922 -0.14764,-1.33366 -1.94974,-0.93927 -1.35463,-2.3312 0.33712,-0.75386 -1.68191,-2.0081 -2.84813,-2.43372 -1.72826,-0.56922 -2.45395,-0.83304 0.13752,-1.23629 2.66423,-0.35308 8.9246502,2.5965 11.1257102,0.59233 15.80388,-14.57926 5.97579,-20.13027 32.53599,-31.4889704 z"
       style="fill:#5c729b;fill-opacity:1;stroke:none" />
    <path
       inkscape:connector-curvature="0"
       sodipodi:nodetypes="cccccscssccscc"
       d="m 47.679828,21.371737 c 13.16924,-1.68575 15.41986,0.96484 18.36791,2.06664 3.30224,0.31447 6.28387,2.8404 11.67709,2.148 0.84695,-1.50528 0.85682,0.0448 0.37391,0.50922 -0.71636,0.35628 -1.97532,0.55766 -9.27377,-0.55716 -5.01906,0.60437 1.12411,1.92943 2.94086,2.46791 2.47368,0.83648 3.91679,3.92671 6.66523,4.16129 2.38814,0.0521 4.27045,-1.14778 2.84759,0.23431 -2.32657,2.15663 -7.25688,-2.55224 -8.38445,-2.82295 -0.87226,-0.19598 -2.07286,-0.0674 -3.66708,-0.4753 -2.89449,-0.52593 -5.21253,-1.23923 -8.70665,-1.94958 -1.53985,-0.0821 -6.90322,-0.78756 -9.87312,-0.32481 -3.06187,0.29801 -7.47408,1.4534 -11.24243,3.15146 -10.71156,5.00171 2.13841,-7.95302 8.27491,-8.60903 z"
       id="path12-0"
       style="fill:#cdcbd4;fill-opacity:1;stroke:none" />
    <path
       inkscape:connector-curvature="0"
       sodipodi:nodetypes="cccc"
       d="m 64.169958,28.082807 c 1.24377,0.21859 3.46133,0.71502 4.70511,0.93361 1.47322,0.18442 2.69835,-0.16449 -0.49649,1.14138 -7.11403,2.23334 -7.36214,0.18564 -4.20862,-2.07499 z"
       id="path8-9"
       style="fill:#5c749c;fill-opacity:1;stroke:none" />
    <path
       inkscape:connector-curvature="0"
       sodipodi:nodetypes="cscccsc"
       d="m 65.609078,23.896447 c 1.36396,-0.67274 3.03041,1.27341 6.50294,1.75337 0.85733,0.0991 5.11179,0.89205 5.82814,0.25424 0.24598,-0.21662 0.83576,-1.30563 0.58471,0.50062 -0.17882,0.41504 -1.33225,1.21931 -8.27038,0.11138 -0.8083,-0.15171 -2.87503,-0.35726 -4.56146,-1.433 -0.63801,-0.39783 -0.42827,-0.13326 -0.0839,-1.18661 z"
       id="path9-7"
       style="fill:#7f7f7f;fill-opacity:1;stroke:none" />
    <path
       inkscape:connector-curvature="0"
       sodipodi:nodetypes="ccccc"
       d="m 67.487268,24.008347 c -0.49776,-0.45231 -1.10331,-0.49435 -1.71438,-0.37929 -0.8388,0.0517 -0.70081,1.37905 -0.1633,1.74079 0.65361,0.38601 0.90876,0.64612 1.66399,0.48942 1.00401,-0.19043 0.84412,-1.17915 0.21369,-1.85092 z"
       id="path6-3"
       style="fill:#d6d6d6;fill-opacity:1;stroke:none" />
    <path
       inkscape:connector-curvature="0"
       sodipodi:nodetypes="ccccc"
       d="m 59.409958,25.330667 c -1.89511,-0.0752 -2.50993,0.49938 -3.87203,1.10032 -3.59032,0.11605 -4.01939,3.3666 -5.56644,3.57142 -1.03644,0.30046 -5.04144,2.13079 3.22015,1.08581 3.15353,-1.33858 9.4979,-3.90656 6.21832,-5.75755 z"
       id="path7-7"
       style="fill:#5c739c;fill-opacity:1;stroke:none" />
    <ellipse
       sodipodi:ry="4"
       sodipodi:rx="5.75"
       sodipodi:cy="282.90918"
       sodipodi:cx="441.58432"
       transform="matrix(0.16505881,0,0,0.21008022,-5.8932222,-34.561523)"
       ry="4"
       rx="5.75"
       cy="282.90918"
       cx="441.58432"
       id="ellipse13-2"
       style="fill:#040203;fill-opacity:1;stroke:none"
       d="m 447.33432,282.90918 c 0,2.20914 -2.57436,4 -5.75,4 -3.17564,0 -5.75,-1.79086 -5.75,-4 0,-2.20914 2.57436,-4 5.75,-4 3.17564,0 5.75,1.79086 5.75,4 z" />
    <ellipse
       sodipodi:ry="4"
       sodipodi:rx="4.75"
       sodipodi:cy="430.76065"
       sodipodi:cx="509.41229"
       transform="matrix(0.05176105,0,0,0.05709111,40.755298,0.70847658)"
       ry="4"
       rx="4.75"
       cy="430.76065"
       cx="509.41229"
       id="ellipse14-6"
       style="fill:#fbfbfb;fill-opacity:1;stroke:none"
       d="m 514.16229,430.76065 c 0,2.20914 -2.12664,4 -4.75,4 -2.62335,0 -4.75,-1.79086 -4.75,-4 0,-2.20914 2.12665,-4 4.75,-4 2.62336,0 4.75,1.79086 4.75,4 z" />
    <ellipse
       sodipodi:ry="4"
       sodipodi:rx="5.75"
       sodipodi:cy="282.90918"
       sodipodi:cx="441.58432"
       transform="matrix(0.11792566,0,0,0.06489238,20.998748,-1.4234234)"
       ry="4"
       rx="5.75"
       cy="282.90918"
       cx="441.58432"
       id="ellipse16-0"
       style="fill:#494d57;fill-opacity:1;stroke:none"
       d="m 447.33432,282.90918 c 0,2.20914 -2.57436,4 -5.75,4 -3.17564,0 -5.75,-1.79086 -5.75,-4 0,-2.20914 2.57436,-4 5.75,-4 3.17564,0 5.75,1.79086 5.75,4 z" />
  </g>
</svg>
