<?xml version="1.0" encoding="UTF-8" standalone="no"?>
<svg
   xmlns:dc="http://purl.org/dc/elements/1.1/"
   xmlns:cc="http://creativecommons.org/ns#"
   xmlns:rdf="http://www.w3.org/1999/02/22-rdf-syntax-ns#"
   xmlns:svg="http://www.w3.org/2000/svg"
   xmlns="http://www.w3.org/2000/svg"
   xmlns:sodipodi="http://sodipodi.sourceforge.net/DTD/sodipodi-0.dtd"
   xmlns:inkscape="http://www.inkscape.org/namespaces/inkscape"
   style="fill:#000000;fill-opacity:0.5;stroke:none"
   width="528.00574"
   height="339.26511"
   id="svg1"
   sodipodi:docname="dolp.svg"
   version="1.1"
   inkscape:version="0.48.1 r9760">
  <title
     id="title2993">Other dolphin</title>
  <metadata
     id="metadata16">
    <rdf:RDF>
      <cc:Work
         rdf:about="">
        <dc:format>image/svg+xml</dc:format>
        <dc:type
           rdf:resource="http://purl.org/dc/dcmitype/StillImage" />
        <dc:title>Other dolphin</dc:title>
        <dc:date>2003</dc:date>
        <dc:creator>
          <cc:Agent>
            <dc:title>Enrique Meza C</dc:title>
          </cc:Agent>
        </dc:creator>
        <dc:rights>
          <cc:Agent>
            <dc:title>Public Domain</dc:title>
          </cc:Agent>
        </dc:rights>
      </cc:Work>
    </rdf:RDF>
  </metadata>
  <defs
     id="defs3" />
  <sodipodi:namedview
     id="base"
     showgrid="false"
     fit-margin-top="0"
     fit-margin-left="0"
     fit-margin-right="0"
     fit-margin-bottom="0"
     inkscape:zoom="0.28032173"
     inkscape:cx="275.38194"
     inkscape:cy="86.275448"
     inkscape:window-width="929"
     inkscape:window-height="608"
     inkscape:window-x="66"
     inkscape:window-y="24"
     inkscape:window-maximized="0"
     inkscape:current-layer="svg1" />
  <path
     style="fill:#7f7f7f;fill-opacity:1;stroke:none"
     id="path15"
     d="M 298.8111,54.588215 C 292.59584,51.285532 299.19226,40.788599 297.21086,29.104562 281.18267,6.6920405 277.58301,2.8058872 285.92068,0.16393097 293.63294,-1.0349983 299.88382,3.909949 312.13007,29.460125 c 8.83025,25.020747 -7.97218,24.255166 -13.31897,25.12809 z"
     sodipodi:nodetypes="ccccc"
     inkscape:connector-curvature="0" />
  <path
     style="fill:#fcf5fd;fill-opacity:1;stroke:none"
     id="path11"
     d="m 282.98727,143.15105 c 49.5209,-36.22474 138.90529,-0.49377 197.41247,14.3416 32.16268,17.36457 20.72419,-27.43369 24.53932,-4.38202 3.34705,17.02321 6.20194,18.46801 -62.70261,10.29141 -7.02107,15.49585 -121.91362,-35.56585 -195.19086,31.8173 -63.56992,38.89841 14.27101,-41.4784 35.94168,-52.06829 z"
     sodipodi:nodetypes="cccccc"
     inkscape:connector-curvature="0" />
  <path
     style="fill:#5c729b;fill-opacity:1;stroke:none"
     d="M 292.88215,53.876829 C 302.19539,50.025093 304.5564,42.427996 304.37227,31.692037 303.6323,17.175787 279.70561,9.6183825 284.33985,1.6211879 c 27.36152,-7.1430173 58.58634,35.7039731 52.50658,50.1995821 7.63713,0.296898 17.51309,-2.768931 28.41123,-0.474719 71.41528,0 116.89734,47.133753 129.94311,77.536429 3.18529,5.95225 10.78284,11.5949 11.45914,43.04704 6.38435,5.99988 17.23431,18.41562 19.74331,29.8708 7.85052,10.32316 -27.6988,13.36359 -40.2025,-3.93906 -16.64062,-11.11542 -52.25877,-22.08477 -69.69959,-23.11359 -14.23659,-2.82291 -13.47425,2.35613 -25.71122,-0.46678 -11.4729,6.35076 -22.94409,12.70152 -34.417,19.05228 -4.5895,2.11639 -9.17729,4.23437 -13.7668,6.35076 -10.70712,0.70493 -21.41597,1.41145 -32.1231,2.11639 9.17729,-4.93931 18.3563,-9.87861 27.5336,-14.81791 1.52983,0 3.05967,0 4.5895,0 3.4417,-4.23437 11.41957,-21.24647 14.86127,-25.48084 -30.69136,0.88276 -54.39435,8.62751 -74.45258,15.48157 -15.82149,5.51246 -51.21077,19.88264 -65.73991,33.43198 -84.75531,80.37522 -129.743487,68.19764 -130.065286,73.20045 -0.132506,8.72753 -47.397372,60.62912 -54.721309,55.26114 -7.323938,-5.36957 6.344774,-32.40317 4.713408,-46.74477 -0.953351,-8.61163 -12.589739,-6.06497 -8.747081,-15.05289 2.176876,-4.86786 -10.860284,-12.96666 -18.390724,-15.71495 -11.1597118,-3.67551 -15.8455864,-5.3791 0.887959,-7.98291 17.203337,-2.27992 57.627825,16.76601 71.840325,3.82475 C 184.84031,163.06545 121.3788,127.22176 292.88215,53.876829 z"
     id="path33"
     sodipodi:nodetypes="csccccccccccccccccssssssssc"
     inkscape:connector-curvature="0" />
  <path
     style="fill:#cdcbd4;fill-opacity:1;stroke:none"
     id="path12"
     d="m 307.87592,138.00058 c 85.0358,-10.8852 99.56838,6.2301 118.60442,13.34454 21.32306,2.03065 40.57593,18.34099 75.40077,13.87006 5.46886,-9.71984 5.53253,0.28896 2.41435,3.2881 -4.62564,2.30057 -12.75494,3.60088 -59.88214,-3.5977 -32.40877,3.90254 7.25855,12.4586 18.98958,15.93564 15.97293,5.40132 25.29133,25.35541 43.03846,26.87007 15.42054,0.33659 27.5749,-7.41134 18.38728,1.51307 -15.02302,13.92563 -46.85874,-16.48023 -54.13966,-18.22827 -5.63234,-1.26539 -13.38477,-0.43503 -23.6789,-3.06901 -18.69015,-3.39607 -33.6581,-8.00195 -56.22017,-12.58879 -9.94307,-0.53029 -44.57517,-5.08537 -63.75232,-2.09734 -19.77085,1.92428 -48.26124,9.38484 -72.59406,20.34942 -69.16613,32.29679 13.8081,-51.35383 53.43239,-55.58979 z"
     sodipodi:nodetypes="cccccscssccscc"
     inkscape:connector-curvature="0" />
  <path
     style="fill:#5c749c;fill-opacity:1;stroke:none"
     id="path8"
     d="m 414.35523,181.33499 c 8.03121,1.41146 22.3504,4.61701 30.38161,6.02846 9.51286,1.19077 17.42361,-1.06216 -3.20594,7.37006 -45.93637,14.42099 -47.53848,1.19871 -27.17567,-13.39852 z"
     sodipodi:nodetypes="cccc"
     inkscape:connector-curvature="0" />
  <path
     style="fill:#7f7f7f;fill-opacity:1;stroke:none"
     id="path9"
     d="m 423.64782,154.30298 c 8.80732,-4.34392 19.56779,8.22265 41.99047,11.32182 5.53597,0.63984 33.00762,5.76014 37.63326,1.64167 1.58835,-1.39875 5.39659,-8.43063 3.77555,3.23254 -1.15469,2.68002 -8.60253,7.87335 -53.40314,0.71922 -5.21934,-0.9796 -18.56453,-2.30691 -29.45407,-9.25305 -4.11971,-2.56889 -2.7654,-0.86053 -0.54207,-7.6622 z"
     sodipodi:nodetypes="cscccsc"
     inkscape:connector-curvature="0" />
  <path
     style="fill:#d6d6d6;fill-opacity:1;stroke:none"
     id="path6"
     d="m 435.77559,155.02559 c -3.21405,-2.92069 -7.12418,-3.19212 -11.07001,-2.4492 -5.41625,0.33386 -4.52521,8.90481 -1.05442,11.2406 4.22042,2.49253 5.86795,4.17206 10.74463,3.16026 6.48302,-1.2297 5.45057,-7.61394 1.3798,-11.95166 z"
     sodipodi:nodetypes="ccccc"
     inkscape:connector-curvature="0" />
  <path
     style="fill:#5c739c;fill-opacity:1;stroke:none"
     id="path7"
     d="m 383.61913,163.56398 c -12.23696,-0.48583 -16.20696,3.2246 -25.00223,7.10491 -23.18329,0.74939 -25.95386,21.73865 -35.94339,23.0612 -6.69239,1.94016 -32.55332,13.75892 20.79303,7.01124 20.36282,-8.64339 61.32937,-25.22522 40.15259,-37.17735 z"
     sodipodi:nodetypes="ccccc"
     inkscape:connector-curvature="0" />
  <ellipse
     style="fill:#040203;fill-opacity:1;stroke:none"
     id="ellipse13"
     cx="441.58432"
     cy="282.90918"
     rx="5.75"
     ry="4"
     transform="matrix(1.06581,0,0,1.35652,-38.05345,-223.16903)"
     sodipodi:cx="441.58432"
     sodipodi:cy="282.90918"
     sodipodi:rx="5.75"
     sodipodi:ry="4" />
  <ellipse
     style="fill:#fbfbfb;fill-opacity:1;stroke:none"
     id="ellipse14"
     cx="509.41229"
     cy="430.76065"
     rx="4.75"
     ry="4"
     transform="matrix(0.334229,0,0,0.368646,263.16315,4.5747741)"
     sodipodi:cx="509.41229"
     sodipodi:cy="430.76065"
     sodipodi:rx="4.75"
     sodipodi:ry="4" />
  <ellipse
     style="fill:#494d57;fill-opacity:1;stroke:none"
     id="ellipse16"
     cx="441.58432"
     cy="282.90918"
     rx="5.75"
     ry="4"
     transform="matrix(0.761464,0,0,0.41902,135.59215,-9.1912259)"
     sodipodi:cx="441.58432"
     sodipodi:cy="282.90918"
     sodipodi:rx="5.75"
     sodipodi:ry="4" />
</svg>
