<?xml version="1.0" encoding="UTF-8" standalone="no"?>
<svg
   xmlns:dc="http://purl.org/dc/elements/1.1/"
   xmlns:cc="http://creativecommons.org/ns#"
   xmlns:rdf="http://www.w3.org/1999/02/22-rdf-syntax-ns#"
   xmlns:svg="http://www.w3.org/2000/svg"
   xmlns="http://www.w3.org/2000/svg"
   xmlns:sodipodi="http://sodipodi.sourceforge.net/DTD/sodipodi-0.dtd"
   xmlns:inkscape="http://www.inkscape.org/namespaces/inkscape"
   style="fill:#000000;fill-opacity:0.5;stroke:none"
   width="81.770676"
   height="52.540985"
   id="svg1"
   sodipodi:docname="dolphin1.svg"
   version="1.1"
   inkscape:version="0.48.4 r9939"
   inkscape:export-filename="C:\Users\Schmid\Google Drive\dolphingame\images\dolphin3151.png"
   inkscape:export-xdpi="90"
   inkscape:export-ydpi="90">
  <title
     id="title2993">Other dolphin</title>
  <metadata
     id="metadata16">
    <rdf:RDF>
      <cc:Work
         rdf:about="">
        <dc:format>image/svg+xml</dc:format>
        <dc:type
           rdf:resource="http://purl.org/dc/dcmitype/StillImage" />
        <dc:title>Other dolphin</dc:title>
        <dc:date>2003</dc:date>
        <dc:creator>
          <cc:Agent>
            <dc:title>Enrique Meza C</dc:title>
          </cc:Agent>
        </dc:creator>
        <dc:rights>
          <cc:Agent>
            <dc:title>Public Domain</dc:title>
          </cc:Agent>
        </dc:rights>
      </cc:Work>
    </rdf:RDF>
  </metadata>
  <defs
     id="defs3" />
  <sodipodi:namedview
     id="base"
     showgrid="false"
     fit-margin-top="0"
     fit-margin-left="0"
     fit-margin-right="0"
     fit-margin-bottom="0"
     inkscape:zoom="1.4142136"
     inkscape:cx="44.601423"
     inkscape:cy="38.800494"
     inkscape:window-width="1360"
     inkscape:window-height="706"
     inkscape:window-x="-8"
     inkscape:window-y="-8"
     inkscape:window-maximized="1"
     inkscape:current-layer="svg1"
     showguides="true"
     inkscape:guide-bbox="true">
    <sodipodi:guide
       orientation="0,1"
       position="44.221594,567.73043"
       id="guide3179" />
  </sodipodi:namedview>
  <g
     id="g4093"
     inkscape:export-filename="C:\Users\Schmid\Desktop\dolphin270t.png"
     inkscape:export-xdpi="90"
     inkscape:export-ydpi="90"
     transform="translate(-0.2482428,0.2598415)">
    <path
       inkscape:connector-curvature="0"
       sodipodi:nodetypes="ccccc"
       d="m 46.275978,8.4539166 c -0.96254,-0.51148 0.0591,-2.13711 -0.24782,-3.94658 -2.48224,-3.47096 -3.0397,-4.07279002 -1.74847,-4.48195002 1.19437,-0.18567 2.16242,0.58013 4.05896,4.53702002 1.36752,3.87488 -1.23463,3.75632 -2.06267,3.89151 z"
       id="path15-5"
       style="fill:#7f7f7f;fill-opacity:1;stroke:none" />
    <path
       inkscape:connector-curvature="0"
       sodipodi:nodetypes="cccccc"
       d="m 43.825398,22.169377 c 7.66915,-5.61001 21.51184,-0.0765 30.57269,2.22104 4.98093,2.6892 3.20948,-4.24857 3.80032,-0.67863 0.51834,2.63633 0.96047,2.86008 -9.71057,1.59379 -1.08733,2.39981 -18.88039,-5.50797 -30.22862,4.92745 -9.84489,6.0241 2.21011,-6.42363 5.56618,-8.06365 z"
       id="path11-4"
       style="fill:#fcf5fd;fill-opacity:1;stroke:none" />
    <path
       inkscape:connector-curvature="0"
       sodipodi:nodetypes="csccccccccccccccccssssssssc"
       id="path33-2"
       d="m 45.357778,8.3437466 c 1.44233,-0.5965 1.80796,-1.77304 1.77945,-3.4357 -0.1146,-2.24809 -3.82005,-3.41848 -3.10236,-4.65698002 4.2374,-1.10621 9.07309,5.52937002 8.13154,7.77427002 1.18273,0.0459 2.71219,-0.42882 4.39995,-0.0735 11.05987,0 18.10355,7.2994704 20.12391,12.0078304 0.4933,0.92182 1.6699,1.79567 1.77465,6.66657 0.98872,0.92919 2.66902,2.85198 3.05757,4.626 1.21579,1.59872 -4.28962,2.06958 -6.22603,-0.61002 -2.57709,-1.72142 -8.09316,-3.42021 -10.79417,-3.57954 -2.20478,-0.43717 -2.08672,0.36488 -3.98182,-0.0723 -1.77677,0.98352 -3.55328,1.96705 -5.33006,2.95057 -0.71076,0.32776 -1.42126,0.65577 -2.13202,0.98353 -1.65818,0.10916 -3.31663,0.21858 -4.97481,0.32775 1.42126,-0.76493 2.84278,-1.52986 4.26405,-2.2948 0.23691,0 0.47384,0 0.71076,0 0.533,-0.65577 1.76852,-3.29038 2.30152,-3.94614 -4.75308,0.1367 -8.42389,1.33611 -11.53025,2.39758 -2.45022,0.8537 -7.93086,3.07917 -10.18094,5.17752 -13.1258,12.44747 -20.09299,10.56156 -20.14282,11.33632 -0.0205,1.35161 -7.3403002,9.38945 -8.4745302,8.55813 -1.13424,-0.83157 0.98259,-5.01817 0.72995,-7.23922 -0.14764,-1.33366 -1.94974,-0.93927 -1.35463,-2.3312 0.33712,-0.75386 -1.68191,-2.0081 -2.84813,-2.43372 -1.72826,-0.56922 -2.45395,-0.83304 0.13752,-1.23629 2.66423,-0.35308 8.9246502,2.5965 11.1257102,0.59233 15.80388,-14.57926 5.97579,-20.13027 32.53599,-31.4889704 z"
       style="fill:#855c9b;fill-opacity:1;stroke:none" />
    <path
       inkscape:connector-curvature="0"
       sodipodi:nodetypes="cccccscssccscc"
       d="m 47.679828,21.371737 c 13.16924,-1.68575 15.41986,0.96484 18.36791,2.06664 3.30224,0.31447 6.28387,2.8404 11.67709,2.148 0.84695,-1.50528 0.85682,0.0448 0.37391,0.50922 -0.71636,0.35628 -1.97532,0.55766 -9.27377,-0.55716 -5.01906,0.60437 1.12411,1.92943 2.94086,2.46791 2.47368,0.83648 3.91679,3.92671 6.66523,4.16129 2.38814,0.0521 4.27045,-1.14778 2.84759,0.23431 -2.32657,2.15663 -7.25688,-2.55224 -8.38445,-2.82295 -0.87226,-0.19598 -2.07286,-0.0674 -3.66708,-0.4753 -2.89449,-0.52593 -5.21253,-1.23923 -8.70665,-1.94958 -1.53985,-0.0821 -6.90322,-0.78756 -9.87312,-0.32481 -3.06187,0.29801 -7.47408,1.4534 -11.24243,3.15146 -10.71156,5.00171 2.13841,-7.95302 8.27491,-8.60903 z"
       id="path12-0"
       style="fill:#cdcbd4;fill-opacity:1;stroke:none" />
    <path
       inkscape:connector-curvature="0"
       sodipodi:nodetypes="cccc"
       d="m 64.169958,28.082807 c 1.24377,0.21859 3.46133,0.71502 4.70511,0.93361 1.47322,0.18442 2.69835,-0.16449 -0.49649,1.14138 -7.11403,2.23334 -7.36214,0.18564 -4.20862,-2.07499 z"
       id="path8-9"
       style="fill:#855c9b;fill-opacity:1;stroke:none" />
    <path
       inkscape:connector-curvature="0"
       sodipodi:nodetypes="cscccsc"
       d="m 65.609078,23.896447 c 1.36396,-0.67274 3.03041,1.27341 6.50294,1.75337 0.85733,0.0991 5.11179,0.89205 5.82814,0.25424 0.24598,-0.21662 0.83576,-1.30563 0.58471,0.50062 -0.17882,0.41504 -1.33225,1.21931 -8.27038,0.11138 -0.8083,-0.15171 -2.87503,-0.35726 -4.56146,-1.433 -0.63801,-0.39783 -0.42827,-0.13326 -0.0839,-1.18661 z"
       id="path9-7"
       style="fill:#7f7f7f;fill-opacity:1;stroke:none" />
    <path
       inkscape:connector-curvature="0"
       sodipodi:nodetypes="ccccc"
       d="m 67.487268,24.008347 c -0.49776,-0.45231 -1.10331,-0.49435 -1.71438,-0.37929 -0.8388,0.0517 -0.70081,1.37905 -0.1633,1.74079 0.65361,0.38601 0.90876,0.64612 1.66399,0.48942 1.00401,-0.19043 0.84412,-1.17915 0.21369,-1.85092 z"
       id="path6-3"
       style="fill:#d6d6d6;fill-opacity:1;stroke:none" />
    <path
       inkscape:connector-curvature="0"
       sodipodi:nodetypes="ccccc"
       d="m 59.409958,25.330667 c -1.89511,-0.0752 -2.50993,0.49938 -3.87203,1.10032 -3.59032,0.11605 -4.01939,3.3666 -5.56644,3.57142 -1.03644,0.30046 -5.04144,2.13079 3.22015,1.08581 3.15353,-1.33858 9.4979,-3.90656 6.21832,-5.75755 z"
       id="path7-7"
       style="fill:#855c9b;fill-opacity:1;stroke:none" />
    <ellipse
       sodipodi:ry="4"
       sodipodi:rx="5.75"
       sodipodi:cy="282.90918"
       sodipodi:cx="441.58432"
       transform="matrix(0.16505881,0,0,0.21008022,-5.8932222,-34.561523)"
       ry="4"
       rx="5.75"
       cy="282.90918"
       cx="441.58432"
       id="ellipse13-2"
       style="fill:#040203;fill-opacity:1;stroke:none"
       d="m 447.33432,282.90918 c 0,2.20914 -2.57436,4 -5.75,4 -3.17564,0 -5.75,-1.79086 -5.75,-4 0,-2.20914 2.57436,-4 5.75,-4 3.17564,0 5.75,1.79086 5.75,4 z" />
    <ellipse
       sodipodi:ry="4"
       sodipodi:rx="4.75"
       sodipodi:cy="430.76065"
       sodipodi:cx="509.41229"
       transform="matrix(0.05176105,0,0,0.05709111,40.755298,0.70847658)"
       ry="4"
       rx="4.75"
       cy="430.76065"
       cx="509.41229"
       id="ellipse14-6"
       style="fill:#fbfbfb;fill-opacity:1;stroke:none"
       d="m 514.16229,430.76065 c 0,2.20914 -2.12664,4 -4.75,4 -2.62335,0 -4.75,-1.79086 -4.75,-4 0,-2.20914 2.12665,-4 4.75,-4 2.62336,0 4.75,1.79086 4.75,4 z" />
    <ellipse
       sodipodi:ry="4"
       sodipodi:rx="5.75"
       sodipodi:cy="282.90918"
       sodipodi:cx="441.58432"
       transform="matrix(0.11792566,0,0,0.06489238,20.998748,-1.4234234)"
       ry="4"
       rx="5.75"
       cy="282.90918"
       cx="441.58432"
       id="ellipse16-0"
       style="fill:#494d57;fill-opacity:1;stroke:none"
       d="m 447.33432,282.90918 c 0,2.20914 -2.57436,4 -5.75,4 -3.17564,0 -5.75,-1.79086 -5.75,-4 0,-2.20914 2.57436,-4 5.75,-4 3.17564,0 5.75,1.79086 5.75,4 z" />
  </g>
  <g
     id="g4106"
     inkscape:export-filename="C:\Users\Schmid\Desktop\dolphin2701t.png"
     inkscape:export-xdpi="90"
     inkscape:export-ydpi="90"
     transform="translate(-0.2482428,0.2598415)">
    <path
       inkscape:connector-curvature="0"
       sodipodi:nodetypes="ccccc"
       d="m 211.75389,11.522357 c -1.03737,-0.551242 0.0636,-2.3032563 -0.26711,-4.2534207 -2.67522,-3.7408075 -3.27603,-4.3894378 -1.88441,-4.8303916 1.28725,-0.2001189 2.33056,0.6252254 4.37454,4.8897447 1.47385,4.1761626 -1.33061,4.0483756 -2.22302,4.1940676 z"
       id="path15"
       style="fill:#7f7f7f;fill-opacity:1;stroke:none" />
    <path
       inkscape:connector-curvature="0"
       sodipodi:nodetypes="cccccc"
       d="m 209.11277,26.304164 c 8.26541,-6.04618 23.18433,-0.0824 32.94962,2.39371 5.36819,2.89828 3.45902,-4.578883 4.09579,-0.731388 0.55865,2.841311 1.03515,3.082453 -10.46553,1.717717 -1.17187,2.586371 -20.3483,-5.936208 -32.57882,5.310549 -10.61029,6.492436 2.38194,-6.923063 5.99894,-8.690588 z"
       id="path11"
       style="fill:#fcf5fd;fill-opacity:1;stroke:none" />
    <path
       inkscape:connector-curvature="0"
       sodipodi:nodetypes="csccccccccccccccccssssssssc"
       id="path33"
       d="m 210.76429,11.403621 c 1.55445,-0.642883 1.94854,-1.9108927 1.91779,-3.7028119 -0.1235,-2.4228721 -4.11705,-3.6842637 -3.34355,-5.0190454 4.56683,-1.1922255 9.77849,5.9592676 8.76374,8.3786773 1.27469,0.04946 2.92306,-0.462153 4.74204,-0.07924 11.91975,0 19.51105,7.866975 21.68848,12.941406 0.53165,0.993472 1.79974,1.935277 1.91261,7.184879 1.0656,1.001426 2.87654,3.073699 3.29532,4.98567 1.3103,1.723 -4.62314,2.230469 -6.7101,-0.657464 -2.77745,-1.855249 -8.72239,-3.686124 -11.63339,-3.857832 -2.37619,-0.471165 -2.24894,0.393253 -4.29139,-0.07795 -1.91492,1.059997 -3.82955,2.119984 -5.74446,3.179971 -0.76603,0.353239 -1.53176,0.706746 -2.29777,1.059986 -1.78711,0.117658 -3.5745,0.235573 -5.3616,0.35325 1.53176,-0.824414 3.0638,-1.648809 4.59557,-2.473223 0.25533,0 0.51067,0 0.76603,0 0.57443,-0.706757 1.906,-3.546199 2.48044,-4.252946 -5.12262,0.147344 -9.07882,1.439995 -12.42668,2.583986 -2.64073,0.920072 -7.8944,4.346981 -10.97249,5.580051 -16.67243,6.678884 -23.12874,-0.826917 -23.18245,0.0089 -0.0222,1.456673 -7.91098,10.119454 -9.1334,9.22349 -1.22241,-0.896222 1.059,-5.408333 0.78671,-7.802053 -0.15913,-1.437343 -2.10133,-1.012286 -1.45995,-2.512426 0.36334,-0.812484 -1.81267,-2.164251 -3.06955,-2.622951 -1.86264,-0.613464 -2.64475,-0.897824 0.1482,-1.332408 2.87137,-0.380542 8.8854,1.444585 11.99069,0.638382 19.97974,-5.187212 14.4398,-4.222942 36.53916,-21.727533 z"
       style="fill:#855c9b;fill-opacity:1;stroke:none" />
    <path
       inkscape:connector-curvature="0"
       sodipodi:nodetypes="cccccscssccscc"
       d="m 213.26687,25.444504 c 14.19311,-1.816818 16.6187,1.039856 19.79596,2.227303 3.55898,0.338946 6.77243,3.061255 12.58496,2.315018 0.91279,-1.622308 0.92342,0.04827 0.40297,0.548808 -0.77204,0.383985 -2.1289,0.60102 -9.99478,-0.600475 -5.40926,0.651361 1.21151,2.079426 3.16951,2.65978 2.66601,0.901514 4.22132,4.232004 7.18344,4.484808 2.57381,0.05619 4.60246,-1.236997 3.06897,0.252548 -2.50745,2.324287 -7.82106,-2.750679 -9.03632,-3.042429 -0.94007,-0.211218 -2.23401,-0.07261 -3.95217,-0.512257 -3.11953,-0.566822 -5.6178,-1.335573 -9.38357,-2.101149 -1.65958,-0.08854 -7.43993,-0.848799 -10.64075,-0.350074 -3.29989,0.321179 -8.05515,1.566397 -12.11649,3.39647 -11.54434,5.390576 2.30468,-8.571337 8.91827,-9.278351 z"
       id="path12"
       style="fill:#cdcbd4;fill-opacity:1;stroke:none" />
    <path
       inkscape:connector-curvature="0"
       sodipodi:nodetypes="cccc"
       d="m 231.03906,32.67734 c 1.34047,0.235592 3.73044,0.770621 5.07093,1.006203 1.58776,0.198744 2.90813,-0.177288 -0.53512,1.230122 -7.66711,2.406966 -7.93451,0.20007 -4.53581,-2.236325 z"
       id="path8"
       style="fill:#855c9b;fill-opacity:1;stroke:none" />
    <path
       inkscape:connector-curvature="0"
       sodipodi:nodetypes="cscccsc"
       d="m 232.59007,28.165496 c 1.47001,-0.725027 3.26601,1.372422 7.00853,1.889704 0.92398,0.106756 5.50921,0.961411 6.28127,0.274003 0.2651,-0.233465 0.90072,-1.407143 0.63016,0.53954 -0.19272,0.447304 -1.43582,1.314117 -8.91338,0.120031 -0.87115,-0.163488 -3.09856,-0.385033 -4.91611,-1.544397 -0.6876,-0.428756 -0.46157,-0.143624 -0.0904,-1.278881 z"
       id="path9"
       style="fill:#7f7f7f;fill-opacity:1;stroke:none" />
    <path
       inkscape:connector-curvature="0"
       sodipodi:nodetypes="ccccc"
       d="m 234.61427,28.286112 c -0.53643,-0.487477 -1.18907,-0.532803 -1.84765,-0.408785 -0.90401,0.05559 -0.7553,1.486271 -0.176,1.876141 0.70441,0.416006 0.97942,0.696331 1.79336,0.527471 1.08206,-0.205253 0.90974,-1.270828 0.23029,-1.994827 z"
       id="path6"
       style="fill:#d6d6d6;fill-opacity:1;stroke:none" />
    <path
       inkscape:connector-curvature="0"
       sodipodi:nodetypes="ccccc"
       d="m 225.90898,29.711229 c -2.04244,-0.08112 -2.70506,0.538214 -4.17307,1.185855 -3.86946,0.125086 -4.33187,3.628353 -5.99921,3.849097 -1.11701,0.32383 -5.43339,2.29647 3.47051,1.170225 3.39872,-1.442646 10.23633,-4.21028 6.70177,-6.205177 z"
       id="path7"
       style="fill:#855c9b;fill-opacity:1;stroke:none" />
    <ellipse
       sodipodi:ry="4"
       sodipodi:rx="5.75"
       sodipodi:cy="282.90918"
       sodipodi:cx="441.58432"
       transform="matrix(0.17789168,0,0,0.22641336,155.52866,-34.83741)"
       ry="4"
       rx="5.75"
       cy="282.90918"
       cx="441.58432"
       id="ellipse13"
       style="fill:#040203;fill-opacity:1;stroke:none"
       d="m 447.33432,282.90918 c 0,2.20914 -2.57436,4 -5.75,4 -3.17564,0 -5.75,-1.79086 -5.75,-4 0,-2.20914 2.57436,-4 5.75,-4 3.17564,0 5.75,1.79086 5.75,4 z" />
    <ellipse
       sodipodi:ry="4"
       sodipodi:rx="4.75"
       sodipodi:cy="430.76065"
       sodipodi:cx="509.41229"
       transform="matrix(0.05578533,0,0,0.06152978,205.80397,3.1747406)"
       ry="4"
       rx="4.75"
       cy="430.76065"
       cx="509.41229"
       id="ellipse14"
       style="fill:#fbfbfb;fill-opacity:1;stroke:none"
       d="m 514.16229,430.76065 c 0,2.20914 -2.12664,4 -4.75,4 -2.62335,0 -4.75,-1.79086 -4.75,-4 0,-2.20914 2.12665,-4 4.75,-4 2.62336,0 4.75,1.79086 4.75,4 z" />
    <ellipse
       sodipodi:ry="4"
       sodipodi:rx="5.75"
       sodipodi:cy="282.90918"
       sodipodi:cx="441.58432"
       transform="matrix(0.12709405,0,0,0.06993758,184.51141,0.87709353)"
       ry="4"
       rx="5.75"
       cy="282.90918"
       cx="441.58432"
       id="ellipse16"
       style="fill:#494d57;fill-opacity:1;stroke:none"
       d="m 447.33432,282.90918 c 0,2.20914 -2.57436,4 -5.75,4 -3.17564,0 -5.75,-1.79086 -5.75,-4 0,-2.20914 2.57436,-4 5.75,-4 3.17564,0 5.75,1.79086 5.75,4 z" />
  </g>
</svg>
