<?xml version="1.0" encoding="UTF-8" standalone="no"?>
<!-- Created with Inkscape (http://www.inkscape.org/) -->

<svg
   xmlns:dc="http://purl.org/dc/elements/1.1/"
   xmlns:cc="http://creativecommons.org/ns#"
   xmlns:rdf="http://www.w3.org/1999/02/22-rdf-syntax-ns#"
   xmlns:svg="http://www.w3.org/2000/svg"
   xmlns="http://www.w3.org/2000/svg"
   xmlns:sodipodi="http://sodipodi.sourceforge.net/DTD/sodipodi-0.dtd"
   xmlns:inkscape="http://www.inkscape.org/namespaces/inkscape"
   width="130.22865"
   height="53.777699"
   id="svg2"
   version="1.1"
   inkscape:version="0.48.4 r9939"
   sodipodi:docname="hai.svg"
   inkscape:export-filename="C:\Users\Schmid\Desktop\hai.png"
   inkscape:export-xdpi="90"
   inkscape:export-ydpi="90">
  <defs
     id="defs4">
    <filter
       inkscape:collect="always"
       id="filter3801"
       x="-0.033532176"
       width="1.0670644"
       y="-0.27606457"
       height="1.5521291"
       color-interpolation-filters="sRGB">
      <feGaussianBlur
         inkscape:collect="always"
         stdDeviation="4.7020395"
         id="feGaussianBlur3803" />
    </filter>
    <filter
       inkscape:collect="always"
       id="filter3811"
       x="-0.089690372"
       width="1.1793807"
       y="-0.16261797"
       height="1.3252358"
       color-interpolation-filters="sRGB">
      <feGaussianBlur
         inkscape:collect="always"
         stdDeviation="2.3989701"
         id="feGaussianBlur3813" />
    </filter>
    <filter
       inkscape:collect="always"
       id="filter3841"
       x="-0.096315704"
       width="1.1926314"
       y="-0.20749053"
       height="1.4149811"
       color-interpolation-filters="sRGB">
      <feGaussianBlur
         inkscape:collect="always"
         stdDeviation="1.6542214"
         id="feGaussianBlur3843" />
    </filter>
    <filter
       inkscape:collect="always"
       id="filter3888"
       x="-0.10779945"
       width="1.2155989"
       y="-0.47058162"
       height="1.9411632"
       color-interpolation-filters="sRGB">
      <feGaussianBlur
         inkscape:collect="always"
         stdDeviation="2.5146773"
         id="feGaussianBlur3890" />
    </filter>
    <filter
       inkscape:collect="always"
       id="filter3914"
       x="-0.35513979"
       width="1.7102796"
       y="-0.1095452"
       height="1.2190903"
       color-interpolation-filters="sRGB">
      <feGaussianBlur
         inkscape:collect="always"
         stdDeviation="1.222603"
         id="feGaussianBlur3916" />
    </filter>
    <filter
       inkscape:collect="always"
       id="filter3956"
       x="-0.15930325"
       width="1.3186065"
       y="-0.35163271"
       height="1.7032654"
       color-interpolation-filters="sRGB">
      <feGaussianBlur
         inkscape:collect="always"
         stdDeviation="3.0340234"
         id="feGaussianBlur3958" />
    </filter>
    <filter
       inkscape:collect="always"
       id="filter3966"
       x="-0.25221708"
       width="1.5044342"
       y="-0.10423485"
       height="1.2084697"
       color-interpolation-filters="sRGB">
      <feGaussianBlur
         inkscape:collect="always"
         stdDeviation="3.5055176"
         id="feGaussianBlur3968" />
    </filter>
    <filter
       inkscape:collect="always"
       id="filter3996"
       x="-0.85131103"
       width="2.7026222"
       y="-0.17842421"
       height="1.3568484"
       color-interpolation-filters="sRGB">
      <feGaussianBlur
         inkscape:collect="always"
         stdDeviation="3.097068"
         id="feGaussianBlur3998" />
    </filter>
  </defs>
  <sodipodi:namedview
     id="base"
     pagecolor="#ffffff"
     bordercolor="#666666"
     borderopacity="1.0"
     inkscape:pageopacity="0.0"
     inkscape:pageshadow="2"
     inkscape:zoom="1.979899"
     inkscape:cx="16.749509"
     inkscape:cy="-3.6878022"
     inkscape:document-units="px"
     inkscape:current-layer="layer1"
     showgrid="false"
     showguides="true"
     inkscape:guide-bbox="true"
     fit-margin-top="0"
     fit-margin-left="0"
     fit-margin-right="0"
     fit-margin-bottom="0"
     inkscape:window-width="1360"
     inkscape:window-height="706"
     inkscape:window-x="-8"
     inkscape:window-y="-8"
     inkscape:window-maximized="1" />
  <metadata
     id="metadata7">
    <rdf:RDF>
      <cc:Work
         rdf:about="">
        <dc:format>image/svg+xml</dc:format>
        <dc:type
           rdf:resource="http://purl.org/dc/dcmitype/StillImage" />
        <dc:title></dc:title>
      </cc:Work>
    </rdf:RDF>
  </metadata>
  <g
     inkscape:label="Ebene 1"
     inkscape:groupmode="layer"
     id="layer1"
     transform="translate(-528.08022,-769.7493)">
    <g
       id="g4086"
       transform="matrix(0.3173846,0,0,0.3173846,511.48152,595.49532)">
      <path
         sodipodi:nodetypes="cscc"
         inkscape:connector-curvature="0"
         id="path3002"
         d="m 336.42857,631.6479 c 0,0 21.33547,-17.92144 26.05349,-17.22952 6.98616,1.02456 18.94651,24.37237 18.94651,24.37237 z"
         style="fill:#b5bdce;fill-opacity:1;stroke:none" />
      <path
         sodipodi:nodetypes="cscc"
         inkscape:connector-curvature="0"
         id="path3008"
         d="m 342.69054,668.83598 c 0,0 16.61277,14.77269 20.20267,14.24622 5.31572,-0.77959 14.41624,-18.54473 14.41624,-18.54473 z"
         style="fill:#b5bdce;fill-opacity:1;stroke:none" />
      <path
         style="fill:#b5bdce;fill-opacity:1;stroke:none"
         d="m 282.83176,675.72845 c 0,0 21.33547,17.92144 26.05349,17.22952 6.98616,-1.02456 18.94651,-24.37237 18.94651,-24.37237 z"
         id="path3006"
         inkscape:connector-curvature="0"
         sodipodi:nodetypes="cscc" />
      <path
         sodipodi:nodetypes="cccc"
         inkscape:connector-curvature="0"
         id="path3010"
         d="m 194.66358,693.06912 c 38.35308,1.64018 99.56567,46.69548 82.62329,12.81074 -8.88885,-27.7975 -30.58258,-26.92063 -56.56854,-34.34519 z"
         style="fill:#8ca5b5;fill-opacity:1;stroke:none" />
      <path
         sodipodi:nodetypes="cccc"
         inkscape:connector-curvature="0"
         id="path3000"
         d="m 243.57143,553.79075 c 1.16358,16.75844 -1.78099,85.50261 -17.85714,76.42858 -7.85715,0 -60.62148,-13.57143 -60.62148,-13.57143 25.72608,-9.53522 33.63805,-65.92379 78.47862,-62.85715 z"
         style="fill:#848ca5;fill-opacity:1;stroke:none" />
      <path
         sodipodi:nodetypes="ssccccs"
         inkscape:connector-curvature="0"
         id="path2998"
         d="m 52.857143,650.21933 c 7.10131,-26.2953 100.992577,-52.30515 138.571427,-49.28571 68.87826,5.53432 97.43382,25.16785 202.14286,36.42857 l 13.57143,15.71428 -15,10.71429 c -93.13486,7.92055 -116.68053,27.18705 -176.42857,31.42857 -40.75736,1.58132 -173.05682,-7.23184 -162.857147,-45 z"
         style="fill:#8c9cad;fill-opacity:1;stroke:none" />
      <path
         sodipodi:nodetypes="ccccc"
         inkscape:connector-curvature="0"
         id="path3792"
         d="m 97.428772,668.09724 c 22.016728,15.38654 79.602808,19.16765 114.738868,17.80443 51.50752,-3.65653 71.81345,-20.27347 152.10304,-27.10161 7.21022,-6.90211 30.70277,1.25758 24.01104,-6.50261 -110.6695,8.55354 -180.74904,4.51907 -290.852948,15.79979 z"
         style="fill:#c7cfd6;fill-opacity:1;stroke:none;filter:url(#filter3801)" />
      <path
         style="fill:#848ca5;fill-opacity:1;stroke:none"
         d="m 454.6967,586.06359 c 6.91359,-3.07912 9.72355,13.87178 6.73187,16.29859 -39.81209,32.2951 -32.4794,55.53557 -30.71428,101.42857 -78.55097,-50.23386 -27.5562,-94.77331 23.98241,-117.72716 z"
         id="path4025"
         inkscape:connector-curvature="0"
         sodipodi:nodetypes="sscs" />
      <path
         transform="matrix(0.84609435,0,0,0.84609435,16.596034,100.82604)"
         d="m 117.1777,645.27069 c 0,6.97365 -5.65326,12.62691 -12.62691,12.62691 -6.973649,0 -12.626908,-5.65326 -12.626908,-12.62691 0,-6.97365 5.653259,-12.62691 12.626908,-12.62691 6.97365,0 12.62691,5.65326 12.62691,12.62691 z"
         sodipodi:ry="12.626906"
         sodipodi:rx="12.626906"
         sodipodi:cy="645.27069"
         sodipodi:cx="104.55079"
         id="path3012"
         style="fill:#29dec6;fill-opacity:1;fill-rule:nonzero;stroke:none"
         sodipodi:type="arc" />
      <path
         transform="matrix(1.6897753,0,0,1.6897753,-76.697253,-445.69318)"
         d="m 109.60155,646.78595 c 0,1.95262 -1.58291,3.53553 -3.53553,3.53553 -1.95262,0 -3.53554,-1.58291 -3.53554,-3.53553 0,-1.95262 1.58292,-3.53553 3.53554,-3.53553 1.95262,0 3.53553,1.58291 3.53553,3.53553 z"
         sodipodi:ry="3.5355339"
         sodipodi:rx="3.5355339"
         sodipodi:cy="646.78595"
         sodipodi:cx="106.06602"
         id="path3014"
         style="fill:#000000;fill-opacity:1;fill-rule:nonzero;stroke:none"
         sodipodi:type="arc" />
      <path
         style="fill:#8ca5b5;fill-opacity:1;stroke:none;filter:url(#filter3811)"
         d="m 206.80644,692.10591 c 28.55845,1.22131 74.67041,32.37694 62.05479,7.14571 -17.35302,-31.32211 -40.32356,-27.23685 -62.05479,-7.14571 z"
         id="path3805"
         inkscape:connector-curvature="0"
         sodipodi:nodetypes="ccc" />
      <path
         transform="matrix(0.74331331,0,0,0.74331331,79.319544,173.12832)"
         sodipodi:nodetypes="ssss"
         inkscape:connector-curvature="0"
         id="path3815"
         d="m 286.69796,681.44115 c -6.11019,4.37546 18.76336,9.57245 22.16885,9.07302 5.04264,-0.73953 22.78642,-16.07578 15.78861,-18.56534 -12.10611,-4.30691 -26.03242,0.95289 -37.95746,9.49232 z"
         style="fill:#b5bdce;fill-opacity:1;stroke:none;filter:url(#filter3841)" />
      <path
         style="fill:#b5bdce;fill-opacity:1;stroke:none;filter:url(#filter3841)"
         d="m 283.97999,681.44115 c -6.11019,4.37546 20.46209,13.47954 23.86758,12.98011 5.04264,-0.73953 22.9563,-15.22642 15.95849,-17.71598 -12.10611,-4.30691 -27.90103,-3.80356 -39.82607,4.73587 z"
         id="path3845"
         inkscape:connector-curvature="0"
         sodipodi:nodetypes="ssss"
         transform="matrix(0.74331331,0,0,0.74331331,133.61524,161.7641)" />
      <path
         style="fill:#b5bdce;fill-opacity:1;stroke:none;filter:url(#filter3841)"
         d="m 278.5988,679.9329 c -6.11019,4.37546 24.14455,10.57108 27.55004,10.07165 5.04264,-0.73953 37.13322,-15.60737 30.13541,-18.09693 -12.10611,-4.30691 -45.76041,-0.51415 -57.68545,8.02528 z"
         id="path3847"
         inkscape:connector-curvature="0"
         sodipodi:nodetypes="ssss"
         transform="matrix(0.74331331,0,0,-0.74331331,130.74812,1138.3202)" />
      <path
         sodipodi:nodetypes="ccccc"
         inkscape:connector-curvature="0"
         id="path3863"
         d="m 183.125,600.21875 c 0.12538,0.1281 3.28164,-0.55651 0.19643,0.37504 22.5953,9.60384 38.67585,10.9283 55.77232,7.59375 1.03144,-10.42174 -45.36965,-7.96875 -55.96875,-7.96875 z"
         style="fill:#848ca5;fill-opacity:1;stroke:none;filter:url(#filter3888)" />
      <path
         sodipodi:nodetypes="czcc"
         inkscape:connector-curvature="0"
         id="path3892"
         d="m 395,636.82646 c 0,0 -6.18593,1.99454 -6.56249,13.34822 -0.37656,11.35368 4.24106,13.4375 4.24106,13.4375 z"
         style="fill:#848ca5;fill-opacity:1;stroke:none;filter:url(#filter3914)" />
      <path
         sodipodi:nodetypes="cc"
         inkscape:connector-curvature="0"
         id="path3918"
         d="m 136.13354,653.20611 -0.24865,26.10837"
         style="fill:#63738c;fill-opacity:1;stroke:#7e8da3;stroke-width:4.17734003;stroke-linecap:round;stroke-linejoin:round;stroke-miterlimit:4;stroke-opacity:1;stroke-dasharray:none" />
      <path
         sodipodi:nodetypes="cc"
         inkscape:connector-curvature="0"
         id="path3920"
         d="m 144.33903,655.69262 -0.4973,21.13535"
         style="fill:#63738c;fill-opacity:1;stroke:#7e8da3;stroke-width:4.17734003;stroke-linecap:round;stroke-linejoin:round;stroke-miterlimit:4;stroke-opacity:1;stroke-dasharray:none" />
      <path
         sodipodi:nodetypes="cc"
         inkscape:connector-curvature="0"
         id="path3922"
         d="m 152.79317,658.55211 -0.24865,15.41637"
         style="fill:#63738c;fill-opacity:1;stroke:#7e8da3;stroke-width:4.17734003;stroke-linecap:round;stroke-linejoin:round;stroke-miterlimit:4;stroke-opacity:1;stroke-dasharray:none" />
      <path
         sodipodi:nodetypes="cscc"
         inkscape:connector-curvature="0"
         id="path3930"
         d="m 64.553572,671.29075 c 0,0 36.456818,-2.26184 36.607138,0 0.51299,7.71888 2.20855,3.5811 -29.374995,3.79465 z"
         style="fill:#63738c;fill-opacity:1;stroke:none" />
      <path
         sodipodi:nodetypes="ccc"
         inkscape:connector-curvature="0"
         id="path3934"
         d="m 223.49625,694.76818 c 15.63045,3.58579 34.1949,22.22134 45.7094,13.38452 -16.2687,-4.26943 -29.70835,-18.5277 -45.7094,-13.38452 z"
         style="fill:#abbdc9;fill-opacity:1;stroke:none;filter:url(#filter3956)" />
      <path
         sodipodi:nodetypes="cccc"
         inkscape:connector-curvature="0"
         id="path3960"
         d="M 421.97698,692.56088 C 414.14545,654.44034 417.30857,633.91207 447.5,606.29075 l 4.28572,3.21429 c -32.11013,10.75567 -26.5975,64.58447 -29.80874,83.05584 z"
         style="fill:#67708f;fill-opacity:1;stroke:none;filter:url(#filter3966)" />
      <path
         sodipodi:nodetypes="ccc"
         inkscape:connector-curvature="0"
         id="path3970"
         d="m 229.21272,603.26798 c 2.90835,-17.97318 -4.54506,-40.20511 11.622,-46.80404 -2.75539,15.30652 2.12363,52.8028 -11.622,46.80404 z"
         style="fill:#707896;fill-opacity:1;stroke:none;filter:url(#filter3996)" />
    </g>
  </g>
</svg>
