<?xml version="1.0" encoding="UTF-8" standalone="no"?>
<!-- Created with Inkscape (http://www.inkscape.org/) -->

<svg
   xmlns:dc="http://purl.org/dc/elements/1.1/"
   xmlns:cc="http://creativecommons.org/ns#"
   xmlns:rdf="http://www.w3.org/1999/02/22-rdf-syntax-ns#"
   xmlns:svg="http://www.w3.org/2000/svg"
   xmlns="http://www.w3.org/2000/svg"
   xmlns:sodipodi="http://sodipodi.sourceforge.net/DTD/sodipodi-0.dtd"
   xmlns:inkscape="http://www.inkscape.org/namespaces/inkscape"
   width="77.738823"
   height="20"
   id="svg2"
   version="1.1"
   inkscape:version="0.48.4 r9939"
   sodipodi:docname="Health.svg"
   inkscape:export-filename="C:\Users\Schmid\Desktop\health.png"
   inkscape:export-xdpi="90"
   inkscape:export-ydpi="90">
  <defs
     id="defs4" />
  <sodipodi:namedview
     id="base"
     pagecolor="#ffffff"
     bordercolor="#666666"
     borderopacity="1.0"
     inkscape:pageopacity="0.0"
     inkscape:pageshadow="2"
     inkscape:zoom="2.56"
     inkscape:cx="53.920631"
     inkscape:cy="46.928623"
     inkscape:document-units="px"
     inkscape:current-layer="layer1"
     showgrid="false"
     fit-margin-top="0"
     fit-margin-left="0"
     fit-margin-right="0"
     fit-margin-bottom="0"
     inkscape:window-width="1360"
     inkscape:window-height="706"
     inkscape:window-x="-8"
     inkscape:window-y="-8"
     inkscape:window-maximized="1" />
  <metadata
     id="metadata7">
    <rdf:RDF>
      <cc:Work
         rdf:about="">
        <dc:format>image/svg+xml</dc:format>
        <dc:type
           rdf:resource="http://purl.org/dc/dcmitype/StillImage" />
        <dc:title></dc:title>
      </cc:Work>
    </rdf:RDF>
  </metadata>
  <g
     inkscape:label="Ebene 1"
     inkscape:groupmode="layer"
     id="layer1"
     transform="translate(-137.96756,-449.13422)">
    <g
       id="g4020"
       inkscape:export-filename="C:\Users\Schmid\Desktop\Health.png"
       inkscape:export-xdpi="90"
       inkscape:export-ydpi="90"
       transform="matrix(1.0738255,0,0,1.0738255,-10.185518,-34.634043)">
      <g
         id="g4122"
         inkscape:export-filename="C:\Users\Schmid\Desktop\Health.png"
         inkscape:export-xdpi="90"
         inkscape:export-ydpi="90">
        <text
           inkscape:export-ydpi="90"
           inkscape:export-xdpi="90"
           inkscape:export-filename="C:\Users\Schmid\Desktop\Health.png"
           sodipodi:linespacing="125%"
           id="text3005"
           y="467.62622"
           x="137.31927"
           style="font-size:57.96639252px;font-style:normal;font-weight:normal;line-height:125%;letter-spacing:0px;word-spacing:0px;fill:#99ff55;fill-opacity:1;stroke:none;font-family:Sans"
           xml:space="preserve"><tspan
             style="font-size:21.78723335px;font-style:normal;font-variant:normal;font-weight:normal;font-stretch:normal;fill:#99ff55;fill-opacity:1;font-family:Comic Sans MS;-inkscape-font-specification:Comic Sans MS"
             y="467.62622"
             x="137.31927"
             id="tspan3007"
             sodipodi:role="line">Health:</tspan></text>
        <path
           inkscape:connector-curvature="0"
           id="text4117"
           d="m 208.0623,456.08031 c -0.10779,0.0485 -0.201,0.1197 -0.29102,0.20371 -0.21277,0.1986 -0.32012,0.45169 -0.32011,0.75664 -1e-5,0.0922 0.0263,0.20458 0.0582,0.37832 0.0319,0.17377 0.0291,0.32233 0.0291,0.40743 0,0.31916 0.11444,0.58007 0.32012,0.78574 0.20567,0.20568 0.46659,0.29102 0.78574,0.29101 0.31914,10e-6 0.58361,-0.0853 0.78574,-0.29101 0.0505,-0.0514 0.0785,-0.1161 0.11641,-0.17461 -0.13032,0.0514 -0.27695,0.0582 -0.43653,0.0582 -0.31915,10e-6 -0.58007,-0.0853 -0.78574,-0.29101 -0.20567,-0.20567 -0.32012,-0.46659 -0.32012,-0.78575 0,-0.0851 -0.0263,-0.23365 -0.0582,-0.40742 -0.0319,-0.17375 -0.0291,-0.28611 -0.0291,-0.37832 0,-0.20607 0.0483,-0.39542 0.14551,-0.55293 z m 0.1164,7.4209 c -0.0893,0.0454 -0.18281,0.1043 -0.26191,0.17461 -0.22341,0.19859 -0.32012,0.42967 -0.32012,0.72754 0,0.12766 0.0121,0.32317 0.0582,0.58203 0.0461,0.25887 0.0873,0.47638 0.0873,0.61113 0,0.31915 0.0853,0.58007 0.29102,0.78575 0.19858,0.20567 0.46659,0.29101 0.78574,0.29101 0.31914,0 0.58006,-0.0853 0.78574,-0.29101 0.0613,-0.0613 0.10248,-0.13233 0.14551,-0.20371 -0.14636,0.0684 -0.31061,0.0873 -0.49473,0.0873 -0.31915,0 -0.55806,-0.0853 -0.75664,-0.29102 -0.20567,-0.20567 -0.32012,-0.46659 -0.32012,-0.78574 0,-0.13475 -0.0121,-0.35226 -0.0582,-0.61113 -0.0461,-0.25886 -0.0873,-0.45437 -0.0873,-0.58203 0,-0.18654 0.0579,-0.34713 0.1455,-0.49473 z"
           style="font-size:57.96639252px;font-style:normal;font-weight:normal;line-height:125%;letter-spacing:0px;word-spacing:0px;fill:#53d100;fill-opacity:1;stroke:none;font-family:Sans" />
        <path
           transform="translate(138.9363,450.5092)"
           style="font-size:57.96639252px;font-style:normal;font-weight:normal;line-height:125%;letter-spacing:0px;word-spacing:0px;fill:#53d100;fill-opacity:1;stroke:none;font-family:Sans"
           d="m 40.46875,0.625 c -0.695038,1.712e-5 -1.031252,0.35329693 -1.03125,1.0625 -2e-6,1.1205823 -0.02704,2.4005013 -0.0625,3.84375 -0.03546,1.4432731 -0.03125,2.7231921 -0.03125,3.84375 -2e-6,0.858164 -0.04699,2.155148 -0.125,3.875 -0.07802,1.719861 -0.125002,3.016845 -0.125,3.875 -2e-6,0.723404 0.336212,1.0625 1.03125,1.0625 0.477794,0 0.783918,-0.209339 0.9375,-0.625 -0.670924,-0.01244 -1.000002,-0.351755 -1,-1.0625 -2e-6,-0.858155 0.04698,-2.155139 0.125,-3.875 0.07801,-1.719852 0.124998,-3.0168365 0.125,-3.875 -2e-6,-1.1205579 -0.0042,-2.4004769 0.03125,-3.84375 0.03546,-1.4432487 0.0625,-2.7231677 0.0625,-3.84375 -10e-7,-0.16568718 0.02457,-0.31052051 0.0625,-0.4375 z M 56.1875,0.6875 C 55.903747,0.69437722 55.666911,0.81210295 55.46875,1 c -0.205676,0.195052 -0.312502,0.420894 -0.3125,0.71875 -2e-6,0.3475334 0.02637,0.6773203 0.09375,1 0.06737,0.3227097 0.09375,0.6695622 0.09375,1.03125 -2e-6,0.3049782 -0.01286,0.9018305 -0.0625,1.78125 L 55.25,13.34375 55.21875,14.9375 c -0.02128,0.858158 -0.06826,1.353946 -0.125,1.53125 C 55.02992,16.681517 55,16.83821 55,16.9375 c -2e-6,0.283688 0.12389,0.551419 0.34375,0.75 0.219856,0.198581 0.459218,0.28125 0.75,0.28125 0.405025,0 0.707209,-0.213019 0.90625,-0.625 -0.264002,-0.0138 -0.484165,-0.09759 -0.6875,-0.28125 -0.21986,-0.198581 -0.343752,-0.435062 -0.34375,-0.71875 -2e-6,-0.09929 0.02992,-0.255983 0.09375,-0.46875 0.05674,-0.177304 0.103722,-0.704342 0.125,-1.5625 L 56.21875,12.71875 56.25,4.90625 c 0.04964,-0.8794195 0.0625,-1.4762718 0.0625,-1.78125 -2e-6,-0.3616878 -0.02638,-0.6772903 -0.09375,-1 C 56.15137,1.8023203 56.125,1.4412834 56.125,1.09375 56.124999,0.94482199 56.13608,0.81072692 56.1875,0.6875 z M 0.5625,1.21875 c -0.29078298,1.65e-5 -0.55496715,0.082685 -0.75,0.28125 -0.19503767,0.1985976 -0.28125212,0.4521435 -0.28125,0.75 -2.12e-6,0.5602986 -0.0228301,1.4071506 -0.09375,2.53125 -0.0709239,1.1241253 -0.1250019,1.9709773 -0.125,2.53125 -1.9e-6,0.3971731 0.0341293,0.9940254 0.0625,1.78125 0.0283668,0.7872419 0.031248,1.359936 0.03125,1.75 -1.99e-6,0.751779 -0.0633885,1.882097 -0.1875,3.375 -0.12411515,1.49291 -0.18750162,2.623228 -0.1875,3.375 -1.62e-6,0.29078 0.0862128,0.516622 0.28125,0.71875 0.19503335,0.202127 0.45921752,0.312499 0.75,0.3125 0.2907772,-1e-6 0.52371137,-0.110373 0.71875,-0.3125 C 0.87245609,18.217975 0.9514454,18.113912 1,18 0.72360524,17.99269 0.46895551,17.882033 0.28125,17.6875 0.08621283,17.485372 -1.6170212e-6,17.25953 0,16.96875 -1.6170212e-6,16.216978 0.06338485,15.08666 0.1875,13.59375 0.31161154,12.100847 0.37499801,10.970529 0.375,10.21875 0.37499801,9.8286864 0.372117,9.2559919 0.34375,8.46875 0.31537929,7.6815254 0.2812481,7.0846731 0.28125,6.6875 0.2812481,6.1272273 0.33532608,5.2803753 0.40625,4.15625 0.4771699,3.0321506 0.49999788,2.1852986 0.5,1.625 0.49999894,1.4760717 0.51374115,1.3428634 0.5625,1.21875 z m 11.40625,0.0625 c -0.425546,1.65e-5 -0.765971,0.3661509 -1,1.125 -0.177318,0.5532062 -0.250013,1.1172571 -0.25,1.65625 -1.1e-5,1.7244066 -0.03815,3.0085631 -0.09375,4 0.324134,-0.021249 0.644925,-0.027923 0.9375,-0.03125 0.078,-1.0141743 0.09374,-2.5511852 0.09375,-4.59375 -1.3e-5,-0.5389929 0.103932,-1.0717938 0.28125,-1.625 0.05851,-0.1897123 0.117023,-0.3577148 0.1875,-0.5 C 12.07104,1.30394 12.0252,1.281253 11.96875,1.28125 z m 36.125,1.59375 c -0.283351,0.00707 -0.520808,0.093557 -0.71875,0.28125 -0.205678,0.1950498 -0.312504,0.4521418 -0.3125,0.75 -4e-6,0.2695171 -6.69e-4,0.7061302 0.03125,1.3125 0.01629,0.3096368 0.02327,0.5041656 0.03125,0.75 l 1,0.09375 c -4e-6,-0.3616907 -0.03059,-0.8623551 -0.0625,-1.46875 -0.03192,-0.6063698 -0.03125,-1.0429829 -0.03125,-1.3125 -2e-6,-0.1489291 0.01108,-0.2830231 0.0625,-0.40625 z M 44.90625,6.5 c -0.297874,1.12e-5 -0.527262,0.1068374 -0.71875,0.3125 -0.19149,0.2056845 -0.281251,0.4692037 -0.28125,0.78125 -10e-7,0.6170308 0.306293,0.9461528 0.9375,1.03125 1.056735,0.0993 1.857266,0.1662324 2.375,0.1875 l 0.1875,6.21875 c -4e-6,0.269506 -0.01,0.679745 -0.03125,1.21875 -0.02128,0.539008 -0.03125,0.917997 -0.03125,1.1875 -4e-6,0.276596 0.103276,0.534353 0.3125,0.71875 0.209215,0.184397 0.466307,0.249999 0.75,0.25 0.40486,0 0.689954,-0.198982 0.875,-0.625 -0.242473,-0.01919 -0.471718,-0.08736 -0.65625,-0.25 -0.209224,-0.184397 -0.312504,-0.410904 -0.3125,-0.6875 -4e-6,-0.269503 0.01,-0.679742 0.03125,-1.21875 0.02127,-0.539005 0.03125,-0.949244 0.03125,-1.21875 L 48.15625,8.1875 C 47.638516,8.1662324 46.869235,8.0992998 45.8125,8 45.181293,7.9149028 44.874999,7.5857808 44.875,6.96875 44.875,6.7962068 44.9102,6.6400236 44.96875,6.5 l -0.0625,0 z M 18.3125,7.03125 c -0.734774,0.3367758 -1.37013,0.8736524 -1.90625,1.625 -0.893618,1.2482347 -1.343751,2.812285 -1.34375,4.65625 -10e-7,1.595747 0.539892,2.832227 1.625,3.71875 0.992904,0.801418 2.303408,1.1875 3.90625,1.1875 1.028361,0 2.071135,-0.236481 3.15625,-0.71875 0.516953,-0.231042 0.912305,-0.4825 1.21875,-0.75 -0.08646,0.0429 -0.156675,0.08329 -0.25,0.125 -1.085115,0.482269 -2.127889,0.71875 -3.15625,0.71875 -1.602842,0 -2.913346,-0.386082 -3.90625,-1.1875 -1.085108,-0.886523 -1.625001,-2.123003 -1.625,-3.71875 -1e-6,-1.843965 0.450132,-3.4080153 1.34375,-4.65625 0.286584,-0.4016346 0.594151,-0.7168278 0.9375,-1 z m 41.09375,0.1875 c -0.08416,0.042275 -0.167111,0.076686 -0.25,0.125 C 58.84825,7.5232827 58.540403,7.7355569 58.25,8 l 0,0.46875 c 0.368639,-0.4945129 0.754836,-0.913638 1.15625,-1.25 z M 30.0625,7.25 c -0.589397,0.298662 -1.1507,0.6965027 -1.65625,1.21875 -1.180852,1.2198662 -1.781251,2.689945 -1.78125,4.40625 -1e-6,1.815606 0.377437,3.151819 1.09375,4.03125 0.758863,0.93617 1.965422,1.406249 3.625,1.40625 0.347512,-1e-6 0.763513,-0.09331 1.28125,-0.28125 0.517723,-0.187943 1.131641,-0.474956 1.8125,-0.84375 0.15602,0.226951 0.399592,0.49047 0.71875,0.78125 0.354601,0.312056 0.583989,0.468749 0.71875,0.46875 0.262401,-1e-6 0.488908,-0.09685 0.6875,-0.28125 0.107336,-0.09967 0.200681,-0.215065 0.25,-0.34375 -0.138235,-0.01381 -0.34935,-0.171171 -0.6875,-0.46875 -0.319158,-0.29078 -0.56273,-0.554299 -0.71875,-0.78125 -0.680859,0.368794 -1.294777,0.655807 -1.8125,0.84375 -0.517737,0.187943 -0.933738,0.281249 -1.28125,0.28125 -1.659578,-1e-6 -2.866137,-0.47008 -3.625,-1.40625 C 27.971187,15.401819 27.593749,14.065606 27.59375,12.25 27.593749,10.533695 28.194148,9.0636162 29.375,7.84375 29.588609,7.6230865 29.833922,7.430747 30.0625,7.25 z m -8.78125,0.65625 c -0.775851,8.3e-6 -1.457952,0.2736384 -2,0.8125 0.317779,-0.123443 0.659912,-0.1874961 1.03125,-0.1875 1.099283,9.2e-6 1.952563,0.276383 2.5625,0.84375 -0.09284,0.07837 -0.229596,0.1669162 -0.34375,0.25 0.532693,-0.3072301 1.008446,-0.5870804 1.3125,-0.84375 -0.609937,-0.567367 -1.463217,-0.8749908 -2.5625,-0.875 z m 12.46875,0 c -0.894894,7.5e-6 -1.679862,0.3117096 -2.375,0.90625 0.440118,-0.1880626 0.902947,-0.3124958 1.40625,-0.3125 0.113468,9.2e-6 0.24955,0.061179 0.4375,0.125 0.187936,0.063839 0.425081,0.1465072 0.6875,0.28125 -0.07802,0.4042637 -0.148501,0.798102 -0.1875,1.15625 -0.03901,0.358163 -0.06251,0.695042 -0.0625,1 -8e-6,0.936176 0.116792,2.339322 0.34375,4.21875 -0.131874,0.115643 -0.228707,0.187662 -0.34375,0.28125 0.08357,-0.03407 0.171974,-0.05299 0.25,-0.09375 0.255312,-0.13475 0.6015,-0.408243 1.0625,-0.8125 -0.226958,-1.879428 -0.343758,-3.282574 -0.34375,-4.21875 -8e-6,-0.304958 0.02349,-0.6418367 0.0625,-1 C 34.7265,9.079352 34.796978,8.6855137 34.875,8.28125 34.612581,8.1465072 34.375436,8.0638388 34.1875,8 33.99955,7.9361794 33.863468,7.9062592 33.75,7.90625 z M 51.71875,8 c -0.163128,9.1e-6 -0.636088,0.049876 -1.4375,0.15625 l 0,0.53125 C 50.402815,8.676127 50.696665,8.625003 50.75,8.625 c 0.148928,9.1e-6 0.329114,0.017075 0.53125,0.03125 0.202119,0.014193 0.382305,0.031259 0.53125,0.03125 0.304956,9.1e-6 0.554955,-0.1103632 0.75,-0.3125 C 52.649688,8.2846413 52.701788,8.1748331 52.75,8.0625 52.606852,8.0617248 52.440271,8.0446114 52.25,8.03125 52.047864,8.0170747 51.867678,8.0000091 51.71875,8 z m 10.5,0.28125 c -0.752678,7.4e-6 -1.412298,0.3054681 -2.03125,0.875 0.349486,-0.1485165 0.709393,-0.2499962 1.09375,-0.25 0.666658,8.8e-6 0.999991,0.6666749 1,2 -9e-6,0.184404 -0.01353,0.46787 -0.03125,0.84375 -0.01774,0.375892 -0.03126,0.659358 -0.03125,0.84375 -9e-6,0.659579 0.05983,1.502885 0.1875,2.53125 0.134743,1.070924 0.27437,1.88719 0.4375,2.46875 0.156019,0.539007 0.496444,0.812499 1,0.8125 0.297862,-1e-6 0.537223,-0.117465 0.75,-0.3125 0.106377,-0.09752 0.196809,-0.191046 0.25,-0.3125 -0.01107,2.75e-4 -0.02006,0 -0.03125,0 -0.503556,-1e-6 -0.843981,-0.273493 -1,-0.8125 C 63.64937,16.38719 63.509743,15.570924 63.375,14.5 c -0.127668,-1.028365 -0.187509,-1.871671 -0.1875,-2.53125 -9e-6,-0.184392 0.01351,-0.467858 0.03125,-0.84375 0.01772,-0.37588 -9e-6,-0.659346 0,-0.84375 -9e-6,-1.3333251 -0.333342,-1.9999912 -1,-2 z m -50.8125,1.8125 c -1.212778,0.02128 -2.7127763,0.190831 -4.5,0.53125 L 2.4375,11.5 c -8e-7,0.120873 -0.026672,0.297426 -0.03125,0.4375 L 5.9375,11.25 c 1.7872237,-0.340419 3.2872223,-0.509966 4.5,-0.53125 -0.03547,0.531921 -0.06251,1.044775 -0.0625,1.5625 -1.3e-5,0.539012 0.04697,1.35949 0.125,2.4375 0.078,1.078016 0.09374,1.891402 0.09375,2.4375 -1.3e-5,0.29078 0.113905,0.520168 0.3125,0.71875 0.198568,0.198581 0.435048,0.3125 0.71875,0.3125 0.290766,0 0.5237,-0.113919 0.71875,-0.3125 0.09751,-0.09929 0.169991,-0.19016 0.21875,-0.3125 -0.269964,-0.0072 -0.496393,-0.09013 -0.6875,-0.28125 -0.198595,-0.198582 -0.312513,-0.45922 -0.3125,-0.75 -1.3e-5,-0.546098 -0.01575,-1.359484 -0.09375,-2.4375 -0.07803,-1.07801 -0.125013,-1.898488 -0.125,-2.4375 -1.3e-5,-0.517725 0.02703,-1.030579 0.0625,-1.5625 z M 23.5,11.28125 c -0.375886,0.198582 -0.863036,0.417999 -1.4375,0.6875 L 18,13.90625 c 0.03027,0.04486 0.06235,0.08183 0.09375,0.125 l 3,-1.4375 c 1.148928,-0.539001 1.895381,-0.932175 2.25,-1.1875 0.05825,-0.04227 0.102237,-0.08206 0.15625,-0.125 z m 1.21875,3.25 c -0.276606,3e-6 -0.540125,0.18307 -0.78125,0.5625 -0.02495,0.03925 -0.06243,0.0873 -0.09375,0.125 0.464952,-0.182746 0.80717,-0.40709 1,-0.65625 -0.04387,-0.0064 -0.07933,-0.03125 -0.125,-0.03125 z"
           id="text3031"
           inkscape:connector-curvature="0" />
      </g>
    </g>
    <flowRoot
       xml:space="preserve"
       id="flowRoot2997"
       style="font-size:10px;font-style:normal;font-variant:normal;font-weight:normal;font-stretch:normal;line-height:125%;letter-spacing:0px;word-spacing:0px;fill:#000000;fill-opacity:1;stroke:none;font-family:Know Your Product;-inkscape-font-specification:Know Your Product"
       transform="translate(136.86935,445.91554)"><flowRegion
         id="flowRegion2999"><rect
           id="rect3001"
           width="45.022816"
           height="12.015291"
           x="1.2429612"
           y="32.962528" /></flowRegion><flowPara
         id="flowPara3003"></flowPara></flowRoot>    <text
       xml:space="preserve"
       style="font-size:23.45038223px;font-style:normal;font-variant:normal;font-weight:normal;font-stretch:normal;line-height:125%;letter-spacing:0px;word-spacing:0px;fill:#000000;fill-opacity:1;stroke:none;font-family:Comic Sans MS;-inkscape-font-specification:Comic Sans MS"
       x="72.641487"
       y="435.89459"
       id="text3848"
       sodipodi:linespacing="125%"><tspan
         sodipodi:role="line"
         id="tspan3850"
         x="72.641487"
         y="435.89459" /></text>
    <g
       id="g4053"
       inkscape:export-filename="C:\Users\Schmid\Desktop\3.png"
       inkscape:export-xdpi="90"
       inkscape:export-ydpi="90"
       transform="matrix(1.0546915,0,0,1.0546915,-10.918446,-23.923614)">
      <path
         inkscape:connector-curvature="0"
         id="text3940"
         d="m 213.0613,420.41545 c -0.80824,0.46998 -1.25,0.9671 -1.25,1.46875 0,0.29773 0.12619,0.54844 0.34375,0.78125 0.21755,0.23284 0.4759,0.34376 0.78125,0.34375 0.15267,10e-6 0.34184,-0.0584 0.59375,-0.21875 l 1.28125,-0.8125 c 0.48854,-0.25189 1.01216,-0.40623 1.53125,-0.40625 1.00763,2e-5 1.78649,0.22878 2.34375,0.65625 0.53434,0.41223 0.79651,0.95326 0.78125,1.625 -0.005,0.31204 -0.0971,0.59513 -0.21875,0.84375 0.37366,-0.17302 0.69493,-0.3684 0.90625,-0.625 0.26717,-0.32441 0.39861,-0.72184 0.40625,-1.1875 0.0153,-0.67174 -0.24691,-1.21277 -0.78125,-1.625 -0.55726,-0.42747 -1.33612,-0.62498 -2.34375,-0.625 -0.51909,2e-5 -1.01146,0.12311 -1.5,0.375 l -1.3125,0.8125 c -0.25191,0.16032 -0.44108,0.21876 -0.59375,0.21875 -0.30535,10e-6 -0.5637,-0.11091 -0.78125,-0.34375 -0.21756,-0.23281 -0.34375,-0.48352 -0.34375,-0.78125 0,-0.16298 0.0709,-0.34036 0.15625,-0.5 z m 7.8125,5.78125 c -0.13053,0.0695 -0.26121,0.13025 -0.40625,0.1875 -0.12978,0.0534 -0.30082,0.10282 -0.46875,0.15625 0.14486,0.0534 0.2718,0.12659 0.40625,0.1875 0.18008,-0.15824 0.33195,-0.33656 0.46875,-0.53125 z m -5.625,0.25 -0.125,0.0312 c -0.66413,0.23665 -1.00001,0.58088 -1,1.03125 -10e-6,0.60306 0.43392,0.94729 1.28125,1.03125 1.23663,0.12978 2.22065,0.49834 2.96875,1.09375 0.84732,0.68703 1.28124,1.59733 1.28125,2.75 -10e-6,0.5313 -0.17131,1.01561 -0.46875,1.4375 0.20019,-0.10727 0.37985,-0.22354 0.5625,-0.375 0.66411,-0.54962 0.99999,-1.23735 1,-2.03125 -10e-6,-1.15267 -0.43393,-2.06297 -1.28125,-2.75 -0.7481,-0.59541 -1.73212,-0.96397 -2.96875,-1.09375 -0.84733,-0.084 -1.28126,-0.42819 -1.28125,-1.03125 0,-0.0346 0.0273,-0.0604 0.0312,-0.0937 z m -2.90625,6.40625 c -0.29221,0.007 -0.55658,0.11729 -0.78125,0.3125 -0.23283,0.20229 -0.34375,0.44466 -0.34375,0.75 0,0.12977 0.0167,0.26885 0.0625,0.40625 0.35878,1.00764 1.06321,1.7865 2.09375,2.34375 0.91603,0.48092 1.94107,0.71875 3.09375,0.71875 1.52671,0 2.81392,-0.51288 3.875,-1.5625 0.0797,-0.0788 0.14507,-0.16863 0.21875,-0.25 -0.8698,0.56559 -1.87929,0.84375 -3,0.84375 -1.15268,0 -2.17772,-0.23783 -3.09375,-0.71875 -1.03054,-0.55725 -1.73497,-1.33611 -2.09375,-2.34375 -0.0458,-0.1374 -0.0625,-0.27648 -0.0625,-0.40625 0,-0.036 0.028,-0.0592 0.0312,-0.0937 z"
         style="font-size:23.45038223px;font-style:normal;font-variant:normal;font-weight:normal;font-stretch:normal;line-height:125%;letter-spacing:0px;word-spacing:0px;fill:#53d100;fill-opacity:1;stroke:none;font-family:Comic Sans MS;-inkscape-font-specification:Comic Sans MS" />
      <text
         sodipodi:linespacing="125%"
         id="text3804"
         y="435.89459"
         x="210.64149"
         style="font-size:23.45038223px;font-style:normal;font-variant:normal;font-weight:normal;font-stretch:normal;line-height:125%;letter-spacing:0px;word-spacing:0px;fill:#99ff55;fill-opacity:1;stroke:none;font-family:Comic Sans MS;-inkscape-font-specification:Comic Sans MS"
         xml:space="preserve"><tspan
           y="435.89459"
           x="210.64149"
           id="tspan3806"
           sodipodi:role="line">3</tspan></text>
      <text
         xml:space="preserve"
         style="font-size:23.45038223px;font-style:normal;font-variant:normal;font-weight:normal;font-stretch:normal;line-height:125%;letter-spacing:0px;word-spacing:0px;fill:#99ff55;fill-opacity:1;stroke:none;font-family:Comic Sans MS;-inkscape-font-specification:Comic Sans MS"
         x="210.64149"
         y="435.89459"
         id="text3852"
         sodipodi:linespacing="125%"><tspan
           sodipodi:role="line"
           id="tspan3854"
           x="210.64149"
           y="435.89459">3</tspan></text>
    </g>
    <g
       id="g4068"
       inkscape:export-filename="C:\Users\Schmid\Desktop\2.png"
       inkscape:export-xdpi="90"
       inkscape:export-ydpi="90"
       transform="matrix(1.0765772,0,0,1.0765772,-17.145119,-33.459933)">
      <path
         inkscape:connector-curvature="0"
         id="text3944"
         d="m 240.15505,420.5092 c -0.7023,2e-5 -1.39767,0.18919 -2.03125,0.59375 l -1.625,1.28125 c -0.32825,0.25955 -0.58278,0.40626 -0.78125,0.40625 -0.78626,10e-6 -1.1875,-0.31153 -1.1875,-0.9375 0,-0.34505 0.13793,-0.65297 0.40625,-0.90625 -0.33791,0.27345 -0.68154,0.57934 -1.0625,0.9375 -0.29008,0.25956 -0.4375,0.57874 -0.4375,0.9375 0,0.62597 0.36999,0.93751 1.15625,0.9375 0.19847,10e-6 0.48425,-0.1467 0.8125,-0.40625 l 1.625,-1.28125 c 0.63358,-0.40456 1.2977,-0.59373 2,-0.59375 0.53434,2e-5 1.09899,0.1565 1.65625,0.5 0.63358,0.38169 0.93749,0.82396 0.9375,1.3125 -10e-6,0.96988 -0.30069,1.837 -0.9375,2.5625 0.47094,-0.3635 0.84562,-0.68899 1.0625,-0.9375 0.65648,-0.73281 0.96874,-1.60901 0.96875,-2.59375 -10e-6,-0.48854 -0.30392,-0.93081 -0.9375,-1.3125 -0.55726,-0.3435 -1.09066,-0.49998 -1.625,-0.5 z m 2.15625,6.9375 c -0.43111,0.32482 -0.90018,0.67868 -1.46875,1.03125 -1.43512,0.90077 -2.39337,1.56561 -2.84375,2.03125 -0.0566,0.0587 -0.10348,0.12717 -0.15625,0.1875 0.48631,-0.3578 1.10577,-0.76719 1.875,-1.25 1.15956,-0.71906 2.00591,-1.39638 2.59375,-2 z m -6.34375,2 c -0.51117,0.39848 -0.8927,0.71218 -1.09375,0.9375 -0.96947,1.08398 -1.46875,2.50263 -1.46875,4.28125 0,0.64886 0.0646,1.10783 0.15625,1.375 0.1603,0.51145 0.50453,0.75 1.03125,0.75 0.084,0 0.18344,0.032 0.34375,0.0625 0.1603,0.0305 0.29103,0.0312 0.375,0.0312 0.29771,0 0.72853,-0.0174 1.3125,-0.0937 0.58396,-0.0763 1.04603,-0.125 1.34375,-0.125 0.39694,0 0.97137,-0.0167 1.75,-0.0625 0.77862,-0.0458 1.36068,-0.0625 1.75,-0.0625 0.1832,0 0.46516,0.0379 0.8125,0.15625 0.34732,0.11832 0.62165,0.1875 0.8125,0.1875 0.30533,0 0.54388,-0.11093 0.75,-0.34375 0.16178,-0.18277 0.24646,-0.40225 0.28125,-0.625 -0.18648,-0.01 -0.434,-0.0799 -0.75,-0.1875 -0.34734,-0.11832 -0.59805,-0.15625 -0.78125,-0.15625 -0.38932,0 -0.97138,0.0167 -1.75,0.0625 -0.77863,0.0458 -1.38431,0.0625 -1.78125,0.0625 -0.29772,0 -0.72854,0.0487 -1.3125,0.125 -0.58397,0.0763 -1.04604,0.0937 -1.34375,0.0937 -0.084,0 -0.18345,-7.2e-4 -0.34375,-0.0312 -0.16031,-0.0305 -0.29103,-0.0312 -0.375,-0.0312 -0.52672,0 -0.87095,-0.2698 -1.03125,-0.78125 -0.0916,-0.26717 -0.125,-0.72614 -0.125,-1.375 0,-1.76866 0.47887,-3.16823 1.4375,-4.25 z"
         style="font-size:23.45038223px;font-style:normal;font-variant:normal;font-weight:normal;font-stretch:normal;line-height:125%;letter-spacing:0px;word-spacing:0px;fill:#6e6e00;fill-opacity:1;stroke:none;font-family:Comic Sans MS;-inkscape-font-specification:Comic Sans MS" />
      <text
         xml:space="preserve"
         style="font-size:23.45038223px;font-style:normal;font-variant:normal;font-weight:normal;font-stretch:normal;line-height:125%;letter-spacing:0px;word-spacing:0px;fill:#99ff55;fill-opacity:1;stroke:none;font-family:Comic Sans MS;-inkscape-font-specification:Comic Sans MS"
         x="232.64149"
         y="435.89459"
         id="text3808"
         sodipodi:linespacing="125%"><tspan
           sodipodi:role="line"
           id="tspan3810"
           x="232.64149"
           y="435.89459">2</tspan></text>
      <text
         sodipodi:linespacing="125%"
         id="text3856"
         y="435.89459"
         x="232.64149"
         style="font-size:23.45038223px;font-style:normal;font-variant:normal;font-weight:normal;font-stretch:normal;line-height:125%;letter-spacing:0px;word-spacing:0px;fill:#ffff00;fill-opacity:1;stroke:none;font-family:Comic Sans MS;-inkscape-font-specification:Comic Sans MS"
         xml:space="preserve"><tspan
           y="435.89459"
           x="232.64149"
           id="tspan3858"
           sodipodi:role="line">2</tspan></text>
    </g>
    <g
       id="g4075"
       inkscape:export-filename="C:\Users\Schmid\Desktop\1.png"
       inkscape:export-xdpi="90"
       inkscape:export-ydpi="90"
       transform="matrix(1.0615343,0,0,1.0615343,-14.889975,-26.887913)">
      <path
         inkscape:connector-curvature="0"
         id="text3948"
         d="m 256.71755,421.16545 c -0.0912,0.0682 -0.26508,0.19464 -0.34375,0.25 -0.65649,0.51146 -1,0.95374 -1,1.3125 0,0.29772 0.11856,0.55226 0.34375,0.78125 0.22519,0.22902 0.4759,0.34376 0.78125,0.34375 0.28244,10e-6 0.94585,-0.39359 1.96875,-1.1875 0.008,1.00765 -0.0821,2.49095 -0.25,4.4375 -0.17558,1.97711 -0.25,3.46804 -0.25,4.4375 0,0.35878 0.0289,0.8762 0.0937,1.59375 0.0249,0.27586 0.0159,0.40104 0.0312,0.625 0.0566,-0.002 0.0967,0 0.15625,0 l 0.5625,0.0312 0.46875,0 c 0,-0.36641 -0.0601,-0.90744 -0.125,-1.625 -0.0649,-0.71755 -0.0937,-1.23497 -0.0937,-1.59375 0,-0.96946 0.10567,-2.46039 0.28125,-4.4375 0.16793,-1.94655 0.22638,-3.42985 0.21875,-4.4375 -1.0229,0.79391 -1.65506,1.18751 -1.9375,1.1875 -0.30535,1e-5 -0.58731,-0.11473 -0.8125,-0.34375 -0.22519,-0.22899 -0.3125,-0.48353 -0.3125,-0.78125 0,-0.17938 0.0546,-0.37619 0.21875,-0.59375 z m -0.375,13.625 c -0.67414,0.14456 -1,0.51551 -1,1.09375 0,0.44275 0.20444,0.7376 0.59375,0.875 0.21374,0.0687 0.59065,0.0937 1.125,0.0937 l 2.25,0.0312 2.28125,0 c 0.3206,0 0.60257,-0.10639 0.8125,-0.3125 0.17254,-0.16941 0.25052,-0.40948 0.28125,-0.65625 l -2.25,0 -2.28125,-0.0312 c -0.53435,0 -0.91126,-0.0251 -1.125,-0.0937 -0.38931,-0.1374 -0.59375,-0.43225 -0.59375,-0.875 0,-0.0489 0.0264,-0.0792 0.0312,-0.125 -0.0361,0.006 -0.0906,-0.007 -0.125,0 z"
         style="font-size:23.45038223px;font-style:normal;font-variant:normal;font-weight:normal;font-stretch:normal;line-height:125%;letter-spacing:0px;word-spacing:0px;fill:#800000;fill-opacity:1;stroke:none;font-family:Comic Sans MS;-inkscape-font-specification:Comic Sans MS" />
      <text
         sodipodi:linespacing="125%"
         id="text3812"
         y="435.89459"
         x="254.64149"
         style="font-size:23.45038223px;font-style:normal;font-variant:normal;font-weight:normal;font-stretch:normal;line-height:125%;letter-spacing:0px;word-spacing:0px;fill:#99ff55;fill-opacity:1;stroke:none;font-family:Comic Sans MS;-inkscape-font-specification:Comic Sans MS"
         xml:space="preserve"><tspan
           y="435.89459"
           x="254.64149"
           id="tspan3814"
           sodipodi:role="line">1</tspan></text>
      <text
         xml:space="preserve"
         style="font-size:23.45038223px;font-style:normal;font-variant:normal;font-weight:normal;font-stretch:normal;line-height:125%;letter-spacing:0px;word-spacing:0px;fill:#d40000;fill-opacity:1;stroke:none;font-family:Comic Sans MS;-inkscape-font-specification:Comic Sans MS"
         x="254.64149"
         y="435.89459"
         id="text3860"
         sodipodi:linespacing="125%"><tspan
           sodipodi:role="line"
           id="tspan3862"
           x="254.64149"
           y="435.89459">1</tspan></text>
    </g>
    <g
       id="g4082"
       style="fill:#53d100;fill-opacity:1"
       inkscape:export-filename="C:\Users\Schmid\Desktop\0.png"
       inkscape:export-xdpi="90"
       inkscape:export-ydpi="90"
       transform="matrix(1.039909,0,0,1.039909,-10.11292,-17.455754)">
      <path
         inkscape:connector-curvature="0"
         id="text3952"
         d="m 279.6863,420.0092 c -0.70356,0.47381 -1.33787,1.10381 -1.875,1.9375 -1.05344,1.64887 -1.5625,3.59877 -1.5625,5.8125 0,2.61833 0.37834,4.74142 1.1875,6.375 1.0687,2.12214 2.77313,3.1875 5.09375,3.1875 1.86201,0 3.31261,-0.64204 4.375,-1.90625 -0.90404,0.60177 -1.99659,0.9375 -3.28125,0.9375 -2.32062,0 -3.9938,-1.06536 -5.0625,-3.1875 -0.80916,-1.63358 -1.21875,-3.75667 -1.21875,-6.375 0,-2.21373 0.50906,-4.16363 1.5625,-5.8125 0.23761,-0.3688 0.51107,-0.67038 0.78125,-0.96875 z m 4.28125,0.28125 c -1.16455,10e-6 -2.10587,0.49821 -2.875,1.46875 0.53347,-0.31247 1.12047,-0.49999 1.78125,-0.5 1.29007,2e-5 2.2612,0.53198 2.90625,1.5625 0.64503,1.03055 0.96874,2.55631 0.96875,4.625 -1e-5,1.96947 -0.26146,3.62381 -0.75,4.90625 -0.21947,0.57729 -0.47233,1.04061 -0.78125,1.4375 0.82651,-0.42511 1.45609,-1.22214 1.90625,-2.40625 0.48854,-1.28244 0.71874,-2.90553 0.71875,-4.875 -1e-5,-2.06869 -0.32372,-3.6257 -0.96875,-4.65625 -0.64505,-1.03052 -1.61618,-1.56248 -2.90625,-1.5625 z"
         style="font-size:23.45038223px;font-style:normal;font-variant:normal;font-weight:normal;font-stretch:normal;line-height:125%;letter-spacing:0px;word-spacing:0px;fill:#000000;fill-opacity:1;stroke:none;font-family:Comic Sans MS;-inkscape-font-specification:Comic Sans MS" />
      <text
         xml:space="preserve"
         style="font-size:23.45038223px;font-style:normal;font-variant:normal;font-weight:normal;font-stretch:normal;line-height:125%;letter-spacing:0px;word-spacing:0px;fill:#53d100;fill-opacity:1;stroke:none;font-family:Comic Sans MS;-inkscape-font-specification:Comic Sans MS"
         x="276.64148"
         y="435.89459"
         id="text3816"
         sodipodi:linespacing="125%"><tspan
           sodipodi:role="line"
           id="tspan3818"
           x="276.64148"
           y="435.89459">0</tspan></text>
      <text
         sodipodi:linespacing="125%"
         id="text3864"
         y="435.89459"
         x="276.64148"
         style="font-size:23.45038223px;font-style:normal;font-variant:normal;font-weight:normal;font-stretch:normal;line-height:125%;letter-spacing:0px;word-spacing:0px;fill:#411400;fill-opacity:1;stroke:none;font-family:Comic Sans MS;-inkscape-font-specification:Comic Sans MS"
         xml:space="preserve"><tspan
           y="435.89459"
           x="276.64148"
           id="tspan3866"
           sodipodi:role="line">0</tspan></text>
    </g>
    <g
       id="g4046"
       inkscape:export-filename="C:\Users\Schmid\Desktop\4.png"
       inkscape:export-xdpi="90"
       inkscape:export-ydpi="90"
       transform="matrix(1.0452923,0,0,1.0452923,-8.066851,-19.803581)">
      <path
         inkscape:connector-curvature="0"
         id="text3956"
         d="m 198.3738,419.1967 c -0.38807,0.17308 -0.73524,0.46413 -1.03125,0.875 l -5.65625,8.21875 -0.96875,1.15625 c -0.41985,0.52672 -0.625,0.969 -0.625,1.3125 0,0.42749 0.33659,0.698 1.03125,0.8125 0.40458,0.0687 1.1417,0.0937 2.1875,0.0937 l 5.03125,0.125 0.0312,2.59375 c -1e-5,0.0916 -0.016,0.27934 -0.0312,0.53125 -0.0153,0.25191 -0.0313,0.45635 -0.0312,0.59375 -1e-5,1.10687 0.40958,1.65625 1.21875,1.65625 0.66052,0 0.99879,-0.32686 1.03125,-0.96875 -0.76537,-0.0295 -1.12501,-0.57975 -1.125,-1.65625 -1e-5,-0.1374 -0.0153,-0.34184 0,-0.59375 0.0153,-0.25191 0.0312,-0.40839 0.0312,-0.5 l 0,-2.625 -5.0625,-0.125 c -1.0458,0 -1.78292,-0.025 -2.1875,-0.0937 -0.69466,-0.1145 -1.03125,-0.38501 -1.03125,-0.8125 0,-0.3435 0.20515,-0.78578 0.625,-1.3125 l 1,-1.15625 5.5625,-8.125 z m 1.09375,2 c -0.42334,0.67544 -0.7402,1.17629 -1.125,1.78125 l 0,5.625 1.125,0.0312 0,-7.4375 z m 3.6875,9.65625 c -0.30475,0.041 -0.75324,0.0561 -1.46875,0.0312 l 0,0.96875 c 0.263,-0.0102 0.4704,-0.0299 0.59375,-0.0625 0.54486,-0.13621 0.84185,-0.44441 0.875,-0.9375 z"
         style="font-size:23.45038223px;font-style:normal;font-variant:normal;font-weight:normal;font-stretch:normal;line-height:125%;letter-spacing:0px;word-spacing:0px;fill:#53d100;fill-opacity:1;stroke:none;font-family:Comic Sans MS;-inkscape-font-specification:Comic Sans MS" />
      <text
         xml:space="preserve"
         style="font-size:23.45038223px;font-style:normal;font-variant:normal;font-weight:normal;font-stretch:normal;line-height:125%;letter-spacing:0px;word-spacing:0px;fill:#99ff55;fill-opacity:1;stroke:none;font-family:Comic Sans MS;-inkscape-font-specification:Comic Sans MS"
         x="190.64149"
         y="435.89459"
         id="text3820"
         sodipodi:linespacing="125%"><tspan
           sodipodi:role="line"
           id="tspan3822"
           x="190.64149"
           y="435.89459">4</tspan></text>
      <text
         sodipodi:linespacing="125%"
         id="text3868"
         y="435.89459"
         x="190.64149"
         style="font-size:23.45038223px;font-style:normal;font-variant:normal;font-weight:normal;font-stretch:normal;line-height:125%;letter-spacing:0px;word-spacing:0px;fill:#99ff55;fill-opacity:1;stroke:none;font-family:Comic Sans MS;-inkscape-font-specification:Comic Sans MS"
         xml:space="preserve"><tspan
           y="435.89459"
           x="190.64149"
           id="tspan3870"
           sodipodi:role="line">4</tspan></text>
    </g>
    <g
       id="g4039"
       inkscape:export-filename="C:\Users\Schmid\Desktop\5.png"
       inkscape:export-xdpi="90"
       inkscape:export-ydpi="90"
       transform="matrix(1.0332448,0,0,1.0332448,-5.2228097,-14.548577)">
      <path
         inkscape:connector-curvature="0"
         id="text3960"
         d="m 172.46755,419.3217 c -0.77677,0.007 -1.15625,0.22912 -1.15625,0.6875 0,0.15269 0.0539,0.40197 0.1875,0.71875 0.13359,0.31681 0.21875,0.60784 0.21875,0.875 0,0.75574 -0.14671,2.34543 -0.40625,4.75 -0.12214,1.20612 -0.15625,1.87859 -0.15625,2.03125 0,0.30535 0.0988,0.5637 0.3125,0.78125 0.21374,0.21756 0.4759,0.31251 0.78125,0.3125 0.35114,10e-6 0.69537,-0.15648 1.03125,-0.5 l 0.53125,-0.5625 c -0.15211,0.067 -0.31366,0.0937 -0.46875,0.0937 -0.30535,1e-5 -0.56751,-0.0949 -0.78125,-0.3125 -0.21374,-0.21755 -0.3125,-0.4759 -0.3125,-0.78125 0,-0.15266 0.0654,-0.82513 0.1875,-2.03125 0.25954,-2.40457 0.375,-3.99426 0.375,-4.75 0,-0.26716 -0.0539,-0.55819 -0.1875,-0.875 -0.0732,-0.17362 -0.12316,-0.31317 -0.15625,-0.4375 z m 9.65625,1.09375 c -0.41631,0.11017 -0.94431,0.1875 -1.59375,0.1875 -0.23665,2e-5 -0.51623,-0.016 -0.875,-0.0312 -0.35879,-0.0153 -0.57992,-0.0312 -0.65625,-0.0312 l -1.9375,0.0312 -1.9375,0.0625 c 0,0.13209 -0.052,0.53115 -0.0937,0.9375 l 0.90625,-0.0312 1.9375,-0.0312 c 0.0763,2e-5 0.29746,0.016 0.65625,0.0312 0.35877,0.0153 0.6696,0.0313 0.90625,0.0312 1.70805,10e-6 2.59204,-0.39416 2.6875,-1.15625 z m -3.25,5 c -0.8168,10e-6 -1.48092,0.0911 -2,0.3125 -0.41222,0.17558 -0.83016,0.47878 -1.25,0.90625 l -0.3125,0.34375 c 0.15565,-0.10127 0.31417,-0.21541 0.46875,-0.28125 0.51908,-0.22136 1.1832,-0.31249 2,-0.3125 0.98472,10e-6 1.71421,0.43465 2.1875,1.3125 0.3664,0.69466 0.53124,1.60425 0.53125,2.71875 -10e-6,1.31164 -0.4034,2.43025 -1.1875,3.375 0.37522,-0.23299 0.74662,-0.50925 1.0625,-0.875 0.83205,-0.96183 1.24999,-2.1176 1.25,-3.46875 -10e-6,-1.1145 -0.1961,-2.02409 -0.5625,-2.71875 -0.47329,-0.87785 -1.20278,-1.31249 -2.1875,-1.3125 z m -6.75,8.03125 c -0.29771,0 -0.54461,0.0949 -0.78125,0.3125 -0.23664,0.21756 -0.375,0.48354 -0.375,0.78125 0,0.20611 0.0813,0.40363 0.21875,0.625 1.0229,1.60305 2.61331,2.40625 4.78125,2.40625 2.05343,0 3.71683,-0.67319 4.96875,-2.0625 -1.07069,0.73763 -2.37877,1.09375 -3.875,1.09375 -2.16794,0 -3.75835,-0.8032 -4.78125,-2.40625 -0.13741,-0.22137 -0.1875,-0.41889 -0.1875,-0.625 0,-0.046 0.0256,-0.0809 0.0312,-0.125 z"
         style="font-size:23.45038223px;font-style:normal;font-variant:normal;font-weight:normal;font-stretch:normal;line-height:125%;letter-spacing:0px;word-spacing:0px;fill:#53d100;fill-opacity:1;stroke:none;font-family:Comic Sans MS;-inkscape-font-specification:Comic Sans MS" />
      <text
         sodipodi:linespacing="125%"
         id="text3824"
         y="435.89459"
         x="170.64149"
         style="font-size:23.45038223px;font-style:normal;font-variant:normal;font-weight:normal;font-stretch:normal;line-height:125%;letter-spacing:0px;word-spacing:0px;fill:#99ff55;fill-opacity:1;stroke:none;font-family:Comic Sans MS;-inkscape-font-specification:Comic Sans MS"
         xml:space="preserve"><tspan
           y="435.89459"
           x="170.64149"
           id="tspan3826"
           sodipodi:role="line">5</tspan></text>
      <text
         xml:space="preserve"
         style="font-size:23.45038223px;font-style:normal;font-variant:normal;font-weight:normal;font-stretch:normal;line-height:125%;letter-spacing:0px;word-spacing:0px;fill:#99ff55;fill-opacity:1;stroke:none;font-family:Comic Sans MS;-inkscape-font-specification:Comic Sans MS"
         x="170.64149"
         y="435.89459"
         id="text3872"
         sodipodi:linespacing="125%"><tspan
           sodipodi:role="line"
           id="tspan3874"
           x="170.64149"
           y="435.89459">5</tspan></text>
    </g>
    <g
       id="g4106"
       inkscape:export-filename="C:\Users\Schmid\Desktop\6.png"
       inkscape:export-xdpi="90"
       inkscape:export-ydpi="90"
       transform="matrix(1.019425,0,0,1.019425,-2.5548775,-8.5033421)">
      <path
         inkscape:connector-curvature="0"
         id="text3964"
         d="m 157.15505,419.22795 c -0.19847,0.12595 -0.42415,0.3106 -0.6875,0.5625 l -1.0625,1.09375 c -3.06107,2.77101 -4.59375,6.04152 -4.59375,9.8125 0,2 0.37762,3.61403 1.15625,4.8125 0.93893,1.45801 2.41388,2.1875 4.40625,2.1875 1.80152,0 3.23615,-0.61403 4.3125,-1.8125 0.0296,-0.0331 0.0651,-0.0601 0.0937,-0.0937 -0.91765,0.61335 -2.02372,0.9375 -3.3125,0.9375 -1.99237,0 -3.43607,-0.72949 -4.375,-2.1875 -0.77863,-1.19847 -1.1875,-2.8125 -1.1875,-4.8125 0,-3.77098 1.53268,-7.04149 4.59375,-9.8125 l 0.65625,-0.6875 z m 0.3125,8.09375 c -0.6565,10e-6 -1.23092,0.11475 -1.75,0.34375 -0.19848,0.0916 -0.69848,0.37883 -1.5,0.875 -0.0133,0.11735 -0.0218,0.22768 -0.0312,0.34375 0.10836,-0.0606 0.37991,-0.22342 0.4375,-0.25 0.51908,-0.229 1.0935,-0.34374 1.75,-0.34375 1.21373,10e-6 2.11569,0.25836 2.71875,0.78125 0.60304,0.52291 0.90624,1.29796 0.90625,2.34375 -1e-5,1.20904 -0.27092,2.18566 -0.8125,2.9375 0.40118,-0.20478 0.73986,-0.49584 1.03125,-0.875 0.58778,-0.76336 0.87499,-1.7717 0.875,-3.03125 -1e-5,-1.04579 -0.27196,-1.82084 -0.875,-2.34375 -0.60306,-0.52289 -1.53627,-0.78124 -2.75,-0.78125 z"
         style="font-size:23.45038223px;font-style:normal;font-variant:normal;font-weight:normal;font-stretch:normal;line-height:125%;letter-spacing:0px;word-spacing:0px;fill:#00e05b;fill-opacity:1;stroke:none;font-family:Comic Sans MS;-inkscape-font-specification:Comic Sans MS" />
      <text
         xml:space="preserve"
         style="font-size:23.45038223px;font-style:normal;font-variant:normal;font-weight:normal;font-stretch:normal;line-height:125%;letter-spacing:0px;word-spacing:0px;fill:#99ff55;fill-opacity:1;stroke:none;font-family:Comic Sans MS;-inkscape-font-specification:Comic Sans MS"
         x="150.64149"
         y="435.89459"
         id="text3828"
         sodipodi:linespacing="125%"><tspan
           sodipodi:role="line"
           id="tspan3830"
           x="150.64149"
           y="435.89459">6</tspan></text>
      <text
         sodipodi:linespacing="125%"
         id="text3876"
         y="435.89459"
         x="150.64149"
         style="font-size:23.45038223px;font-style:normal;font-variant:normal;font-weight:normal;font-stretch:normal;line-height:125%;letter-spacing:0px;word-spacing:0px;fill:#2aff80;fill-opacity:1;stroke:none;font-family:Comic Sans MS;-inkscape-font-specification:Comic Sans MS"
         xml:space="preserve"><tspan
           y="435.89459"
           x="150.64149"
           id="tspan3878"
           sodipodi:role="line">6</tspan></text>
    </g>
    <g
       id="g4025"
       style="fill:#2aff80;fill-opacity:1"
       inkscape:export-filename="C:\Users\Schmid\Desktop\7.png"
       inkscape:export-xdpi="90"
       inkscape:export-ydpi="90"
       transform="matrix(1.0539888,0,0,1.0539888,-6.7500695,-23.627126)">
      <path
         inkscape:connector-curvature="0"
         id="text3968"
         d="m 131.46755,419.60295 c -0.32061,2e-5 -0.59876,0.10641 -0.8125,0.3125 -0.21374,0.20612 -0.3125,0.46066 -0.3125,0.78125 0,0.66414 0.35329,1.02506 1.09375,1.09375 l 2.59375,0.0625 5.75,0.125 -0.21875,0.25 c -1.19848,1.35116 -2.3626,3.25383 -3.5,5.75 l -2.59375,6.3125 c -0.48855,1.19847 -0.71875,1.95992 -0.71875,2.25 0,0.29771 0.11092,0.53626 0.34375,0.75 0.23282,0.21374 0.50715,0.3125 0.8125,0.3125 0.39694,0 0.6925,-0.17247 0.90625,-0.53125 0.0662,-0.10737 0.11933,-0.27763 0.1875,-0.40625 -0.30535,0 -0.57968,-0.13001 -0.8125,-0.34375 -0.23283,-0.21374 -0.34375,-0.45229 -0.34375,-0.75 0,-0.29008 0.26145,-1.05153 0.75,-2.25 l 2.5625,-6.3125 c 1.1374,-2.49617 2.30152,-4.39884 3.5,-5.75 l 0.21875,-0.25 -5.75,-0.125 -2.5625,-0.0625 c -0.74046,-0.0687 -1.125,-0.42961 -1.125,-1.09375 0,-0.0461 0.0268,-0.0812 0.0312,-0.125 z"
         style="font-size:23.45038223px;font-style:normal;font-variant:normal;font-weight:normal;font-stretch:normal;line-height:125%;letter-spacing:0px;word-spacing:0px;fill:#00e05b;fill-opacity:1;stroke:none;font-family:Comic Sans MS;-inkscape-font-specification:Comic Sans MS" />
      <text
         sodipodi:linespacing="125%"
         id="text3832"
         y="435.89459"
         x="130.64149"
         style="font-size:23.45038223px;font-style:normal;font-variant:normal;font-weight:normal;font-stretch:normal;line-height:125%;letter-spacing:0px;word-spacing:0px;fill:#2aff80;fill-opacity:1;stroke:none;font-family:Comic Sans MS;-inkscape-font-specification:Comic Sans MS"
         xml:space="preserve"><tspan
           y="435.89459"
           x="130.64149"
           id="tspan3834"
           sodipodi:role="line">7</tspan></text>
      <text
         xml:space="preserve"
         style="font-size:23.45038223px;font-style:normal;font-variant:normal;font-weight:normal;font-stretch:normal;line-height:125%;letter-spacing:0px;word-spacing:0px;fill:#2aff80;fill-opacity:1;stroke:none;font-family:Comic Sans MS;-inkscape-font-specification:Comic Sans MS"
         x="130.64149"
         y="435.89459"
         id="text3880"
         sodipodi:linespacing="125%"><tspan
           sodipodi:role="line"
           id="tspan3882"
           x="130.64149"
           y="435.89459">7</tspan></text>
    </g>
    <g
       id="g4013"
       style="fill:#2aff80;fill-opacity:1"
       inkscape:export-filename="C:\Users\Schmid\Desktop\g8.png"
       inkscape:export-xdpi="90"
       inkscape:export-ydpi="90"
       transform="matrix(1.0469866,0,0,1.0469866,-5.0086318,-20.557584)">
      <path
         inkscape:connector-curvature="0"
         id="text3972"
         d="m 113.7488,420.29045 c -0.23657,0.15611 -0.47097,0.30165 -0.6875,0.5 -1.0458,0.95421 -1.5625,2.15102 -1.5625,3.59375 0,1.48112 0.64581,2.61676 1.9375,3.4375 0.34222,-0.34903 0.71825,-0.66857 1.1875,-0.90625 -1.35878,-0.82442 -2.03125,-1.9809 -2.03125,-3.5 0,-1.22292 0.40484,-2.25308 1.15625,-3.125 z m 4.03125,0.1875 c -0.98474,2e-5 -1.73092,0.28651 -2.25,0.84375 -0.11079,0.1235 -0.2285,0.23076 -0.3125,0.375 0.40982,-0.18079 0.8766,-0.24999 1.4375,-0.25 0.87785,2e-5 1.54054,0.1565 1.9375,0.5 0.46564,0.41986 0.68749,1.14935 0.6875,2.1875 -1e-5,0.35879 -0.0916,0.68249 -0.25,0.96875 0.13961,-0.07 0.30226,-0.14876 0.40625,-0.21875 0.63358,-0.42747 0.93749,-1.00118 0.9375,-1.71875 -1e-5,-1.03815 -0.22186,-1.76764 -0.6875,-2.1875 -0.39696,-0.3435 -1.0284,-0.49998 -1.90625,-0.5 z m 3.25,5.6875 c -0.20634,0.12847 -0.43102,0.27572 -0.6875,0.40625 0.08,0.0403 0.14211,0.0843 0.21875,0.125 0.16575,-0.14287 0.30498,-0.29728 0.40625,-0.4375 0.0216,-0.0293 0.0421,-0.063 0.0625,-0.0937 z m -3.46875,1.5625 c -1.21375,0.56489 -2.00168,1.05654 -2.40625,1.46875 -0.0848,0.0848 -0.14598,0.18714 -0.21875,0.28125 0.40458,-0.24428 0.92438,-0.4988 1.53125,-0.78125 1.07633,0.33589 1.85591,0.70516 2.375,1.125 0.77862,0.61069 1.18749,1.40626 1.1875,2.40625 -1e-5,0.78841 -0.1523,1.42621 -0.40625,1.90625 0.341,-0.15182 0.66226,-0.31025 0.875,-0.5625 0.42747,-0.50381 0.62499,-1.2896 0.625,-2.3125 -1e-5,-0.99999 -0.37763,-1.79556 -1.15625,-2.40625 -0.51909,-0.41984 -1.32992,-0.78911 -2.40625,-1.125 z m -4.375,0.375 c -1.52363,0.93292 -2.2784,2.55034 -2.25,4.84375 0.0229,1.53435 0.58898,2.67486 1.71875,3.46875 0.99236,0.70229 2.29556,1.0625 3.90625,1.0625 1.68701,0 3.05629,-0.40959 4.125,-1.21875 0.31352,-0.24086 0.6155,-0.4907 0.84375,-0.78125 -1.02736,0.68119 -2.29588,1.03125 -3.84375,1.03125 -1.61069,0 -2.91389,-0.36021 -3.90625,-1.0625 -1.12977,-0.79389 -1.7271,-1.9344 -1.75,-3.46875 -0.0203,-1.64034 0.38259,-2.93064 1.15625,-3.875 z"
         style="font-size:23.45038223px;font-style:normal;font-variant:normal;font-weight:normal;font-stretch:normal;line-height:125%;letter-spacing:0px;word-spacing:0px;fill:#00e05b;fill-opacity:1;stroke:none;font-family:Comic Sans MS;-inkscape-font-specification:Comic Sans MS" />
      <text
         xml:space="preserve"
         style="font-size:23.45038223px;font-style:normal;font-variant:normal;font-weight:normal;font-stretch:normal;line-height:125%;letter-spacing:0px;word-spacing:0px;fill:#2aff80;fill-opacity:1;stroke:none;font-family:Comic Sans MS;-inkscape-font-specification:Comic Sans MS"
         x="110.64149"
         y="435.89459"
         id="text3836"
         sodipodi:linespacing="125%"><tspan
           sodipodi:role="line"
           id="tspan3838"
           x="110.64149"
           y="435.89459">8</tspan></text>
      <text
         sodipodi:linespacing="125%"
         id="text3884"
         y="435.89459"
         x="110.64149"
         style="font-size:23.45038223px;font-style:normal;font-variant:normal;font-weight:normal;font-stretch:normal;line-height:125%;letter-spacing:0px;word-spacing:0px;fill:#2aff80;fill-opacity:1;stroke:none;font-family:Comic Sans MS;-inkscape-font-specification:Comic Sans MS"
         xml:space="preserve"><tspan
           y="435.89459"
           x="110.64149"
           id="tspan3886"
           sodipodi:role="line">8</tspan></text>
    </g>
    <g
       id="g4006"
       inkscape:export-filename="C:\Users\Schmid\Desktop\9.png"
       inkscape:export-xdpi="90"
       inkscape:export-ydpi="90"
       transform="matrix(1.0183354,0,0,1.0183354,-1.5755154,-8.0299295)">
      <path
         inkscape:connector-curvature="0"
         id="text3976"
         d="m 99.9988,420.2592 c -1.282449,2e-5 -2.261217,0.33589 -2.90625,1 -0.114812,0.11821 -0.186632,0.26676 -0.28125,0.40625 0.563426,-0.27897 1.231324,-0.43749 2.0625,-0.4375 0.824419,2e-5 1.63978,0.46662 2.4375,1.375 0.7977,0.90841 1.2111,1.82706 1.21875,2.78125 -1e-5,0.34231 -0.0483,0.82027 -0.125,1.375 0.28797,-0.19584 0.65982,-0.42873 1.09375,-0.75 0.0992,-0.66411 0.12499,-1.20443 0.125,-1.59375 -0.008,-0.95419 -0.3898,-1.87284 -1.1875,-2.78125 -0.79772,-0.90838 -1.61308,-1.37498 -2.4375,-1.375 z m -4.78125,0.0625 c -0.15124,0.0993 -0.297233,0.19895 -0.4375,0.3125 -1.312979,1.06872 -1.968751,2.68274 -1.96875,4.8125 -10e-7,1.80154 0.655055,3.17916 1.9375,4.15625 1.053431,0.80153 2.307246,1.18751 3.75,1.1875 0.41984,10e-6 0.953236,-0.0751 1.625,-0.28125 0.67175,-0.2061 1.22876,-0.44322 1.65625,-0.6875 l -0.5,0.96875 c -0.42367,0.86451 -0.88264,1.58803 -1.375,2.15625 0.21051,-0.15197 0.41633,-0.27585 0.59375,-0.4375 0.68701,-0.62595 1.3101,-1.50357 1.875,-2.65625 l 0.5,-1 c -0.42749,0.24428 -0.9845,0.4814 -1.65625,0.6875 -0.67176,0.20611 -1.20516,0.31251 -1.625,0.3125 -1.442754,10e-6 -2.696569,-0.41722 -3.75,-1.21875 -1.282445,-0.97709 -1.906251,-2.35471 -1.90625,-4.15625 -10e-7,-1.7311 0.413802,-3.12615 1.28125,-4.15625 z m 6.3125,14.25 c -0.56097,0.40125 -1.41833,0.88264 -2.59375,1.4375 -1.366417,0.65649 -2.309403,0.96875 -2.84375,0.96875 -0.31298,0 -0.578963,-0.11474 -0.78125,-0.34375 -0.202293,-0.22901 -0.312502,-0.47591 -0.3125,-0.78125 0,-0.0613 0.02165,-0.13034 0.03125,-0.1875 l -0.34375,0.125 c -0.519087,0.22901 -0.781252,0.54962 -0.78125,1 -2e-6,0.30534 0.110207,0.58349 0.3125,0.8125 0.202287,0.22901 0.46827,0.34375 0.78125,0.34375 0.534347,0 1.477333,-0.31226 2.84375,-0.96875 1.229,-0.58015 2.09899,-1.08778 2.65625,-1.5 0.35645,-0.26479 0.71448,-0.57189 1.03125,-0.90625 z"
         style="font-size:23.45038223px;font-style:normal;font-variant:normal;font-weight:normal;font-stretch:normal;line-height:125%;letter-spacing:0px;word-spacing:0px;fill:#00add9;fill-opacity:1;stroke:none;font-family:Comic Sans MS;-inkscape-font-specification:Comic Sans MS" />
      <text
         sodipodi:linespacing="125%"
         id="text3840"
         y="435.89459"
         x="92.641487"
         style="font-size:23.45038223px;font-style:normal;font-variant:normal;font-weight:normal;font-stretch:normal;line-height:125%;letter-spacing:0px;word-spacing:0px;fill:#99ff55;fill-opacity:1;stroke:none;font-family:Comic Sans MS;-inkscape-font-specification:Comic Sans MS"
         xml:space="preserve"><tspan
           y="435.89459"
           x="92.641487"
           id="tspan3842"
           sodipodi:role="line">9</tspan></text>
      <text
         xml:space="preserve"
         style="font-size:23.45038223px;font-style:normal;font-variant:normal;font-weight:normal;font-stretch:normal;line-height:125%;letter-spacing:0px;word-spacing:0px;fill:#2ad4ff;fill-opacity:1;stroke:none;font-family:Comic Sans MS;-inkscape-font-specification:Comic Sans MS"
         x="92.641487"
         y="435.89459"
         id="text3888"
         sodipodi:linespacing="125%"><tspan
           sodipodi:role="line"
           id="tspan3890"
           x="92.641487"
           y="435.89459">9</tspan></text>
    </g>
    <g
       id="g3999"
       style="fill:#2ad4ff;fill-opacity:1"
       inkscape:export-filename="C:\Users\Schmid\Desktop\10.png"
       inkscape:export-xdpi="90"
       inkscape:export-ydpi="90"
       transform="matrix(1.0374384,0,0,1.0374384,-2.3714426,-16.375294)">
      <path
         inkscape:connector-curvature="0"
         id="text3980"
         d="m 76.28005,420.0092 c -0.707689,0.47434 -1.335327,1.09985 -1.875,1.9375 -1.053436,1.64887 -1.593751,3.59877 -1.59375,5.8125 -10e-7,2.61833 0.409589,4.74142 1.21875,6.375 1.068699,2.12214 2.773135,3.1875 5.09375,3.1875 1.863065,0 3.31246,-0.64061 4.375,-1.90625 -0.904036,0.60177 -1.996591,0.9375 -3.28125,0.9375 -2.320615,0 -4.025051,-1.06536 -5.09375,-3.1875 -0.809161,-1.63358 -1.218751,-3.75667 -1.21875,-6.375 -10e-7,-2.21373 0.540314,-4.16363 1.59375,-5.8125 0.237608,-0.3688 0.511073,-0.67038 0.78125,-0.96875 z m 4.28125,0.28125 c -1.167203,10e-6 -2.136269,0.49378 -2.90625,1.46875 0.537914,-0.31937 1.144468,-0.49999 1.8125,-0.5 1.290068,2e-5 2.261202,0.53198 2.90625,1.5625 0.645027,1.03055 0.937489,2.55631 0.9375,4.625 -1.1e-5,1.96947 -0.230211,3.62381 -0.71875,4.90625 -0.211901,0.55738 -0.454708,1.01704 -0.75,1.40625 0.796754,-0.43297 1.404813,-1.22042 1.84375,-2.375 0.488539,-1.28244 0.749989,-2.90553 0.75,-4.875 -1.1e-5,-2.06869 -0.323723,-3.6257 -0.96875,-4.65625 -0.645048,-1.03052 -1.616182,-1.56248 -2.90625,-1.5625 z m -15.84375,0.875 c -0.09118,0.0682 -0.265079,0.19464 -0.34375,0.25 -0.656491,0.51146 -1.000002,0.95374 -1,1.3125 -2e-6,0.29772 0.118557,0.55226 0.34375,0.78125 0.225188,0.22902 0.475904,0.34376 0.78125,0.34375 0.282439,10e-6 0.945845,-0.39359 1.96875,-1.1875 0.0076,1.00765 -0.08207,2.49095 -0.25,4.4375 -0.175577,1.97711 -0.250004,3.46804 -0.25,4.4375 -4e-6,0.35878 0.02886,0.8762 0.09375,1.59375 0.02494,0.27586 0.0159,0.40104 0.03125,0.625 0.05658,-0.002 0.09671,0 0.15625,0 l 0.5625,0.0312 0.46875,0 c -5e-6,-0.36641 -0.06012,-0.90744 -0.125,-1.625 -0.06489,-0.71755 -0.09375,-1.23497 -0.09375,-1.59375 -4e-6,-0.96946 0.105673,-2.46039 0.28125,-4.4375 0.167934,-1.94655 0.226379,-3.42985 0.21875,-4.4375 -1.022905,0.79391 -1.655061,1.18751 -1.9375,1.1875 -0.305346,1e-5 -0.587312,-0.11473 -0.8125,-0.34375 -0.225193,-0.22899 -0.312502,-0.48353 -0.3125,-0.78125 -10e-7,-0.17938 0.05463,-0.37619 0.21875,-0.59375 z m -0.375,13.625 c -0.674142,0.14456 -1.000001,0.51551 -1,1.09375 -2e-6,0.44275 0.204435,0.7376 0.59375,0.875 0.213738,0.0687 0.590646,0.0937 1.125,0.0937 l 2.25,0.0312 2.28125,0 c 0.320602,0 0.602568,-0.10639 0.8125,-0.3125 0.17254,-0.16941 0.250523,-0.40948 0.28125,-0.65625 l -2.25,0 -2.28125,-0.0312 c -0.534354,0 -0.911262,-0.0251 -1.125,-0.0937 -0.389315,-0.1374 -0.593752,-0.43225 -0.59375,-0.875 0,-0.0489 0.02642,-0.0792 0.03125,-0.125 -0.03612,0.006 -0.09063,-0.007 -0.125,0 z"
         style="font-size:23.45038223px;font-style:normal;font-variant:normal;font-weight:normal;font-stretch:normal;line-height:125%;letter-spacing:0px;word-spacing:0px;fill:#00add9;fill-opacity:1;stroke:none;font-family:Comic Sans MS;-inkscape-font-specification:Comic Sans MS" />
      <text
         xml:space="preserve"
         style="font-size:23.45038223px;font-style:normal;font-variant:normal;font-weight:normal;font-stretch:normal;line-height:125%;letter-spacing:0px;word-spacing:0px;fill:#2ad4ff;fill-opacity:1;stroke:none;font-family:Comic Sans MS;-inkscape-font-specification:Comic Sans MS"
         x="62.641487"
         y="435.89459"
         id="text3844"
         sodipodi:linespacing="125%"><tspan
           sodipodi:role="line"
           id="tspan3846"
           x="62.641487"
           y="435.89459">10</tspan></text>
      <text
         sodipodi:linespacing="125%"
         id="text3892"
         y="435.89459"
         x="62.641487"
         style="font-size:23.45038223px;font-style:normal;font-variant:normal;font-weight:normal;font-stretch:normal;line-height:125%;letter-spacing:0px;word-spacing:0px;fill:#2ad4ff;fill-opacity:1;stroke:none;font-family:Comic Sans MS;-inkscape-font-specification:Comic Sans MS"
         xml:space="preserve"><tspan
           y="435.89459"
           x="62.641487"
           id="tspan3894"
           sodipodi:role="line">10</tspan></text>
    </g>
    <g
       id="g4089"
       transform="matrix(1.0615343,0,0,1.0615343,-15.712331,-62.883367)"
       inkscape:export-filename="C:\Users\Schmid\Desktop\1p.png"
       inkscape:export-xdpi="90"
       inkscape:export-ydpi="90">
      <path
         style="font-size:23.45038223px;font-style:normal;font-variant:normal;font-weight:normal;font-stretch:normal;line-height:125%;letter-spacing:0px;word-spacing:0px;fill:#310000;fill-opacity:1;stroke:none;font-family:Comic Sans MS;-inkscape-font-specification:Comic Sans MS"
         d="m 256.71755,421.16545 c -0.0912,0.0682 -0.26508,0.19464 -0.34375,0.25 -0.65649,0.51146 -1,0.95374 -1,1.3125 0,0.29772 0.11856,0.55226 0.34375,0.78125 0.22519,0.22902 0.4759,0.34376 0.78125,0.34375 0.28244,10e-6 0.94585,-0.39359 1.96875,-1.1875 0.008,1.00765 -0.0821,2.49095 -0.25,4.4375 -0.17558,1.97711 -0.25,3.46804 -0.25,4.4375 0,0.35878 0.0289,0.8762 0.0937,1.59375 0.0249,0.27586 0.0159,0.40104 0.0312,0.625 0.0566,-0.002 0.0967,0 0.15625,0 l 0.5625,0.0312 0.46875,0 c 0,-0.36641 -0.0601,-0.90744 -0.125,-1.625 -0.0649,-0.71755 -0.0937,-1.23497 -0.0937,-1.59375 0,-0.96946 0.10567,-2.46039 0.28125,-4.4375 0.16793,-1.94655 0.22638,-3.42985 0.21875,-4.4375 -1.0229,0.79391 -1.65506,1.18751 -1.9375,1.1875 -0.30535,1e-5 -0.58731,-0.11473 -0.8125,-0.34375 -0.22519,-0.22899 -0.3125,-0.48353 -0.3125,-0.78125 0,-0.17938 0.0546,-0.37619 0.21875,-0.59375 z m -0.375,13.625 c -0.67414,0.14456 -1,0.51551 -1,1.09375 0,0.44275 0.20444,0.7376 0.59375,0.875 0.21374,0.0687 0.59065,0.0937 1.125,0.0937 l 2.25,0.0312 2.28125,0 c 0.3206,0 0.60257,-0.10639 0.8125,-0.3125 0.17254,-0.16941 0.25052,-0.40948 0.28125,-0.65625 l -2.25,0 -2.28125,-0.0312 c -0.53435,0 -0.91126,-0.0251 -1.125,-0.0937 -0.38931,-0.1374 -0.59375,-0.43225 -0.59375,-0.875 0,-0.0489 0.0264,-0.0792 0.0312,-0.125 -0.0361,0.006 -0.0906,-0.007 -0.125,0 z"
         id="path4091"
         inkscape:connector-curvature="0" />
      <text
         xml:space="preserve"
         style="font-size:23.45038223px;font-style:normal;font-variant:normal;font-weight:normal;font-stretch:normal;line-height:125%;letter-spacing:0px;word-spacing:0px;fill:#99ff55;fill-opacity:1;stroke:none;font-family:Comic Sans MS;-inkscape-font-specification:Comic Sans MS"
         x="254.64149"
         y="435.89459"
         id="text4093"
         sodipodi:linespacing="125%"><tspan
           sodipodi:role="line"
           id="tspan4095"
           x="254.64149"
           y="435.89459">1</tspan></text>
      <text
         sodipodi:linespacing="125%"
         id="text4097"
         y="435.89459"
         x="254.64149"
         style="font-size:23.45038223px;font-style:normal;font-variant:normal;font-weight:normal;font-stretch:normal;line-height:125%;letter-spacing:0px;word-spacing:0px;fill:#700000;fill-opacity:1;stroke:none;font-family:Comic Sans MS;-inkscape-font-specification:Comic Sans MS"
         xml:space="preserve"><tspan
           y="435.89459"
           x="254.64149"
           id="tspan4099"
           sodipodi:role="line">1</tspan></text>
    </g>
    <g
       transform="matrix(1.0374384,0,0,1.0374384,-2.3714426,-44.375294)"
       inkscape:export-ydpi="90"
       inkscape:export-xdpi="90"
       inkscape:export-filename="C:\Users\Schmid\Desktop\10.png"
       style="fill:#2ad4ff;fill-opacity:1"
       id="g4128">
      <g
         id="g4149"
         transform="matrix(0.71525156,0,0,1,1.9876141,-1.9278253)"
         inkscape:export-filename="C:\Users\Schmid\Desktop\max.png"
         inkscape:export-xdpi="90"
         inkscape:export-ydpi="90">
        <path
           id="text4144"
           transform="matrix(0.96391265,0,0,0.96391265,135.27453,477.02543)"
           d="m -35.1875,-59.125 c -0.168561,0.142438 -0.340066,0.318327 -0.46875,0.5625 -0.229676,0.427663 -0.388715,0.990611 -0.53125,1.6875 l -0.375,1.75 c -0.684382,2.642445 -1.456566,5.207322 -2.34375,7.6875 0.03589,0.124743 0.05706,0.249526 0.09375,0.375 1.172056,-3.048953 2.175945,-6.228859 3.03125,-9.53125 l 0.375,-1.71875 c 0.05993,-0.293033 0.143408,-0.567069 0.21875,-0.8125 z m -9.4375,0.25 c -0.0886,0.08612 -0.170808,0.197673 -0.25,0.3125 -0.388054,0.538534 -0.776552,1.687333 -1.125,3.4375 l -0.6875,3.75 -1.28125,4.78125 c -0.546439,1.924412 -0.843751,3.552466 -0.84375,4.875 -10e-7,0.348453 0.114514,0.637419 0.3125,0.875 0.22966,0.277178 0.518198,0.406249 0.90625,0.40625 0.546434,-10e-7 0.949915,-0.319789 1.1875,-0.9375 0.05846,-0.25335 0.106104,-0.424677 0.15625,-0.65625 -0.159899,0.08456 -0.360319,0.125 -0.5625,0.125 -0.388052,-10e-7 -0.67659,-0.129072 -0.90625,-0.40625 -0.197986,-0.237581 -0.312501,-0.526547 -0.3125,-0.875 -10e-7,-1.322534 0.297311,-2.950588 0.84375,-4.875 l 1.28125,-4.78125 0.6875,-3.75 c 0.188146,-0.94501 0.394057,-1.689493 0.59375,-2.28125 z m 10.90625,4.1875 -0.6875,2.0625 c 0.64582,3.924127 1.130793,6.584413 1.4375,7.78125 l 0.4375,2.0625 c 0.190047,0.886971 0.418651,1.52612 0.65625,1.90625 0.27716,0.443484 0.603585,0.656249 1.03125,0.65625 0.324675,-10e-7 0.6176,-0.114089 0.875,-0.34375 0.257359,-0.229662 0.406229,-0.503217 0.40625,-0.84375 -5e-6,-0.06603 -0.04207,-0.251984 -0.0625,-0.375 -0.137199,0.05029 -0.285569,0.09375 -0.4375,0.09375 -0.427665,-10e-7 -0.75409,-0.212766 -1.03125,-0.65625 -0.237599,-0.38013 -0.466203,-1.019279 -0.65625,-1.90625 l -0.4375,-2.03125 c -0.324711,-1.267095 -0.826442,-4.082262 -1.53125,-8.40625 z m -9.34375,0.1875 -0.4375,2.125 -0.125,0.5 c 0.555975,2.761406 1.172336,5.387933 1.875,7.84375 l 0.375,1.3125 c 0.14254,0.514761 0.294515,0.917387 0.46875,1.25 0.269249,0.50684 0.626497,0.781249 1.09375,0.78125 0.562265,-10e-7 1.011125,-0.304378 1.34375,-0.90625 0.166204,-0.306849 0.34067,-0.661618 0.5,-1.0625 -0.292526,0.338553 -0.640801,0.5 -1.0625,0.5 -0.467253,-10e-7 -0.824501,-0.24316 -1.09375,-0.75 -0.174235,-0.332613 -0.32621,-0.766489 -0.46875,-1.28125 l -0.375,-1.3125 c -0.799865,-2.795535 -1.483965,-5.808482 -2.09375,-9 z m 29.71875,0.40625 c -0.183986,0.0536 -0.346965,0.114797 -0.5,0.28125 -0.225704,0.245513 -0.343752,0.526987 -0.34375,0.84375 -2e-6,0.316787 0.136561,0.637002 0.4375,0.90625 0.46724,0.411818 1.030616,1.04262 1.65625,1.9375 l 1.3125,1.875 1.03125,-1.09375 -1.5625,-2.25 c -0.625634,-0.89488 -1.18901,-1.525682 -1.65625,-1.9375 -0.194572,-0.174083 -0.30623,-0.368545 -0.375,-0.5625 z m 10.8125,0.875 c -0.1009316,0.11589 -0.1917818,0.219137 -0.3125,0.34375 l -1.75,1.625 -2.125,2.125 0.3125,0.375 1.03125,-1.03125 1.75,-1.625 c 0.7364888,-0.760249 1.0937363,-1.345673 1.09375,-1.78125 -5e-7,-0.01028 2.774e-4,-0.02106 0,-0.03125 z m -17.875,0.25 c -1.22751,1e-5 -2.296575,0.498209 -3.1875,1.5 -0.50115,0.563518 -0.843248,1.183766 -1.0625,1.84375 0.09369,-0.123986 0.174853,-0.255362 0.28125,-0.375 0.890925,-1.001791 1.95999,-1.49999 3.1875,-1.5 0.126702,1e-5 0.290129,0.02249 0.5,0.09375 0.209855,0.07129 0.456975,0.193292 0.75,0.34375 -0.08712,0.451414 -0.143952,0.88133 -0.1875,1.28125 -0.04357,0.399937 -0.06251,0.753225 -0.0625,1.09375 -7e-6,0.896609 0.09482,2.266058 0.28125,3.9375 0.243443,-0.167718 0.525962,-0.381424 0.875,-0.6875 -0.253429,-2.09863 -0.375008,-3.673386 -0.375,-4.71875 -8e-6,-0.340525 0.01893,-0.693813 0.0625,-1.09375 0.04355,-0.39992 0.100378,-0.829836 0.1875,-1.28125 -0.293025,-0.150458 -0.540145,-0.272465 -0.75,-0.34375 -0.209871,-0.07126 -0.373298,-0.09374 -0.5,-0.09375 z m -6.4375,2.34375 c -0.800584,1.156756 -1.21875,2.475421 -1.21875,3.96875 -1e-6,2.027364 0.418892,3.549249 1.21875,4.53125 0.847371,1.045358 2.178112,1.562499 4.03125,1.5625 0.388043,-10e-7 0.890629,-0.102637 1.46875,-0.3125 0.578107,-0.209864 1.239731,-0.525692 2,-0.9375 0.174217,0.25342 0.424868,0.550306 0.78125,0.875 0.395958,0.348452 0.693271,0.531249 0.84375,0.53125 0.293006,-10e-7 0.528246,-0.106597 0.75,-0.3125 0.221731,-0.205904 0.343738,-0.464475 0.34375,-0.78125 l -0.0625,-0.21875 c -0.03873,-0.08471 -0.06168,-0.115365 -0.09375,-0.1875 -0.05337,0.0075 -0.100283,0.03125 -0.15625,0.03125 -0.150479,-10e-7 -0.447792,-0.182798 -0.84375,-0.53125 -0.356382,-0.324694 -0.607033,-0.62158 -0.78125,-0.875 -0.760269,0.411808 -1.421893,0.727636 -2,0.9375 -0.578121,0.209863 -1.080707,0.312499 -1.46875,0.3125 -1.853138,-10e-7 -3.183879,-0.517142 -4.03125,-1.5625 -0.799858,-0.982001 -1.218751,-2.503886 -1.21875,-4.53125 0,-0.897417 0.148376,-1.724134 0.4375,-2.5 z m 18.46875,3.15625 -2.3125,2.375 c -0.467248,0.419729 -1.136364,1.081781 -2.03125,1.96875 -0.253423,0.285098 -0.550735,0.40625 -0.84375,0.40625 -0.300938,0 -0.54763,-0.106169 -0.78125,-0.34375 -0.199747,-0.203131 -0.283537,-0.432264 -0.3125,-0.6875 -0.211715,0.210352 -0.402413,0.423502 -0.53125,0.59375 -0.197985,0.253422 -0.281251,0.504501 -0.28125,0.75 -10e-7,0.308857 0.110128,0.574919 0.34375,0.8125 0.23362,0.237581 0.480312,0.34375 0.78125,0.34375 0.293015,0 0.590327,-0.121152 0.84375,-0.40625 0.894886,-0.886969 1.564002,-1.549021 2.03125,-1.96875 l 2.3125,-2.40625 c 1.8372866,2.415412 3.1151571,4.058877 3.84375,4.90625 0.2454895,0.293017 0.5428022,0.437499 0.84375,0.4375 0.3009243,-10e-7 0.5436564,-0.106169 0.78125,-0.34375 0.2375685,-0.237581 0.3749871,-0.503644 0.375,-0.8125 -6.4e-6,-0.12275 -0.044254,-0.25027 -0.09375,-0.375 -0.096411,0.02836 -0.177279,0.0625 -0.28125,0.0625 -0.3009478,-10e-7 -0.5982605,-0.144483 -0.84375,-0.4375 -0.7285929,-0.847373 -2.0064634,-2.459588 -3.84375,-4.875 z m 9.03125,4.59375 c -0.1343124,0.06937 -0.26096193,0.134378 -0.375,0.25 -0.28509942,0.289058 -0.4375017,0.658613 -0.4375,1.0625 -1.7e-6,0.411808 0.15240058,0.746152 0.4375,1.03125 0.28509517,0.285097 0.61943962,0.437499 1.03125,0.4375 0.4038847,-10e-7 0.7421888,-0.152403 1.03125,-0.4375 0.2890528,-0.285098 0.4374954,-0.619442 0.4375,-1.03125 -7e-7,-0.06098 -0.02466,-0.129135 -0.03125,-0.1875 -0.2009942,0.102635 -0.4139192,0.187499 -0.65625,0.1875 C 1.6819396,-41.562501 1.3475952,-41.714903 1.0625,-42 0.81738403,-42.245115 0.69062472,-42.536224 0.65625,-42.875 z"
           style="font-size:23.45038223px;font-style:normal;font-variant:normal;font-weight:normal;font-stretch:normal;line-height:125%;letter-spacing:0px;word-spacing:0px;fill:#00add9;fill-opacity:1;stroke:none;font-family:Comic Sans MS;-inkscape-font-specification:Comic Sans MS"
           inkscape:connector-curvature="0" />
        <text
           sodipodi:linespacing="125%"
           id="text4136"
           y="435.89459"
           x="87.703224"
           style="font-size:23.45038223px;font-style:normal;font-variant:normal;font-weight:normal;font-stretch:normal;line-height:125%;letter-spacing:0px;word-spacing:0px;fill:#2ad4ff;fill-opacity:1;stroke:none;font-family:Comic Sans MS;-inkscape-font-specification:Comic Sans MS"
           xml:space="preserve"><tspan
             y="435.89459"
             x="87.703224"
             id="tspan4138"
             sodipodi:role="line">Max.</tspan></text>
      </g>
    </g>
  </g>
</svg>
