<?xml version="1.0" encoding="UTF-8" standalone="no"?>
<!-- Created with Inkscape (http://www.inkscape.org/) -->

<svg
   xmlns:dc="http://purl.org/dc/elements/1.1/"
   xmlns:cc="http://creativecommons.org/ns#"
   xmlns:rdf="http://www.w3.org/1999/02/22-rdf-syntax-ns#"
   xmlns:svg="http://www.w3.org/2000/svg"
   xmlns="http://www.w3.org/2000/svg"
   xmlns:sodipodi="http://sodipodi.sourceforge.net/DTD/sodipodi-0.dtd"
   xmlns:inkscape="http://www.inkscape.org/namespaces/inkscape"
   width="210mm"
   height="297mm"
   id="svg2"
   version="1.1"
   inkscape:version="0.48.4 r9939"
   sodipodi:docname="Jellyfish.svg">
  <defs
     id="defs4">
    <filter
       inkscape:collect="always"
       id="filter4711"
       x="-0.31391578"
       width="1.6278316"
       y="-0.32966986"
       height="1.6593397">
      <feGaussianBlur
         inkscape:collect="always"
         stdDeviation="13.386087"
         id="feGaussianBlur4713" />
    </filter>
  </defs>
  <sodipodi:namedview
     id="base"
     pagecolor="#ffffff"
     bordercolor="#666666"
     borderopacity="1.0"
     inkscape:pageopacity="0.0"
     inkscape:pageshadow="2"
     inkscape:zoom="0.49497474"
     inkscape:cx="1622.3382"
     inkscape:cy="490.54535"
     inkscape:document-units="px"
     inkscape:current-layer="layer1"
     showgrid="false"
     showguides="true"
     inkscape:guide-bbox="true"
     inkscape:window-width="1360"
     inkscape:window-height="706"
     inkscape:window-x="-8"
     inkscape:window-y="-8"
     inkscape:window-maximized="1" />
  <metadata
     id="metadata7">
    <rdf:RDF>
      <cc:Work
         rdf:about="">
        <dc:format>image/svg+xml</dc:format>
        <dc:type
           rdf:resource="http://purl.org/dc/dcmitype/StillImage" />
        <dc:title></dc:title>
      </cc:Work>
    </rdf:RDF>
  </metadata>
  <g
     inkscape:label="Ebene 1"
     inkscape:groupmode="layer"
     id="layer1">
    <g
       id="g4949">
      <path
         sodipodi:nodetypes="csc"
         inkscape:connector-curvature="0"
         id="path4735"
         d="m 783.87838,694.20219 c 0,0 0.44771,17.38982 -4.04061,24.24366 -4.40027,6.71939 -20.20306,13.13198 -20.20306,13.13198"
         style="fill:none;stroke:#87b7f7;stroke-width:1.89999998;stroke-linecap:round;stroke-linejoin:round;stroke-miterlimit:4;stroke-opacity:1;stroke-dasharray:none" />
      <path
         sodipodi:nodetypes="csc"
         inkscape:connector-curvature="0"
         id="path4737"
         d="m 801.05097,698.74788 c 0,0 9.18227,10.33958 9.09137,16.66751 -0.0672,4.67735 -7.07107,12.12183 -7.07107,12.12183"
         style="fill:none;stroke:#87b7f7;stroke-width:1.89999998;stroke-linecap:round;stroke-linejoin:round;stroke-miterlimit:4;stroke-opacity:1;stroke-dasharray:none" />
      <path
         sodipodi:nodetypes="csc"
         inkscape:connector-curvature="0"
         id="path4739"
         d="m 825.29463,693.69711 c 0,0 11.09797,16.39469 19.69797,20.20305 4.31307,1.90997 14.14214,0.50508 14.14214,0.50508"
         style="fill:none;stroke:#87b7f7;stroke-width:1.89999998;stroke-linecap:round;stroke-linejoin:round;stroke-miterlimit:4;stroke-opacity:1;stroke-dasharray:none" />
      <path
         sodipodi:nodetypes="csc"
         inkscape:connector-curvature="0"
         id="path4741"
         d="m 810.64742,695.71742 c 0,0 0.99259,19.35183 8.08122,19.69797 3.23459,0.15794 4.54568,-8.58629 4.54568,-8.58629"
         style="fill:none;stroke:#87b7f7;stroke-width:1.89999998;stroke-linecap:round;stroke-linejoin:round;stroke-miterlimit:4;stroke-opacity:1;stroke-dasharray:none" />
      <path
         sodipodi:nodetypes="csc"
         inkscape:connector-curvature="0"
         id="path4743"
         d="m 858.62966,689.15143 c 0,0 12.49958,12.1265 11.61676,19.69797 -0.67572,5.79529 -12.12183,12.62691 -12.12183,12.62691"
         style="fill:none;stroke:#87b7f7;stroke-width:1.89999998;stroke-linecap:round;stroke-linejoin:round;stroke-miterlimit:4;stroke-opacity:1;stroke-dasharray:none" />
      <path
         sodipodi:nodetypes="csc"
         inkscape:connector-curvature="0"
         id="path4745"
         d="m 840.44692,694.70727 c 0,0 12.98338,18.4996 10.6066,28.28427 -1.12542,4.63312 -10.6066,9.59645 -10.6066,9.59645"
         style="fill:none;stroke:#87b7f7;stroke-width:1.89999998;stroke-linecap:round;stroke-linejoin:round;stroke-miterlimit:4;stroke-opacity:1;stroke-dasharray:none" />
      <path
         sodipodi:nodetypes="csc"
         inkscape:connector-curvature="0"
         id="path4747"
         d="m 869.74134,694.20219 c -3.53553,0.50508 2.7285,22.63563 11.61676,25.25381 2.10568,0.62026 5.55584,-3.53553 5.55584,-3.53553"
         style="fill:none;stroke:#87b7f7;stroke-width:1.89999998;stroke-linecap:round;stroke-linejoin:round;stroke-miterlimit:4;stroke-opacity:1;stroke-dasharray:none" />
      <path
         sodipodi:nodetypes="cscsc"
         inkscape:connector-curvature="0"
         id="path4725"
         d="m 772.3353,681.61589 c 0,0 -6.40768,28.41888 -4.0406,42.42641 2.96244,17.53064 24.65788,30.87561 22.2233,48.48732 -0.95101,21.53589 -31.51932,14.83208 -25.73783,38.98189 3.02508,12.63604 19.63326,23.37524 21.19214,36.27448"
         style="fill:none;stroke:#61a1f5;stroke-width:5.9000001;stroke-linecap:round;stroke-linejoin:round;stroke-miterlimit:4;stroke-opacity:1;stroke-dasharray:none" />
      <path
         sodipodi:nodetypes="cssssc"
         inkscape:connector-curvature="0"
         id="path4727"
         d="m 794.5586,684.64635 c 0,0 3.28473,30.70492 11.1117,43.43656 3.74913,6.09848 15.05186,7.07009 16.1625,14.14214 2.43687,15.51689 -23.16,24.73645 -24.2437,40.4061 -1.18663,17.158 17.51128,30.49014 20.2031,47.47717 1.79876,11.35124 -3.0305,34.34518 -3.0305,34.34518"
         style="fill:none;stroke:#61a1f5;stroke-width:5.9000001;stroke-linecap:round;stroke-linejoin:round;stroke-miterlimit:4;stroke-opacity:1;stroke-dasharray:none" />
      <path
         sodipodi:nodetypes="cssc"
         inkscape:connector-curvature="0"
         id="path4729"
         d="m 827.8937,693.73772 c 0,0 3.98242,44.2252 16.1624,61.61931 9.16137,13.08326 36.75982,11.52125 39.396,27.27412 3.37916,20.19263 -36.3655,49.49747 -36.3655,49.49747"
         style="fill:none;stroke:#61a1f5;stroke-width:5.9000001;stroke-linecap:round;stroke-linejoin:round;stroke-miterlimit:4;stroke-opacity:1;stroke-dasharray:none" />
      <path
         sodipodi:nodetypes="csc"
         inkscape:connector-curvature="0"
         id="path4731"
         d="m 877.3912,684.64635 c 0,0 19.24286,60.96545 16.1624,91.92388 -2.29076,23.02202 -25.2538,64.64977 -25.2538,64.64977"
         style="fill:none;stroke:#61a1f5;stroke-width:5.9;stroke-linecap:round;stroke-linejoin:round;stroke-miterlimit:4;stroke-opacity:1;stroke-dasharray:none" />
      <path
         sodipodi:nodetypes="csc"
         inkscape:connector-curvature="0"
         id="path4733"
         d="m 841.0257,684.64635 c 0,0 -16.95951,56.19354 -9.0914,82.83251 6.6438,22.49385 44.4467,54.54824 44.4467,54.54824"
         style="fill:none;stroke:#61a1f5;stroke-width:5.9000001;stroke-linecap:round;stroke-linejoin:round;stroke-miterlimit:4;stroke-opacity:1;stroke-dasharray:none" />
      <path
         sodipodi:nodetypes="cac"
         inkscape:connector-curvature="0"
         id="path4749"
         d="m 790,693.79075 c 0,0 -17.03171,32.40279 -14.28571,49.28572 2.55528,15.71035 27.14285,39.28571 27.14285,39.28571"
         style="fill:none;stroke:#c5d0fc;stroke-width:3.70000005;stroke-linecap:round;stroke-linejoin:round;stroke-miterlimit:4;stroke-opacity:1;stroke-dasharray:none" />
      <path
         sodipodi:nodetypes="cac"
         inkscape:connector-curvature="0"
         id="path4751"
         d="m 807.85714,695.21933 c 0,0 -10.75305,33.50048 -10,50.71428 0.74757,17.08844 14.28572,49.28572 14.28572,49.28572"
         style="fill:none;stroke:#c5d0fc;stroke-width:3.70000005;stroke-linecap:round;stroke-linejoin:round;stroke-miterlimit:4;stroke-opacity:1;stroke-dasharray:none" />
      <path
         sodipodi:nodetypes="cac"
         inkscape:connector-curvature="0"
         id="path4755"
         d="m 855.71429,694.79075 c 0,0 -0.75713,27.96926 -8.57143,38.57143 -7.97231,10.81655 -35,20 -35,20"
         style="fill:none;stroke:#c5d0fc;stroke-width:3.70000005;stroke-linecap:round;stroke-linejoin:round;stroke-miterlimit:4;stroke-opacity:1;stroke-dasharray:none" />
      <path
         sodipodi:nodetypes="cac"
         inkscape:connector-curvature="0"
         id="path4757"
         d="m 870,692.36218 c 0,0 8.7594,54.15735 2.14286,80 -4.1021,16.02183 -25,42.85715 -25,42.85715"
         style="fill:none;stroke:#c5d0fc;stroke-width:3.70000005;stroke-linecap:round;stroke-linejoin:round;stroke-miterlimit:4;stroke-opacity:1;stroke-dasharray:none" />
      <path
         sodipodi:nodetypes="caac"
         inkscape:connector-curvature="0"
         id="path4759"
         d="m 856.42857,698.07647 c 0,0 10.0803,24.93879 5.71429,36.42857 -3.72509,9.80312 -21.25107,9.96166 -24.28572,20 -4.03216,13.33802 12.14286,40 12.14286,40"
         style="fill:none;stroke:#c5d0fc;stroke-width:3.70000005;stroke-linecap:round;stroke-linejoin:round;stroke-miterlimit:4;stroke-opacity:1;stroke-dasharray:none" />
      <g
         id="g4715">
        <path
           style="fill:#a0bbe0;fill-opacity:1;stroke:none"
           d="m 882.36825,688.20219 c 6.04359,-7.5017 -3.81914,-19.24332 -2.52538,-28.78935 1.42376,-10.50521 9.98387,-19.25841 11.11168,-29.7995 1.37541,-12.85522 -1.1645,-26.22583 -5.55584,-38.38579 -3.28552,-9.09786 -7.62685,-18.67145 -15.15229,-24.74874 -10.68762,-8.63096 -25.16431,-14.18501 -38.89087,-13.63706 -14.53563,0.58025 -28.05912,9.22838 -39.90103,17.67767 -10.47332,7.47279 -21.20099,16.45638 -26.26397,28.28427 -4.38067,10.2339 -2.61404,22.21881 -2.0203,33.33503 0.70121,13.12837 6.03686,25.75445 6.56599,38.89088 0.15643,3.88371 -3.15426,8.37476 -1.01015,11.61675 9.28068,14.03277 31.2044,14.41084 47.98224,15.65737 14.13222,1.04997 27.90308,-4.99488 41.92133,-7.07107 7.891,-1.16871 18.73405,3.1815 23.73859,-3.03046 z"
           id="path3007"
           inkscape:connector-curvature="0"
           sodipodi:nodetypes="ssssssssssssss" />
        <path
           sodipodi:nodetypes="ccssssssssssc"
           inkscape:connector-curvature="0"
           id="path3009"
           d="m 863.44765,712.23317 c 19.48456,4.79011 11.92734,-53.80667 14.43177,-84.67619 0.93875,-8.54036 -0.79479,-17.42311 -3.79198,-25.50157 -2.24245,-6.04415 -5.20549,-12.40437 -10.34178,-16.44181 -7.29455,-5.73398 -28.60378,-10.85239 -37.97247,-10.48836 -9.92089,0.38549 -19.15099,6.13088 -27.23336,11.74415 -7.14827,4.96454 -17.32729,11.64708 -20.78289,19.50493 -2.9899,6.79889 -1.78414,14.76105 -1.3789,22.1461 0.47859,8.72184 9.83458,17.10996 10.19572,25.83712 0.10672,2.58016 -11.43857,54.17366 -9.97517,56.32748 6.33428,9.32266 30.58342,7.43096 42.03468,8.25909 9.64556,0.69755 19.04448,-3.31834 28.61225,-4.69765 5.38578,-0.77643 12.78642,2.11362 16.20213,-2.01329 z"
           style="fill:#d1def1;fill-opacity:1;stroke:none;filter:url(#filter4711)" />
      </g>
    </g>
    <g
       id="g3050"
       inkscape:export-filename="C:\Users\Schmid\Desktop\Jellyfish1.png"
       inkscape:export-xdpi="90"
       inkscape:export-ydpi="90">
      <path
         sodipodi:nodetypes="cac"
         inkscape:connector-curvature="0"
         id="path4923"
         d="m 1126.9307,680.69819 c 0,0 -1.3653,27.94618 5.6228,39.1102 7.1295,11.38976 33.3832,22.59559 33.3832,22.59559"
         style="fill:none;stroke:#c5d0fc;stroke-width:3.70000005;stroke-linecap:round;stroke-linejoin:round;stroke-miterlimit:4;stroke-opacity:1;stroke-dasharray:none" />
      <path
         sodipodi:nodetypes="csc"
         inkscape:connector-curvature="0"
         id="path4889"
         d="m 1132.6528,681.29641 c -29.0589,40.59667 -51.8035,75.08576 -26.1625,122.514 9.3479,17.29096 14.9294,35.73406 14.9294,35.73406"
         style="fill:none;stroke:#61a1f5;stroke-width:7.24072552;stroke-linecap:round;stroke-linejoin:round;stroke-miterlimit:4;stroke-opacity:1;stroke-dasharray:none" />
      <path
         sodipodi:nodetypes="cac"
         inkscape:connector-curvature="0"
         id="path4891"
         d="m 1210.9189,684.87564 c 56.2305,45.89254 51.0733,60.36499 63.4385,96.95324 6.1326,18.14609 4.1568,57.31248 4.1568,57.31248"
         style="fill:none;stroke:#61a1f5;stroke-width:7.24072552;stroke-linecap:round;stroke-linejoin:round;stroke-miterlimit:4;stroke-opacity:1;stroke-dasharray:none" />
      <path
         sodipodi:nodetypes="csc"
         inkscape:connector-curvature="0"
         id="path4893"
         d="m 1213.0222,695.06457 c 0,0 -4.1452,41.6728 38.2419,73.28452 25.9082,19.32196 -6.5824,97.45666 -6.5824,97.45666"
         style="fill:none;stroke:#61a1f5;stroke-width:7.24072552;stroke-linecap:round;stroke-linejoin:round;stroke-miterlimit:4;stroke-opacity:1;stroke-dasharray:none" />
      <path
         sodipodi:nodetypes="csc"
         inkscape:connector-curvature="0"
         id="path4895"
         d="m 1154.7545,684.356 c 0,0 -29.9064,52.48505 -36.1663,73.43018 -13.3684,44.72971 14.1059,63.93631 14.1059,63.93631"
         style="fill:none;stroke:#61a1f5;stroke-width:7.24072552;stroke-linecap:round;stroke-linejoin:round;stroke-miterlimit:4;stroke-opacity:1;stroke-dasharray:none" />
      <path
         sodipodi:nodetypes="csc"
         inkscape:connector-curvature="0"
         id="path4897"
         d="m 1163.395,689.76089 c 0,0 36.08,67.11044 16.3132,90.56732 -43.0173,51.04794 -12.8984,66.18611 -12.8984,66.18611"
         style="fill:none;stroke:#61a1f5;stroke-width:7.24072552;stroke-linecap:round;stroke-linejoin:round;stroke-miterlimit:4;stroke-opacity:1;stroke-dasharray:none" />
      <path
         sodipodi:nodetypes="csc"
         inkscape:connector-curvature="0"
         id="path4899"
         d="m 1201.9068,682.8262 c 0,0 -7.7603,69.27919 11.1228,88.23763 24.7318,24.83046 12.7996,41.3028 -3.2377,61.47417"
         style="fill:none;stroke:#61a1f5;stroke-width:7.24072552;stroke-linecap:round;stroke-linejoin:round;stroke-miterlimit:4;stroke-opacity:1;stroke-dasharray:none" />
      <path
         style="fill:none;stroke:#87b7f7;stroke-width:1.89999998;stroke-linecap:round;stroke-linejoin:round;stroke-miterlimit:4;stroke-opacity:1;stroke-dasharray:none"
         d="m 1137.8784,686.20219 c 0,0 0.4477,17.38982 -4.0406,24.24366 -4.4003,6.71939 -20.2031,13.13198 -20.2031,13.13198"
         id="path4827"
         inkscape:connector-curvature="0"
         sodipodi:nodetypes="csc" />
      <path
         style="fill:none;stroke:#87b7f7;stroke-width:1.89999998;stroke-linecap:round;stroke-linejoin:round;stroke-miterlimit:4;stroke-opacity:1;stroke-dasharray:none"
         d="m 1155.051,690.74788 c 0,0 9.1822,10.33958 9.0913,16.66751 -0.067,4.67735 -7.071,12.12183 -7.071,12.12183"
         id="path4829"
         inkscape:connector-curvature="0"
         sodipodi:nodetypes="csc" />
      <path
         style="fill:none;stroke:#87b7f7;stroke-width:1.89999998;stroke-linecap:round;stroke-linejoin:round;stroke-miterlimit:4;stroke-opacity:1;stroke-dasharray:none"
         d="m 1179.2946,685.69711 c 0,0 11.098,16.39469 19.698,20.20305 4.3131,1.90997 14.1421,0.50508 14.1421,0.50508"
         id="path4831"
         inkscape:connector-curvature="0"
         sodipodi:nodetypes="csc" />
      <path
         style="fill:none;stroke:#87b7f7;stroke-width:1.89999998;stroke-linecap:round;stroke-linejoin:round;stroke-miterlimit:4;stroke-opacity:1;stroke-dasharray:none"
         d="m 1164.6474,687.71742 c 0,0 0.9926,19.35183 8.0812,19.69797 3.2346,0.15794 4.5457,-8.58629 4.5457,-8.58629"
         id="path4833"
         inkscape:connector-curvature="0"
         sodipodi:nodetypes="csc" />
      <path
         style="fill:none;stroke:#87b7f7;stroke-width:1.89999998;stroke-linecap:round;stroke-linejoin:round;stroke-miterlimit:4;stroke-opacity:1;stroke-dasharray:none"
         d="m 1212.6297,681.15143 c 0,0 12.4995,12.1265 11.6167,19.69797 -0.6757,5.79529 -12.1218,12.62691 -12.1218,12.62691"
         id="path4835"
         inkscape:connector-curvature="0"
         sodipodi:nodetypes="csc" />
      <path
         style="fill:none;stroke:#87b7f7;stroke-width:1.89999998;stroke-linecap:round;stroke-linejoin:round;stroke-miterlimit:4;stroke-opacity:1;stroke-dasharray:none"
         d="m 1194.4469,686.70727 c 0,0 12.9834,18.4996 10.6066,28.28427 -1.1254,4.63312 -10.6066,9.59645 -10.6066,9.59645"
         id="path4837"
         inkscape:connector-curvature="0"
         sodipodi:nodetypes="csc" />
      <path
         style="fill:none;stroke:#87b7f7;stroke-width:1.89999998;stroke-linecap:round;stroke-linejoin:round;stroke-miterlimit:4;stroke-opacity:1;stroke-dasharray:none"
         d="m 1223.7413,686.20219 c -3.5355,0.50508 2.7285,22.63563 11.6168,25.25381 2.1057,0.62026 5.5558,-3.53553 5.5558,-3.53553"
         id="path4839"
         inkscape:connector-curvature="0"
         sodipodi:nodetypes="csc" />
      <path
         style="fill:none;stroke:#61a1f5;stroke-width:5.9000001;stroke-linecap:round;stroke-linejoin:round;stroke-miterlimit:4;stroke-opacity:1;stroke-dasharray:none"
         d="m 1195.0257,676.64635 c 0,0 -16.9595,56.19354 -9.0914,82.83255 6.6438,22.4938 44.4467,54.5482 44.4467,54.5482"
         id="path4849"
         inkscape:connector-curvature="0"
         sodipodi:nodetypes="csc" />
      <path
         style="fill:none;stroke:#c5d0fc;stroke-width:3.70000005;stroke-linecap:round;stroke-linejoin:round;stroke-miterlimit:4;stroke-opacity:1;stroke-dasharray:none"
         d="m 1144,685.79075 c 0,0 -17.0317,32.40279 -14.2857,49.28572 2.5553,15.71035 27.1428,39.28573 27.1428,39.28573"
         id="path4851"
         inkscape:connector-curvature="0"
         sodipodi:nodetypes="cac" />
      <path
         style="fill:none;stroke:#c5d0fc;stroke-width:3.70000005;stroke-linecap:round;stroke-linejoin:round;stroke-miterlimit:4;stroke-opacity:1;stroke-dasharray:none"
         d="m 1161.8571,687.21933 c 0,0 -10.753,33.50048 -10,50.71428 0.7476,17.08844 14.2858,49.28569 14.2858,49.28569"
         id="path4853"
         inkscape:connector-curvature="0"
         sodipodi:nodetypes="cac" />
      <path
         style="fill:none;stroke:#c5d0fc;stroke-width:3.70000005;stroke-linecap:round;stroke-linejoin:round;stroke-miterlimit:4;stroke-opacity:1;stroke-dasharray:none"
         d="m 1209.7143,686.79075 c 0,0 -0.7571,27.96926 -8.5714,38.57143 -7.9723,10.81655 -35,20 -35,20"
         id="path4855"
         inkscape:connector-curvature="0"
         sodipodi:nodetypes="cac" />
      <path
         style="fill:none;stroke:#c5d0fc;stroke-width:3.70000005;stroke-linecap:round;stroke-linejoin:round;stroke-miterlimit:4;stroke-opacity:1;stroke-dasharray:none"
         d="m 1224,684.36218 c 0,0 8.7594,54.15735 2.1429,80.00002 -4.1021,16.0218 -25,42.8571 -25,42.8571"
         id="path4857"
         inkscape:connector-curvature="0"
         sodipodi:nodetypes="cac" />
      <path
         style="fill:none;stroke:#c5d0fc;stroke-width:3.70000005;stroke-linecap:round;stroke-linejoin:round;stroke-miterlimit:4;stroke-opacity:1;stroke-dasharray:none"
         d="m 1210.4286,690.07647 c 0,0 10.0803,24.93879 5.7143,36.42857 -3.7251,9.80312 -21.2511,9.96166 -24.2858,20 C 1187.825,759.8431 1204,786.505 1204,786.505"
         id="path4859"
         inkscape:connector-curvature="0"
         sodipodi:nodetypes="caac" />
      <path
         style="fill:#a0bbe0;fill-opacity:1;stroke:none"
         d="m 1234.5194,666.65127 c 1.4237,-6.27323 9.9838,-10.30592 11.1116,-16.60055 1.3755,-7.67654 -1.1645,-15.66084 -5.5558,-22.9222 -3.2855,-5.43281 -7.6268,-11.1497 -15.1523,-14.77878 -10.6876,-5.154 -25.1643,-8.47062 -38.8909,-8.14341 -14.5356,0.3465 -28.0591,5.51075 -39.901,10.55628 -10.4733,4.4624 -21.201,9.82697 -26.264,16.89004 -4.3806,6.11119 -2.614,13.26802 -2.0203,19.9061 0.7013,7.83964 3.894,15.79219 6.9231,23.63664 8.0275,11.51386 37.7306,14.28093 46.615,14.67968 14.1322,0.62699 27.9031,-2.98271 41.9214,-4.22251 28.0855,-1.17809 18.4547,-1.43833 21.2132,-19.00129 z"
         id="path4863"
         inkscape:connector-curvature="0"
         sodipodi:nodetypes="cssssssscccc" />
      <path
         transform="matrix(1,0,0,0.54364461,0,309.64913)"
         sodipodi:nodetypes="ccssssssssssc"
         inkscape:connector-curvature="0"
         id="path4865"
         d="m 1220.8385,731.94142 c 19.4845,4.79011 0.4988,-72.20104 3.0032,-103.07056 0.9388,-8.54036 7.7766,-18.73699 4.7794,-26.81545 -2.2424,-6.04415 -5.2054,-12.40437 -10.3417,-16.44181 -7.2946,-5.73398 -28.6038,-10.85239 -37.9725,-10.48836 -9.9209,0.38549 -19.151,6.13088 -27.2334,11.74415 -7.1482,4.96454 -17.3273,11.64708 -20.7829,19.50493 -2.9899,6.79889 -1.7841,14.76105 -1.3789,22.1461 0.4786,8.72184 9.8346,17.10996 10.1958,25.83712 0.1067,2.58016 -8.5815,73.88191 -7.1181,76.03573 6.3343,9.32266 30.5834,7.43096 42.0347,8.25909 9.6455,0.69755 19.0445,-3.31834 28.6122,-4.69765 5.3858,-0.77643 12.7864,2.11362 16.2022,-2.01329 z"
         style="fill:#d1def1;fill-opacity:1;stroke:none;filter:url(#filter4711)" />
    </g>
  </g>
</svg>
