<?xml version="1.0" encoding="UTF-8" standalone="no"?>
<!-- Created with Inkscape (http://www.inkscape.org/) -->

<svg
   xmlns:dc="http://purl.org/dc/elements/1.1/"
   xmlns:cc="http://creativecommons.org/ns#"
   xmlns:rdf="http://www.w3.org/1999/02/22-rdf-syntax-ns#"
   xmlns:svg="http://www.w3.org/2000/svg"
   xmlns="http://www.w3.org/2000/svg"
   xmlns:xlink="http://www.w3.org/1999/xlink"
   xmlns:sodipodi="http://sodipodi.sourceforge.net/DTD/sodipodi-0.dtd"
   xmlns:inkscape="http://www.inkscape.org/namespaces/inkscape"
   width="45.554718"
   height="41.22681"
   id="svg2"
   version="1.1"
   inkscape:version="0.48.4 r9939"
   sodipodi:docname="leaf.svg"
   inkscape:export-filename="C:\Users\Schmid\Desktop\leafl.png"
   inkscape:export-xdpi="90"
   inkscape:export-ydpi="90">
  <defs
     id="defs4">
    <linearGradient
       id="linearGradient3876"
       inkscape:collect="always">
      <stop
         id="stop3878"
         offset="0"
         style="stop-color:#99d936;stop-opacity:1" />
      <stop
         id="stop3880"
         offset="1"
         style="stop-color:#2c8a00;stop-opacity:1" />
    </linearGradient>
    <linearGradient
       inkscape:collect="always"
       id="linearGradient3852">
      <stop
         style="stop-color:#e2ff91;stop-opacity:1;"
         offset="0"
         id="stop3854" />
      <stop
         style="stop-color:#e2ff91;stop-opacity:0;"
         offset="1"
         id="stop3856" />
    </linearGradient>
    <linearGradient
       inkscape:collect="always"
       id="linearGradient3844">
      <stop
         style="stop-color:#b1e267;stop-opacity:1"
         offset="0"
         id="stop3846" />
      <stop
         style="stop-color:#8acd35;stop-opacity:1"
         offset="1"
         id="stop3848" />
    </linearGradient>
    <filter
       inkscape:collect="always"
       id="filter3816"
       x="-0.23261935"
       width="1.4652387"
       y="-0.16837209"
       height="1.3367442"
       color-interpolation-filters="sRGB">
      <feGaussianBlur
         inkscape:collect="always"
         stdDeviation="10.523256"
         id="feGaussianBlur3818" />
    </filter>
    <filter
       inkscape:collect="always"
       id="filter3824"
       x="-0.17772733"
       width="1.3554547"
       y="-0.2269253"
       height="1.4538506"
       color-interpolation-filters="sRGB">
      <feGaussianBlur
         inkscape:collect="always"
         stdDeviation="19.557346"
         id="feGaussianBlur3826" />
    </filter>
    <radialGradient
       inkscape:collect="always"
       xlink:href="#linearGradient3844"
       id="radialGradient3850"
       cx="662.28125"
       cy="164.56438"
       fx="662.28125"
       fy="164.56438"
       r="203.66693"
       gradientTransform="matrix(-0.10704786,0,0,0.101473,532.53786,319.81296)"
       gradientUnits="userSpaceOnUse" />
    <radialGradient
       inkscape:collect="always"
       xlink:href="#linearGradient3852"
       id="radialGradient3858"
       cx="669.28571"
       cy="89.505043"
       fx="669.28571"
       fy="89.505043"
       r="218.47993"
       gradientTransform="matrix(1,0,0,0.37440542,0,55.99387)"
       gradientUnits="userSpaceOnUse" />
    <radialGradient
       inkscape:collect="always"
       xlink:href="#linearGradient3844"
       id="radialGradient3866"
       gradientUnits="userSpaceOnUse"
       gradientTransform="matrix(0.95190253,0,0,0.90232918,31.854055,16.073138)"
       cx="662.28125"
       cy="164.56438"
       fx="662.28125"
       fy="164.56438"
       r="203.66693" />
    <radialGradient
       inkscape:collect="always"
       xlink:href="#linearGradient3876"
       id="radialGradient3873"
       gradientUnits="userSpaceOnUse"
       gradientTransform="matrix(1,0,0,0.94792182,-6.2718402e-7,8.5702127)"
       cx="662.28125"
       cy="164.56438"
       fx="662.28125"
       fy="164.56438"
       r="203.66693" />
    <radialGradient
       inkscape:collect="always"
       xlink:href="#linearGradient3876"
       id="radialGradient3900"
       gradientUnits="userSpaceOnUse"
       gradientTransform="matrix(-0.10704786,0,0,0.101473,532.53786,319.81296)"
       cx="662.28125"
       cy="164.56438"
       fx="662.28125"
       fy="164.56438"
       r="203.66693" />
  </defs>
  <sodipodi:namedview
     id="base"
     pagecolor="#ffffff"
     bordercolor="#666666"
     borderopacity="1.0"
     inkscape:pageopacity="0.0"
     inkscape:pageshadow="2"
     inkscape:zoom="2.8"
     inkscape:cx="-1.3052473"
     inkscape:cy="66.070982"
     inkscape:document-units="px"
     inkscape:current-layer="layer1"
     showgrid="false"
     showguides="true"
     inkscape:guide-bbox="true"
     fit-margin-top="0"
     fit-margin-left="0"
     fit-margin-right="0"
     fit-margin-bottom="0"
     inkscape:window-width="1360"
     inkscape:window-height="706"
     inkscape:window-x="-8"
     inkscape:window-y="-8"
     inkscape:window-maximized="1" />
  <metadata
     id="metadata7">
    <rdf:RDF>
      <cc:Work
         rdf:about="">
        <dc:format>image/svg+xml</dc:format>
        <dc:type
           rdf:resource="http://purl.org/dc/dcmitype/StillImage" />
        <dc:title></dc:title>
      </cc:Work>
    </rdf:RDF>
  </metadata>
  <g
     inkscape:label="Ebene 1"
     inkscape:groupmode="layer"
     id="layer1"
     transform="translate(-439.89348,-315.89819)">
    <path
       sodipodi:nodetypes="cscssssscsssscscc"
       inkscape:connector-curvature="0"
       id="path3868"
       d="m 440.73152,357.12497 c 0,0 0.008,-1.68483 0.56771,-3.10887 0.25363,-0.64528 1.86532,-3.35218 1.86532,-3.35218 0,0 6.8678,-0.13562 10.2728,-0.54067 2.93089,-0.34866 5.94288,-0.58121 8.70484,-1.62202 3.72817,-1.40492 7.37358,-3.37691 10.27279,-6.10961 2.85181,-2.68802 4.84756,-6.22492 6.59622,-9.73212 1.66571,-3.34085 2.78676,-6.95887 3.62251,-10.5972 0.46342,-2.01745 0.75694,-6.16367 0.75694,-6.16367 0,0 -5.51465,3.89552 -8.54264,5.35266 -4.95636,2.38512 -10.62114,3.06303 -15.57139,5.4608 -3.30284,1.59982 -6.61762,3.38829 -9.29958,5.89334 -2.51576,2.34981 -4.80516,5.14061 -6.10961,8.32637 -1.23525,3.01677 -1.40575,9.67805 -1.40575,9.67805 0,0 -1.17834,1.81595 -1.59499,2.7304 -0.47524,1.04307 -0.97321,3.29811 -0.97321,3.29811 z"
       style="fill:url(#radialGradient3850);fill-opacity:1;stroke:none" />
    <path
       style="fill:url(#radialGradient3900);fill-opacity:1;stroke:none"
       d="m 483.38951,315.89819 c 0,0 -0.2926,4.14784 -0.75603,6.16529 -0.83575,3.63833 -1.95718,7.25354 -3.6229,10.59439 -1.74866,3.5072 -3.74501,7.04665 -6.59682,9.73467 -2.89921,2.7327 -6.54173,4.7035 -10.26991,6.10842 -2.76195,1.04081 -5.77678,1.27378 -8.70767,1.62244 -3.03115,0.36059 -8.54651,0.5006 -9.77815,0.52855 0.21905,-0.3746 0.39474,-0.66905 0.39474,-0.66905 0,0 6.53692,-0.12959 9.77815,-0.51517 2.78992,-0.33189 5.65706,-0.5514 8.28617,-1.54216 3.54886,-1.33734 7.01839,-3.21611 9.77815,-5.81738 2.71465,-2.55873 4.61448,-5.92447 6.27903,-9.26298 1.5856,-3.18017 2.6534,-6.62593 3.44895,-10.08926 0.44113,-1.92042 0.72257,-5.86422 0.72257,-5.86422 0,0 -5.24994,3.70775 -8.13229,5.09481 -4.71797,2.2704 -10.11063,2.91606 -14.82278,5.19851 -3.14399,1.52287 -6.29856,3.22207 -8.85152,5.60663 -2.39476,2.2368 -4.57568,4.8957 -5.81739,7.92824 -1.17584,2.87167 -1.33809,9.2128 -1.33809,9.2128 0,0 -1.12214,1.72878 -1.51874,2.59926 -0.13828,0.30349 -0.27661,0.71591 -0.40478,1.14073 -0.0712,0.14097 -0.12796,0.2616 -0.16057,0.34456 -0.55974,1.42405 -0.56869,3.10773 -0.56869,3.10773 l -0.83631,-0.48506 c 0,0 0.49821,-2.25535 0.97346,-3.29841 0.41665,-0.91446 1.59234,-2.73307 1.59234,-2.73307 0,0 0.17309,-6.66102 1.40835,-9.67779 1.30444,-3.18576 3.59266,-5.97651 6.10842,-8.32632 2.68195,-2.50505 5.99693,-4.29116 9.29978,-5.89098 4.95025,-2.39777 10.61576,-3.07766 15.57212,-5.46278 3.02798,-1.45715 8.54041,-5.3524 8.54041,-5.3524 z"
       id="path2996"
       inkscape:connector-curvature="0" />
    <path
       sodipodi:type="arc"
       style="fill:url(#radialGradient3858);fill-opacity:1;stroke:none;filter:url(#filter3824)"
       id="path3784"
       sodipodi:cx="669.28571"
       sodipodi:cy="89.505043"
       sodipodi:rx="165.2513"
       sodipodi:ry="28.571428"
       d="m 834.537,89.505043 c 0,15.779567 -73.98552,28.571427 -165.25129,28.571427 -91.26578,0 -165.2513,-12.79186 -165.2513,-28.571427 0,-15.779564 73.98552,-28.571428 165.2513,-28.571428 91.26577,0 165.25129,12.791864 165.25129,28.571428 z"
       transform="matrix(-0.09614361,0.07411647,0.07411647,0.09614361,521.43372,276.61283)" />
    <path
       style="fill:#60d208;fill-opacity:1;stroke:none;filter:url(#filter3816)"
       d="m 717.14285,112.36219 c 0,0 61.99429,32.44926 81.42858,60 18.06191,25.60521 27.14285,90 27.14285,90 -45.857,-43.76263 -74.66798,-96.93374 -108.57143,-150 z"
       id="path3806"
       inkscape:connector-curvature="0"
       sodipodi:nodetypes="cscc"
       transform="matrix(-0.10704786,0,0,0.10704786,532.53786,318.89553)" />
    <path
       sodipodi:nodetypes="cscc"
       inkscape:connector-curvature="0"
       id="path3860"
       d="m 329.24427,51.753037 c 0,0 61.99429,32.44926 81.42858,60.000003 18.06191,25.60521 27.14285,90 27.14285,90 C 391.9587,157.99041 363.14772,104.8193 329.24427,51.753037 z"
       style="fill:#60d208;fill-opacity:1;stroke:none;filter:url(#filter3816)"
       transform="matrix(0.05041524,0.09443277,-0.09443277,0.05041524,469.50345,285.07379)" />
    <path
       style="fill:#2c8a00;fill-opacity:1;stroke:none"
       d="m 443.56886,350.45729 c 0,0 4.73505,-3.72435 7.26396,-5.35239 3.38666,-2.18024 7.13033,-3.76254 10.55186,-5.88763 3.28509,-2.04035 7.73729,-5.11734 11.07173,-8.30595 3.14291,-3.00546 8.2874,-10.07547 8.2874,-10.07547 0,0 -7.44073,9.10397 -10.94504,11.74453 -3.06622,2.31044 -8.24494,5.75223 -11.54906,7.70737 -3.42595,2.02722 -7.1865,3.49197 -10.4754,5.7347 -2.00324,1.36604 -5.58178,4.66423 -5.58178,4.66423 z"
       id="path3862"
       inkscape:connector-curvature="0"
       sodipodi:nodetypes="cssacssscc" />
    <path
       style="fill:none;stroke:#2c8a00;stroke-width:0.21409571;stroke-linecap:butt;stroke-linejoin:miter;stroke-opacity:0.62240666"
       d="m 446.75592,347.07586 c 0,0 1.73881,-5.58143 3.35509,-7.81776 1.54188,-2.1334 5.7347,-5.42885 5.7347,-5.42885"
       id="path3882"
       inkscape:connector-curvature="0"
       sodipodi:nodetypes="csc" />
    <path
       style="fill:none;stroke:#2c8a00;stroke-width:0.21409571;stroke-linecap:butt;stroke-linejoin:miter;stroke-opacity:0.63485478"
       d="m 454.40604,342.57383 c 0,0 1.9142,-4.21709 3.04539,-5.91546 0.99315,-1.49111 3.44082,-4.12899 3.44082,-4.12899"
       id="path3884"
       inkscape:connector-curvature="0"
       sodipodi:nodetypes="csc" />
    <path
       style="fill:none;stroke:#2c8a00;stroke-width:0.21409571;stroke-linecap:butt;stroke-linejoin:miter;stroke-opacity:0.66804983"
       d="m 463.58157,337.11331 c 0,0 1.93118,-3.02304 2.96893,-4.20161 0.34559,-0.3925 1.14694,-1.07048 1.14694,-1.07048"
       id="path3886"
       inkscape:connector-curvature="0"
       sodipodi:nodetypes="csc" />
    <path
       style="fill:none;stroke:#2c8a00;stroke-width:0.21409571;stroke-linecap:butt;stroke-linejoin:miter;stroke-opacity:0.60580917"
       d="m 464.98798,336.51472 c 0,0 3.35282,-0.31273 4.4681,-0.62098 1.73869,-0.48053 4.97008,-2.14095 4.97008,-2.14095"
       id="path3888"
       inkscape:connector-curvature="0"
       sodipodi:nodetypes="csc" />
    <path
       style="fill:none;stroke:#2c8a00;stroke-width:0.21409571;stroke-linecap:butt;stroke-linejoin:miter;stroke-opacity:0.58506224"
       d="m 457.48535,341.3002 c 0,0 5.91905,-0.74316 8.22406,-1.35393 1.72197,-0.45628 5.04654,-1.75864 5.04654,-1.75864"
       id="path3890"
       inkscape:connector-curvature="0"
       sodipodi:nodetypes="csc" />
    <path
       style="fill:none;stroke:#2c8a00;stroke-width:0.21409571;stroke-linecap:butt;stroke-linejoin:miter;stroke-opacity:0.74273861"
       d="m 450.17276,345.36585 c 0,0 5.63843,0.69045 8.0433,0.23866 3.56309,-0.66937 10.09308,-4.05252 10.09308,-4.05252"
       id="path3892"
       inkscape:connector-curvature="0"
       sodipodi:nodetypes="csc" />
    <path
       style="opacity:0.64516129;fill:none;stroke:#2c8a00;stroke-width:0.10704786px;stroke-linecap:butt;stroke-linejoin:miter;stroke-opacity:1"
       d="m 471.29119,331.91768 c 0,0 0.67602,-2.9563 1.37633,-4.28191 0.40723,-0.77086 1.60572,-2.0645 1.60572,-2.0645"
       id="path3894"
       inkscape:connector-curvature="0"
       sodipodi:nodetypes="csc" />
    <path
       style="opacity:0.64516129;fill:none;stroke:#2c8a00;stroke-width:0.10704786px;stroke-linecap:butt;stroke-linejoin:miter;stroke-opacity:1"
       d="m 470.06778,333.06462 c 0,0 3.73529,-1.12636 5.42886,-2.06449 0.92304,-0.51131 2.52327,-1.91157 2.52327,-1.91157"
       id="path3896"
       inkscape:connector-curvature="0"
       sodipodi:nodetypes="csc" />
    <path
       style="opacity:0.64516129;fill:none;stroke:#2c8a00;stroke-width:0.10704786px;stroke-linecap:butt;stroke-linejoin:miter;stroke-opacity:1"
       d="m 475.49664,327.10053 c 0,0 1.85155,-0.91641 2.6762,-1.52926 1.09973,-0.81729 2.98204,-2.82912 2.98204,-2.82912"
       id="path3898"
       inkscape:connector-curvature="0"
       sodipodi:nodetypes="csc" />
  </g>
</svg>
