<?xml version="1.0" encoding="UTF-8" standalone="no"?>
<!-- Created with Inkscape (http://www.inkscape.org/) -->

<svg
   xmlns:dc="http://purl.org/dc/elements/1.1/"
   xmlns:cc="http://creativecommons.org/ns#"
   xmlns:rdf="http://www.w3.org/1999/02/22-rdf-syntax-ns#"
   xmlns:svg="http://www.w3.org/2000/svg"
   xmlns="http://www.w3.org/2000/svg"
   xmlns:xlink="http://www.w3.org/1999/xlink"
   xmlns:sodipodi="http://sodipodi.sourceforge.net/DTD/sodipodi-0.dtd"
   xmlns:inkscape="http://www.inkscape.org/namespaces/inkscape"
   width="537.37927"
   height="132.502"
   id="svg2"
   version="1.1"
   inkscape:version="0.48.4 r9939"
   sodipodi:docname="PlayAgainClick.svg"
   inkscape:export-filename="C:\Users\Andreas\Google Drive\BOS\Unterricht\save\images\PlayAgainclick.png"
   inkscape:export-xdpi="90"
   inkscape:export-ydpi="90">
  <defs
     id="defs4">
    <linearGradient
       inkscape:collect="always"
       id="linearGradient3991">
      <stop
         style="stop-color:#be0000;stop-opacity:1"
         offset="0"
         id="stop3993" />
      <stop
         style="stop-color:#ff6b0b;stop-opacity:1"
         offset="1"
         id="stop3995" />
    </linearGradient>
    <linearGradient
       id="linearGradient3982"
       inkscape:collect="always">
      <stop
         id="stop3984"
         offset="0"
         style="stop-color:#009a80;stop-opacity:1" />
      <stop
         id="stop3986"
         offset="1"
         style="stop-color:#00bd9a;stop-opacity:1" />
    </linearGradient>
    <linearGradient
       inkscape:collect="always"
       id="linearGradient3953">
      <stop
         style="stop-color:#17ffda;stop-opacity:1"
         offset="0"
         id="stop3955" />
      <stop
         style="stop-color:#00d9b1;stop-opacity:1"
         offset="1"
         id="stop3957" />
    </linearGradient>
    <linearGradient
       id="linearGradient3945"
       inkscape:collect="always">
      <stop
         id="stop3947"
         offset="0"
         style="stop-color:#ff0000;stop-opacity:1" />
      <stop
         id="stop3949"
         offset="1"
         style="stop-color:#ff7f2a;stop-opacity:1" />
    </linearGradient>
    <linearGradient
       inkscape:collect="always"
       id="linearGradient3773">
      <stop
         style="stop-color:#470000;stop-opacity:1"
         offset="0"
         id="stop3775" />
      <stop
         style="stop-color:#c70000;stop-opacity:1"
         offset="1"
         id="stop3777" />
    </linearGradient>
    <linearGradient
       inkscape:collect="always"
       xlink:href="#linearGradient3773"
       id="linearGradient3781"
       x1="-301.64243"
       y1="395.65195"
       x2="433.74918"
       y2="395.65195"
       gradientUnits="userSpaceOnUse"
       gradientTransform="matrix(0.61499177,0,0,0.61499177,-133.91131,111.4068)" />
    <linearGradient
       inkscape:collect="always"
       xlink:href="#linearGradient3771"
       id="linearGradient3777"
       x1="-128"
       y1="38.494873"
       x2="675"
       y2="38.494873"
       gradientUnits="userSpaceOnUse" />
    <linearGradient
       inkscape:collect="always"
       id="linearGradient3771">
      <stop
         style="stop-color:#550000;stop-opacity:1"
         offset="0"
         id="stop3773" />
      <stop
         style="stop-color:#deaa87;stop-opacity:0.42084941"
         offset="1"
         id="stop3775-7" />
    </linearGradient>
    <linearGradient
       inkscape:collect="always"
       xlink:href="#linearGradient3945"
       id="linearGradient3943"
       gradientUnits="userSpaceOnUse"
       gradientTransform="matrix(0.40522107,0,0,0.40522107,-213.68904,233.93475)"
       x1="-57.313641"
       y1="406.43115"
       x2="602.62347"
       y2="406.43115" />
    <linearGradient
       inkscape:collect="always"
       xlink:href="#linearGradient3945-7"
       id="linearGradient3943-1"
       gradientUnits="userSpaceOnUse"
       gradientTransform="matrix(0.39333536,0,0,0.39333536,-260.86776,29.640783)"
       x1="-57.313641"
       y1="406.43115"
       x2="602.62347"
       y2="406.43115" />
    <linearGradient
       id="linearGradient3945-7"
       inkscape:collect="always">
      <stop
         id="stop3947-4"
         offset="0"
         style="stop-color:#ff0000;stop-opacity:1" />
      <stop
         id="stop3949-0"
         offset="1"
         style="stop-color:#ff7f2a;stop-opacity:1" />
    </linearGradient>
    <linearGradient
       inkscape:collect="always"
       xlink:href="#linearGradient3945-7"
       id="linearGradient3034"
       gradientUnits="userSpaceOnUse"
       gradientTransform="matrix(0.39333535,0,0,0.39333535,-206.52404,256.31577)"
       x1="-57.313641"
       y1="406.43115"
       x2="602.62347"
       y2="406.43115" />
    <linearGradient
       inkscape:collect="always"
       xlink:href="#linearGradient3953-4"
       id="linearGradient3959-9"
       x1="-11.991195"
       y1="85.207588"
       x2="823.44171"
       y2="85.207588"
       gradientUnits="userSpaceOnUse"
       gradientTransform="matrix(0.66056172,0,0,0.61926137,-360.20251,340.79039)" />
    <linearGradient
       inkscape:collect="always"
       id="linearGradient3953-4">
      <stop
         style="stop-color:#17ffda;stop-opacity:1"
         offset="0"
         id="stop3955-8" />
      <stop
         style="stop-color:#00d9b1;stop-opacity:1"
         offset="1"
         id="stop3957-8" />
    </linearGradient>
    <linearGradient
       inkscape:collect="always"
       xlink:href="#linearGradient3953"
       id="linearGradient3064"
       gradientUnits="userSpaceOnUse"
       gradientTransform="matrix(0.6589049,0,0,0.6589049,-360.22333,332.48062)"
       x1="-11.991195"
       y1="85.207588"
       x2="823.44171"
       y2="85.207588" />
    <linearGradient
       inkscape:collect="always"
       xlink:href="#linearGradient3945"
       id="linearGradient3066"
       gradientUnits="userSpaceOnUse"
       gradientTransform="matrix(0.40522107,0,0,0.40522107,-213.68904,233.93475)"
       x1="-57.313641"
       y1="406.43115"
       x2="602.62347"
       y2="406.43115" />
    <linearGradient
       inkscape:collect="always"
       xlink:href="#linearGradient3982"
       id="linearGradient3068"
       gradientUnits="userSpaceOnUse"
       gradientTransform="matrix(0.6589049,0,0,0.6589049,-360.22333,332.48062)"
       x1="-11.991195"
       y1="85.207588"
       x2="823.44171"
       y2="85.207588" />
    <linearGradient
       inkscape:collect="always"
       xlink:href="#linearGradient3991"
       id="linearGradient3070"
       gradientUnits="userSpaceOnUse"
       gradientTransform="matrix(0.40522109,0,0,0.40522109,-213.68905,233.93477)"
       x1="-57.313641"
       y1="406.43115"
       x2="602.62347"
       y2="406.43115" />
  </defs>
  <sodipodi:namedview
     id="base"
     pagecolor="#ffffff"
     bordercolor="#666666"
     borderopacity="1.0"
     inkscape:pageopacity="0.0"
     inkscape:pageshadow="2"
     inkscape:zoom="1.28"
     inkscape:cx="271.47849"
     inkscape:cy="112.59668"
     inkscape:document-units="px"
     inkscape:current-layer="layer1"
     showgrid="false"
     fit-margin-top="0"
     fit-margin-left="0"
     fit-margin-right="0"
     fit-margin-bottom="0"
     inkscape:window-width="1366"
     inkscape:window-height="705"
     inkscape:window-x="-8"
     inkscape:window-y="-8"
     inkscape:window-maximized="1"
     showguides="true"
     inkscape:guide-bbox="true" />
  <metadata
     id="metadata7">
    <rdf:RDF>
      <cc:Work
         rdf:about="">
        <dc:format>image/svg+xml</dc:format>
        <dc:type
           rdf:resource="http://purl.org/dc/dcmitype/StillImage" />
        <dc:title></dc:title>
      </cc:Work>
    </rdf:RDF>
  </metadata>
  <g
     inkscape:label="Ebene 1"
     inkscape:groupmode="layer"
     id="layer1"
     transform="translate(383.15326,-257.23131)">
    <g
       id="g3053"
       transform="translate(-15.354873,-80.892866)">
      <path
         sodipodi:nodetypes="sssssssssssssssssssssssscccs"
         inkscape:connector-curvature="0"
         id="path3951"
         d="m -367.50326,357.06283 c 5.87086,-22.98365 31.3262,-19.4699 54.96354,-17.47185 17.15263,1.44991 28.86486,10.13272 45.49962,14.55988 30.5393,8.12771 47.29547,-15.17652 77.89535,-7.27993 14.01948,3.61784 34.36491,16.06943 48.77559,17.47185 39.55388,3.84927 24.62858,-24.70663 63.14369,-14.91317 9.227616,2.34637 18.794142,14.0936 30.512203,16.09691 16.777955,2.86831 43.8207164,-16.99618 50.0604609,-4.87545 11.5549511,22.44556 33.7668861,-13.0529 52.8420171,-15.23614 25.29959,-2.89565 49.342329,2.11635 67.989829,19.45777 7.70237,7.16289 34.80371,-7.56147 42.30124,7.11401 10.49684,20.54622 -8.69305,36.6169 -12.73988,59.33151 -2.38504,13.38709 12.08674,23.10036 0.728,30.57574 -17.04655,11.21864 -34.22708,-17.20109 -54.599552,-16.01586 -13.712576,0.79777 -21.347115,19.8895 -34.943711,21.83982 -28.441853,4.07975 -34.847734,-38.45196 -59.6955048,-24.0238 -5.19145199,3.01449 -22.5733182,15.01777 -27.6637672,18.19984 -21.873576,13.67334 -53.234103,-28.67231 -75.711369,-16.01586 -8.961026,5.04574 -17.471856,17.10785 -23.295806,12.7399 -5.82395,-4.36798 -5.53179,-19.11629 -23.2958,-18.56386 -20.46618,0.63646 -8.85042,23.30557 -29.11977,26.20779 -14.28419,2.04524 -16.32895,-4.96833 -29.11975,-11.6479 -15.44537,-8.06584 -36.23091,-20.9583 -50.95959,-11.6479 -11.34664,7.17252 -6.13911,22.85657 -18.92783,26.93576 -19.315,6.16087 -12.63294,-29.46514 -30.28714,-19.49748 -22.61831,8.86114 -52.97526,6.52336 -58.41732,0.41307 -9.69481,-12.80605 7.68231,-39.4672 12.99309,-61.72291 0.17494,-12.4008 -21.99723,-20.01551 -18.92784,-32.03174 z"
         style="opacity:0.88552186;fill:url(#linearGradient3064);fill-opacity:1;stroke:none" />
      <text
         inkscape:export-ydpi="90"
         inkscape:export-xdpi="90"
         inkscape:export-filename="C:\Users\Schmid\Google Drive\BOS\Unterricht\Technologie\neu\images\path3785.png"
         sodipodi:linespacing="125%"
         id="text3001"
         y="427.68097"
         x="-343.38358"
         style="font-size:94.92861938px;font-style:normal;font-weight:normal;line-height:125%;letter-spacing:0px;word-spacing:0px;fill:url(#linearGradient3066);fill-opacity:1;stroke:none;font-family:Sans"
         xml:space="preserve"><tspan
           style="font-style:normal;font-variant:normal;font-weight:bold;font-stretch:normal;fill:url(#linearGradient3066);fill-opacity:1;font-family:Arial;-inkscape-font-specification:Arial Bold"
           y="427.68097"
           x="-343.38358"
           id="tspan3003"
           sodipodi:role="line">Play Again</tspan></text>
      <path
         inkscape:connector-curvature="0"
         id="path3961"
         d="m -356.09937,341.99523 c -5.41398,2.82244 -9.47459,7.50622 -11.40729,15.07246 -3.06937,12.01621 19.09788,19.61786 18.92292,32.01866 -5.31077,22.2557 -22.68759,48.92511 -12.99278,61.73116 5.44208,6.1103 35.79773,8.44932 58.41605,-0.41182 17.6542,-9.96767 10.97404,25.66033 30.28903,19.49946 3.0417,-0.9702 5.07736,-2.59984 6.54787,-4.61232 -0.23529,0.0879 -0.47203,0.16776 -0.72067,0.24708 -19.315,6.16087 -12.63485,-29.46713 -30.28904,-19.49946 -22.61832,8.86114 -52.97397,6.52211 -58.41605,0.4118 -9.69481,-12.80604 7.68202,-39.47544 12.99279,-61.73114 0.17495,-12.40081 -21.99231,-20.00245 -18.92293,-32.01866 1.15494,-4.52145 3.07226,-8.02342 5.5801,-10.70722 z m 253.8843,7.96864 c -3.07558,1.70233 -5.43163,4.03495 -8.0304,6.34196 3.23033,-1.88994 5.61808,-4.18099 8.0304,-6.34196 z m -133.90183,85.38996 c -4.2612,-0.0255 -8.32226,0.92574 -12.00442,3.25334 -1.47094,0.92983 -2.65477,1.99891 -3.64458,3.17098 14.54996,-6.89075 34.07652,5.14987 48.77956,12.82806 12.7908,6.67957 14.85175,13.69963 29.13596,11.65438 5.27846,-0.75579 8.37663,-2.86087 10.46011,-5.55952 -1.33263,0.53237 -2.85082,0.93911 -4.63292,1.19427 -14.28421,2.04525 -16.34516,-4.9748 -29.13596,-11.65437 -11.58402,-6.04939 -26.17415,-14.81087 -38.95775,-14.88714 z m 97.20906,0.32945 c -6.06001,0.18846 -9.29162,2.3251 -11.38669,5.29184 1.53816,-0.52581 3.35921,-0.85817 5.5595,-0.9266 17.76401,-0.55243 17.46423,14.20493 23.28817,18.57289 3.52838,2.64628 8.05116,-0.74079 13.05455,-4.94178 -2.68318,1.58592 -5.13437,2.14627 -7.22736,0.57654 -5.82394,-4.36798 -5.52416,-19.12532 -23.28817,-18.57289 z m 159.454988,0.63831 c -2.877391,0.0642 -5.99813,0.9773 -9.492348,3.00626 -5.1914536,3.01448 -22.583558,15.02017 -27.674006,18.20225 -21.87358,13.67333 -53.235019,-28.67607 -75.712298,-16.01963 -2.386607,1.34385 -4.720363,3.18964 -7.000858,5.08592 0.394857,-0.24892 0.797447,-0.49724 1.194265,-0.72068 22.477267,-12.65644 53.838705,29.69296 75.712291,16.01963 5.090449,-3.18207 22.46196264,-15.18777 27.6534147,-18.20224 24.8477723,-14.42818 31.2508123,28.10918 59.6926663,24.02943 4.776059,-0.68508 8.816141,-3.49796 12.642738,-6.87732 -2.125054,1.24874 -4.376215,2.16217 -6.815547,2.51208 -24.442217,3.50603 -32.616255,-27.42788 -50.200318,-27.0357 z m 86.090042,5.1477 c -0.31677,0.004 -0.62886,0.0226 -0.94717,0.0412 -5.21103,0.30317 -9.535413,3.25564 -13.65169,6.89791 2.423195,-1.41722 4.98764,-2.36762 7.824495,-2.53267 20.372475,-1.18523 37.560195,27.23826 54.606745,16.01962 1.43798,-0.94636 2.45375,-1.92347 3.15039,-2.94447 -15.91387,6.78817 -32.08103,-17.73985 -50.98277,-17.48161 z"
         style="opacity:0.88552186;fill:url(#linearGradient3068);fill-opacity:1;stroke:none" />
      <path
         sodipodi:nodetypes="ccccccccccccccccccccccccccccccccccccccccccccccccccccccccccccccccccccccccccccccccccccccccccccscscscccccccccccccccccccccccsccccccccccccccccccccccsccccsccccccccscsccccccccccccccccccccccccccccccssssccccccccsssssccccssssccccccccsssssccccccccccccccccccccccsccccssccccccccccccsccc"
         inkscape:connector-curvature="0"
         id="text3963"
         d="m -336.47635,359.72389 0,67.94957 13.71346,0 0,-4.36524 -7.88627,0 0,-63.58433 z m 63.31664,0 0,67.94957 13.03396,0 0,-4.36524 -7.20677,0 0,-63.58433 z m 177.986685,0 -26.459155,67.94957 14.55769,0 1.58548,-4.36524 -10.31598,0 24.750118,-63.58433 z m 159.825619,0 0,12.06621 13.033964,0 0,-4.38584 -7.206772,0 0,-7.68037 z m -381.588294,7.12443 -6.00765,4.38582 c 3.54038,0.17881 13.21377,-0.16624 16.69426,0.45301 2.22484,0.40176 4.06592,1.39944 5.51833,3.00625 1.45231,1.60691 2.16198,3.664 2.16203,6.13605 -4e-5,1.70596 -0.3652,3.2219 -1.1119,4.57115 0.41202,-0.10005 0.80286,-0.20897 1.1119,-0.32945 1.82313,-0.7107 3.24765,-1.82151 4.28289,-3.33571 1.03514,-1.51411 1.54425,-3.28321 1.5443,-5.29183 -5e-5,-2.47205 -0.73031,-4.50854 -2.18263,-6.11546 -1.45239,-1.60681 -3.27287,-2.60448 -5.49773,-3.00626 -1.6378,-0.30895 -4.93941,-0.47352 -9.88358,-0.47357 z m 234.673091,4.36524 -6.031134,4.28612 9.584063,26.21554 5.815874,-5.27796 z m -117.902791,7.24795 18.7376,49.35609 c -0.5213,1.85582 -1.20763,3.48801 -2.03849,4.90061 1.93503,-0.34248 3.45626,-1.15733 4.52998,-2.4709 1.45234,-1.77682 2.56315,-4.04474 3.33571,-6.79495 l -17.09036,-44.99085 z m 37.14576,0 -11.72883,35.81816 6.04577,-5.24086 10.04831,-30.5773 z m 227.672234,0 0,49.21195 13.033964,0 0,-4.36524 -7.206772,0 0,-44.84671 z m 26.232652,0 0,49.21195 13.033964,0 0,-4.36524 -7.206774,0 0,-44.84671 z m -330.152536,0.78245 c -1.0315,0.43422 -1.97352,0.94101 -2.80035,1.52372 -3.24463,2.28674 -5.52798,5.8249 -6.85672,10.58365 l 11.8191,2.12086 c 0.80342,-2.28667 1.85252,-3.88603 3.15039,-4.79766 0.02,-0.0141 0.0415,-0.0274 0.0617,-0.0412 l -9.20405,-1.66785 c 0.86626,-3.10243 2.1493,-5.66978 3.82988,-7.72154 z m 258.640763,0 c -1.031508,0.43422 -1.952928,0.94101 -2.779754,1.52372 -3.244639,2.28674 -5.548572,5.8249 -6.8773198,10.58365 l 11.8191068,2.12086 c 0.803416,-2.28667 1.873108,-3.88603 3.170979,-4.79766 0.02062,-0.0145 0.04085,-0.0269 0.06174,-0.0412 l -9.224668,-1.66785 c 0.866268,-3.10243 2.149308,-5.66978 3.829884,-7.72154 z m -56.50109,0.0206 c -2.221249,1.08142 -4.236807,2.61873 -6.053693,4.61234 -3.97082,4.35711 -5.950741,10.67233 -5.950741,18.92293 0,6.58198 1.501648,12.07434 4.529974,16.49321 3.862647,5.59313 9.097883,8.38044 15.710767,8.38044 5.097644,0 9.44187,-1.96528 13.033962,-5.88896 -2.205334,1.01733 -4.611083,1.52372 -7.206772,1.52372 -6.612881,0 -11.848119,-2.78732 -15.710766,-8.38044 -3.028326,-4.41888 -4.550572,-9.93183 -4.550559,-16.51381 -1.3e-5,-8.2506 2.000506,-14.54522 5.971326,-18.90233 0.07719,-0.0847 0.148595,-0.16407 0.226502,-0.2471 z m 147.656467,0.0412 c -0.58716,0.29031 -1.16835,0.61275 -1.72963,0.96776 l 0,1.05013 c 0.55564,-0.71951 1.13676,-1.39143 1.72963,-2.01789 z m -333.22056,3.64456 c -2.31762,5e-5 -4.13814,0.44745 -5.43597,1.359 -0.95813,0.673 -1.76164,1.72801 -2.4503,3.15039 0.63646,-0.0931 1.31848,-0.14412 2.05908,-0.14413 3.43,4e-5 5.76478,0.51943 7.00086,1.58549 1.00808,0.86953 1.58489,5.32506 1.7708,7.15035 2.54751,-0.61278 4.57302,-4.30201 5.90956,-4.86478 l 0,-1.29721 c -4e-5,-2.50298 -0.61716,-4.28747 -1.85317,-5.35361 -1.23607,-1.06605 -3.57086,-1.58545 -7.00086,-1.5855 z m 203.478066,0 c -3.121049,5e-5 -5.697531,1.19828 -7.721543,3.62398 -0.282868,0.33901 -0.539116,0.70252 -0.782449,1.09132 0.843926,-0.2221 1.732439,-0.35003 2.676802,-0.35004 3.213696,4e-5 5.86731,1.23427 7.96863,3.70633 2.101248,2.47213 3.15035,6.24684 3.150389,11.34553 -3.2e-5,4.22309 -0.808877,7.55517 -2.450302,9.98652 1.874544,-0.55916 3.537562,-1.65573 4.982968,-3.29452 2.1939497,-2.48754 3.2944851,-6.17483 3.2945251,-11.05726 -4e-5,-5.09867 -1.0491419,-8.87338 -3.1503901,-11.34551 -0.635987,-0.74819 -1.321189,-1.3726 -2.059077,-1.89436 l 0,0.59714 c -0.307623,-0.41576 -0.626651,-0.81083 -0.947176,-1.19426 -1.473133,-0.80717 -3.126043,-1.21484 -4.962377,-1.21487 z m 55.162694,0 c -2.317619,5e-5 -4.138134,0.44745 -5.435966,1.359 -0.958133,0.673 -1.761641,1.72801 -2.450302,3.15039 0.636463,-0.0931 1.318483,-0.14412 2.059078,-0.14413 3.430008,4e-5 5.764786,0.51943 7.000865,1.58549 1.008085,0.86953 1.842278,4.93362 2.028195,6.75891 2.554125,-0.61395 4.313264,-3.90959 5.652165,-4.47334 l 0,-1.29721 c -3.4e-5,-2.50298 -0.617157,-4.28747 -1.85317,-5.35361 -1.23608,-1.06605 -3.570857,-1.58545 -7.000865,-1.5855 z m 84.54573,0 c -2.25582,5e-5 -4.28203,0.61717 -6.07427,1.85318 -1.16252,0.80175 -2.09178,1.76357 -2.77976,2.9033 0.95622,-0.27201 1.96861,-0.39121 3.02684,-0.39122 1.76134,4e-5 3.25785,0.43202 4.50939,1.29722 1.25146,0.86527 2.16172,2.06349 2.71798,3.62397 0.55618,1.56055 0.84418,5.00099 0.84422,10.31599 l 0,25.12074 13.01337,0 0,-4.36524 -7.20677,0 0,-25.12076 c -4e-5,-5.31498 -0.26745,-8.75542 -0.82363,-10.31598 -0.55626,-1.56047 -1.46652,-2.75869 -2.71798,-3.62397 -1.25154,-0.86519 -2.74805,-1.29718 -4.50939,-1.29723 z m -409.98298,12.23093 c -1.40862,0.7024 -2.82627,1.21075 -4.26229,1.52372 -3.27557,0.64895 -8.01711,0.9678 -14.22823,0.96777 l -8.95698,0 -6.00765,4.38583 9.13744,0 c 6.21112,0 10.95266,-0.3394 14.22823,-0.98835 2.41024,-0.5253 4.77073,-1.58982 7.10381,-3.21217 1.08595,-0.75512 2.07713,-1.6572 2.98567,-2.6768 z m 75.65052,4.48879 c -1.66869,0.55625 -4.31203,1.2248 -7.92745,1.99731 -3.61547,0.77255 -5.9914,1.52338 -7.10382,2.26499 -1.17978,0.83657 -1.94535,1.83641 -2.30617,2.98566 1.02329,-0.2939 2.18582,-0.5869 3.5828,-0.88541 3.61542,-0.77251 6.25876,-1.44106 7.92745,-1.9973 l 0,2.59444 c -4e-5,3.12103 -0.17489,5.25012 -0.51477,6.36254 -0.17844,0.61334 -0.42199,1.18471 -0.74126,1.72963 1.18507,-0.38509 2.33435,-0.97626 3.45924,-1.79139 1.57593,-1.17425 2.61476,-2.60389 3.10921,-4.30348 0.33988,-1.11243 0.51473,-3.24151 0.51477,-6.36254 z m 258.640765,0 c -1.668697,0.55625 -4.312032,1.2248 -7.92745,1.99731 -3.61547,0.77255 -5.991395,1.52338 -7.103819,2.26499 -1.179775,0.83657 -1.94535,1.83641 -2.306166,2.98566 1.025091,-0.29469 2.181923,-0.58606 3.582794,-0.88541 3.615419,-0.77251 6.258754,-1.44106 7.92745,-1.9973 l 0,2.59444 c -3.2e-5,3.12103 -0.174886,5.25012 -0.514768,6.36254 -0.178439,0.61334 -0.42199,1.18471 -0.74127,1.72963 1.185075,-0.38509 2.334363,-0.97626 3.459251,-1.79139 1.57593,-1.17425 2.614753,-2.60389 3.109208,-4.30348 0.339883,-1.11243 0.514736,-3.24151 0.51477,-6.36254 z M -241.697,401.33792 c -0.34734,0.14577 -0.67683,0.30226 -0.98836,0.45301 -2.39485,1.15881 -4.25135,2.82503 -5.58009,5.00355 -1.32877,2.17856 -1.99732,4.67277 -1.99731,7.45386 -1e-5,4.20258 1.46566,7.66873 4.38584,10.41893 2.92015,2.75021 6.916,4.11817 11.98382,4.11817 2.8738,0 5.57884,-0.52454 8.11277,-1.60609 2.53388,-1.08154 4.89949,-2.71692 7.12441,-4.88001 0.0927,0.24721 0.25724,0.77178 0.47359,1.5443 0.49438,1.69957 0.91608,2.96465 1.25603,3.82989 l 12.86925,0 c -0.7419,-1.52381 -1.3141,-2.96502 -1.75023,-4.36524 l -5.31241,0 c -0.33995,-0.86524 -0.74107,-2.1509 -1.23545,-3.85048 -0.21635,-0.77253 -0.38092,-1.2765 -0.47359,-1.52371 -2.22492,2.16309 -4.61113,3.77788 -7.145,4.85941 -2.53392,1.08155 -5.23898,1.62667 -8.11276,1.62667 -5.06783,0 -9.04309,-1.36794 -11.96326,-4.11815 -2.92016,-2.7502 -4.38583,-6.23694 -4.38582,-10.43952 -10e-6,-2.7811 0.66854,-5.25472 1.99729,-7.43327 0.23268,-0.38147 0.47592,-0.74112 0.74128,-1.09132 z m 258.640762,0 c -0.347341,0.14577 -0.676834,0.30226 -0.988358,0.45301 -2.394856,1.15881 -4.251352,2.82503 -5.5801,5.00355 -1.3287609,2.17856 -1.9973128,4.67277 -1.9973053,7.45386 -7.5e-6,4.20258 1.4656614,7.66873 4.3858343,10.41893 2.920155,2.75021 6.916012,4.11817 11.983834,4.11817 2.873794,0 5.578842,-0.52454 8.112767,-1.60609 2.533871,-1.08154 4.899484,-2.71692 7.124408,-4.88001 0.09267,0.24721 0.257244,0.77178 0.473589,1.5443 0.494382,1.69957 0.916088,2.96465 1.256037,3.82989 l 12.869236,0 c -0.741894,-1.52381 -1.314093,-2.96502 -1.750216,-4.36524 l -5.291829,0 c -0.339949,-0.86524 -0.761655,-2.1509 -1.256038,-3.85048 -0.216345,-0.77253 -0.38092,-1.2765 -0.473588,-1.52371 -2.224924,2.16309 -4.590538,3.77788 -7.124409,4.85941 -2.533924,1.08155 -5.238972,1.62667 -8.112767,1.62667 -5.067821,0 -9.063678,-1.36794 -11.983833,-4.11815 -2.920174,-2.7502 -4.385842,-6.23694 -4.385836,-10.43952 -6e-6,-2.7811 0.668545,-5.25472 1.997306,-7.43327 0.232672,-0.38147 0.475907,-0.74112 0.741268,-1.09132 z m -112.590376,6.54787 -5.953456,4.18326 27.285497,0.18199 5.930156,15.42249 14.928309,0 -1.750221,-4.36524 -7.350897,0 -5.930156,-15.4225 z m 87.3254908,7.45386 c -1.7356608,2.3693 -3.6862698,4.20521 -5.8271898,5.51834 l 0,6.03309 c -4e-5,2.90472 -0.195458,4.88978 -0.597133,5.97133 -0.01358,0.035 -0.02734,0.0684 -0.04118,0.10292 1.310022,-0.25481 2.406552,-0.65326 3.273934,-1.17367 1.143312,-0.67984 2.0072745,-1.78037 2.5944379,-3.29452 0.4016751,-1.08156 0.5970939,-3.06661 0.5971327,-5.97132 z m -39.1018898,15.58722 c -0.03085,0.61802 -0.04122,1.13228 -0.04122,1.5649 0,4.38798 1.738217,8.01355 5.230065,10.87194 3.491823,2.85835 9.405891,4.30345 17.749248,4.30347 4.418846,-2e-5 8.06499,-0.47315 10.954294,-1.40018 2.889225,-0.92704 5.208577,-2.21272 6.9390918,-3.85047 0.4628154,-0.43804 0.9102505,-0.9149 1.3178101,-1.44135 -0.7596049,0.34029 -1.566731,0.64967 -2.4297113,0.92658 -2.8893056,0.92702 -6.5354476,1.37956 -10.9542946,1.37958 -8.343356,-2e-5 -14.257423,-1.42454 -17.749247,-4.28289 -2.497641,-2.04453 -4.107112,-4.48262 -4.818245,-7.30972 z m -149.571417,5.74484 1.1531,10.19243 c 2.41027,0.5253 4.86848,0.80302 7.37149,0.80304 2.47209,-2e-5 4.68858,-0.27774 6.65082,-0.80304 1.96221,-0.52534 3.61815,-1.26075 4.96238,-2.20321 1.09186,-0.7656 2.07705,-1.71935 2.96507,-2.86212 -0.66273,0.26345 -1.34628,0.49822 -2.10026,0.70009 -1.96224,0.52529 -4.17873,0.78242 -6.65082,0.78244 -2.50301,-2e-5 -4.96121,-0.25715 -7.3715,-0.78244 l -0.59713,-5.27125 c -0.28591,0.0176 -0.58387,0.0412 -0.88541,0.0412 -1.63776,0 -3.45826,-0.19542 -5.49774,-0.59714 z"
         style="font-size:144.07029724px;font-style:normal;font-weight:normal;line-height:125%;letter-spacing:0px;word-spacing:0px;fill:url(#linearGradient3070);fill-opacity:1;stroke:none;font-family:Sans" />
    </g>
  </g>
</svg>
