<?xml version="1.0" encoding="UTF-8" standalone="no"?>
<!-- Created with Inkscape (http://www.inkscape.org/) -->

<svg
   xmlns:dc="http://purl.org/dc/elements/1.1/"
   xmlns:cc="http://creativecommons.org/ns#"
   xmlns:rdf="http://www.w3.org/1999/02/22-rdf-syntax-ns#"
   xmlns:svg="http://www.w3.org/2000/svg"
   xmlns="http://www.w3.org/2000/svg"
   xmlns:xlink="http://www.w3.org/1999/xlink"
   xmlns:sodipodi="http://sodipodi.sourceforge.net/DTD/sodipodi-0.dtd"
   xmlns:inkscape="http://www.inkscape.org/namespaces/inkscape"
   width="553.21814"
   height="209.66496"
   id="svg2"
   version="1.1"
   inkscape:version="0.48.4 r9939"
   sodipodi:docname="Restartclick.svg"
   inkscape:export-filename="C:\Users\Schmid\Desktop\Restartclick.png"
   inkscape:export-xdpi="90"
   inkscape:export-ydpi="90">
  <defs
     id="defs4">
    <linearGradient
       id="linearGradient3812"
       inkscape:collect="always">
      <stop
         id="stop3814"
         offset="0"
         style="stop-color:#270000;stop-opacity:1" />
      <stop
         id="stop3816"
         offset="1"
         style="stop-color:#880000;stop-opacity:1" />
    </linearGradient>
    <linearGradient
       inkscape:collect="always"
       id="linearGradient3773">
      <stop
         style="stop-color:#470000;stop-opacity:1"
         offset="0"
         id="stop3775" />
      <stop
         style="stop-color:#c70000;stop-opacity:1"
         offset="1"
         id="stop3777" />
    </linearGradient>
    <linearGradient
       inkscape:collect="always"
       xlink:href="#linearGradient3773"
       id="linearGradient3781"
       x1="-301.64243"
       y1="395.65195"
       x2="433.74918"
       y2="395.65195"
       gradientUnits="userSpaceOnUse"
       gradientTransform="matrix(0.61499177,0,0,0.61499177,-133.91131,111.4068)" />
    <linearGradient
       inkscape:collect="always"
       xlink:href="#linearGradient3773"
       id="linearGradient3002"
       gradientUnits="userSpaceOnUse"
       gradientTransform="matrix(0.61499177,0,0,0.61499177,-133.91131,111.4068)"
       x1="-301.64243"
       y1="395.65195"
       x2="433.74918"
       y2="395.65195" />
    <linearGradient
       inkscape:collect="always"
       xlink:href="#linearGradient3773"
       id="linearGradient3012"
       gradientUnits="userSpaceOnUse"
       gradientTransform="matrix(0.61499177,0,0,0.61499177,-133.91131,111.4068)"
       x1="-301.64243"
       y1="395.65195"
       x2="433.74918"
       y2="395.65195" />
    <linearGradient
       inkscape:collect="always"
       xlink:href="#linearGradient3773"
       id="linearGradient3016"
       gradientUnits="userSpaceOnUse"
       gradientTransform="matrix(0.61499177,0,0,0.61499177,-407.91519,0.92137)"
       x1="-301.64243"
       y1="395.65195"
       x2="433.74918"
       y2="395.65195" />
    <linearGradient
       inkscape:collect="always"
       xlink:href="#linearGradient3773"
       id="linearGradient3021"
       gradientUnits="userSpaceOnUse"
       gradientTransform="matrix(0.61499177,0,0,0.61499177,-401.66519,-3.76613)"
       x1="-301.64243"
       y1="395.65195"
       x2="433.74918"
       y2="395.65195" />
    <linearGradient
       inkscape:collect="always"
       xlink:href="#linearGradient3773"
       id="linearGradient3024"
       gradientUnits="userSpaceOnUse"
       gradientTransform="matrix(0.61499177,0,0,0.61499177,-133.91131,111.4068)"
       x1="-301.64243"
       y1="395.65195"
       x2="433.74918"
       y2="395.65195" />
    <linearGradient
       inkscape:collect="always"
       xlink:href="#linearGradient3773"
       id="linearGradient3028"
       gradientUnits="userSpaceOnUse"
       gradientTransform="matrix(0.61499177,0,0,0.61499177,-133.91131,111.4068)"
       x1="-301.64243"
       y1="395.65195"
       x2="433.74918"
       y2="395.65195" />
    <linearGradient
       inkscape:collect="always"
       xlink:href="#linearGradient3773"
       id="linearGradient3039"
       gradientUnits="userSpaceOnUse"
       gradientTransform="matrix(0.61499177,0,0,0.61499177,-128.83318,106.7193)"
       x1="-301.64243"
       y1="395.65195"
       x2="433.74918"
       y2="395.65195" />
    <linearGradient
       inkscape:collect="always"
       xlink:href="#linearGradient3812"
       id="linearGradient3041"
       gradientUnits="userSpaceOnUse"
       gradientTransform="matrix(0.61499177,0,0,0.61499177,222.39064,-149.56005)"
       x1="-301.64243"
       y1="395.65195"
       x2="433.74918"
       y2="395.65195" />
  </defs>
  <sodipodi:namedview
     id="base"
     pagecolor="#ffffff"
     bordercolor="#666666"
     borderopacity="1.0"
     inkscape:pageopacity="0.0"
     inkscape:pageshadow="2"
     inkscape:zoom="1.28"
     inkscape:cx="268.94547"
     inkscape:cy="46.794283"
     inkscape:document-units="px"
     inkscape:current-layer="layer1"
     showgrid="false"
     fit-margin-top="0"
     fit-margin-left="0"
     fit-margin-right="0"
     fit-margin-bottom="0"
     inkscape:window-width="1360"
     inkscape:window-height="706"
     inkscape:window-x="-8"
     inkscape:window-y="-8"
     inkscape:window-maximized="1"
     showguides="true"
     inkscape:guide-bbox="true" />
  <metadata
     id="metadata7">
    <rdf:RDF>
      <cc:Work
         rdf:about="">
        <dc:format>image/svg+xml</dc:format>
        <dc:type
           rdf:resource="http://purl.org/dc/dcmitype/StillImage" />
        <dc:title></dc:title>
      </cc:Work>
    </rdf:RDF>
  </metadata>
  <g
     inkscape:label="Ebene 1"
     inkscape:groupmode="layer"
     id="layer1"
     transform="translate(356.30195,-260.96685)">
    <path
       inkscape:export-ydpi="90"
       inkscape:export-xdpi="90"
       sodipodi:nodetypes="ssssssssssssssssssssssssssssssssssssssssssssssssssssscasssssss"
       inkscape:connector-curvature="0"
       id="path3006"
       d="m 102.22177,260.96736 c -13.220289,-0.13222 -16.784316,25.37806 -29.846014,27.53289 -12.383037,2.04286 -22.162351,-17.91851 -34.52491,-15.74239 -14.110499,2.4838 -17.530332,32.53258 -31.7010836,30.46423 -13.4177792,-1.95844 -7.9155339,-35.98025 -21.4569704,-36.34863 -8.70867,-0.23691 -6.212246,22.47899 -14.923008,22.60391 -7.33751,0.10522 -5.974073,-16.69557 -13.067943,-18.67374 -8.881003,-2.47654 -16.001463,11.67712 -25.187719,11.79051 -8.083605,0.0998 -14.965909,-13.22015 -22.384511,-9.83628 -9.751461,4.44795 -0.593488,30.65736 -11.192251,31.46306 -14.15737,1.07622 -6.85042,-35.25394 -20.50883,-39.3234 -15.14105,-4.51122 -26.14563,29.8665 -41.05888,24.57985 -8.97721,-3.18238 -2.39785,-23.8054 -11.19225,-27.51119 -13.19162,-5.5587 -25.00128,18.88471 -39.16259,17.6749 -6.06113,-0.51781 -9.32526,-9.96143 -15.39707,-10.31397 -9.85797,-0.5724 -16.71649,13.80306 -26.58934,13.76644 -9.03831,-0.0335 -15.56672,-15.46963 -24.23958,-12.78933 -6.42159,1.98455 -3.73305,16.66114 -10.26472,18.19603 -5.68147,1.3351 -8.65255,-10.56594 -14.46955,-10.33569 -5.75022,0.2276 -8.00618,13.04191 -13.5214,11.31281 -4.24075,-1.32957 -0.66216,-10.4746 -4.20482,-13.26705 -6.97515,-5.49803 -18.53565,-5.50093 -26.11527,-0.97711 -4.48007,2.67389 -7.99423,8.84889 -7.4615,14.24416 0.61585,6.23701 11.34158,7.98281 11.66633,14.24414 0.32938,6.35038 -9.16775,9.46669 -10.26472,15.72068 -1.68546,9.60906 6.85407,18.72238 6.53397,28.4883 -0.21378,6.52247 -6.86717,12.28392 -5.60644,18.67372 0.96429,4.88732 8.19327,6.46868 9.33719,11.31282 2.15762,9.13677 -8.61795,18.4898 -6.0599,27.51118 1.22627,4.3246 8.89058,8.5027 9.72882,9.96655 0.46346,0.80937 -22.15508,49.58211 -5.5446,54.89208 14.10689,4.50965 6.47176,-36.6006 20.52943,-41.27763 10.34337,-3.44126 18.87083,20.02574 28.91849,15.72068 5.46476,-2.34145 -0.0352,-15.87977 5.60643,-17.69661 14.63051,-4.71157 22.01992,35.10463 36.35937,29.48712 10.11645,-3.96315 -4.16786,-31.93992 6.53397,-33.41729 12.40857,-1.71299 4.52194,32.83477 16.79869,35.39323 12.53918,2.61316 16.14691,-25.98541 28.91847,-26.53407 7.3321,-0.31499 10.42168,13.00537 17.72623,13.74473 13.70581,1.3873 24.48746,-23.96515 37.30751,-18.67372 9.35408,3.86086 1.56695,26.45505 11.19226,29.48712 15.61894,4.92013 24.02835,-32.29849 40.110733,-29.48712 5.705594,0.99739 4.626698,13.38507 10.264719,14.74356 10.982995,2.64635 19.179721,-20.52043 29.846009,-16.69779 7.113561,2.54939 1.950336,20.06501 9.316578,21.62679 11.216269,2.37803 13.792968,-23.4952 25.18772,-24.57984 8.075143,-0.76866 12.4252994,14.03146 20.5294397,13.76645 8.4541201,-0.27649 12.0931243,-14.82878 20.5088313,-15.72069 15.643723,-1.65794 27.330608,22.82826 42.91395,20.62797 7.220738,-1.01954 9.632831,-13.35945 16.798688,-14.74357 9.381581,-1.81209 17.53605,10.64868 27.042792,9.83629 9.15156,-0.78205 15.08211,-13.49758 24.26019,-13.76645 10.98436,-0.3218 18.98215,16.48283 29.84602,14.74355 9.40478,-1.50567 21.06564,-19.57412 21.47758,-20.21539 0,0 0.0281,0.004 0.0412,0 5.80315,-1.96529 12.61152,-4.43651 14.86117,-11.22595 3.0826,-9.30327 -9.74879,-17.67246 -10.26471,-27.51118 -0.65732,-12.53505 8.70471,-23.8339 9.33719,-36.37036 0.7352,-14.57284 0.3663,-30.57772 -6.53397,-43.23185 -6.60365,-12.11016 -17.54549,-26.02777 -30.79416,-26.53408 -10.25864,-0.39205 -14.94228,19.34706 -25.18775,18.67374 -13.83996,-0.90956 -16.90727,-29.34846 -30.77352,-29.48712 z"
       style="fill:#00c19f;fill-opacity:0.75675677;stroke:none" />
    <text
       inkscape:export-ydpi="90"
       inkscape:export-xdpi="90"
       inkscape:export-filename="C:\Users\Schmid\Google Drive\BOS\Unterricht\Technologie\neu\images\path3785.png"
       sodipodi:linespacing="125%"
       id="text3008"
       y="405.44955"
       x="-330.74478"
       style="font-size:144.07029724px;font-style:normal;font-weight:normal;line-height:125%;letter-spacing:0px;word-spacing:0px;fill:url(#linearGradient3028);fill-opacity:1;stroke:none;font-family:Sans"
       xml:space="preserve"><tspan
         style="font-style:normal;font-variant:normal;font-weight:bold;font-stretch:normal;fill:url(#linearGradient3028);fill-opacity:1;font-family:Arial;-inkscape-font-specification:Arial Bold"
         y="405.44955"
         x="-330.74478"
         id="tspan3010"
         sodipodi:role="line">Restart</tspan></text>
    <path
       style="font-size:144.07029724px;font-style:normal;font-weight:normal;line-height:125%;letter-spacing:0px;word-spacing:0px;fill:url(#linearGradient3041);fill-opacity:1;stroke:none;font-family:Sans"
       d="m 36.09375,41.34375 0,103.125 20.84375,0 0,-4.6875 -15.75,0 0,-98.4375 z m 270.3125,10.625 -5.09375,2.96875 0.41432,14.713774 4.67943,-4.557524 z m 184.3125,0 -5.09375,2.96875 -0.27621,14.851881 5.36996,-4.695631 z M 62,54.125 l -3.320313,4.6875 14.507813,0 c 8.441563,8.6e-5 13.499115,0.109346 15.1875,0.34375 3.376581,0.562859 5.991215,1.89748 7.84375,4.03125 1.852394,2.133933 2.781177,4.935883 2.78125,8.40625 -6.4e-5,2.69712 -0.556826,4.992597 -1.625,6.90625 1.896217,-0.872465 3.43236,-2.140415 4.59375,-3.84375 1.40686,-2.06344 2.09368,-4.65467 2.09375,-7.75 -7e-5,-3.470367 -0.89761,-6.272317 -2.75,-8.40625 C 99.459965,56.36623 96.845331,55.031609 93.46875,54.46875 91.780365,54.234346 86.691563,54.125086 78.25,54.125 z m 230.25,15.65625 0,15.75 9.0625,0 0,32.5625 c -10e-6,6.9878 0.20291,11.63952 0.625,13.9375 0.51586,3.23596 1.44465,5.78814 2.78125,7.6875 1.33657,1.89937 3.45171,3.46036 6.3125,4.65625 2.86075,1.19589 6.06073,1.78125 9.625,1.78125 5.8153,0 11.02897,-0.96779 15.625,-2.9375 l -0.3125,-2.875 c -3.16667,0.77424 -6.57281,1.125 -10.21875,1.125 -3.56427,0 -6.7955,-0.58536 -9.65625,-1.78125 -2.86079,-1.19589 -4.94468,-2.75688 -6.28125,-4.65625 -1.3366,-1.89936 -2.26539,-4.45154 -2.78125,-7.6875 -0.42209,-2.29798 -0.62501,-6.9497 -0.625,-13.9375 l 0,-32.5625 -9.09375,0 0,-11.0625 z m 135.625,0 0,74.6875 19.75,0 0,-4.6875 -14.6875,0 0,-70 z m 52.53125,0 -3.84375,10.8125 0,4.9375 9.0625,0 0,32.5625 c -10e-6,6.9878 0.20291,11.63952 0.625,13.9375 0.51586,3.23596 1.44465,5.78814 2.78125,7.6875 1.33657,1.89937 3.45171,3.46036 6.3125,4.65625 2.86075,1.19589 6.06073,1.78125 9.625,1.78125 5.8153,0 11.02897,-0.96779 15.625,-2.9375 l -0.3125,-2.875 c -3.16667,0.77424 -6.57281,1.125 -10.21875,1.125 -3.56427,0 -6.7955,-0.58536 -9.65625,-1.78125 -2.86079,-1.19589 -4.94468,-2.75688 -6.28125,-4.65625 -1.3366,-1.89936 -2.26539,-4.45154 -2.78125,-7.6875 -0.42209,-2.29798 -0.62501,-6.9497 -0.625,-13.9375 l 0,-32.5625 -9.09375,0 0,-11.0625 z m -25.1875,0.40625 c -0.16742,0.09768 -0.3355,0.176712 -0.5,0.28125 -1.07539,0.683447 -2.21457,1.718931 -3.40625,3.03125 l 0,2.21875 c 1.35881,-2.170029 2.66583,-4.001439 3.90625,-5.53125 z m -99.0625,2.84375 c -0.13051,0.0874 -0.27894,0.160277 -0.40625,0.25 -4.92429,3.470511 -8.38965,8.840288 -10.40625,16.0625 l 17.9375,3.21875 c 0.73375,-2.088388 1.6195,-3.792325 2.625,-5.125 L 350.4375,84.65625 c 1.30067,-4.658186 3.20848,-8.527523 5.71875,-11.625 z M 225.625,73.21875 c -0.69912,0.467933 -1.35164,0.936574 -1.96875,1.46875 -5.11188,4.408466 -7.65626,9.871902 -7.65625,16.34375 -1e-5,7.175422 2.93461,12.77932 8.84375,16.8125 4.26769,2.9077 14.36719,6.10769 30.3125,9.625 3.4235,0.79729 5.64009,1.65582 6.625,2.59375 0.9379,0.98488 1.4062,2.24929 1.40625,3.75 -2e-5,0.7322 -0.12102,1.39738 -0.3125,2.03125 1.04574,-0.40173 1.97991,-0.88597 2.78125,-1.46875 1.73517,-1.31312 2.62495,-3.04578 2.625,-5.25 -5e-5,-1.50071 -0.46835,-2.76512 -1.40625,-3.75 -0.98491,-0.93793 -3.2015,-1.79646 -6.625,-2.59375 -15.94531,-3.51731 -26.04481,-6.7173 -30.3125,-9.625 -5.90914,-4.033177 -8.87501,-9.637078 -8.875,-16.8125 0,-4.983197 1.53182,-9.365122 4.5625,-13.125 z m -77.0625,1.1875 c -1.62476,1.220292 -3.17265,2.614135 -4.625,4.1875 -6.47192,7.011292 -9.6875,16.712758 -9.6875,29.09375 0,10.36446 2.45072,18.94982 7.375,25.75 6.2374,8.48852 15.85301,12.71875 28.84375,12.71875 8.20708,0 15.03634,-1.88097 20.5,-5.65625 2.07907,-1.43663 3.93911,-3.12672 5.59375,-5.0625 -0.17032,0.12319 -0.32674,0.25528 -0.5,0.375 -5.46366,3.77528 -12.29292,5.65625 -20.5,5.65625 -12.99074,0 -22.60635,-4.23023 -28.84375,-12.71875 -4.92428,-6.80018 -7.40625,-15.38554 -7.40625,-25.75 0,-12.085378 3.08345,-21.624715 9.25,-28.59375 z m 104.3125,3.1875 c -5.2057,6.2e-5 -8.93643,0.733727 -11.1875,2.1875 -1.33188,0.915701 -2.06889,2.072962 -2.21875,3.46875 2.14179,-0.623251 4.90405,-0.968709 8.3125,-0.96875 4.12697,6.2e-5 7.30356,0.796181 9.53125,2.34375 2.2276,1.547688 3.73393,3.779887 4.53125,6.6875 L 280.5,87.84375 c -0.35374,-1.229191 -0.78621,-2.384195 -1.25,-3.5 L 266.9375,86.625 c -0.79732,-2.907613 -2.30365,-5.139812 -4.53125,-6.6875 -2.22769,-1.547569 -5.40428,-2.343688 -9.53125,-2.34375 z m -78.09375,0.9375 c -4.31464,6.1e-5 -7.87366,1.576652 -10.6875,4.71875 -0.45748,0.510853 -0.86814,1.05465 -1.25,1.625 2.02661,-1.098751 4.29233,-1.656214 6.84375,-1.65625 4.03317,6.1e-5 7.46733,1.490794 10.28125,4.46875 1.983,2.098748 3.96568,4.687167 4.42578,13.03125 l 5.07422,-4.6875 C 189.328,90.309758 187.84507,85.978069 185.03125,83 c -2.81392,-2.977956 -6.21683,-4.468689 -10.25,-4.46875 z m 206.59375,0 c -3.51738,6.1e-5 -6.24907,0.679073 -8.21875,2.0625 -1.19005,0.835892 -2.24012,2.058625 -3.15625,3.65625 1.71434,-0.693248 3.8226,-1.031207 6.3125,-1.03125 5.20562,6.1e-5 8.74904,0.788333 10.625,2.40625 1.70544,1.471035 2.48816,6.199367 2.64314,9.472815 2.08851,-0.585841 3.91634,-3.512654 5.23186,-4.066565 l 0,-1.96875 c -5e-5,-3.798674 -0.93664,-6.506966 -2.8125,-8.125 -1.87596,-1.617917 -5.41938,-2.406189 -10.625,-2.40625 z m -55.15625,2.3125 -5.24806,4.6875 13.68556,0 0,-4.6875 z m 184.3125,0 -5.52427,4.963714 13.96177,-0.276214 0,-4.6875 z M 465.9375,81.125 c -2.76701,5.9e-5 -5.10847,0.757127 -7.03125,2.28125 -0.96142,0.762118 -1.80627,1.841125 -2.5625,3.21875 1.35143,-0.543657 2.87868,-0.812465 4.53125,-0.8125 2.86073,5.9e-5 5.95145,1.092755 9.28125,3.25 l 2.25,-6.3125 c -2.26801,-1.08786 -4.43728,-1.624958 -6.46875,-1.625 z m -351.46875,7.34375 c -4.20006,2.923303 -9.5786,4.858256 -16.15625,5.8125 1.390743,0.811293 2.69666,1.639489 3.9375,2.5 4.69978,-1.697853 8.48817,-4.144452 11.375,-7.34375 0.28431,-0.315091 0.57721,-0.643124 0.84375,-0.96875 z M 62,96.75 l -3.038349,4.30443 c 4.329177,0.0458 10.598205,0.81438 12.663349,1.53932 2.204152,0.77386 4.311489,2.19433 6.28125,4.28125 1.969657,2.08699 5.622333,7.13674 10.96875,15.15625 l 15.0625,22.4375 24.875,0 -2.9375,-4.6875 -16.875,0 -15.0625,-22.4375 c -5.346417,-8.01951 -8.999093,-13.06926 -10.96875,-15.15625 -1.969761,-2.08692 -4.045848,-3.507394 -6.25,-4.28125 -2.204244,-0.773772 -5.716456,-1.156207 -10.5,-1.15625 z m 332.8125,7.15625 c -2.53253,0.8442 -6.54424,1.85884 -12.03125,3.03125 -5.48709,1.17248 -9.06171,2.31198 -10.75,3.4375 -1.51221,1.0723 -2.56185,2.33922 -3.1875,3.75 1.98137,-0.81791 4.93386,-1.65786 8.875,-2.5 5.48701,-1.17241 9.49872,-2.18705 12.03125,-3.03125 l 0,3.9375 c -5e-5,4.73671 -0.26542,7.96795 -0.78125,9.65625 -0.30866,1.06097 -0.75739,2.04267 -1.34375,2.96875 0.57723,-0.33895 1.1516,-0.71402 1.71875,-1.125 2.39174,-1.7821 3.96833,-3.95185 4.71875,-6.53125 0.51583,-1.6883 0.74995,-4.91954 0.75,-9.65625 z m -42.25,2.5625 c -2.56142,1.63815 -4.64399,3.73064 -6.21875,6.3125 -2.01662,3.30633 -3.03126,7.09172 -3.03125,11.3125 -10e-6,6.37813 2.22439,11.6386 6.65625,15.8125 4.43183,4.17391 10.49622,6.25 18.1875,6.25 4.36147,0 8.46684,-0.79607 12.3125,-2.4375 3.84558,-1.64142 7.4358,-4.12339 10.8125,-7.40625 0.14064,0.37519 0.39041,1.17131 0.71875,2.34375 0.75031,2.57939 1.39032,4.49936 1.90625,5.8125 l 19.53125,0 c -0.78717,-1.61683 -1.43964,-3.16235 -2,-4.6875 l -12.46875,0 c -0.51593,-1.31314 -1.15594,-3.23311 -1.90625,-5.8125 -0.32834,-1.17244 -0.54686,-1.96856 -0.6875,-2.34375 -3.3767,3.28286 -6.99817,5.76483 -10.84375,7.40625 -3.84566,1.64143 -7.95103,2.4375 -12.3125,2.4375 -7.69128,0 -13.75567,-2.07609 -18.1875,-6.25 -4.43186,-4.1739 -6.62501,-9.43437 -6.625,-15.8125 -10e-6,-4.22078 0.98338,-8.00617 3,-11.3125 0.35048,-0.57462 0.7569,-1.09712 1.15625,-1.625 z M 159.59375,108.125 c 0.0401,1.669 0.19301,3.22948 0.46875,4.6875 l 43.96875,0 c 0.03,-1.61817 0.0152,-3.15843 -0.0312,-4.6875 z m 23.6875,12.59375 c -0.53935,1.87593 -1.20274,3.48371 -2,4.84375 0.8178,-0.37617 1.57404,-0.80924 2.28125,-1.375 0.96796,-0.77438 1.81158,-1.7915 2.5625,-3 z m 36.25,1.5 -6.28125,0.9375 c 1.82901,7.08159 5.69241,12.68549 11.625,16.8125 5.93256,4.12701 14.01063,6.1875 24.1875,6.1875 11.20854,0 19.6534,-2.45072 25.375,-7.375 1.20824,-1.03989 2.29691,-2.12436 3.25,-3.25 -5.64122,3.97516 -13.49191,5.9375 -23.5625,5.9375 -10.17687,0 -18.22369,-2.06049 -24.15625,-6.1875 -4.84766,-3.37227 -8.32976,-7.71748 -10.4375,-13.0625 z"
       transform="translate(-356.30195,260.96685)"
       id="text3031"
       inkscape:connector-curvature="0"
       sodipodi:nodetypes="cccccccccccccccccccccccccccccccccsccssccssccscccccccccccccccsccssccssccsccccccccccscccccccsccccccccccsccsscsscsscscccccccccccccscccccccccccccccccccccccccccccccccccccscccccccccccccsccsccscccccccccsssssccccccccssssscccccccccccccssscssc" />
    <path
       style="fill:#00ab8d;fill-opacity:0.75675678;stroke:none"
       d="M 456.0625 0.28125 C 447.60701 2.3873461 443.2942 15.560577 436.5 22.84375 C 445.16531 20.368613 449.56727 7.4016911 456.0625 0.28125 z M 171.28125 1.84375 C 166.61861 4.1810145 161.98912 8.5585524 157.25 12.28125 C 162.07136 9.8007988 166.70066 5.4659198 171.28125 1.84375 z M 227.09375 4.3125 C 219.6705 7.2069851 213.0444 17.568483 206.0625 23.9375 C 213.4145 21.162763 220.03016 10.744463 227.09375 4.3125 z M 341 5.90625 C 334.79866 5.7375493 334.27415 17.211227 331.34375 23.875 C 331.76438 24.011705 332.19311 24.10084 332.6875 24.09375 C 338.84041 24.005512 339.41301 12.642838 342.28125 6.0625 C 341.87354 5.9790141 341.44803 5.9184381 341 5.90625 z M 77.6875 9.03125 C 77.161063 9.0654175 76.635804 9.1762313 76.09375 9.34375 C 71.740889 10.688973 71.565151 17.849931 69.875 22.8125 C 70.680447 23.187549 71.543545 23.342416 72.46875 23.125 C 77.147776 22.025466 77.076805 14.184293 79.03125 9.09375 C 78.588693 9.0358266 78.140036 9.0018789 77.6875 9.03125 z M 121.8125 9.34375 C 118.24632 10.891254 114.96634 13.946093 111.625 16.6875 C 115.20704 15.134484 118.49125 12.074442 121.8125 9.34375 z M 307.0625 10.4375 C 304.22334 11.669486 301.47572 13.984801 298.6875 16.21875 C 301.59467 14.938645 304.34012 12.626774 307.0625 10.4375 z M 512.5 11 C 506.745 12.27733 502.74687 19.850525 498.0625 24.90625 C 503.78878 23.656634 507.78962 16.067682 512.5 11 z M 267.5 11.25 C 266.8125 11.298437 266.13299 11.464012 265.4375 11.78125 C 258.08152 15.136544 261.46437 30.874236 259.03125 38.75 C 259.59643 38.852347 260.22289 38.893322 260.875 38.84375 C 269.68053 38.174368 264.85739 19.972781 268.5625 11.28125 C 268.20996 11.244871 267.85408 11.225054 267.5 11.25 z M 393.125 12.03125 C 383.70136 14.689321 379.15456 29.89724 372.34375 37.71875 C 381.24773 35.757409 385.63349 20.126958 393.125 12.03125 z M 10.78125 12.6875 C 9.6367418 13.130228 8.5209833 13.671886 7.5 14.28125 C 3.01993 16.95514 -0.47023 23.10473 0.0625 28.5 C 0.67835 34.73701 11.394 36.48867 11.71875 42.75 C 12.04813 49.10038 2.56572 52.21476 1.46875 58.46875 C -0.21671 68.07781 8.3201 77.20283 8 86.96875 C 7.78622 93.49122 1.11427 99.2352 2.375 105.625 C 3.33929 110.51232 10.57483 112.09336 11.71875 116.9375 C 13.87637 126.07427 3.0982 135.44737 5.65625 144.46875 C 6.88252 148.79335 14.53676 152.97365 15.375 154.4375 C 15.83846 155.24687 -6.76673 204.00253 9.84375 209.3125 C 13.484279 210.47629 15.665193 208.59617 17.15625 205.09375 C 16.936053 205.04393 16.700489 204.98033 16.46875 204.90625 C -0.14173 199.59628 22.49471 150.80937 22.03125 150 C 21.19301 148.53615 13.50752 144.35585 12.28125 140.03125 C 9.7232 131.00987 20.50137 121.66802 18.34375 112.53125 C 17.19983 107.68711 9.96429 106.10607 9 101.21875 C 7.73927 94.82895 14.41122 89.05372 14.625 82.53125 C 14.9451 72.76533 6.40829 63.67156 8.09375 54.0625 C 9.19072 47.80851 18.67313 44.69413 18.34375 38.34375 C 18.019 32.08242 7.30335 30.33076 6.6875 24.09375 C 6.298343 20.152529 8.0523689 15.792172 10.78125 12.6875 z M 51.34375 17.1875 C 48.337711 17.306482 46.311013 20.877414 44.25 24 C 44.322483 24.029491 44.391118 24.069411 44.46875 24.09375 C 47.800862 25.138415 49.932898 20.870738 52.375 17.28125 C 52.042275 17.211804 51.696126 17.173552 51.34375 17.1875 z M 549.90625 149.21875 C 548.116 150.01457 546.26057 150.68502 544.5 151.28125 C 544.4869 151.28525 544.46875 151.28125 544.46875 151.28125 C 544.37929 151.42052 543.66847 152.47127 542.65625 153.90625 C 545.34755 152.7691 547.93157 151.33705 549.90625 149.21875 z M 383.59375 154.71875 C 383.11237 154.72111 382.61387 154.72944 382.125 154.78125 C 379.29145 155.08155 376.99164 156.95004 374.875 159.28125 C 375.0791 159.24244 375.29011 159.24099 375.5 159.21875 C 391.14372 157.56081 402.82291 182.04404 418.40625 179.84375 C 420.97937 179.48043 422.93418 177.66785 424.71875 175.4375 C 409.77901 177.20723 398.4117 154.6461 383.59375 154.71875 z M 341.84375 156.71875 C 341.59845 156.7133 341.3461 156.72598 341.09375 156.75 C 338.30562 157.0154 336.05048 158.76214 334.0625 161.21875 C 334.19565 161.19891 334.33313 161.16916 334.46875 161.15625 C 342.54389 160.38759 346.89586 175.20251 355 174.9375 C 358.04158 174.83803 360.44576 172.86919 362.6875 170.375 C 362.34101 170.43746 361.98854 170.48811 361.625 170.5 C 353.77411 170.75673 349.44808 156.88777 341.84375 156.71875 z M 493.15625 156.75 C 489.24622 156.86454 485.91887 159.25257 482.6875 162 C 483.91177 161.50398 485.15691 161.1956 486.5 161.15625 C 497.48436 160.83445 505.51113 177.64553 516.375 175.90625 C 519.26401 175.44373 522.35793 173.41558 525.28125 170.8125 C 524.5097 171.12581 523.74972 171.34872 523 171.46875 C 512.13613 173.20803 504.14061 156.4282 493.15625 156.75 z M 115 157.65625 C 114.81587 157.66557 114.60013 157.69198 114.40625 157.71875 C 111.92353 158.06149 110.81611 159.84183 110.40625 162.40625 C 119.05598 165.788 113.30423 195.17853 124.59375 197.53125 C 128.30295 198.30425 131.22922 196.3428 133.84375 193.1875 C 133.01132 193.30919 132.14052 193.3171 131.21875 193.125 C 119.13382 190.60652 126.60009 157.06907 115 157.65625 z M 303.65625 159.28125 C 300.75092 159.50059 297.98861 161.50408 295.28125 164.0625 C 296.79856 163.58961 298.35677 163.54729 299.96875 164.125 C 307.08231 166.67439 301.91501 184.18822 309.28125 185.75 C 312.739 186.4831 315.36043 184.52025 317.6875 181.4375 C 317.1157 181.47033 316.5282 181.44436 315.90625 181.3125 C 308.54001 179.75072 313.70731 162.23689 306.59375 159.6875 C 305.59379 159.32913 304.61713 159.20871 303.65625 159.28125 z M 443.59375 160.5 C 443.01636 160.50847 442.4301 160.54299 441.84375 160.65625 C 439.41373 161.12562 437.52209 162.87958 435.8125 165 C 444.94482 163.80795 452.94528 175.73263 462.25 174.9375 C 465.99795 174.61722 469.20071 172.27368 472.3125 169.625 C 471.21659 170.07709 470.06571 170.39825 468.875 170.5 C 459.96242 171.26162 452.25463 160.37289 443.59375 160.5 z M 211.625 160.90625 C 207.78643 160.89086 204.09158 163.31175 200.40625 166.40625 C 203.05881 165.24151 205.73635 164.90891 208.53125 166.0625 C 217.88533 169.92336 210.12469 192.53043 219.75 195.5625 C 224.29696 196.99484 228.21412 194.83913 231.90625 191.15625 C 230.15011 191.69758 228.32737 191.74002 226.375 191.125 C 216.74969 188.09293 224.54158 165.51711 215.1875 161.65625 C 213.98562 161.16018 212.79514 160.91094 211.625 160.90625 z M 74.1875 161.25 C 73.3262 161.21856 72.445657 161.36178 71.53125 161.65625 C 69.838162 162.20149 69.127436 163.8066 68.84375 165.84375 C 80.985262 168.42358 88.254873 200.65337 101.25 195.5625 C 102.97832 194.88542 103.98105 193.48323 104.53125 191.65625 C 93.139193 190.65507 85.987742 161.6807 74.1875 161.25 z M 264.25 161.5 C 260.83537 161.66876 257.797 163.63716 254.90625 166.46875 C 256.47814 165.94621 258.11261 165.75988 259.84375 166.0625 C 265.54934 167.05989 264.48698 179.45401 270.125 180.8125 C 274.03968 181.75574 277.58653 179.41201 281.03125 176.1875 C 279.64683 176.63293 278.22184 176.72964 276.75 176.375 C 271.11198 175.01651 272.17434 162.65364 266.46875 161.65625 C 265.71489 161.52447 264.97168 161.46433 264.25 161.5 z M 38.90625 163.28125 C 38.273162 163.29946 37.646461 163.40992 37 163.625 C 34.964653 164.30217 33.413941 165.76314 32.15625 167.71875 C 41.708289 167.25631 49.819064 187.80421 59.28125 183.75 C 60.814136 183.09321 61.485923 181.5692 61.78125 179.65625 C 54.055475 177.74295 46.984528 163.04892 38.90625 163.28125 z M 160.125 166.5625 C 156.98609 166.69735 154.42548 168.54375 152.125 171.1875 C 152.57771 171.09171 153.02263 171.02051 153.5 171 C 160.8321 170.68501 163.94545 184.01064 171.25 184.75 C 175.94887 185.22562 180.28855 182.52914 184.5 179.03125 C 182.35518 180.01991 180.1593 180.54372 177.875 180.3125 C 170.57045 179.57314 167.4571 166.24751 160.125 166.5625 z "
       transform="translate(-356.30195,260.96685)"
       id="path3818" />
  </g>
</svg>
