<?xml version="1.0" encoding="UTF-8" standalone="no"?>
<!-- Created with Inkscape (http://www.inkscape.org/) -->

<svg
   xmlns:dc="http://purl.org/dc/elements/1.1/"
   xmlns:cc="http://creativecommons.org/ns#"
   xmlns:rdf="http://www.w3.org/1999/02/22-rdf-syntax-ns#"
   xmlns:svg="http://www.w3.org/2000/svg"
   xmlns="http://www.w3.org/2000/svg"
   xmlns:xlink="http://www.w3.org/1999/xlink"
   xmlns:sodipodi="http://sodipodi.sourceforge.net/DTD/sodipodi-0.dtd"
   xmlns:inkscape="http://www.inkscape.org/namespaces/inkscape"
   width="117.23375"
   height="115.88966"
   id="svg2"
   version="1.1"
   inkscape:version="0.48.4 r9939"
   sodipodi:docname="rockimage.svg"
   inkscape:export-filename="C:\Users\Schmid\Desktop\rockimage.png"
   inkscape:export-xdpi="90"
   inkscape:export-ydpi="90">
  <defs
     id="defs4">
    <linearGradient
       inkscape:collect="always"
       id="linearGradient4095">
      <stop
         style="stop-color:#d38120;stop-opacity:1"
         offset="0"
         id="stop4097" />
      <stop
         style="stop-color:#e38b26;stop-opacity:1"
         offset="1"
         id="stop4099" />
    </linearGradient>
    <linearGradient
       inkscape:collect="always"
       id="linearGradient4071">
      <stop
         style="stop-color:#d28020;stop-opacity:1"
         offset="0"
         id="stop4073" />
      <stop
         style="stop-color:#e48c26;stop-opacity:1"
         offset="1"
         id="stop4075" />
    </linearGradient>
    <linearGradient
       inkscape:collect="always"
       id="linearGradient4050">
      <stop
         style="stop-color:#d28020;stop-opacity:1"
         offset="0"
         id="stop4052" />
      <stop
         style="stop-color:#e48c26;stop-opacity:1"
         offset="1"
         id="stop4054" />
    </linearGradient>
    <linearGradient
       inkscape:collect="always"
       id="linearGradient4013">
      <stop
         style="stop-color:#d28020;stop-opacity:1"
         offset="0"
         id="stop4015" />
      <stop
         style="stop-color:#e48c26;stop-opacity:1"
         offset="1"
         id="stop4017" />
    </linearGradient>
    <linearGradient
       id="linearGradient3984">
      <stop
         style="stop-color:#d07f1f;stop-opacity:1"
         offset="0"
         id="stop3986" />
      <stop
         style="stop-color:#e48c26;stop-opacity:1"
         offset="1"
         id="stop3988" />
    </linearGradient>
    <linearGradient
       inkscape:collect="always"
       id="linearGradient3807">
      <stop
         style="stop-color:#c17319;stop-opacity:1;"
         offset="0"
         id="stop3809" />
      <stop
         style="stop-color:#e48c26;stop-opacity:1"
         offset="1"
         id="stop3811" />
    </linearGradient>
    <linearGradient
       inkscape:collect="always"
       xlink:href="#linearGradient3807"
       id="linearGradient3813"
       x1="822.76703"
       y1="388.64566"
       x2="822.85712"
       y2="396.27066"
       gradientUnits="userSpaceOnUse" />
    <linearGradient
       inkscape:collect="always"
       xlink:href="#linearGradient3807"
       id="linearGradient3831"
       gradientUnits="userSpaceOnUse"
       x1="822.76703"
       y1="388.64566"
       x2="822.85712"
       y2="396.27066"
       gradientTransform="translate(0.375,-0.25)" />
    <linearGradient
       inkscape:collect="always"
       xlink:href="#linearGradient3807"
       id="linearGradient3833"
       gradientUnits="userSpaceOnUse"
       x1="822.76703"
       y1="388.64566"
       x2="822.85712"
       y2="396.27066"
       gradientTransform="translate(-661.67881,-314.2257)" />
    <filter
       inkscape:collect="always"
       id="filter3886">
      <feGaussianBlur
         inkscape:collect="always"
         stdDeviation="0.040691254"
         id="feGaussianBlur3888" />
    </filter>
    <linearGradient
       inkscape:collect="always"
       xlink:href="#linearGradient3807"
       id="linearGradient3890"
       gradientUnits="userSpaceOnUse"
       gradientTransform="translate(-0.140625,0.0625)"
       x1="822.76703"
       y1="388.64566"
       x2="822.85712"
       y2="396.27066" />
    <linearGradient
       inkscape:collect="always"
       xlink:href="#linearGradient3807"
       id="linearGradient3897"
       gradientUnits="userSpaceOnUse"
       x1="822.76703"
       y1="388.64566"
       x2="822.85712"
       y2="396.27066" />
    <linearGradient
       inkscape:collect="always"
       xlink:href="#linearGradient3807"
       id="linearGradient3899"
       gradientUnits="userSpaceOnUse"
       gradientTransform="translate(7.729104,0.0625)"
       x1="822.76703"
       y1="388.64566"
       x2="822.85712"
       y2="396.27066" />
    <linearGradient
       inkscape:collect="always"
       xlink:href="#linearGradient3984"
       id="linearGradient3990"
       x1="719.39014"
       y1="361.22623"
       x2="719.95477"
       y2="392.79468"
       gradientUnits="userSpaceOnUse" />
    <linearGradient
       inkscape:collect="always"
       xlink:href="#linearGradient3984"
       id="linearGradient3992"
       gradientUnits="userSpaceOnUse"
       x1="719.39014"
       y1="361.22623"
       x2="719.95477"
       y2="392.79468" />
    <linearGradient
       inkscape:collect="always"
       xlink:href="#linearGradient3984"
       id="linearGradient3999"
       gradientUnits="userSpaceOnUse"
       x1="719.39014"
       y1="361.22623"
       x2="719.95477"
       y2="392.79468"
       gradientTransform="matrix(0.85139125,0,0,0.85139125,105.26923,56.919816)" />
    <filter
       inkscape:collect="always"
       id="filter4037">
      <feGaussianBlur
         inkscape:collect="always"
         stdDeviation="0.039140438"
         id="feGaussianBlur4039" />
    </filter>
    <linearGradient
       inkscape:collect="always"
       xlink:href="#linearGradient3984"
       id="linearGradient4046"
       gradientUnits="userSpaceOnUse"
       gradientTransform="matrix(0.85139125,0,0,0.85139125,105.26923,56.919816)"
       x1="719.39014"
       y1="361.22623"
       x2="719.95477"
       y2="392.79468" />
    <linearGradient
       inkscape:collect="always"
       xlink:href="#linearGradient4013"
       id="linearGradient4048"
       gradientUnits="userSpaceOnUse"
       x1="795.23035"
       y1="380.06058"
       x2="795.13861"
       y2="386.51605" />
    <linearGradient
       inkscape:collect="always"
       xlink:href="#linearGradient4050"
       id="linearGradient4056"
       x1="839.55255"
       y1="325.77634"
       x2="838.81232"
       y2="366.24136"
       gradientUnits="userSpaceOnUse"
       gradientTransform="matrix(0.82944537,0,0,0.82944537,144.92881,63.964282)" />
    <linearGradient
       inkscape:collect="always"
       xlink:href="#linearGradient4050"
       id="linearGradient4068"
       gradientUnits="userSpaceOnUse"
       gradientTransform="matrix(0.82944537,0,0,0.82944537,-517.96758,-249.4497)"
       x1="839.55255"
       y1="325.77634"
       x2="838.81232"
       y2="366.24136" />
    <linearGradient
       inkscape:collect="always"
       xlink:href="#linearGradient4071"
       id="linearGradient4077"
       x1="179.71466"
       y1="18.851019"
       x2="178.85889"
       y2="54.972504"
       gradientUnits="userSpaceOnUse"
       gradientTransform="translate(662.82675,313.65173)" />
    <filter
       inkscape:collect="always"
       id="filter4079">
      <feGaussianBlur
         inkscape:collect="always"
         stdDeviation="0.14374213"
         id="feGaussianBlur4081" />
    </filter>
    <linearGradient
       inkscape:collect="always"
       xlink:href="#linearGradient4095"
       id="linearGradient4101"
       x1="909.91107"
       y1="333.04666"
       x2="908.93634"
       y2="383.57614"
       gradientUnits="userSpaceOnUse" />
    <linearGradient
       inkscape:collect="always"
       xlink:href="#linearGradient4095"
       id="linearGradient4107"
       gradientUnits="userSpaceOnUse"
       x1="909.91107"
       y1="333.04666"
       x2="908.93634"
       y2="383.57614"
       gradientTransform="translate(-1.8263672,0.40585943)" />
    <linearGradient
       inkscape:collect="always"
       xlink:href="#linearGradient4095"
       id="linearGradient4114"
       gradientUnits="userSpaceOnUse"
       gradientTransform="translate(-663.50518,-313.81984)"
       x1="909.91107"
       y1="333.04666"
       x2="908.93634"
       y2="383.57614" />
    <filter
       inkscape:collect="always"
       id="filter4121">
      <feGaussianBlur
         inkscape:collect="always"
         stdDeviation="0.39951634"
         id="feGaussianBlur4123" />
    </filter>
    <linearGradient
       inkscape:collect="always"
       xlink:href="#linearGradient4095"
       id="linearGradient4129"
       gradientUnits="userSpaceOnUse"
       gradientTransform="translate(-1.2175809,0.40586)"
       x1="909.91107"
       y1="333.50327"
       x2="908.93634"
       y2="383.57614" />
    <linearGradient
       inkscape:collect="always"
       xlink:href="#linearGradient4050"
       id="linearGradient4141"
       gradientUnits="userSpaceOnUse"
       gradientTransform="matrix(0.82944537,0,0,0.82944537,144.92881,63.964282)"
       x1="839.55255"
       y1="325.77634"
       x2="838.81232"
       y2="366.24136" />
    <linearGradient
       inkscape:collect="always"
       xlink:href="#linearGradient4071"
       id="linearGradient4143"
       gradientUnits="userSpaceOnUse"
       gradientTransform="translate(662.82675,313.65173)"
       x1="179.71466"
       y1="18.851019"
       x2="178.85889"
       y2="54.972504" />
    <linearGradient
       inkscape:collect="always"
       xlink:href="#linearGradient4095"
       id="linearGradient4145"
       gradientUnits="userSpaceOnUse"
       x1="909.91107"
       y1="333.04666"
       x2="908.93634"
       y2="383.57614" />
    <linearGradient
       inkscape:collect="always"
       xlink:href="#linearGradient4095"
       id="linearGradient4147"
       gradientUnits="userSpaceOnUse"
       gradientTransform="translate(-1.2175809,0.40586)"
       x1="909.91107"
       y1="333.50327"
       x2="908.93634"
       y2="383.57614" />
    <linearGradient
       inkscape:collect="always"
       xlink:href="#linearGradient3807"
       id="linearGradient4152"
       gradientUnits="userSpaceOnUse"
       x1="822.76703"
       y1="388.64566"
       x2="822.85712"
       y2="396.27066"
       gradientTransform="translate(7.869729,0)" />
    <linearGradient
       inkscape:collect="always"
       xlink:href="#linearGradient3807"
       id="linearGradient4159"
       gradientUnits="userSpaceOnUse"
       gradientTransform="translate(7.869729,0)"
       x1="822.76703"
       y1="388.64566"
       x2="822.85712"
       y2="396.27066" />
    <linearGradient
       inkscape:collect="always"
       xlink:href="#linearGradient3807"
       id="linearGradient4161"
       gradientUnits="userSpaceOnUse"
       gradientTransform="translate(7.729104,0.0625)"
       x1="822.76703"
       y1="388.64566"
       x2="822.85712"
       y2="396.27066" />
    <linearGradient
       inkscape:collect="always"
       xlink:href="#linearGradient3807"
       id="linearGradient4168"
       gradientUnits="userSpaceOnUse"
       gradientTransform="matrix(1.2706918,0,0,1.2706918,-888.82724,-457.2462)"
       x1="822.76703"
       y1="388.64566"
       x2="822.85712"
       y2="396.27066" />
    <linearGradient
       inkscape:collect="always"
       xlink:href="#linearGradient3807"
       id="linearGradient4172"
       gradientUnits="userSpaceOnUse"
       gradientTransform="matrix(1.2706918,0,0,1.2706918,-888.64855,-457.32562)"
       x1="822.76703"
       y1="388.64566"
       x2="822.85712"
       y2="396.27066" />
    <linearGradient
       inkscape:collect="always"
       xlink:href="#linearGradient3807"
       id="linearGradient4180"
       gradientUnits="userSpaceOnUse"
       gradientTransform="matrix(1.2706918,0,0,1.2706918,-888.64855,-457.32562)"
       x1="822.76703"
       y1="388.64566"
       x2="822.85712"
       y2="396.27066" />
    <linearGradient
       inkscape:collect="always"
       xlink:href="#linearGradient3807"
       id="linearGradient4182"
       gradientUnits="userSpaceOnUse"
       gradientTransform="matrix(1.2706918,0,0,1.2706918,-888.82724,-457.2462)"
       x1="822.76703"
       y1="388.64566"
       x2="822.85712"
       y2="396.27066" />
    <linearGradient
       inkscape:collect="always"
       xlink:href="#linearGradient3984"
       id="linearGradient4189"
       gradientUnits="userSpaceOnUse"
       gradientTransform="matrix(0.85139125,0,0,0.85139125,105.26923,56.919816)"
       x1="719.39014"
       y1="361.22623"
       x2="719.95477"
       y2="392.79468" />
    <linearGradient
       inkscape:collect="always"
       xlink:href="#linearGradient4013"
       id="linearGradient4191"
       gradientUnits="userSpaceOnUse"
       x1="795.23035"
       y1="380.06058"
       x2="795.13861"
       y2="386.51605" />
  </defs>
  <sodipodi:namedview
     id="base"
     pagecolor="#ffffff"
     bordercolor="#666666"
     borderopacity="1.0"
     inkscape:pageopacity="0.0"
     inkscape:pageshadow="2"
     inkscape:zoom="2.4639076"
     inkscape:cx="87.517499"
     inkscape:cy="102.94013"
     inkscape:document-units="px"
     inkscape:current-layer="g4041"
     showgrid="false"
     showguides="true"
     inkscape:guide-bbox="true"
     fit-margin-top="0"
     fit-margin-left="0"
     fit-margin-right="0"
     fit-margin-bottom="0"
     inkscape:window-width="1360"
     inkscape:window-height="706"
     inkscape:window-x="-8"
     inkscape:window-y="-8"
     inkscape:window-maximized="1" />
  <metadata
     id="metadata7">
    <rdf:RDF>
      <cc:Work
         rdf:about="">
        <dc:format>image/svg+xml</dc:format>
        <dc:type
           rdf:resource="http://purl.org/dc/dcmitype/StillImage" />
        <dc:title></dc:title>
      </cc:Work>
    </rdf:RDF>
  </metadata>
  <g
     inkscape:label="Ebene 1"
     inkscape:groupmode="layer"
     id="layer1"
     transform="translate(-661.67881,-314.2257)">
    <path
       sodipodi:type="star"
       style="fill:#999999;fill-opacity:1;fill-rule:nonzero;stroke:none"
       id="path2993"
       sodipodi:sides="33"
       sodipodi:cx="188"
       sodipodi:cy="422.86218"
       sodipodi:r1="40.822933"
       sodipodi:r2="67.475922"
       sodipodi:arg1="1.4519559"
       sodipodi:arg2="0.93598232"
       inkscape:flatsided="false"
       inkscape:rounded="0.21"
       inkscape:randomized="0.04"
       d="m 192.2076,465.48364 c -6.10677,4.91747 44.43392,9.12055 36.47186,9.49027 -9.49119,0.44072 -36.12447,-16.97188 -44.34368,-12.34565 -6.89501,3.8809 41.05798,20.28914 33.18847,18.65096 -9.38085,-1.9528 -29.69444,-20.31755 -38.30284,-16.87984 -7.22149,2.88386 34.27929,28.28463 26.94547,25.06974 -8.7423,-3.83231 -25.34481,-31.37322 -34.50771,-29.32461 -7.68666,1.71856 25.43867,34.04176 18.67337,30.12946 -8.0646,-4.66365 -15.68567,-32.19068 -25.13315,-32.85778 -7.92539,-0.55963 20.9067,39.27648 14.78666,34.17098 -7.29539,-6.08601 -12.01637,-37.15919 -21.37198,-38.94967 -7.84833,-1.50202 15.34568,40.5984 10.57463,34.33911 -5.68734,-7.46139 -8.61489,-39.76208 -17.39476,-43.59519 -7.36535,-3.21555 6.19622,44.80357 2.92174,37.64242 -3.90336,-8.53646 0.75753,-35.94406 -6.9463,-41.35468 -6.46266,-4.53892 0.50166,41.73623 -2.01552,34.08033 -3.00061,-9.12623 10.00761,-35.65181 3.65777,-42.55836 -5.32681,-5.79383 -11.52669,42.71428 -11.89272,34.68397 -0.43634,-9.57254 12.83631,-37.50758 7.28176,-45.34308 -4.65966,-6.57313 -18.22176,42.35033 -17.37283,34.33942 1.01197,-9.54942 26.0647,-29.65136 22.78375,-38.66446 -2.75236,-7.56099 -29.82166,35.01575 -27.81836,27.33013 2.38803,-9.16165 29.55955,-28.79688 27.6964,-38.15709 -1.56298,-7.85219 -35.45052,31.32777 -31.77626,24.22857 4.37991,-8.46262 36.89478,-17.47294 36.40741,-26.93446 -0.40886,-7.93717 -37.80665,18.87569 -32.48019,12.90089 6.3494,-7.12226 36.82437,-11.46145 39.03647,-20.84704 1.85572,-7.87348 -46.28024,13.15226 -40.5316,7.79753 6.85268,-6.38311 43.10193,-7.33865 46.95189,-15.79632 3.22969,-7.09505 -46.44718,7.96661 -39.38197,4.02009 8.42209,-4.70446 38.94757,2.25728 43.49574,-5.87168 3.81542,-6.81931 -45.46092,1.7975 -37.86058,-0.37818 9.06001,-2.59354 38.52983,5.99117 44.62893,-1.32897 5.11648,-6.14078 -41.72666,-11.98338 -33.89438,-12.70336 9.33647,-0.85825 37.3859,15.69854 44.84421,10.00116 6.25669,-4.77948 -45.74961,-14.31495 -37.99005,-13.5522 9.2498,0.90923 37.09137,22.16109 45.71625,18.31403 7.23532,-3.22726 -37.22759,-26.99344 -29.72986,-24.57318 8.93768,2.88508 26.26635,27.07711 35.31832,25.03153 7.59362,-1.71602 -32.70911,-35.58984 -25.78515,-31.88305 8.25373,4.41868 22.23565,37.61132 31.78779,36.73296 8.01319,-0.73685 -27.77673,-38.59522 -21.37278,-34.13862 7.63384,5.3125 16.72439,37.04971 26.26228,38.12079 8.00124,0.89851 -14.28422,-41.31418 -9.30984,-35.11731 5.92972,7.38698 9.53478,34.3929 18.79659,36.8371 7.76965,2.05042 -10.92085,-43.71273 -7.12578,-36.63401 4.52392,8.43819 -0.13275,40.01301 7.93627,44.67817 6.76902,3.91356 2.2914,-44.01089 4.89191,-36.52158 3.09995,8.92765 -11.44991,40.41991 -3.89808,46.07812 6.33515,4.74661 10.92299,-45.02186 12.44908,-37.16267 1.81917,9.36857 -17.76189,34.89153 -11.40148,42.08641 5.33567,6.03571 15.44966,-39.73782 15.60153,-31.658 0.18104,9.63157 -17.58933,32.76294 -13.25561,41.0383 3.6355,6.94211 24.99853,-39.52312 23.1628,-31.7296 -2.18828,9.29028 -28.11861,32.22655 -25.77593,41.29603 1.96525,7.60829 32.84066,-36.24194 29.81431,-28.97375 -3.60756,8.66405 -33.47431,25.93384 -32.75316,35.52587 0.60496,8.04665 39.14764,-27.37551 34.97394,-20.62399 -4.97526,8.04815 -37.20212,15.69266 -37.72178,25.27283 -0.43595,8.03671 40.43355,-20.93648 34.9988,-15.19747 -6.4785,6.84119 -39.20119,11.21834 -41.94398,20.442 -2.30091,7.73763 41.73685,-9.67218 35.25324,-5.24976 -7.72879,5.27175 -34.06818,1.33055 -38.78973,9.57131 -3.96087,6.91309 45.4669,-2.72093 38.17461,0.54913 -8.69278,3.89809 -40.0099,-7.07311 -45.94485,0.3067 -4.97876,6.19085 42.81745,9.58876 35.11804,11.61366 -9.17809,2.41379 -37.49981,-11.32625 -44.7794,-5.46436 z"
       inkscape:transform-center-x="-0.093398669"
       inkscape:transform-center-y="0.045558665"
       transform="matrix(0.83664528,0,0,0.83664528,562.92537,18.453049)" />
    <path
       style="fill:#3f3f3f;fill-opacity:1;fill-rule:nonzero;stroke:none"
       d="M 48.75 0 C 48.373679 0.19417996 51.631166 3.3146324 55.78125 7.34375 C 53.417473 3.9278069 51.21773 1.2365167 49.375 0.25 C 49.012943 0.05617081 48.822799 -0.037563906 48.75 0 z M 55.78125 7.34375 C 58.522486 11.305167 61.495835 16.204542 64.46875 20.53125 C 66.548779 22.314959 67.779615 23.814651 67.5 24.71875 C 67.630435 24.884652 67.776218 25.026196 67.90625 25.1875 C 68.65225 25.492101 69.356031 25.738227 70.03125 25.8125 C 66.691467 22.143551 63.167133 16.507379 59.8125 11.3125 C 58.426684 9.9404173 57.069781 8.5947231 55.78125 7.34375 z M 70.03125 25.8125 C 70.377198 26.192544 70.721351 26.540036 71.0625 26.875 C 71.609212 26.713127 71.790435 26.322654 71.71875 25.75 C 72.406261 26.934344 73.114591 28.023809 73.8125 29.03125 C 74.516694 29.430442 75.211449 29.706428 75.875 29.78125 C 74.686458 28.355482 73.503904 26.561045 72.34375 24.5625 C 72.419699 25.170532 72.188473 25.577292 71.5625 25.71875 C 71.080067 25.827771 70.566278 25.871352 70.03125 25.8125 z M 75.875 29.78125 C 76.143853 30.103765 76.417382 30.404925 76.6875 30.6875 C 76.901661 30.476119 76.965735 30.132204 76.9375 29.71875 C 76.833982 29.753991 76.724691 29.769209 76.59375 29.78125 C 76.354414 29.803258 76.120756 29.808961 75.875 29.78125 z M 57.5 2.09375 C 57.094323 2.2383655 60.080267 5.8589462 63.8125 10.4375 C 61.825567 6.7129613 59.904078 3.6660846 58.09375 2.40625 C 57.758885 2.1732128 57.576639 2.0664298 57.5 2.09375 z M 63.8125 10.4375 C 64.929483 12.531302 66.05545 14.851789 67.21875 17.1875 C 68.404275 18.502885 69.475236 19.764241 70.3125 20.875 C 69.237414 18.822762 68.197811 16.685029 67.15625 14.59375 C 66.00935 13.155197 64.894096 11.764358 63.8125 10.4375 z M 71.6875 4.40625 C 70.979038 4.9434614 82.299898 27.241074 81.5 32.96875 C 82.292814 32.480685 82.311997 30.892822 81.84375 28.6875 C 79.519073 23.78631 77.644076 17.290529 75.75 12.09375 C 75.746357 12.085206 75.753641 12.071037 75.75 12.0625 C 75.008086 10.322762 74.380375 8.8169602 73.8125 7.46875 C 73.315694 6.4705142 72.814733 5.5708397 72.28125 4.90625 C 71.95611 4.5012046 71.757194 4.3534023 71.6875 4.40625 z M 81.625 4.46875 C 81.513796 4.5767035 82.309242 6.8629875 83.34375 9.90625 C 83.055733 7.9183293 82.645853 6.2401312 82.03125 5.09375 C 81.783193 4.6310647 81.662939 4.4319196 81.625 4.46875 z M 83.34375 9.90625 C 84.191031 15.754259 83.989582 24.422375 84.6875 31.4375 C 84.968207 31.82188 85.266937 32.174689 85.5625 32.5 C 84.74767 26.686671 84.81451 19.193157 84.40625 13.09375 C 84.001291 11.885677 83.693072 10.933868 83.34375 9.90625 z M 85.5625 32.5 C 85.666474 33.241793 85.770473 33.945398 85.90625 34.625 C 86.565082 35.161953 87.260835 35.554934 88 35.75 C 88.406277 35.857217 88.725426 35.809747 88.96875 35.625 C 88.623436 37.220536 88.350223 38.782385 88.125 40.25 C 88.258873 40.413647 88.385668 40.548415 88.53125 40.6875 C 88.755294 38.751494 89.083374 36.648954 89.5625 34.4375 C 89.322348 34.607321 89.017735 34.666143 88.625 34.5625 C 87.512307 34.26886 86.499793 33.531631 85.5625 32.5 z M 88.53125 40.6875 C 88.471271 41.205789 88.377209 41.730234 88.34375 42.21875 C 88.458531 42.303402 88.56592 42.398458 88.6875 42.46875 C 89.613521 43.004135 90.291358 42.360215 90.78125 40.96875 C 90.377455 41.471388 89.9043 41.623403 89.3125 41.28125 C 89.039485 41.123405 88.770651 40.916218 88.53125 40.6875 z M 40.71875 5.84375 C 40.313846 6.0366336 44.464336 8.575005 49.53125 11.78125 C 46.454902 8.9806335 43.616206 6.6821234 41.40625 5.96875 C 41.014191 5.8421935 40.792352 5.8086883 40.71875 5.84375 z M 49.53125 11.78125 C 51.44183 13.520586 53.449069 15.44137 55.46875 17.34375 C 56.857193 17.851949 58.098897 18.355594 59 18.84375 C 57.8465 17.808503 56.688453 16.750831 55.53125 15.65625 C 53.498872 14.305543 51.47617 13.011958 49.53125 11.78125 z M 27.375 11.1875 C 27.243882 11.268933 29.172396 11.724654 31.96875 12.375 C 30.427861 11.74165 29.07975 11.321815 28.03125 11.21875 C 27.6255 11.178866 27.414211 11.163147 27.375 11.1875 z M 31.96875 12.375 C 35.368395 13.772352 39.775139 16.215852 44.34375 18.71875 C 47.112239 19.56596 49.407392 20.473725 50.625 21.40625 C 51.621321 21.666095 52.589845 21.871278 53.5 22.03125 C 48.411665 19.554102 42.873396 16.311761 38.09375 13.8125 C 35.77913 13.257914 33.713548 12.780786 31.96875 12.375 z M 53.5 22.03125 C 54.607384 22.570356 55.67005 23.081295 56.71875 23.53125 C 56.727898 23.535175 56.740858 23.527333 56.75 23.53125 C 57.990074 23.4493 59.039104 23.122045 59.8125 22.53125 C 60.16127 22.264826 60.304805 21.985527 60.25 21.6875 C 62.173844 23.318062 64.043577 24.696148 65.78125 25.65625 C 66.186894 25.593742 66.568002 25.494623 66.90625 25.34375 C 66.849808 25.10049 66.714077 24.822683 66.53125 24.53125 C 64.75977 23.570243 62.843245 22.168194 60.875 20.5 C 60.929805 20.798027 60.78627 21.108576 60.4375 21.375 C 58.954193 22.508095 56.488538 22.556527 53.5 22.03125 z M 50.625 21.40625 C 49.731902 21.173326 48.818322 20.918986 47.875 20.625 C 49.119876 21.290924 50.342625 21.948591 51.5625 22.5625 C 51.461863 22.173328 51.122685 21.78741 50.625 21.40625 z M 92.375 11.25 C 91.899416 11.402314 92.003072 16.56246 92.03125 22.59375 C 92.262739 21.518761 92.454298 20.491895 92.625 19.5 C 92.602805 16.219211 92.59615 13.361488 92.6875 11.6875 C 92.562851 11.385062 92.458999 11.223098 92.375 11.25 z M 92.03125 22.59375 C 91.475511 25.174485 90.797345 27.943697 90.125 30.71875 C 90.163729 31.074633 90.204662 31.403601 90.21875 31.71875 C 90.815582 29.177333 91.448215 26.60521 92.03125 24.125 C 92.030538 23.601983 92.033641 23.105496 92.03125 22.59375 z M 23.0625 14.15625 C 22.788822 14.151244 22.525354 14.165061 22.28125 14.1875 C 18.879462 14.500207 27.821465 15.941957 36.59375 18 C 31.22773 16.000594 26.192554 14.213498 23.0625 14.15625 z M 36.59375 18 C 41.116493 19.685197 45.854244 21.512517 50 22.59375 C 47.817184 20.927467 42.249449 19.326869 36.59375 18 z M 50 22.59375 C 50.583897 23.039476 50.93673 23.481213 50.96875 23.9375 C 51.075538 23.833772 51.187449 23.73758 51.28125 23.625 C 51.465443 23.403932 51.563424 23.188572 51.59375 22.96875 C 51.070056 22.854318 50.548069 22.736689 50 22.59375 z M 99.59375 18.65625 C 98.980637 18.797719 98.007094 24.544235 96.78125 31.0625 C 97.028227 30.507145 97.238589 29.947801 97.46875 29.40625 C 98.333559 24.78838 99.096612 20.623894 99.65625 18.6875 C 99.631364 18.673201 99.619849 18.650228 99.59375 18.65625 z M 96.78125 31.0625 C 94.107291 37.075181 90.592775 43.774931 89.59375 48.75 C 89.599159 48.756384 89.588302 48.774911 89.59375 48.78125 C 89.711709 48.918516 89.832406 49.040441 89.96875 49.15625 C 90.373839 44.445848 93.870306 37.598912 96.75 31.28125 C 96.76386 31.207712 96.76746 31.135825 96.78125 31.0625 z M 89.96875 49.15625 C 89.921203 49.709129 89.925316 50.22945 89.96875 50.71875 C 90.842407 50.946455 91.684216 49.924595 92.46875 48.1875 C 91.723562 49.405938 90.944067 49.894936 90.125 49.28125 C 90.07102 49.240805 90.020051 49.199825 89.96875 49.15625 z M 25.84375 24.84375 C 23.484124 25.086181 21.342764 25.302085 19.375 25.53125 C 22.175707 25.663031 25.47243 26.037053 28.84375 26.40625 C 30.374374 26.107726 31.851176 25.847227 33.25 25.625 C 30.739837 25.375684 28.251968 25.093424 25.84375 24.84375 z M 19.375 25.53125 C 16.89117 25.414379 14.780943 25.485891 13.3125 25.90625 C 11.225179 26.50377 14.461612 26.103462 19.375 25.53125 z M 45.15625 25.6875 C 45.051114 25.808622 44.933987 25.919661 44.8125 26.03125 C 44.906401 26.022987 45.001126 26.009194 45.09375 26 C 45.135685 25.886342 45.15237 25.789988 45.15625 25.6875 z M 44.8125 26.03125 C 44.01306 26.101599 43.162119 26.146471 42.28125 26.15625 C 42.271796 26.291787 42.230298 26.43108 42.15625 26.59375 C 42.044435 26.839388 41.893733 27.081537 41.71875 27.3125 C 42.050958 27.308293 42.366103 27.293601 42.6875 27.28125 C 43.537523 26.950099 44.261237 26.537597 44.8125 26.03125 z M 41.6875 27.34375 C 41.594076 27.464586 41.484853 27.570503 41.375 27.6875 C 41.460753 27.664641 41.541119 27.64897 41.625 27.625 C 41.657304 27.527099 41.681448 27.430611 41.6875 27.34375 z M 41.375 27.6875 C 36.980744 28.858853 30.163462 28.617637 23.78125 28.5 C 21.994506 28.883392 20.298149 29.280161 18.625 29.65625 C 25.505097 29.594481 33.852967 30.228357 39.40625 29.1875 C 40.214995 28.72541 40.87299 28.222156 41.375 27.6875 z M 18.625 29.65625 C 14.372805 29.694426 10.667648 29.997801 8.59375 31.15625 C 6.2159349 32.484463 11.610413 31.232981 18.625 29.65625 z M 103.15625 27.34375 C 102.37113 27.968607 100.00176 36.662512 97.34375 44.15625 C 97.599764 43.63317 97.838341 43.114392 98.09375 42.59375 C 98.10153 42.571621 98.117225 42.553398 98.125 42.53125 C 100.21154 36.587305 102.09496 30.014717 103.15625 27.34375 z M 97.34375 44.15625 C 95.897495 47.111188 94.482963 50.077155 93.4375 52.8125 C 93.567429 52.652974 93.680454 52.472737 93.8125 52.28125 C 93.751228 52.449558 93.714253 52.615006 93.65625 52.78125 C 93.901322 52.371997 94.125674 51.902158 94.375 51.40625 C 94.199283 51.708873 94.016552 51.996966 93.84375 52.25 C 94.733064 49.814542 95.929646 47.166196 97.21875 44.5 C 97.260059 44.384533 97.302573 44.27234 97.34375 44.15625 z M 35.46875 31.875 C 30.657553 33.612308 23.854607 34.829732 17.5625 36.09375 C 10.670589 38.35483 4.2396908 40.642293 2.8125 40.53125 C 2.6102191 40.676398 2.4447338 40.847719 2.28125 41 C -2.5283233 45.480007 37.740073 27.88144 36.1875 34.46875 C 36.149951 34.628066 36.0879 34.781605 36.03125 34.9375 C 36.396357 34.410884 36.64729 33.849621 36.78125 33.28125 C 36.982742 32.426353 36.486194 32.016532 35.46875 31.875 z M 111.0625 37.625 C 109.89363 39.689105 108.10378 42.130337 106.03125 44.75 C 105.79403 45.177842 105.55692 45.624234 105.3125 46.0625 C 107.84117 42.871913 109.97322 39.939633 111.0625 37.625 z M 31.25 39.5625 C 30.905804 39.760373 30.525583 39.963542 30.15625 40.15625 C 30.469921 40.354719 30.663161 40.652496 30.6875 41.125 C 30.712985 41.619746 30.64649 42.101973 30.46875 42.59375 C 31.050878 41.711402 31.358451 40.829552 31.3125 39.9375 C 31.305178 39.795364 31.285023 39.678551 31.25 39.5625 z M 30.15625 40.15625 C 29.835135 39.953071 29.385887 39.865407 28.8125 39.90625 C 26.160134 41.116155 23.119463 42.223338 20.0625 43.3125 C 18.376591 44.189215 16.648834 45.147978 14.9375 46.125 C 17.286936 45.272358 19.757629 44.414543 22.15625 43.53125 C 24.517639 41.777711 26.378008 40.875535 27.125 41.5625 C 28.201083 41.098266 29.2113 40.6493 30.15625 40.15625 z M 14.9375 46.125 C 13.469498 46.657757 12.039974 47.178893 10.71875 47.71875 C 10.707315 47.725474 10.698919 47.743286 10.6875 47.75 C 10.657945 47.762096 10.623206 47.769147 10.59375 47.78125 C 7.3953791 49.662015 4.8510022 51.195844 4 51.4375 C 3.8237501 51.598402 3.6777262 51.741945 3.53125 51.90625 C 1.3429652 54.360895 7.7841655 50.208927 14.9375 46.125 z M 115.1875 46 C 114.04474 47.85273 111.79671 50.090379 109.0625 52.5 C 108.49328 53.198316 107.89133 53.940929 107.28125 54.6875 C 111.06395 51.431786 114.1818 48.452731 115.125 46.1875 C 115.15865 46.106674 115.16374 46.065916 115.1875 46 z M 105.25 46.15625 C 100.64657 54.345952 95.227457 63.309071 93.28125 61.625 C 93.039185 61.998382 92.782769 62.386479 92.5625 62.75 C 94.522911 64.866981 100.45842 54.743548 105.25 46.15625 z M 92.5625 62.75 C 92.552197 62.738874 92.541329 62.730557 92.53125 62.71875 C 92.306125 63.126298 92.063835 63.515655 91.875 63.90625 C 92.085669 63.524395 92.323111 63.145076 92.5625 62.75 z M 26.46875 46.34375 C 21.817947 49.642043 14.728744 52.88578 9.09375 56.03125 C 8.4381878 56.67606 7.7417721 57.359583 7.125 57.96875 C 12.990976 54.540655 21.010649 51.017908 26.03125 47.40625 C 26.200989 47.043258 26.347432 46.690097 26.46875 46.34375 z M 7.125 57.96875 C 6.5601317 58.298861 6.0192137 58.609176 5.5 58.9375 C 2.6353641 61.742876 0.58476051 63.69231 0.65625 63.03125 C 0.50393018 63.246047 0.32948819 63.442288 0.21875 63.65625 C -0.9475339 65.909681 2.4373998 62.59855 7.125 57.96875 z M 26.65625 50.5 C 21.854231 50.237943 2.7048909 80.052782 4.25 74.125 C 4.3124356 73.885467 4.3984405 73.631118 4.5 73.375 C 4.1137718 74.070539 3.8119463 74.715174 3.65625 75.3125 C 2.5262572 79.647696 12.425256 64.90173 19.71875 56.75 C 20.520387 55.458158 21.258703 54.632471 21.90625 54.4375 C 24.405913 51.977929 26.317877 50.821184 26.90625 52.4375 C 27.482818 54.021385 27.015287 56.015294 25.90625 58.25 C 27.45134 55.537843 28.2073 53.107174 27.53125 51.25 C 27.351348 50.755791 27.063201 50.522208 26.65625 50.5 z M 107.25 54.71875 C 106.86287 55.051766 106.4625 55.380196 106.0625 55.71875 C 99.538929 63.627621 92.001399 72.261465 90.84375 69.46875 C 90.603102 69.752606 90.373654 70.033918 90.15625 70.3125 C 90.165063 70.35202 90.146199 70.398588 90.15625 70.4375 C 91.115796 74.152299 100.25996 63.271891 107.25 54.71875 z M 90.15625 70.3125 C 90.136164 70.22243 90.138754 70.12442 90.125 70.03125 C 89.571598 70.824485 89.085407 71.578898 88.78125 72.3125 C 89.154849 71.663677 89.620162 70.999445 90.15625 70.3125 z M 117.21875 58 C 115.87341 59.711594 113.10956 61.387228 109.78125 63.09375 C 108.7753 63.874557 107.69504 64.70969 106.59375 65.5625 C 111.40925 63.248188 115.53788 60.970874 116.96875 58.65625 C 117.18699 58.303211 117.26324 58.094873 117.21875 58 z M 106.59375 65.5625 C 105.82527 65.93183 105.04551 66.31583 104.25 66.6875 C 97.039175 72.174955 89.445095 77.456039 88.4375 75.1875 C 88.179141 75.400302 87.948681 75.628894 87.71875 75.84375 C 87.719975 75.864736 87.717179 75.885351 87.71875 75.90625 C 87.752702 76.357844 87.919522 76.666568 88.21875 76.8125 C 90.070283 76.009439 92.121278 75.236462 94.25 74.5 C 97.903014 72.236367 102.42911 68.787494 106.59375 65.5625 z M 87.71875 75.84375 C 87.707113 75.644386 87.699933 75.456977 87.71875 75.25 C 87.043107 75.977546 86.556362 76.714893 86.28125 77.46875 C 86.652968 76.918759 87.144921 76.379957 87.71875 75.84375 z M 18.71875 58.59375 C 16.031963 63.280156 12.861981 72.229953 10.625 78.5625 C 10.756943 78.352786 10.921261 78.151463 11.0625 77.9375 C 13.138676 72.065366 16.085537 63.676309 18.71875 58.59375 z M 11.0625 77.9375 C 10.997067 78.122568 10.938537 78.289377 10.875 78.46875 C 14.292067 73.496453 19.801087 67.537956 23.46875 62.25 C 23.476055 62.143185 23.49422 62.042787 23.5 61.9375 C 19.679971 67.23824 14.252632 73.10479 11.0625 77.9375 z M 23.46875 62.25 C 22.808829 71.899962 16.025403 87.701524 16.3125 94 C 16.370951 95.282327 16.593703 94.831786 16.96875 93.3125 C 16.967585 93.305091 16.96988 93.288988 16.96875 93.28125 C 16.951515 93.163244 16.915231 93.009533 16.90625 92.8125 C 16.761392 89.634527 18.421223 84.036661 20.1875 78.03125 C 21.01063 74.419108 21.911214 70.924163 22.84375 68.40625 C 23.441295 65.893399 23.92303 63.487411 24.09375 61.375 C 23.899212 61.669464 23.676223 61.95087 23.46875 62.25 z M 26.03125 63.40625 C 25.397717 63.471942 24.758025 64.32297 24.125 65.6875 C 24.835613 64.580323 25.553648 64.211347 26.25 64.96875 C 27.786404 66.639855 27.925796 69.707342 27.46875 73.375 C 27.47285 73.383525 27.464666 73.397697 27.46875 73.40625 C 27.569548 73.617354 27.658704 73.834996 27.75 74.0625 C 27.778984 74.03713 27.812903 74.020912 27.84375 74 C 28.587706 69.541937 28.655484 65.749086 26.875 63.8125 C 26.596459 63.509539 26.314127 63.376918 26.03125 63.40625 z M 27.84375 74 C 27.833359 74.062264 27.823163 74.124975 27.8125 74.1875 C 27.930354 74.491135 28.053666 74.826534 28.15625 75.15625 C 28.187399 75.167949 28.217905 75.173488 28.25 75.1875 C 30.27828 76.073004 31.910398 78.796624 33.34375 82.375 C 33.491588 81.97065 33.763069 81.740101 34.1875 81.71875 C 32.706284 77.877068 31.002732 74.928922 28.875 74 C 28.460238 73.818924 28.109509 73.819837 27.84375 74 z M 34.1875 81.71875 C 34.363317 82.174748 34.518032 82.645048 34.6875 83.125 C 36.147956 83.699275 37.457201 85.13414 38.6875 87.09375 C 38.746995 87.049869 38.832198 87.028001 38.90625 87 C 38.906044 86.988226 38.906319 86.980377 38.90625 86.96875 C 38.903308 86.471883 39.040947 86.106537 39.3125 85.90625 C 37.885622 83.638597 36.308219 82.084096 34.5625 81.75 C 34.421428 81.723002 34.305086 81.712835 34.1875 81.71875 z M 39.3125 85.90625 C 39.530489 86.252687 39.725153 86.621987 39.9375 87 C 41.36001 87.264301 42.726653 88.248619 44.0625 89.6875 C 44.165184 89.526078 44.33664 89.40559 44.53125 89.3125 C 44.526424 89.003747 44.553835 88.707008 44.6875 88.5 C 43.201497 86.899383 41.657319 85.862613 40.0625 85.75 C 39.730963 85.72659 39.497772 85.7696 39.3125 85.90625 z M 44.6875 88.5 C 44.884387 88.712073 45.085963 88.924849 45.28125 89.15625 C 47.079676 88.962139 49.197964 90.009937 51.46875 91.78125 C 51.563517 91.709704 51.678549 91.647243 51.8125 91.59375 C 52.154491 91.457178 52.522125 91.370237 52.90625 91.3125 C 50.137195 88.985877 47.567456 87.562028 45.46875 88.03125 C 45.09773 88.114201 44.844187 88.257338 44.6875 88.5 z M 52.90625 91.3125 C 53.349414 91.684856 53.79747 92.051968 54.25 92.46875 C 54.512265 92.500231 54.788828 92.540306 55.0625 92.59375 C 54.800188 92.100048 54.854274 91.67027 55.34375 91.34375 C 54.469347 91.19956 53.646291 91.201266 52.90625 91.3125 z M 55.0625 92.59375 C 56.454307 95.213293 67.219793 99.851787 75.21875 103.15625 C 72.6969 101.67043 69.991598 99.949542 67.28125 98.3125 C 63.578701 96.645173 60.096958 94.934503 57.90625 93.46875 C 57.885579 93.454919 57.864196 93.451287 57.84375 93.4375 C 56.864073 93.069551 55.942608 92.765621 55.0625 92.59375 z M 75.21875 103.15625 C 78.306114 104.97526 81.126604 106.43298 83.25 106.875 C 85.798361 107.40549 81.294892 105.66638 75.21875 103.15625 z M 44.0625 89.6875 C 42.809103 91.657875 48.115169 98.447805 53.15625 104.46875 C 52.121148 102.57199 51.057354 100.58599 50 98.65625 C 47.540497 95.504416 45.47774 92.505933 44.78125 90.5 C 44.543478 90.212845 44.30264 89.946162 44.0625 89.6875 z M 53.15625 104.46875 C 55.620508 108.98435 58.029473 112.97757 60.5 114.40625 C 61.987953 115.26671 61.116959 113.96998 59.21875 111.65625 C 59.009552 111.43366 58.802628 111.18856 58.59375 110.9375 C 57.096344 109.14047 55.197901 106.90725 53.15625 104.46875 z M 38.6875 87.09375 C 36.939916 88.382703 41.351253 96.379024 45.65625 103.625 C 44.889949 101.56631 44.130751 99.440152 43.34375 97.34375 C 41.129792 93.37688 39.300922 89.700142 38.96875 87.59375 C 38.871382 87.430138 38.786047 87.250715 38.6875 87.09375 z M 45.65625 103.625 C 47.622171 108.90649 49.594695 113.62378 51.84375 115.5 C 53.056481 116.51169 52.583471 115.3832 51.3125 113.125 C 50.580252 112.18404 49.876 110.97939 49.1875 109.5625 C 49.167981 109.52233 49.144494 109.47798 49.125 109.4375 C 48.050884 107.6487 46.903793 105.72481 45.65625 103.625 z M 115 66.46875 C 114.90018 66.474357 114.67697 66.579966 114.4375 66.6875 C 113.54704 67.3635 112.33138 67.990912 110.9375 68.625 C 109.54225 69.451227 107.97203 70.410649 106.15625 71.5 C 110.01146 70.104984 113.19066 68.674391 114.6875 67.09375 C 115.11378 66.643608 115.19431 66.457835 115 66.46875 z M 106.15625 71.5 C 105.09525 71.883924 103.98769 72.273943 102.84375 72.65625 C 94.820475 77.354559 86.027829 81.969702 86.03125 78.71875 C 85.877892 78.792622 85.711979 78.862881 85.5625 78.9375 C 85.479051 79.224497 85.422045 79.521323 85.40625 79.8125 C 85.187824 83.839241 97.329673 76.795385 106.15625 71.5 z M 85.5625 78.9375 C 85.672497 78.559197 85.844479 78.183917 86.0625 77.8125 C 83.133822 79.289138 80.99383 80.917916 80.3125 82.78125 C 81.334777 81.371667 83.206787 80.113451 85.5625 78.9375 z M 23.6875 72 C 21.76756 73.618295 22.602274 85.261593 23.21875 93.375 C 23.361724 92.504488 23.554577 91.617972 23.75 90.6875 C 23.239738 83.838055 22.689723 75.286639 23.6875 72 z M 27.03125 78.25 C 26.86141 79.004635 26.652367 79.765226 26.46875 80.53125 C 26.778293 85.138746 28.062 91.751935 29.21875 97.3125 C 29.149197 95.711405 29.133553 94.022825 29.09375 92.3125 C 28.087933 87.227736 27.151277 81.898483 27.03125 78.25 z M 29.21875 97.3125 C 29.387759 101.20305 29.740894 104.61731 30.6875 106.6875 C 31.784479 109.08655 30.610283 104.00168 29.21875 97.3125 z M 109.3125 79.1875 C 109.105 79.201006 108.75425 79.259752 108.375 79.34375 C 108.34831 79.349661 108.33997 79.368772 108.3125 79.375 C 107.27736 79.814626 106.04649 80.137576 104.65625 80.40625 C 104.61652 80.417927 104.57134 80.425692 104.53125 80.4375 C 102.59459 81.007837 100.35959 81.643465 97.875 82.375 C 102.56737 81.951527 106.80716 81.372163 109.09375 79.8125 C 109.77181 79.350001 109.79705 79.15596 109.3125 79.1875 z M 97.875 82.375 C 96.217314 82.524601 94.51908 82.671019 92.8125 82.8125 C 87.982323 84.092655 83.507243 85.023477 81.40625 84.59375 C 80.814983 84.786161 80.262194 84.980438 79.75 85.21875 C 81.379023 85.275287 83.119803 85.3889 84.9375 85.59375 C 88.562995 85.037263 93.371262 83.701031 97.875 82.375 z M 9.46875 80.625 C 8.5748785 82.171283 7.9715676 83.575101 7.84375 84.78125 C 7.7183842 85.964262 7.981354 85.611553 8.5 84.34375 C 8.4375048 84.310786 8.4188103 84.096255 8.46875 83.625 C 8.5635602 82.730325 8.9310271 81.715672 9.46875 80.625 z M 33.1875 82.96875 C 30.874647 84.05661 35.590918 94.868425 39.34375 103.03125 C 38.778189 101.04765 38.195315 98.896193 37.625 96.6875 C 35.173583 91.06889 33.000873 85.4085 33.21875 82.96875 C 33.209798 82.972585 33.19625 82.964634 33.1875 82.96875 z M 39.34375 103.03125 C 40.423152 106.81705 41.540796 109.98786 42.8125 111.65625 C 44.439631 113.79093 42.148127 109.13108 39.34375 103.03125 z M 79.53125 84.5 C 79.166352 84.712449 78.834349 84.939767 78.53125 85.1875 C 78.920433 85.188643 79.312892 85.204964 79.71875 85.21875 C 79.581068 85.030777 79.501947 84.779511 79.53125 84.5 z M 78.53125 85.1875 C 74.946454 85.176976 72.074666 85.696593 70.75 87.34375 C 70.516994 87.633481 70.441295 87.912184 70.46875 88.1875 C 71.834251 86.879151 74.336017 86.378044 77.4375 86.34375 C 77.727441 85.912161 78.100678 85.53942 78.53125 85.1875 z M 77.0625 87.1875 C 76.904756 87.383596 76.748446 87.597044 76.625 87.8125 C 74.665125 91.233165 88.26943 89.791824 98.5 88.625 C 96.983443 88.461352 95.408252 88.288847 93.78125 88.0625 C 85.433035 88.913848 76.952887 89.38433 77.0625 87.1875 z M 98.5 88.625 C 102.78251 89.087116 106.49638 89.221769 108.59375 88.28125 C 111.08651 87.163426 105.56771 87.818909 98.5 88.625 z M 59.34375 89.4375 C 58.060842 89.410292 56.95332 89.609936 56.09375 90.09375 C 55.574145 90.386213 55.436414 90.774911 55.59375 91.21875 C 57.5335 90.21266 60.656001 90.59677 64.28125 91.65625 C 65.153456 91.38366 66.188948 91.25564 67.34375 91.25 C 64.329424 90.204837 61.564836 89.484605 59.34375 89.4375 z M 67.34375 91.25 C 68.791607 91.752018 70.284606 92.351998 71.8125 92.96875 C 71.84408 92.974232 71.874595 92.963193 71.90625 92.96875 C 81.4007 94.6354 94.25207 99.638395 99.53125 98.25 C 100.66142 97.952772 100.33276 97.624362 99.09375 97.25 C 95.203819 97.660221 88.555413 95.735979 81.90625 93.96875 C 79.119238 93.411925 76.501486 92.816362 74.40625 92.15625 C 71.809334 91.61593 69.376235 91.240073 67.34375 91.25 z M 51.15625 92.78125 C 47.459327 94.35854 59.889487 103.37289 68 109.125 C 66.574454 107.6674 65.079308 106.03025 63.53125 104.28125 C 57.628713 99.948873 51.620759 95.123462 51.15625 92.78125 z M 68 109.125 C 70.135059 111.30806 72.1242 113.03731 73.75 113.75 C 75.998361 114.7356 72.707789 112.46384 68 109.125 z M 23.21875 93.4375 C 22.747736 96.329766 22.614338 98.8505 23.1875 100.59375 C 23.699391 102.15065 23.743954 101.0162 23.59375 98.5 C 23.475042 97.839157 23.4265 97.084106 23.4375 96.28125 C 23.370193 95.357222 23.30125 94.522755 23.21875 93.4375 z M 62.3125 93.5 C 62.228889 93.557438 62.140419 93.624756 62.0625 93.6875 C 62.019297 93.722289 61.973984 93.746548 61.9375 93.78125 C 63.927876 94.782582 66.006396 95.985944 68.09375 97.25 C 73.465048 98.501185 80.889148 99.54153 86.34375 100.3125 C 84.68242 99.745895 82.89011 99.032315 81 98.25 C 72.684631 97.006389 63.282363 95.355575 62.3125 93.5 z M 86.34375 100.3125 C 88.82364 101.15828 90.983189 101.69833 92.5625 101.625 C 94.776678 101.52219 91.406999 101.02815 86.34375 100.3125 z "
       id="path3774"
       transform="translate(661.67881,314.2257)" />
    <text
       xml:space="preserve"
       style="font-size:10px;font-style:normal;font-variant:normal;font-weight:normal;font-stretch:normal;line-height:125%;letter-spacing:0px;word-spacing:0px;fill:#000000;fill-opacity:1;stroke:none;font-family:Know Your Product;-inkscape-font-specification:Know Your Product"
       x="-44.547729"
       y="42.704109"
       id="text2996"
       sodipodi:linespacing="125%"
       transform="translate(661.67881,314.2257)"><tspan
         sodipodi:role="line"
         id="tspan2998"
         x="-44.547729"
         y="42.704109">3</tspan></text>
    <text
       xml:space="preserve"
       style="font-size:10px;font-style:normal;font-variant:normal;font-weight:normal;font-stretch:normal;line-height:125%;letter-spacing:0px;word-spacing:0px;fill:#000000;fill-opacity:1;stroke:none;font-family:Know Your Product;-inkscape-font-specification:Know Your Product"
       x="162.28101"
       y="35.986595"
       id="text3000"
       sodipodi:linespacing="125%"
       transform="translate(661.67881,314.2257)"><tspan
         sodipodi:role="line"
         id="tspan3002"
         x="162.28101"
         y="35.986595" /></text>
    <g
       id="g3892"
       transform="matrix(1.2706918,0,0,1.2706918,-322.96975,-143.09992)">
      <g
         id="g4176"
         transform="translate(-73.177489,0)">
        <path
           id="text3031"
           transform="matrix(0.78697289,0,0,0.78697289,774.89172,359.90287)"
           d="m 158.375,37.375 c -1.14991,1.323645 -0.75017,2.589983 1.21875,3.78125 l 0.5,0 c 0.45086,-0.330903 0.92642,-0.499994 1.40625,-0.5 0.1489,-0.612176 0.15763,-1.145174 0.0625,-1.625 l -0.25,-0.09375 -0.0625,-0.25 -0.15625,-0.0625 -0.1875,-0.15625 c -0.45087,-0.34331 -0.80192,-0.64565 -1.0625,-0.90625 -0.55842,0.01655 -1.04685,-0.0634 -1.46875,-0.1875 z m 11.125,0 c -0.0786,0.05378 -0.17142,0.09376 -0.25,0.09375 -0.21096,0.330918 -0.42278,0.573986 -0.6875,0.71875 -0.28955,0.512917 -0.67828,0.910371 -1.125,1.1875 -0.33091,0.55428 -0.72423,0.960461 -1.1875,1.25 l -0.15625,0.8125 c 0.11581,0.579096 0.15993,1.073958 0.0937,1.5 l 0.3125,0.3125 0.15625,0.15625 0.0625,0.3125 0.15625,0.25 c 0.091,0.05378 0.17095,0.10248 0.1875,0.15625 0.182,0.289548 0.34511,0.532616 0.53125,0.71875 l 0.0937,0.21875 0.15625,0.15625 0.0625,0.15625 0.1875,0.15625 0.0625,0.25 c 0.35986,0.397092 0.61165,0.741705 0.78125,1.03125 l 0.5625,0 c 0.47567,-0.289545 0.96181,-0.382363 1.4375,-0.25 1.37326,0 1.33329,-0.636385 -0.0937,-1.90625 l -0.15625,-0.21875 -0.15625,-0.15625 -0.15625,-0.25 -0.15625,-0.21875 -0.25,-0.1875 c -0.45087,-0.748679 -0.85705,-1.309245 -1.25,-1.71875 0.18199,-0.239904 0.34511,-0.430131 0.53125,-0.5625 l 0.0937,-0.15625 c 0.0538,-0.06618 0.10661,-0.106153 0.15625,-0.09375 0.52945,-1.071312 1.1787,-1.87081 1.96875,-2.4375 0.27713,-0.392946 0.45863,-0.750423 0.5,-1.09375 l -0.25,-0.09375 -0.15625,-0.09375 c -0.68664,0.107555 -1.28719,0.107555 -1.8125,0 l -0.0937,0 -0.15625,0 z m -37.4375,0.0625 c -0.23991,0.3061 -0.39016,0.585009 -0.46875,0.8125 0.0786,0.438463 0.11857,0.818917 0.0937,1.125 l 0,0.5625 c -0.0538,0.624598 -0.0538,1.155301 0,1.59375 l -0.0937,0.3125 c -0.0124,0.546005 -0.0124,0.98389 0,1.34375 L 131.5,43.34375 c 0.0786,0.372276 0.11857,0.704025 0.0937,0.96875 -0.0951,0.905866 -0.0951,1.635523 0,2.21875 0.27714,0.119955 0.51607,0.208636 0.71875,0.25 0.59564,-0.186136 1.12634,-0.274818 1.59375,-0.25 0.21095,-0.05377 0.35247,-0.164045 0.40625,-0.375 L 134.375,45.75 c -0.0786,-0.30609 -0.1273,-0.593726 -0.15625,-0.875 l -0.0625,-0.3125 c 0.0662,-0.426043 0.0749,-0.806497 0.0625,-1.125 l 0,-0.25 -0.0625,-1.03125 L 134.21875,42 c -0.0538,-0.359859 -0.0538,-0.691608 0,-0.96875 l 0,-0.625 0,-0.25 0,-1.03125 c 0.11995,-0.426038 0.16866,-0.806491 0.15625,-1.125 -0.10755,-0.173719 -0.16498,-0.323968 -0.21875,-0.46875 l -0.25,-0.09375 c -0.70732,0.0786 -1.32671,0.0786 -1.84375,0 z m 3.375,0 c -0.79832,0.678373 -0.8383,1.448007 -0.0937,2.3125 0.6949,0.02482 1.26559,0.113507 1.6875,0.25 -0.0496,0.99687 -0.57162,1.390187 -1.53125,1.1875 -0.0538,0.11996 -0.14246,0.208642 -0.25,0.25 L 135.1875,42 l 0,0.25 c -0.14891,0.384686 -0.19762,0.773867 -0.15625,1.1875 0.18613,0.289549 0.37636,0.532616 0.5625,0.71875 0.30609,0.335048 0.50504,0.662661 0.625,0.96875 0.51704,0.426047 0.89749,0.876796 1.125,1.40625 0.41363,0.161318 0.84279,0.201296 1.28125,0.09375 0.61217,0.306091 1.1029,0.217409 1.5,-0.25 -0.0951,-0.343318 -0.19669,-0.63509 -0.3125,-0.875 -0.2151,-0.198544 -0.36121,-0.388771 -0.46875,-0.5625 -0.7156,-0.492225 -1.1976,-1.08036 -1.4375,-1.8125 0.30608,-0.198542 0.60658,-0.331337 0.9375,-0.34375 0.7859,-1.104405 1.10479,-2.223243 0.90625,-3.40625 l -0.1875,-0.15625 c -0.3061,-0.587356 -0.6066,-1.056491 -0.9375,-1.375 l -0.96875,-0.21875 -0.25,-0.09375 -0.21875,0.09375 -0.15625,-0.09375 -1.59375,-0.09375 z m 10.25,0 c -0.29782,0.132373 -0.61257,0.212327 -0.90625,0.1875 -0.28128,0.161327 -0.52893,0.218759 -0.78125,0.21875 -1.82414,1.501508 -2.52393,3.31739 -2.09375,5.40625 0.56254,2.279139 1.92629,3.452659 4.09375,3.53125 l 0.46875,-0.34375 c -0.0124,-0.239909 -0.0611,-0.438863 -0.15625,-0.625 -0.0248,-0.405363 -0.0735,-0.728839 -0.15625,-0.96875 l -0.3125,-0.40625 c -1.183,-0.454998 -1.63514,-1.345018 -1.3125,-2.65625 0.1365,-1.100267 0.6989,-1.800061 1.6875,-2.09375 0.20268,-1.315356 0.0437,-2.063854 -0.53125,-2.25 z m 1.75,0 -0.3125,0.1875 -0.15625,2 c 1.20368,0.479825 1.81479,1.289891 1.84375,2.46875 -0.14892,1.183004 -0.71132,2.011457 -1.6875,2.4375 -0.0827,0.293684 -0.21139,0.528479 -0.34375,0.71875 l 0.0937,0.40625 0,0.21875 c 0.13236,0.297819 0.22104,0.572591 0.25,0.8125 0.30609,0 0.55374,-0.0087 0.78125,-0.0625 0.50877,-0.430182 1.01833,-0.70909 1.53125,-0.8125 0.2399,-0.177863 0.47011,-0.275272 0.65625,-0.3125 1.8779,-2.829271 1.63897,-5.353674 -0.71875,-7.5625 -0.74042,-0.281264 -1.39151,-0.458627 -1.9375,-0.5 z m 16.125,0.03125 c -0.27714,0.289555 -0.4715,0.59419 -0.5625,0.9375 l 0,0.40625 0.0937,0.5625 0,1.1875 L 163,40.71875 c 0.10341,0.421915 0.10341,0.815232 0,1.1875 l 0,1.90625 -0.0625,0.21875 0.0625,0.3125 c -0.0951,0.819002 -0.0552,1.508228 0.0937,2.0625 l 0.21875,0.15625 0.25,0.09375 c 0.5005,-0.115818 0.90668,-0.107091 1.25,0.0625 l 0.65625,0 0.3125,-0.625 0,-0.71875 c -0.16959,-0.736271 -0.21371,-1.38552 -0.0937,-1.96875 l -0.0625,-0.25 0.0625,-0.21875 -0.0625,-0.15625 0.0625,-0.25 C 165.6089,42.043163 165.6002,41.609869 165.625,41.25 l -0.0937,-0.15625 0.0937,-0.21875 c -0.0786,-0.727994 -0.0257,-1.364379 0.15625,-1.90625 0,-0.380538 0.009,-0.685173 0.0625,-0.9375 l -0.375,-0.46875 c -0.24818,-0.05376 -0.48252,-0.09374 -0.65625,-0.09375 -0.48809,0.09101 -0.89427,0.09101 -1.25,0 z M 156.5,37.5625 c -3.08573,1.096145 -4.3075,3.037459 -3.625,5.875 0.55841,1.844821 1.7402,2.977909 3.53125,3.375 0.26059,-0.206818 0.48252,-0.388772 0.65625,-0.5625 0.1944,-1.149908 -0.1695,-1.891975 -1.125,-2.21875 l -0.34375,-0.5 c -0.1365,-0.438451 -0.22105,-0.829473 -0.25,-1.15625 0.0538,-0.467405 0.13832,-0.827176 0.25,-1.125 1.55527,-1.038221 1.95502,-2.264582 1.21875,-3.6875 l -0.3125,0 z m 3.09375,5.40625 c -0.28542,0.314367 -0.46323,0.589594 -0.5625,0.875 L 158.875,43.9375 c -0.51705,0.244048 -0.9168,0.50182 -1.21875,0.75 -0.20682,1.609047 0.15295,2.19075 1.125,1.78125 1.31122,-0.202682 2.27522,-0.86893 2.875,-2.03125 l 0,-0.59375 -0.40625,-0.3125 c -0.43846,-0.111679 -0.78951,-0.289496 -1.0625,-0.5625 l -0.59375,0 z"
           style="font-size:10px;font-style:normal;font-variant:normal;font-weight:normal;font-stretch:normal;line-height:125%;letter-spacing:0px;word-spacing:0px;fill:#ffbd44;fill-opacity:1;stroke:url(#linearGradient4180);stroke-width:1.0165534;stroke-miterlimit:4;stroke-opacity:1;stroke-dasharray:none;font-family:Know Your Product;-inkscape-font-specification:Know Your Product"
           inkscape:connector-curvature="0" />
        <path
           id="text3823"
           transform="matrix(0.78697289,0,0,0.78697289,774.89172,359.90287)"
           d="m 158.21875,37.46875 c -1.14991,1.323642 -0.75016,2.558739 1.21875,3.75 l 0.46875,0 c 0.45085,-0.330901 0.92642,-0.468737 1.40625,-0.46875 0.0202,-0.08323 0.0156,-0.137947 0.0312,-0.21875 -0.32669,0.07027 -0.62474,0.14545 -0.9375,0.375 l -0.5,0 c -1.80057,-1.089415 -2.27649,-2.206132 -1.46875,-3.40625 -0.0774,-0.01728 -0.14543,-0.0098 -0.21875,-0.03125 z m 11.125,0 c -0.0787,0.05375 -0.17142,0.0625 -0.25,0.0625 -0.21096,0.330914 -0.45403,0.573993 -0.71875,0.71875 -0.28955,0.512915 -0.67828,0.910375 -1.125,1.1875 -0.33091,0.554276 -0.72423,0.99171 -1.1875,1.28125 L 165.90625,41.5 c 0.001,0.04117 -0.003,0.08269 0,0.125 0.0723,0.400408 0.11205,0.738181 0.0937,1.0625 -0.006,0.101909 0.0146,0.249363 0,0.34375 l 0.3125,0.3125 0.15625,0.15625 0.0937,0.3125 0.15625,0.25 c 0.091,0.05375 0.13971,0.1025 0.15625,0.15625 0.182,0.289553 0.37636,0.532619 0.5625,0.71875 l 0.0625,0.21875 0.15625,0.15625 0.0937,0.15625 0.15625,0.15625 0.0625,0.25 c 0.35986,0.397091 0.6429,0.74171 0.8125,1.03125 l 0.5625,0 c 0.47567,-0.28954 0.93057,-0.382368 1.40625,-0.25 0.581,0 0.88899,-0.116449 0.96875,-0.34375 -0.1372,0.02478 -0.2769,0.03125 -0.46875,0.03125 -0.47568,-0.132368 -0.96183,-0.03959 -1.4375,0.25 l -0.5625,0 c -0.1696,-0.28954 -0.42139,-0.634159 -0.78125,-1.03125 l -0.0937,-0.25 -0.15625,-0.15625 L 168.125,45 l -0.15625,-0.15625 -0.0625,-0.25 c -0.18614,-0.186131 -0.3805,-0.397947 -0.5625,-0.6875 -0.0165,-0.05375 -0.0653,-0.13375 -0.15625,-0.1875 L 167.03125,43.5 l -0.0937,-0.3125 -0.15625,-0.15625 -0.3125,-0.34375 c 0.0662,-0.426038 0.0533,-0.920908 -0.0625,-1.5 l 0.15625,-0.78125 c 0.46327,-0.28954 0.85659,-0.726974 1.1875,-1.28125 0.44672,-0.277125 0.8042,-0.674585 1.09375,-1.1875 0.18599,-0.101679 0.34156,-0.274289 0.5,-0.46875 z m -37.46875,0.0625 c -0.23991,0.306097 -0.39016,0.585008 -0.46875,0.8125 0.0785,0.438465 0.11853,0.787666 0.0937,1.09375 l 0,0.5625 c -0.0538,0.624596 -0.0538,1.155298 0,1.59375 l -0.0937,0.3125 c -0.0127,0.546004 -0.0127,0.98389 0,1.34375 l -0.0625,0.15625 c 0.0785,0.372275 0.0873,0.735277 0.0625,1 -0.0952,0.905863 -0.0952,1.635528 0,2.21875 0.27714,0.119953 0.51606,0.208639 0.71875,0.25 0.59564,-0.186131 1.12634,-0.274817 1.59375,-0.25 0.17579,-0.04485 0.2771,-0.15853 0.34375,-0.3125 -0.43835,-0.0064 -0.92259,0.07935 -1.46875,0.25 -0.20269,-0.04142 -0.44161,-0.130047 -0.71875,-0.25 -0.0952,-0.583222 -0.0952,-1.312887 0,-2.21875 0.0248,-0.264723 0.0161,-0.627725 -0.0625,-1 l 0.0625,-0.15625 c -0.0127,-0.35986 -0.0127,-0.797746 0,-1.34375 l 0.0937,-0.3125 c -0.0538,-0.438452 -0.0538,-0.969154 0,-1.59375 l 0,-0.5625 c 0.0248,-0.306084 -0.0152,-0.686535 -0.0937,-1.125 0.0502,-0.145189 0.16538,-0.291539 0.28125,-0.46875 -0.0869,-0.0089 -0.19916,0.01271 -0.28125,0 z m 3.375,0 c -0.28733,0.244151 -0.50629,0.481732 -0.59375,0.75 -0.004,0.01144 0.004,0.05132 0,0.0625 -0.13734,0.467602 0.0659,0.959689 0.53125,1.5 0.6949,0.02478 1.23433,0.113528 1.65625,0.25 -0.0186,0.373825 -0.0721,0.66986 -0.21875,0.875 0.44017,-0.130182 0.6543,-0.552094 0.6875,-1.21875 -0.42192,-0.136498 -0.96135,-0.193921 -1.65625,-0.21875 -0.62561,-0.726391 -0.7137,-1.405011 -0.25,-2 l -0.15625,0 z m 12,0 -0.3125,0.15625 -0.15625,2 c 1.20368,0.479826 1.84604,1.321141 1.875,2.5 -0.10572,0.840004 -0.44591,1.479149 -0.96875,1.9375 0.80054,-0.451947 1.3038,-1.18788 1.4375,-2.25 -0.029,-1.178859 -0.67132,-2.020174 -1.875,-2.5 l 0.15625,-1.8125 c -0.0496,-0.0051 -0.10822,-0.02769 -0.15625,-0.03125 z m 16.125,0 c -0.27714,0.289553 -0.47151,0.625447 -0.5625,0.96875 l 0,0.375 0.0937,0.5625 0,1.1875 -0.0937,0.15625 c 0.10343,0.421921 0.10343,0.846488 0,1.21875 l 0,1.90625 -0.0625,0.21875 0.0625,0.3125 c -0.0952,0.818999 -0.0552,1.508224 0.0937,2.0625 l 0.21875,0.15625 0.25,0.0625 c 0.5005,-0.115887 0.93793,-0.107137 1.28125,0.0625 l 0.625,0 0.15625,-0.3125 -0.3125,0 c -0.34332,-0.169587 -0.78075,-0.178324 -1.28125,-0.0625 l -0.21875,-0.0625 -0.25,-0.15625 c -0.14891,-0.554276 -0.18889,-1.243501 -0.0937,-2.0625 l -0.0625,-0.3125 0.0625,-0.25 0,-1.90625 c 0.10343,-0.372262 0.10343,-0.765579 0,-1.1875 l 0.0937,-0.15625 0,-1.1875 -0.0937,-0.5625 0,-0.375 c 0.0569,-0.214569 0.21416,-0.431423 0.34375,-0.625 -0.0768,-0.01144 -0.17855,-0.01308 -0.25,-0.03125 z m -19.40625,0.375 c -0.0521,0.0064 -0.1053,0.03125 -0.15625,0.03125 -1.82414,1.501513 -2.52393,3.317385 -2.09375,5.40625 0.56255,2.279138 1.92629,3.452658 4.09375,3.53125 l 0.4375,-0.3125 c -2.14418,-0.09162 -3.47218,-1.266216 -4.03125,-3.53125 -0.40329,-1.958301 0.17195,-3.682917 1.75,-5.125 z m 10.75,0.5 c -1.86751,1.155554 -2.57748,2.853994 -2.03125,5.125 0.55841,1.844816 1.7402,2.977909 3.53125,3.375 0.15463,-0.122749 0.28221,-0.232679 0.40625,-0.34375 -1.74161,-0.413991 -2.91953,-1.529291 -3.46875,-3.34375 -0.49687,-2.065776 0.0621,-3.669678 1.5625,-4.8125 z m -8.65625,1.28125 c -0.15059,0.07878 -0.28327,0.176329 -0.40625,0.28125 0.12819,-0.0615 0.25922,-0.175076 0.40625,-0.21875 0.005,-0.02961 -0.004,-0.0334 0,-0.0625 z m -10.71875,1.59375 c -0.0538,0.119953 -0.14246,0.177389 -0.25,0.21875 l -0.0625,0.5625 0,0.25 c -0.14891,0.384689 -0.19762,0.805114 -0.15625,1.21875 0.18613,0.289553 0.34511,0.501369 0.53125,0.6875 0.30608,0.335043 0.5363,0.662666 0.65625,0.96875 0.51704,0.42605 0.86625,0.908041 1.09375,1.4375 0.41364,0.161314 0.84279,0.201301 1.28125,0.09375 0.59186,0.295931 1.07792,0.20833 1.46875,-0.21875 -0.29282,0.100003 -0.6276,0.09241 -1,-0.09375 -0.43846,0.107501 -0.83636,0.0675 -1.25,-0.09375 -0.2275,-0.529459 -0.60796,-1.01145 -1.125,-1.4375 -0.11995,-0.306084 -0.31892,-0.633707 -0.625,-0.96875 -0.18614,-0.186131 -0.37637,-0.397947 -0.5625,-0.6875 -0.0414,-0.413636 0.008,-0.834061 0.15625,-1.21875 l 0,-0.25 0.0625,-0.46875 c -0.0817,-0.0089 -0.12914,0.01893 -0.21875,0 z m 3.5,1.34375 c -0.21509,0.04968 -0.45219,0.08634 -0.65625,0.21875 0.0127,0.03787 0.0489,0.08777 0.0625,0.125 0.14721,-0.04524 0.28502,-0.119282 0.4375,-0.125 0.0573,-0.08056 0.10415,-0.137769 0.15625,-0.21875 z m 20.59375,0.40625 c -0.25997,0.286338 -0.45697,0.550191 -0.5625,0.8125 0.0967,-0.05006 0.17558,-0.106439 0.28125,-0.15625 l 0.15625,-0.0625 c 0.0662,-0.190273 0.22609,-0.390605 0.375,-0.59375 l -0.25,0 z m -12.03125,1.3125 c -0.14624,0.09848 -0.29685,0.174978 -0.46875,0.25 -0.0827,0.293682 -0.18014,0.528477 -0.3125,0.71875 l 0.0625,0.40625 c 0.004,0.01144 -0.004,0.0202 0,0.03125 0.0473,0.13909 0.0852,0.273174 0.0937,0.4375 0.0728,0.199753 0.13566,0.423249 0.15625,0.59375 0.30608,0 0.55375,-0.0087 0.78125,-0.0625 0.14171,-0.119826 0.29547,-0.218037 0.4375,-0.3125 -0.21994,0.04854 -0.45906,0.0625 -0.75,0.0625 -0.029,-0.239907 -0.0863,-0.545925 -0.21875,-0.84375 l 0,-0.21875 L 147.09375,45 c 0.12631,-0.181544 0.23139,-0.380561 0.3125,-0.65625 z m 10.53125,0.09375 c -0.17117,0.106738 -0.33794,0.204987 -0.46875,0.3125 -0.20682,1.609052 0.15295,2.222006 1.125,1.8125 0.73756,-0.113981 1.36254,-0.394862 1.875,-0.8125 -0.41066,0.234621 -0.85051,0.41893 -1.375,0.5 -0.97205,0.409506 -1.36307,-0.203448 -1.15625,-1.8125 z M 150,45.40625 c -0.0839,0.0474 -0.15836,0.08827 -0.25,0.15625 -0.39931,0.08056 -0.7907,0.315189 -1.1875,0.59375 0.24363,-0.123638 0.47418,-0.231934 0.71875,-0.28125 0.23991,-0.177859 0.43886,-0.275269 0.625,-0.3125 0.0349,-0.05261 0.0603,-0.103897 0.0937,-0.15625 z"
           style="font-size:10px;font-style:normal;font-variant:normal;font-weight:normal;font-stretch:normal;line-height:125%;letter-spacing:0px;word-spacing:0px;opacity:0.93999999;fill:#ffbd44;fill-opacity:1;stroke:url(#linearGradient4182);stroke-width:1.0165534;stroke-miterlimit:4;stroke-opacity:1;stroke-dasharray:none;filter:url(#filter3886);font-family:Know Your Product;-inkscape-font-specification:Know Your Product"
           inkscape:connector-curvature="0" />
      </g>
    </g>
    <g
       id="g4041"
       transform="matrix(1.0463354,0,0,1.0463354,-33.281033,-18.692696)">
      <g
         id="g4184"
         transform="translate(127.22677,19.006439)">
        <text
           sodipodi:linespacing="125%"
           id="text3901"
           y="396.67941"
           x="711.66425"
           style="font-size:41.06680679px;font-style:normal;font-variant:normal;font-weight:normal;font-stretch:normal;line-height:125%;letter-spacing:0px;word-spacing:0px;fill:#ffbd44;fill-opacity:1;stroke:url(#linearGradient4189);stroke-width:4.10668039;stroke-miterlimit:4;stroke-opacity:1;stroke-dasharray:none;font-family:Know Your Product;-inkscape-font-specification:Know Your Product"
           xml:space="preserve"><tspan
             y="396.67941"
             x="711.66425"
             id="tspan3903"
             sodipodi:role="line"
             style="stroke:url(#linearGradient4189);stroke-width:4.10668039">1</tspan></text>
        <path
           style="font-size:10px;font-style:normal;font-variant:normal;font-weight:normal;font-stretch:normal;line-height:125%;letter-spacing:0px;word-spacing:0px;fill:#ffbd44;fill-opacity:1;stroke:url(#linearGradient4191);stroke-width:1;stroke-miterlimit:4;stroke-opacity:1;stroke-dasharray:none;filter:url(#filter4037);font-family:Know Your Product;-inkscape-font-specification:Know Your Product"
           d="m 794.26128,380.2263 c -0.51432,0.53386 -0.80208,1.10026 -0.90625,1.71875 0.38086,0.39063 0.81966,0.51823 1.34375,0.375 l 0.0625,0.375 -0.0625,0.25 c 0.01,0.43294 -0.0104,0.76432 -0.0625,1.03125 l -0.0625,0.5625 0.0625,0.6875 c -0.0716,0.33203 -0.0951,0.59961 -0.0625,0.84375 -0.10417,0.29948 -0.14779,0.57487 -0.125,0.8125 l 0.3125,0.6875 c 0.23437,-0.0423 0.44922,-0.10612 0.625,-0.1875 0.39062,0.12369 0.722,0.14388 1.03125,0.0625 l 0.0312,-0.15625 c -0.23885,0.0171 -0.5003,-0.005 -0.78125,-0.0937 -0.17578,0.0814 -0.35938,0.14518 -0.59375,0.1875 l -0.3125,-0.65625 c -0.0228,-0.23763 0.0208,-0.51302 0.125,-0.8125 -0.0326,-0.24414 -0.009,-0.54297 0.0625,-0.875 l -0.0625,-0.6875 0.0625,-0.53125 c 0.0521,-0.26693 0.0723,-0.62956 0.0625,-1.0625 l 0.0625,-0.25 -0.0625,-0.375 c -0.52409,0.14323 -0.99414,0.0156 -1.375,-0.375 0.0901,-0.53478 0.35329,-1.0285 0.75,-1.5 -0.0417,-0.01 -0.0845,-0.0202 -0.125,-0.0312 z"
           id="text3004"
           inkscape:connector-curvature="0"
           transform="matrix(4.1066806,0,0,4.1066806,-2546.3009,-1194.7345)" />
      </g>
    </g>
    <g
       id="g4131"
       transform="translate(18.385738,-54.422874)">
      <text
         sodipodi:linespacing="125%"
         id="text3008"
         y="366.17999"
         x="827.89966"
         style="font-size:45.07991409px;font-style:normal;font-variant:normal;font-weight:normal;font-stretch:normal;line-height:125%;letter-spacing:0px;word-spacing:0px;fill:#ffbd44;fill-opacity:1;stroke:url(#linearGradient4141);stroke-width:3.31778145;stroke-linejoin:round;stroke-miterlimit:4;stroke-dasharray:none;font-family:Know Your Product;-inkscape-font-specification:Know Your Product"
         xml:space="preserve"><tspan
           style="stroke:url(#linearGradient4141);stroke-width:3.31778145;stroke-linejoin:round;stroke-miterlimit:4;stroke-dasharray:none"
           y="366.17999"
           x="827.89966"
           id="tspan3010"
           sodipodi:role="line">2</tspan></text>
      <path
         inkscape:connector-curvature="0"
         id="text4062"
         d="m 844.1705,334.33923 -1.375,1.34375 0,2.1875 c -0.67504,3.03764 -0.67504,5.85482 0,8.4375 l -0.8125,0.8125 -0.8125,0.8125 -0.8125,0.8125 -1.09375,0.8125 -0.53125,1.0625 -0.8125,0.5625 c -0.90983,1.21799 -1.84019,2.13178 -2.75,2.71875 l -0.53125,0.8125 c -1.04189,1.40876 -1.94101,2.50351 -2.71875,3.28125 l -0.53125,0.8125 c -1.21798,1.17396 -2.13177,2.25214 -2.71875,3.25 l 0.53125,4.0625 0.84375,0.3125 0.8125,0 0.8125,-0.3125 0.8125,0 c 1.35004,0.13207 2.50213,0.13207 3.5,0 0.19076,-0.30816 0.3864,-0.48723 0.5625,-0.53125 0.0245,-0.0757 0.0375,-0.14431 0.0625,-0.21875 -0.86273,0.0664 -1.81227,0.0445 -2.90625,-0.0625 l -0.8125,0 -0.8125,0.3125 -0.8125,0 -0.84375,-0.3125 -0.53125,-4.0625 c 0.58698,-0.99786 1.46952,-2.07604 2.6875,-3.25 l 0.5625,-0.8125 c 0.77774,-0.77774 1.67686,-1.87249 2.71875,-3.28125 l 0.53125,-0.8125 c 0.90981,-0.58697 1.84017,-1.50076 2.75,-2.71875 l 0.8125,-0.53125 0.53125,-1.09375 1.09375,-0.8125 0.8125,-0.8125 0.8125,-0.8125 0.8125,-0.8125 c -0.67504,-2.58268 -0.67504,-5.39986 0,-8.4375 l 0,-2.1875 0.46875,-0.4375 c -0.10673,-0.0291 -0.20382,-0.0661 -0.3125,-0.0937 z m -12.8125,2.3125 c -0.16944,0.0371 -0.33162,0.0944 -0.5,0.125 l -1.9375,1.90625 -0.25,1.90625 c -0.67502,2.49468 -0.87066,4.93716 -0.5625,7.34375 l 0.8125,1.0625 c 3.39767,0.3928 5.7891,-0.0428 7.15625,-1.3125 -1.40508,0.63467 -3.39882,0.7935 -5.9375,0.5 l -0.8125,-1.0625 c -0.30816,-2.40659 -0.11252,-4.84907 0.5625,-7.34375 l 0.25,-1.90625 1.21875,-1.21875 z m 20.75,12 c -0.2382,0.12666 -0.48839,0.23249 -0.75,0.34375 -0.0923,0.12227 -0.20897,0.25091 -0.3125,0.375 0.39568,-0.22082 0.73431,-0.45352 1.0625,-0.71875 z m -7.875,7.1875 c -0.0902,0.0913 -0.19103,0.21109 -0.28125,0.3125 l 0.21875,-0.0937 0.0625,-0.21875 z m 1,2.40625 c -0.36688,0.58698 -0.80081,1.05217 -1.34375,1.375 -0.58699,0.85112 -1.23124,1.46412 -1.90625,1.875 -0.49894,1.12994 -1.23367,1.96982 -2.1875,2.46875 l -0.25,1.625 c 2.80281,1.39407 5.49826,1.57313 8.125,0.53125 2.63088,0.53522 4.40902,0.2555 5.34375,-0.8125 -0.99982,0.35462 -2.3729,0.35644 -4.125,0 -2.62674,1.04188 -5.32219,0.86282 -8.125,-0.53125 l 0.25,-1.625 c 0.95383,-0.49893 1.68856,-1.33881 2.1875,-2.46875 0.67501,-0.41088 1.31926,-1.02388 1.90625,-1.875 0.21584,-0.12834 0.40573,-0.29867 0.59375,-0.46875 -0.15468,-0.0317 -0.31653,-0.0557 -0.46875,-0.0937 z"
         style="font-size:45.07991409px;font-style:normal;font-variant:normal;font-weight:normal;font-stretch:normal;line-height:125%;letter-spacing:0px;word-spacing:0px;fill:#ffbd44;fill-opacity:1;stroke:url(#linearGradient4143);stroke-width:3.31778145;stroke-linejoin:round;stroke-miterlimit:4;stroke-opacity:1;stroke-dasharray:none;filter:url(#filter4079);font-family:Know Your Product;-inkscape-font-specification:Know Your Product" />
    </g>
    <g
       id="g4136"
       transform="matrix(0.69075065,0,0,0.69075065,185.50254,105.33759)">
      <text
         xml:space="preserve"
         style="font-size:66.80397034px;font-style:normal;font-variant:normal;font-weight:normal;font-stretch:normal;line-height:125%;letter-spacing:0px;word-spacing:0px;fill:#ffbd44;fill-opacity:1;stroke:url(#linearGradient4145);stroke-width:4.4000001;stroke-miterlimit:4;stroke-dasharray:none;font-family:Know Your Product;-inkscape-font-specification:Know Your Product"
         x="889.90857"
         y="382.37161"
         id="text4110"
         sodipodi:linespacing="125%"><tspan
           sodipodi:role="line"
           id="tspan4112"
           x="889.90857"
           y="382.37161"
           style="stroke:url(#linearGradient4145);stroke-width:4.4000001;stroke-miterlimit:4;stroke-dasharray:none">3</tspan></text>
      <path
         sodipodi:nodetypes="cccccccccccccccccccccccccccccccccccccc"
         inkscape:connector-curvature="0"
         id="text4103"
         d="m 904.4126,334.00695 c -12.56924,3.95783 -16.86404,10.2921 -12.90625,18.96875 2.95746,-0.73934 5.65818,-0.88463 8.09375,-0.40625 0.12431,-0.21333 0.24421,-0.42217 0.375,-0.625 -2.04926,-0.19783 -4.26612,0.0275 -6.65625,0.625 -3.79252,-8.31434 0.0231,-14.45612 11.40625,-18.4375 -0.10344,-0.0414 -0.20486,-0.0864 -0.3125,-0.125 z m 8.31616,1.82754 c -0.97828,1.22164 -1.93305,1.79417 -2.37866,2.95371 0.0723,1.10836 -0.10555,2.36476 -0.5,3.78125 0.35233,2.5618 2.1747,4.93737 5.46875,7.15625 l 0.375,3.25 c -1.23138,0.85626 -2.49177,1.47134 -3.78125,1.875 1.93319,-0.28152 3.81705,-1.02406 5.625,-2.28125 l -0.40625,-3.25 c -6.05348,-4.07764 -7.58774,-7.71837 -3.70659,-12.9541 -0.46342,-0.0507 -0.20687,-0.50456 -0.696,-0.53086 z m -7.50366,19.14121 c -1.76145,2.21813 -2.44444,4.52645 -2.03125,6.875 l 2.4375,2.8125 c 3.76205,-0.73935 6.57682,0.35779 8.46875,3.25 -3.4359,5.78447 -3.9736,10.07926 -1.625,12.90625 2.74635,0.17471 5.11523,-0.0474 7.125,-0.625 -1.58434,0.25822 -3.35331,0.34338 -5.3125,0.21875 -2.3486,-2.82699 -1.8109,-7.12178 1.625,-12.90625 -1.89193,-2.89221 -4.7067,-3.98935 -8.46875,-3.25 l -2.40625,-2.8125 c -0.37138,-2.11089 0.14585,-4.18198 1.53125,-6.1875 -0.44584,-0.0662 -0.89173,-0.16691 -1.34375,-0.28125 z m -12.09375,9.6875 c -4.63192,3.4359 -5.42895,7.3478 -2.40625,11.71875 2.41381,4.76239 6.17091,7.03946 11.28125,6.84375 1.24702,0.0637 2.2781,-0.0543 3.125,-0.40625 -0.40625,0.0333 -0.85159,0.0235 -1.3125,0 -5.11034,0.19571 -8.86744,-2.08136 -11.28125,-6.84375 -2.89822,-4.19095 -2.26392,-7.94993 1.875,-11.28125 -0.44728,-0.0239 -0.86997,-0.0537 -1.28125,-0.0312 z"
         style="font-size:66.80397034px;font-style:normal;font-variant:normal;font-weight:normal;font-stretch:normal;line-height:125%;letter-spacing:0px;word-spacing:0px;fill:#ffbd44;fill-opacity:1;stroke:url(#linearGradient4147);stroke-width:4.4000001;stroke-miterlimit:4;stroke-dasharray:none;filter:url(#filter4121);font-family:Know Your Product;-inkscape-font-specification:Know Your Product" />
    </g>
  </g>
</svg>
