<?xml version="1.0" encoding="UTF-8" standalone="no"?>
<!-- Generated by Microsoft Visio 11.0, SVG Export, v1.0 tomvector.svg Page-1 -->

<svg
   xmlns:v="http://schemas.microsoft.com/visio/2003/SVGExtensions/"
   xmlns:dc="http://purl.org/dc/elements/1.1/"
   xmlns:cc="http://creativecommons.org/ns#"
   xmlns:rdf="http://www.w3.org/1999/02/22-rdf-syntax-ns#"
   xmlns:svg="http://www.w3.org/2000/svg"
   xmlns="http://www.w3.org/2000/svg"
   xmlns:sodipodi="http://sodipodi.sourceforge.net/DTD/sodipodi-0.dtd"
   xmlns:inkscape="http://www.inkscape.org/namespaces/inkscape"
   width="25.106209"
   height="24.090033"
   viewBox="0 0 20.084963 19.272018"
   xml:space="preserve"
   color-interpolation-filters="sRGB"
   class="st11"
   id="svg2"
   version="1.1"
   inkscape:version="0.48.4 r9939"
   sodipodi:docname="rock.svg"
   inkscape:export-filename="C:\Users\Schmid\Desktop\rock.png"
   inkscape:export-xdpi="90"
   inkscape:export-ydpi="90"
   style="font-size:12px;fill:none;stroke-linecap:square;stroke-miterlimit:3;overflow:visible"><metadata
   id="metadata242"><rdf:RDF><cc:Work
       rdf:about=""><dc:format>image/svg+xml</dc:format><dc:type
         rdf:resource="http://purl.org/dc/dcmitype/StillImage" /><dc:title></dc:title></cc:Work></rdf:RDF></metadata><defs
   id="defs240" /><sodipodi:namedview
   pagecolor="#ffffff"
   bordercolor="#666666"
   borderopacity="1"
   objecttolerance="10"
   gridtolerance="10"
   guidetolerance="10"
   inkscape:pageopacity="0"
   inkscape:pageshadow="2"
   inkscape:window-width="1360"
   inkscape:window-height="706"
   id="namedview238"
   showgrid="false"
   fit-margin-top="0"
   fit-margin-left="0"
   fit-margin-right="0"
   fit-margin-bottom="0"
   inkscape:zoom="5.214027"
   inkscape:cx="31.970962"
   inkscape:cy="8.6422234"
   inkscape:window-x="-8"
   inkscape:window-y="-8"
   inkscape:window-maximized="1"
   inkscape:current-layer="svg2" />
	<v:documentProperties
   v:langID="1043"
   v:metric="true"
   v:viewMarkup="false" />

	<style
   type="text/css"
   id="style4">
	
		.st1 {fill:#3b4e51;stroke:none;stroke-linecap:round;stroke-linejoin:round;stroke-width:0.72}
		.st2 {fill:#000000;fill-opacity:0.3;stroke:none;stroke-linecap:round;stroke-linejoin:round;stroke-width:0.72}
		.st3 {fill:#495d64;stroke:none;stroke-linecap:round;stroke-linejoin:round;stroke-width:0.72}
		.st4 {fill:#5a7377;stroke:none;stroke-linecap:round;stroke-linejoin:round;stroke-width:0.72}
		.st5 {fill:#6c8b92;stroke:none;stroke-linecap:round;stroke-linejoin:round;stroke-width:0.72}
		.st6 {fill:#97aaaf;stroke:none;stroke-linecap:round;stroke-linejoin:round;stroke-width:0.72}
		.st7 {fill:#afbec2;stroke:none;stroke-linecap:round;stroke-linejoin:round;stroke-width:0.72}
		.st8 {fill:#849da0;stroke:none;stroke-linecap:round;stroke-linejoin:round;stroke-width:0.72}
		.st9 {fill:#000000;fill-opacity:0.15;stroke:none;stroke-linecap:round;stroke-linejoin:round;stroke-width:0.72}
		.st10 {fill:#000000;fill-opacity:0.098;stroke:none;stroke-linecap:round;stroke-linejoin:round;stroke-width:0.72}
		.st11 {fill:none;fill-rule:evenodd;font-size:12;overflow:visible;stroke-linecap:square;stroke-miterlimit:3}
	
	</style>

	
<g
   v:mID="0"
   v:index="1"
   v:groupContext="foregroundPage"
   id="g6"
   transform="matrix(0.03592024,0,0,0.03592024,-0.55202338,-0.78755667)">
		<title
   id="title8">Page-1</title>
		<v:pageProperties
   v:drawingScale="0.0393701"
   v:pageScale="0.0393701"
   v:drawingUnits="24"
   v:shadowOffsetX="8.50394"
   v:shadowOffsetY="-8.50394" />
		<g
   id="group22-1"
   transform="translate(15.3683,-20.9122)"
   v:mID="22"
   v:groupContext="group">
			<title
   id="title11">Sheet.22</title>
			<g
   id="shape3-2"
   v:mID="3"
   v:groupContext="shape"
   transform="matrix(0.99604107,-0.0888943,0.0888943,0.99604107,-42.3184,19.1612)">
				<title
   id="title14">Sheet.3</title>
				<path
   d="M 189.75,579.36 A 221.655,221.655 -180 0 0 63.25,471.84 234.83,234.83 -180 0 0 48.49,303.17 L 0,476.05 21.08,514 189.75,579.36 z"
   class="st1"
   id="path16"
   inkscape:connector-curvature="0"
   style="fill:#3b4e51;stroke:none" />
			</g>
			<g
   id="shape4-4"
   v:mID="4"
   v:groupContext="shape"
   transform="matrix(0.99604107,-0.0888943,0.0888943,0.99604107,-49.6051,-78.3714)">
				<title
   id="title19">Sheet.4</title>
				<path
   d="M 1.65,579.36 A 8.4365,8.4365 -180 0 0 0,576.39 129.287,129.287 0 0 1 24.94,541.17 L 1.65,579.36 z"
   class="st2"
   id="path21"
   inkscape:connector-curvature="0"
   style="fill:#000000;fill-opacity:0.3;stroke:none" />
			</g>
			<g
   id="shape7-6"
   v:mID="7"
   v:groupContext="shape"
   transform="matrix(0.99604107,-0.0888943,0.0888943,0.99604107,241.802,10.7874)">
				<title
   id="title24">Sheet.7</title>
				<path
   d="M 222.26,513.95 A 1274.46,1274.46 -180 0 0 0,570.83 l 95.55,8.53 126.71,-65.41 z"
   class="st3"
   id="path26"
   inkscape:connector-curvature="0"
   style="fill:#495d64;stroke:none" />
			</g>
			<g
   id="shape8-8"
   v:mID="8"
   v:groupContext="shape"
   transform="matrix(0.99604107,-0.0888943,0.0888943,0.99604107,6.72673,23.2059)">
				<title
   id="title29">Sheet.8</title>
				<path
   d="M 457.51,522.48 235.25,579.36 141.26,570.97 14.76,463.45 0,294.78 94.87,115.57 210.83,38.53 a 97.1014,97.1014 0 0 1 13.07,77.04 144.645,144.645 0 0 1 50.18,94.88 364.121,364.121 0 0 1 126.5,158.12 87.6519,87.6519 0 0 1 10.54,73.79 105.088,105.088 0 0 1 46.39,80.12 z"
   class="st4"
   id="path31"
   inkscape:connector-curvature="0"
   style="fill:#5a7377;stroke:none" />
			</g>
			<g
   id="shape9-10"
   v:mID="9"
   v:groupContext="shape"
   transform="matrix(0.99604107,-0.0888943,0.0888943,0.99604107,224.688,-53.3525)">
				<title
   id="title34">Sheet.9</title>
				<path
   d="m 0,172.45 50.18,94.88 126.5,158.12 10.54,73.79 46.38,80.12 A 791.117,791.117 -180 0 0 214.63,330.58 165.822,165.822 -180 0 0 140.84,208.3 305.926,305.926 -180 0 0 0,172.45 z"
   class="st5"
   id="path36"
   inkscape:connector-curvature="0"
   style="fill:#6c8b92;stroke:none" />
			</g>
			<g
   id="shape10-12"
   v:mID="10"
   v:groupContext="shape"
   transform="matrix(0.99604107,-0.0888943,0.0888943,0.99604107,438.465,-72.4317)">
				<title
   id="title39">Sheet.10</title>
				<path
   d="M 18.97,579.36 0,330.58 a 77.4592,77.4592 0 0 1 82.22,-10.54 l -8.43,210.83 -54.82,48.49 z"
   class="st6"
   id="path41"
   inkscape:connector-curvature="0"
   style="fill:#97aaaf;stroke:none" />
			</g>
			<g
   id="shape11-14"
   v:mID="11"
   v:groupContext="shape"
   transform="matrix(0.99604107,-0.0888943,0.0888943,0.99604107,342.851,-313.669)">
				<title
   id="title44">Sheet.11</title>
				<path
   d="M 0,457.08 A 85.6524,85.6524 0 0 1 29.52,402.26 L 156.02,568.82 73.79,579.36 0,457.08 z"
   class="st7"
   id="path46"
   inkscape:connector-curvature="0"
   style="fill:#afbec2;stroke:none" />
			</g>
			<g
   id="shape12-16"
   v:mID="12"
   v:groupContext="shape"
   transform="matrix(0.99604107,-0.0888943,0.0888943,0.99604107,178.682,-421.786)">
				<title
   id="title49">Sheet.12</title>
				<path
   d="m 0,466.47 13.07,77.05 140.84,35.84 29.51,-54.82 L 0,466.47 z"
   class="st8"
   id="path51"
   inkscape:connector-curvature="0"
   style="fill:#849da0;stroke:none" />
			</g>
			<g
   id="shape13-18"
   v:mID="13"
   v:groupContext="shape"
   transform="matrix(0.99604107,-0.0888943,0.0888943,0.99604107,245.517,-206.556)">
				<title
   id="title54">Sheet.13</title>
				<path
   d="m 94.28,516.16 a 796.912,796.912 -180 0 0 39.6,-26.4 L 88.73,509.22 A 751.604,751.604 0 0 1 0,579.36 460.305,460.305 -180 0 0 94.28,516.16 z"
   class="st9"
   id="path56"
   inkscape:connector-curvature="0"
   style="fill:#000000;fill-opacity:0.15;stroke:none" />
			</g>
			<g
   id="shape14-20"
   v:mID="14"
   v:groupContext="shape"
   transform="matrix(0.99604107,-0.0888943,0.0888943,0.99604107,77.6105,-131.244)">
				<title
   id="title59">Sheet.14</title>
				<path
   d="m 215.49,390.16 a 143.401,143.401 0 0 1 32.24,-5.82 96.6311,96.6311 0 0 1 -28.21,10.86 286.146,286.146 0 0 1 -59.29,73.47 A 1040.37,1040.37 0 0 1 0,579.36 1405.74,1405.74 -180 0 0 156.02,463.4 228.379,228.379 -180 0 0 215.49,390.16 z"
   class="st9"
   id="path61"
   inkscape:connector-curvature="0"
   style="fill:#000000;fill-opacity:0.15;stroke:none" />
			</g>
			<g
   id="shape15-22"
   v:mID="15"
   v:groupContext="shape"
   transform="matrix(0.99604107,-0.0888943,0.0888943,0.99604107,173.323,-7.49269)">
				<title
   id="title64">Sheet.15</title>
				<path
   d="m 0,579.36 a 328.859,328.859 -180 0 0 89.6,-31.62 l 17.92,15.81 a 376.63,376.63 -180 0 0 100.15,-42.17 924.7,924.7 0 0 1 -99.09,34.79 L 90.66,540.36 A 1007.61,1007.61 0 0 1 0,579.36 z"
   class="st9"
   id="path66"
   inkscape:connector-curvature="0"
   style="fill:#000000;fill-opacity:0.15;stroke:none" />
			</g>
			<g
   id="shape16-24"
   v:mID="16"
   v:groupContext="shape"
   transform="matrix(0.99604107,-0.0888943,0.0888943,0.99604107,114.394,-39.2757)">
				<title
   id="title69">Sheet.16</title>
				<path
   d="M 0,579.36 A 271.193,271.193 -180 0 0 115.96,531.92 1293.43,1293.43 0 0 1 0,579.36 z"
   class="st9"
   id="path71"
   inkscape:connector-curvature="0"
   style="fill:#000000;fill-opacity:0.15;stroke:none" />
			</g>
			<g
   id="shape17-26"
   v:mID="17"
   v:groupContext="shape"
   transform="matrix(0.99604107,-0.0888943,0.0888943,0.99604107,-0.439767,-258.689)">
				<title
   id="title74">Sheet.17</title>
				<path
   d="M 0,579.36 A 413.313,413.313 -180 0 0 74.85,467.62 L 0,579.36 z"
   class="st9"
   id="path76"
   inkscape:connector-curvature="0"
   style="fill:#000000;fill-opacity:0.15;stroke:none" />
			</g>
			<g
   id="shape18-28"
   v:mID="18"
   v:groupContext="shape"
   transform="matrix(0.99604107,-0.0888943,0.0888943,0.99604107,170.255,-497.235)">
				<title
   id="title79">Sheet.18</title>
				<path
   d="M 5.1,562.5 A 430.918,430.918 0 0 1 54.39,579.36 740.898,740.898 -180 0 0 6.05,568.09 L 0,573.04 5.1,562.5 z"
   class="st9"
   id="path81"
   inkscape:connector-curvature="0"
   style="fill:#000000;fill-opacity:0.15;stroke:none" />
			</g>
			<g
   id="shape19-30"
   v:mID="19"
   v:groupContext="shape"
   transform="matrix(0.99604107,-0.0888943,0.0888943,0.99604107,178.436,-457.748)">
				<title
   id="title84">Sheet.19</title>
				<path
   d="M 5.76,553.66 A 88.98,88.98 -180 0 0 0,562.49 l 6.53,-4.3 a 1630.22,1630.22 0 0 1 74.85,21.17 292.671,292.671 -180 0 0 -75.62,-25.7 z"
   class="st9"
   id="path86"
   inkscape:connector-curvature="0"
   style="fill:#000000;fill-opacity:0.15;stroke:none" />
			</g>
			<g
   id="shape20-32"
   v:mID="20"
   v:groupContext="shape"
   transform="matrix(0.99604107,-0.0888943,0.0888943,0.99604107,37.3381,-22.8735)">
				<title
   id="title89">Sheet.20</title>
				<path
   d="m 0,572.81 a 229.618,229.618 0 0 1 49.75,6.55 L 6.92,575.49 0,572.81 z"
   class="st2"
   id="path91"
   inkscape:connector-curvature="0"
   style="fill:#000000;fill-opacity:0.3;stroke:none" />
			</g>
			<g
   id="shape21-34"
   v:mID="21"
   v:groupContext="shape"
   transform="matrix(0.99604107,-0.0888943,0.0888943,0.99604107,-27.7303,-46.3032)">
				<title
   id="title94">Sheet.21</title>
				<path
   d="M 4.47,579.36 43.95,544.18 A 296.131,296.131 -180 0 0 0,576.59 l 0.73,1.32 3.74,1.45 z"
   class="st2"
   id="path96"
   inkscape:connector-curvature="0"
   style="fill:#000000;fill-opacity:0.3;stroke:none" />
			</g>
			<g
   id="shape24-36"
   v:mID="24"
   v:groupContext="shape"
   transform="matrix(0.96547263,-0.26050451,0.26050451,0.96547263,201.217,-61.5398)">
				<title
   id="title99">Sheet.24</title>
				<ellipse
   cx="5.7978802"
   cy="577.98999"
   rx="5.7978802"
   ry="1.37041"
   class="st10"
   id="ellipse101"
   d="m 11.59576,577.98999 c 0,0.75686 -2.595799,1.37041 -5.7978798,1.37041 C 2.5957994,579.3604 0,578.74685 0,577.98999 c 0,-0.75686 2.5957994,-1.37041 5.7978802,-1.37041 3.2020808,0 5.7978798,0.61355 5.7978798,1.37041 z"
   sodipodi:cx="5.7978802"
   sodipodi:cy="577.98999"
   sodipodi:rx="5.7978802"
   sodipodi:ry="1.37041"
   style="fill:#000000;fill-opacity:0.09800002;stroke:none" />
			</g>
			<g
   id="shape25-38"
   v:mID="25"
   v:groupContext="shape"
   transform="matrix(0.64144963,-0.76716515,0.76716515,0.64144963,-49.5852,-11.4032)">
				<title
   id="title104">Sheet.25</title>
				<ellipse
   cx="3.1624801"
   cy="577.25201"
   rx="3.1624801"
   ry="2.10832"
   class="st10"
   id="ellipse106"
   d="m 6.3249602,577.25201 c 0,1.1644 -1.4158905,2.10832 -3.1624801,2.10832 C 1.4158906,579.36033 0,578.41641 0,577.25201 c 0,-1.16439 1.4158906,-2.10832 3.1624801,-2.10832 1.7465896,0 3.1624801,0.94393 3.1624801,2.10832 z"
   sodipodi:cx="3.1624801"
   sodipodi:cy="577.25201"
   sodipodi:rx="3.1624801"
   sodipodi:ry="2.10832"
   style="fill:#000000;fill-opacity:0.09800002;stroke:none" />
			</g>
			<g
   id="shape26-40"
   v:mID="26"
   v:groupContext="shape"
   transform="matrix(0.99604107,-0.0888943,0.0888943,0.99604107,412.243,-176.985)">
				<title
   id="title109">Sheet.26</title>
				<ellipse
   cx="1.56016"
   cy="574.617"
   rx="1.56016"
   ry="4.7437201"
   class="st9"
   id="ellipse111"
   d="m 3.1203201,574.617 c 0,2.61989 -0.6985075,4.74372 -1.5601601,4.74372 C 0.69850744,579.36072 0,577.23689 0,574.617 c 0,-2.61988 0.69850744,-4.74372 1.56016,-4.74372 0.8616526,0 1.5601601,2.12384 1.5601601,4.74372 z"
   sodipodi:cx="1.56016"
   sodipodi:cy="574.617"
   sodipodi:rx="1.56016"
   sodipodi:ry="4.7437201"
   style="fill:#000000;fill-opacity:0.15;stroke:none" />
			</g>
			<g
   id="shape27-42"
   v:mID="27"
   v:groupContext="shape"
   transform="matrix(0.99604107,-0.0888943,0.0888943,0.99604107,426.335,-180.359)">
				<title
   id="title114">Sheet.27</title>
				<ellipse
   cx="1.4758199"
   cy="574.617"
   rx="1.4758199"
   ry="4.7437201"
   class="st9"
   id="ellipse116"
   d="m 2.9516399,574.617 c 0,2.61989 -0.6607471,4.74372 -1.47582,4.74372 C 0.6607471,579.36072 0,577.23689 0,574.617 c 0,-2.61988 0.6607471,-4.74372 1.4758199,-4.74372 0.8150729,0 1.47582,2.12384 1.47582,4.74372 z"
   sodipodi:cx="1.4758199"
   sodipodi:cy="574.617"
   sodipodi:rx="1.4758199"
   sodipodi:ry="4.7437201"
   style="fill:#000000;fill-opacity:0.15;stroke:none" />
			</g>
			<g
   id="shape28-44"
   v:mID="28"
   v:groupContext="shape"
   transform="matrix(0.99604107,-0.0888943,0.0888943,0.99604107,407.121,-222.037)">
				<title
   id="title119">Sheet.28</title>
				<ellipse
   cx="1.05416"
   cy="574.617"
   rx="1.05416"
   ry="4.7437201"
   class="st9"
   id="ellipse121"
   d="m 2.10832,574.617 c 0,2.61989 -0.4719635,4.74372 -1.05416,4.74372 C 0.47196351,579.36072 0,577.23689 0,574.617 c 0,-2.61988 0.47196351,-4.74372 1.05416,-4.74372 0.5821965,0 1.05416,2.12384 1.05416,4.74372 z"
   sodipodi:cx="1.05416"
   sodipodi:cy="574.617"
   sodipodi:rx="1.05416"
   sodipodi:ry="4.7437201"
   style="fill:#000000;fill-opacity:0.15;stroke:none" />
			</g>
			<g
   id="shape29-46"
   v:mID="29"
   v:groupContext="shape"
   transform="matrix(0.96547263,-0.26050451,0.26050451,0.96547263,156.574,-390.55)">
				<title
   id="title124">Sheet.29</title>
				<ellipse
   cx="4.4274702"
   cy="578.09497"
   rx="4.4274702"
   ry="1.26499"
   class="st10"
   id="ellipse126"
   d="m 8.8549404,578.09497 c 0,0.69864 -1.9822459,1.26499 -4.4274702,1.26499 C 1.9822459,579.35996 0,578.79361 0,578.09497 c 0,-0.69863 1.9822459,-1.26499 4.4274702,-1.26499 2.4452243,0 4.4274702,0.56636 4.4274702,1.26499 z"
   sodipodi:cx="4.4274702"
   sodipodi:cy="578.09497"
   sodipodi:rx="4.4274702"
   sodipodi:ry="1.26499"
   style="fill:#000000;fill-opacity:0.09800002;stroke:none" />
			</g>
			<g
   id="shape30-48"
   v:mID="30"
   v:groupContext="shape"
   transform="matrix(0.9963453,0.08541692,-0.08541692,0.9963453,333.38,-435.015)">
				<title
   id="title129">Sheet.30</title>
				<ellipse
   cx="4.7437201"
   cy="577.77899"
   rx="4.7437201"
   ry="1.5812401"
   class="st9"
   id="ellipse131"
   d="m 9.4874401,577.77899 c 0,0.8733 -2.1238358,1.58124 -4.74372,1.58124 C 2.1238358,579.36023 0,578.65229 0,577.77899 c 0,-0.87329 2.1238358,-1.58124 4.7437201,-1.58124 2.6198842,0 4.74372,0.70795 4.74372,1.58124 z"
   sodipodi:cx="4.7437201"
   sodipodi:cy="577.77899"
   sodipodi:rx="4.7437201"
   sodipodi:ry="1.5812401"
   style="fill:#000000;fill-opacity:0.15;stroke:none" />
			</g>
			<g
   id="shape31-50"
   v:mID="31"
   v:groupContext="shape"
   transform="matrix(0.99604107,-0.0888943,0.0888943,0.99604107,389.275,-303.419)">
				<title
   id="title134">Sheet.31</title>
				<ellipse
   cx="2.10832"
   cy="573.24597"
   rx="2.10832"
   ry="6.11413"
   class="st9"
   id="ellipse136"
   d="m 4.21664,573.24597 c 0,3.37674 -0.943927,6.11413 -2.10832,6.11413 C 0.94392702,579.3601 0,576.62271 0,573.24597 c 0,-3.37674 0.94392702,-6.11413 2.10832,-6.11413 1.164393,0 2.10832,2.73739 2.10832,6.11413 z"
   sodipodi:cx="2.10832"
   sodipodi:cy="573.24597"
   sodipodi:rx="2.10832"
   sodipodi:ry="6.11413"
   style="fill:#000000;fill-opacity:0.15;stroke:none" />
			</g>
			<g
   id="shape32-52"
   v:mID="32"
   v:groupContext="shape"
   transform="matrix(0.98510933,0.1719291,-0.1719291,0.98510933,481.108,-302.451)">
				<title
   id="title139">Sheet.32</title>
				<ellipse
   cx="1.56016"
   cy="576.72498"
   rx="1.56016"
   ry="2.6354001"
   class="st10"
   id="ellipse141"
   d="m 3.1203201,576.72498 c 0,1.45549 -0.6985075,2.6354 -1.5601601,2.6354 -0.86165256,0 -1.56016,-1.17991 -1.56016,-2.6354 0,-1.4555 0.69850744,-2.6354 1.56016,-2.6354 0.8616526,0 1.5601601,1.1799 1.5601601,2.6354 z"
   sodipodi:cx="1.56016"
   sodipodi:cy="576.72498"
   sodipodi:rx="1.56016"
   sodipodi:ry="2.6354001"
   style="fill:#000000;fill-opacity:0.09800002;stroke:none" />
			</g>
			<g
   id="shape33-54"
   v:mID="33"
   v:groupContext="shape"
   transform="matrix(0.98510933,0.1719291,-0.1719291,0.98510933,576.565,-292.167)">
				<title
   id="title144">Sheet.33</title>
				<ellipse
   cx="2.10832"
   cy="573.66803"
   rx="2.10832"
   ry="5.6924701"
   class="st9"
   id="ellipse146"
   d="m 4.21664,573.66803 c 0,3.14386 -0.943927,5.69247 -2.10832,5.69247 C 0.94392702,579.3605 0,576.81189 0,573.66803 c 0,-3.14386 0.94392702,-5.69247 2.10832,-5.69247 1.164393,0 2.10832,2.54861 2.10832,5.69247 z"
   sodipodi:cx="2.10832"
   sodipodi:cy="573.66803"
   sodipodi:rx="2.10832"
   sodipodi:ry="5.6924701"
   style="fill:#000000;fill-opacity:0.15;stroke:none" />
			</g>
			<g
   id="shape34-56"
   v:mID="34"
   v:groupContext="shape"
   transform="matrix(0.99604107,-0.0888943,0.0888943,0.99604107,481.275,-290.039)">
				<title
   id="title149">Sheet.34</title>
				<ellipse
   cx="0.632496"
   cy="576.72498"
   rx="0.632496"
   ry="2.6354001"
   class="st10"
   id="ellipse151"
   d="m 1.264992,576.72498 c 0,1.45549 -0.28317811,2.6354 -0.632496,2.6354 C 0.2831781,579.36038 0,578.18047 0,576.72498 c 0,-1.4555 0.2831781,-2.6354 0.632496,-2.6354 0.34931789,0 0.632496,1.1799 0.632496,2.6354 z"
   sodipodi:cx="0.632496"
   sodipodi:cy="576.72498"
   sodipodi:rx="0.632496"
   sodipodi:ry="2.6354001"
   style="fill:#000000;fill-opacity:0.09800002;stroke:none" />
			</g>
			<g
   id="shape35-58"
   v:mID="35"
   v:groupContext="shape"
   transform="matrix(0.99604107,-0.0888943,0.0888943,0.99604107,458.488,-228.738)">
				<title
   id="title154">Sheet.35</title>
				<ellipse
   cx="2.10832"
   cy="573.03601"
   rx="2.10832"
   ry="6.3249602"
   class="st9"
   id="ellipse156"
   d="m 4.21664,573.03601 c 0,3.49318 -0.943927,6.32496 -2.10832,6.32496 C 0.94392702,579.36097 0,576.52919 0,573.03601 c 0,-3.49318 0.94392702,-6.32496 2.10832,-6.32496 1.164393,0 2.10832,2.83178 2.10832,6.32496 z"
   sodipodi:cx="2.10832"
   sodipodi:cy="573.03601"
   sodipodi:rx="2.10832"
   sodipodi:ry="6.3249602"
   style="fill:#000000;fill-opacity:0.15;stroke:none" />
			</g>
			<g
   id="shape36-60"
   v:mID="36"
   v:groupContext="shape"
   transform="matrix(0.9963453,0.08541692,-0.08541692,0.9963453,573.858,-126.87)">
				<title
   id="title159">Sheet.36</title>
				<ellipse
   cx="1.6866601"
   cy="573.03601"
   rx="1.6866601"
   ry="6.3249602"
   class="st9"
   id="ellipse161"
   d="m 3.3733201,573.03601 c 0,3.49318 -0.7551434,6.32496 -1.68666,6.32496 C 0.75514343,579.36097 0,576.52919 0,573.03601 c 0,-3.49318 0.75514343,-6.32496 1.6866601,-6.32496 0.9315166,0 1.68666,2.83178 1.68666,6.32496 z"
   sodipodi:cx="1.6866601"
   sodipodi:cy="573.03601"
   sodipodi:rx="1.6866601"
   sodipodi:ry="6.3249602"
   style="fill:#000000;fill-opacity:0.15;stroke:none" />
			</g>
			<g
   id="shape37-62"
   v:mID="37"
   v:groupContext="shape"
   transform="matrix(0.99604107,-0.0888943,0.0888943,0.99604107,465.431,-161.623)">
				<title
   id="title164">Sheet.37</title>
				<ellipse
   cx="1.05416"
   cy="573.45697"
   rx="1.05416"
   ry="5.9032998"
   class="st10"
   id="ellipse166"
   d="m 2.10832,573.45697 c 0,3.2603 -0.4719635,5.9033 -1.05416,5.9033 -0.58219649,0 -1.05416,-2.643 -1.05416,-5.9033 0,-3.2603 0.47196351,-5.9033 1.05416,-5.9033 0.5821965,0 1.05416,2.643 1.05416,5.9033 z"
   sodipodi:cx="1.05416"
   sodipodi:cy="573.45697"
   sodipodi:rx="1.05416"
   sodipodi:ry="5.9032998"
   style="fill:#000000;fill-opacity:0.09800002;stroke:none" />
			</g>
			<g
   id="shape38-64"
   v:mID="38"
   v:groupContext="shape"
   transform="matrix(0.98510933,0.1719291,-0.1719291,0.98510933,623.525,-167.083)">
				<title
   id="title169">Sheet.38</title>
				<ellipse
   cx="1.42312"
   cy="573.03601"
   rx="1.42312"
   ry="6.3249602"
   class="st9"
   id="ellipse171"
   d="m 2.84624,573.03601 c 0,3.49318 -0.6371525,6.32496 -1.42312,6.32496 C 0.63715254,579.36097 0,576.52919 0,573.03601 c 0,-3.49318 0.63715254,-6.32496 1.42312,-6.32496 0.7859675,0 1.42312,2.83178 1.42312,6.32496 z"
   sodipodi:cx="1.42312"
   sodipodi:cy="573.03601"
   sodipodi:rx="1.42312"
   sodipodi:ry="6.3249602"
   style="fill:#000000;fill-opacity:0.15;stroke:none" />
			</g>
			<g
   id="shape39-66"
   v:mID="39"
   v:groupContext="shape"
   transform="matrix(0.99604107,-0.0888943,0.0888943,0.99604107,487.706,-184.778)">
				<title
   id="title174">Sheet.39</title>
				<ellipse
   cx="1.05416"
   cy="575.14398"
   rx="1.05416"
   ry="4.21664"
   class="st9"
   id="ellipse176"
   d="m 2.10832,575.14398 c 0,2.32879 -0.4719635,4.21664 -1.05416,4.21664 C 0.47196351,579.36062 0,577.47277 0,575.14398 c 0,-2.32878 0.47196351,-4.21664 1.05416,-4.21664 0.5821965,0 1.05416,1.88786 1.05416,4.21664 z"
   sodipodi:cx="1.05416"
   sodipodi:cy="575.14398"
   sodipodi:rx="1.05416"
   sodipodi:ry="4.21664"
   style="fill:#000000;fill-opacity:0.15;stroke:none" />
			</g>
			<g
   id="shape40-68"
   v:mID="40"
   v:groupContext="shape"
   transform="matrix(0.99604107,-0.0888943,0.0888943,0.99604107,322.932,-15.5532)">
				<title
   id="title179">Sheet.40</title>
				<ellipse
   cx="5.2708001"
   cy="578.30603"
   rx="5.2708001"
   ry="1.05416"
   class="st2"
   id="ellipse181"
   d="m 10.5416,578.30603 c 0,0.5822 -2.3598174,1.05416 -5.2707999,1.05416 C 2.3598176,579.36019 0,578.88823 0,578.30603 c 0,-0.5822 2.3598176,-1.05416 5.2708001,-1.05416 2.9109825,0 5.2707999,0.47196 5.2707999,1.05416 z"
   sodipodi:cx="5.2708001"
   sodipodi:cy="578.30603"
   sodipodi:rx="5.2708001"
   sodipodi:ry="1.05416"
   style="fill:#000000;fill-opacity:0.3;stroke:none" />
			</g>
			<g
   id="shape41-70"
   v:mID="41"
   v:groupContext="shape"
   transform="matrix(0.93909425,-0.34365969,0.34365969,0.93909425,184.436,24.2832)">
				<title
   id="title184">Sheet.41</title>
				<ellipse
   cx="5.16539"
   cy="578.30603"
   rx="5.16539"
   ry="1.05416"
   class="st9"
   id="ellipse186"
   d="m 10.33078,578.30603 c 0,0.5822 -2.3126239,1.05416 -5.16539,1.05416 C 2.3126239,579.36019 0,578.88823 0,578.30603 c 0,-0.5822 2.3126239,-1.05416 5.16539,-1.05416 2.8527661,0 5.16539,0.47196 5.16539,1.05416 z"
   sodipodi:cx="5.16539"
   sodipodi:cy="578.30603"
   sodipodi:rx="5.16539"
   sodipodi:ry="1.05416"
   style="fill:#000000;fill-opacity:0.15;stroke:none" />
			</g>
			<g
   id="shape42-72"
   v:mID="42"
   v:groupContext="shape"
   transform="matrix(0.97397597,-0.22665131,0.22665131,0.97397597,61.6841,-3.84766)">
				<title
   id="title189">Sheet.42</title>
				<ellipse
   cx="5.2708001"
   cy="577.77899"
   rx="5.2708001"
   ry="1.5812401"
   class="st10"
   id="ellipse191"
   d="m 10.5416,577.77899 c 0,0.8733 -2.3598174,1.58124 -5.2707999,1.58124 C 2.3598176,579.36023 0,578.65229 0,577.77899 c 0,-0.87329 2.3598176,-1.58124 5.2708001,-1.58124 2.9109825,0 5.2707999,0.70795 5.2707999,1.58124 z"
   sodipodi:cx="5.2708001"
   sodipodi:cy="577.77899"
   sodipodi:rx="5.2708001"
   sodipodi:ry="1.5812401"
   style="fill:#000000;fill-opacity:0.09800002;stroke:none" />
			</g>
			<g
   id="shape43-74"
   v:mID="43"
   v:groupContext="shape"
   transform="matrix(0.9055688,-0.42419942,0.42419942,0.9055688,-111.725,-43.1209)">
				<title
   id="title194">Sheet.43</title>
				<ellipse
   cx="7.3791199"
   cy="577.46301"
   rx="7.3791199"
   ry="1.89749"
   class="st9"
   id="ellipse196"
   d="m 14.75824,577.46301 c 0,1.04796 -3.303745,1.89749 -7.3791201,1.89749 C 3.3037445,579.3605 0,578.51097 0,577.46301 c 0,-1.04795 3.3037445,-1.89749 7.3791199,-1.89749 4.0753751,0 7.3791201,0.84954 7.3791201,1.89749 z"
   sodipodi:cx="7.3791199"
   sodipodi:cy="577.46301"
   sodipodi:rx="7.3791199"
   sodipodi:ry="1.89749"
   style="fill:#000000;fill-opacity:0.15;stroke:none" />
			</g>
			<g
   id="shape44-76"
   v:mID="44"
   v:groupContext="shape"
   transform="matrix(0.99604107,-0.0888943,0.0888943,0.99604107,36.215,-36.5318)">
				<title
   id="title199">Sheet.44</title>
				<ellipse
   cx="6.9574599"
   cy="577.25201"
   rx="6.9574599"
   ry="2.10832"
   class="st2"
   id="ellipse201"
   d="m 13.91492,577.25201 c 0,1.1644 -3.114961,2.10832 -6.9574601,2.10832 C 3.1149609,579.36033 0,578.41641 0,577.25201 c 0,-1.16439 3.1149609,-2.10832 6.9574599,-2.10832 3.8424991,0 6.9574601,0.94393 6.9574601,2.10832 z"
   sodipodi:cx="6.9574599"
   sodipodi:cy="577.25201"
   sodipodi:rx="6.9574599"
   sodipodi:ry="2.10832"
   style="fill:#000000;fill-opacity:0.3;stroke:none" />
			</g>
			<g
   id="shape45-78"
   v:mID="45"
   v:groupContext="shape"
   transform="matrix(0.99604107,-0.0888943,0.0888943,0.99604107,24.2158,-52.3945)">
				<title
   id="title204">Sheet.45</title>
				<ellipse
   cx="5.9032998"
   cy="577.25201"
   rx="5.9032998"
   ry="2.10832"
   class="st10"
   id="ellipse206"
   d="m 11.8066,577.25201 c 0,1.1644 -2.6429977,2.10832 -5.9033002,2.10832 C 2.6429974,579.36033 0,578.41641 0,577.25201 c 0,-1.16439 2.6429974,-2.10832 5.9032998,-2.10832 3.2603025,0 5.9033002,0.94393 5.9033002,2.10832 z"
   sodipodi:cx="5.9032998"
   sodipodi:cy="577.25201"
   sodipodi:rx="5.9032998"
   sodipodi:ry="2.10832"
   style="fill:#000000;fill-opacity:0.09800002;stroke:none" />
			</g>
			<g
   id="shape46-80"
   v:mID="46"
   v:groupContext="shape"
   transform="matrix(0.96637608,0.25713279,-0.25713279,0.96637608,166.064,-119.895)">
				<title
   id="title209">Sheet.46</title>
				<ellipse
   cx="2.10832"
   cy="574.51099"
   rx="2.10832"
   ry="4.8491402"
   class="st10"
   id="ellipse211"
   d="m 4.21664,574.51099 c 0,2.6781 -0.943927,4.84914 -2.10832,4.84914 C 0.94392702,579.36013 0,577.18909 0,574.51099 c 0,-2.67811 0.94392702,-4.84914 2.10832,-4.84914 1.164393,0 2.10832,2.17103 2.10832,4.84914 z"
   sodipodi:cx="2.10832"
   sodipodi:cy="574.51099"
   sodipodi:rx="2.10832"
   sodipodi:ry="4.8491402"
   style="fill:#000000;fill-opacity:0.09800002;stroke:none" />
			</g>
			<g
   id="shape47-82"
   v:mID="47"
   v:groupContext="shape"
   transform="matrix(0.96547263,-0.26050451,0.26050451,0.96547263,242.931,-31.6075)">
				<title
   id="title214">Sheet.47</title>
				<ellipse
   cx="4.5539699"
   cy="578.30603"
   rx="4.5539699"
   ry="1.05416"
   class="st10"
   id="ellipse216"
   d="m 9.1079397,578.30603 c 0,0.5822 -2.0388817,1.05416 -4.5539698,1.05416 C 2.0388818,579.36019 0,578.88823 0,578.30603 c 0,-0.5822 2.0388818,-1.05416 4.5539699,-1.05416 2.5150881,0 4.5539698,0.47196 4.5539698,1.05416 z"
   sodipodi:cx="4.5539699"
   sodipodi:cy="578.30603"
   sodipodi:rx="4.5539699"
   sodipodi:ry="1.05416"
   style="fill:#000000;fill-opacity:0.09800002;stroke:none" />
			</g>
			<g
   id="shape1-84"
   v:mID="1"
   v:groupContext="shape"
   transform="matrix(0.70587157,-0.70833984,0.70833984,0.70587157,-249.956,-87.7891)">
				<title
   id="title219">Sheet.1</title>
				<ellipse
   cx="9.4734001"
   cy="577.46301"
   rx="9.4734001"
   ry="1.89749"
   class="st9"
   id="ellipse221"
   d="m 18.9468,577.46301 c 0,1.04796 -4.241385,1.89749 -9.4733999,1.89749 C 4.2413857,579.3605 0,578.51097 0,577.46301 c 0,-1.04795 4.2413857,-1.89749 9.4734001,-1.89749 5.2320149,0 9.4733999,0.84954 9.4733999,1.89749 z"
   sodipodi:cx="9.4734001"
   sodipodi:cy="577.46301"
   sodipodi:rx="9.4734001"
   sodipodi:ry="1.89749"
   style="fill:#000000;fill-opacity:0.15;stroke:none" />
			</g>
			<g
   id="shape2-86"
   v:mID="2"
   v:groupContext="shape"
   transform="matrix(0.93969262,0.34202014,-0.34202014,0.93969262,333.283,-373.146)">
				<title
   id="title224">Sheet.2</title>
				<path
   d="M 0,579.36 A 291.624,291.624 -180 0 0 52.81,500.52 L 0,579.36 z"
   class="st9"
   id="path226"
   inkscape:connector-curvature="0"
   style="fill:#000000;fill-opacity:0.15;stroke:none" />
			</g>
			<g
   id="shape5-88"
   v:mID="5"
   v:groupContext="shape"
   transform="matrix(0.85626708,-0.51653333,0.51653333,0.85626708,166.207,-276.86)">
				<title
   id="title229">Sheet.5</title>
				<ellipse
   cx="1.05416"
   cy="573.45697"
   rx="1.05416"
   ry="5.9032998"
   class="st10"
   id="ellipse231"
   d="m 2.10832,573.45697 c 0,3.2603 -0.4719635,5.9033 -1.05416,5.9033 -0.58219649,0 -1.05416,-2.643 -1.05416,-5.9033 0,-3.2603 0.47196351,-5.9033 1.05416,-5.9033 0.5821965,0 1.05416,2.643 1.05416,5.9033 z"
   sodipodi:cx="1.05416"
   sodipodi:cy="573.45697"
   sodipodi:rx="1.05416"
   sodipodi:ry="5.9032998"
   style="fill:#000000;fill-opacity:0.09800002;stroke:none" />
			</g>
			<g
   id="shape6-90"
   v:mID="6"
   v:groupContext="shape"
   transform="matrix(0.85626708,-0.51653333,0.51653333,0.85626708,141.34,-352.283)">
				<title
   id="title234">Sheet.6</title>
				<ellipse
   cx="1.05416"
   cy="575.14398"
   rx="1.05416"
   ry="4.21664"
   class="st9"
   id="ellipse236"
   d="m 2.10832,575.14398 c 0,2.32879 -0.4719635,4.21664 -1.05416,4.21664 C 0.47196351,579.36062 0,577.47277 0,575.14398 c 0,-2.32878 0.47196351,-4.21664 1.05416,-4.21664 0.5821965,0 1.05416,1.88786 1.05416,4.21664 z"
   sodipodi:cx="1.05416"
   sodipodi:cy="575.14398"
   sodipodi:rx="1.05416"
   sodipodi:ry="4.21664"
   style="fill:#000000;fill-opacity:0.15;stroke:none" />
			</g>
		</g>
	</g></svg>