<?xml version="1.0" encoding="UTF-8" standalone="no"?>
<!-- Created with Inkscape (http://www.inkscape.org/) -->

<svg
   xmlns:dc="http://purl.org/dc/elements/1.1/"
   xmlns:cc="http://creativecommons.org/ns#"
   xmlns:rdf="http://www.w3.org/1999/02/22-rdf-syntax-ns#"
   xmlns:svg="http://www.w3.org/2000/svg"
   xmlns="http://www.w3.org/2000/svg"
   xmlns:xlink="http://www.w3.org/1999/xlink"
   xmlns:sodipodi="http://sodipodi.sourceforge.net/DTD/sodipodi-0.dtd"
   xmlns:inkscape="http://www.inkscape.org/namespaces/inkscape"
   width="29.464077"
   height="28.5481"
   id="svg2"
   version="1.1"
   inkscape:version="0.48.4 r9939"
   sodipodi:docname="starfish.svg"
   inkscape:export-filename="C:\Users\Schmid\Documents\GitHub\Schoolproject\images\svgs\starfish.png"
   inkscape:export-xdpi="90"
   inkscape:export-ydpi="90">
  <defs
     id="defs4">
    <linearGradient
       inkscape:collect="always"
       id="linearGradient4018">
      <stop
         style="stop-color:#b56830;stop-opacity:1"
         offset="0"
         id="stop4020" />
      <stop
         style="stop-color:#d0732e;stop-opacity:1"
         offset="1"
         id="stop4022" />
    </linearGradient>
    <filter
       inkscape:collect="always"
       id="filter3946"
       x="-0.12880857"
       width="1.2576172"
       y="-0.13009152"
       height="1.260183"
       color-interpolation-filters="sRGB">
      <feGaussianBlur
         inkscape:collect="always"
         stdDeviation="11.973144"
         id="feGaussianBlur3948" />
    </filter>
    <filter
       inkscape:collect="always"
       id="filter3978"
       x="-0.13817433"
       width="1.2763486"
       y="-0.090489127"
       height="1.1809783"
       color-interpolation-filters="sRGB">
      <feGaussianBlur
         inkscape:collect="always"
         stdDeviation="9.9107141"
         id="feGaussianBlur3980" />
    </filter>
    <filter
       inkscape:collect="always"
       id="filter3982"
       x="-0.14353447"
       width="1.2870688"
       y="-0.090243898"
       height="1.1804878"
       color-interpolation-filters="sRGB">
      <feGaussianBlur
         inkscape:collect="always"
         stdDeviation="9.9107141"
         id="feGaussianBlur3984" />
    </filter>
    <filter
       inkscape:collect="always"
       id="filter3986"
       x="-0.085604124"
       width="1.1712081"
       y="-0.35806453"
       height="1.7161289"
       color-interpolation-filters="sRGB">
      <feGaussianBlur
         inkscape:collect="always"
         stdDeviation="9.9107141"
         id="feGaussianBlur3988" />
    </filter>
    <filter
       inkscape:collect="always"
       id="filter3990"
       x="-6.6600533"
       width="14.320106"
       y="-0.089276135"
       height="1.1785523"
       color-interpolation-filters="sRGB">
      <feGaussianBlur
         inkscape:collect="always"
         stdDeviation="9.9107141"
         id="feGaussianBlur3992" />
    </filter>
    <filter
       inkscape:collect="always"
       id="filter3994"
       x="-0.086493492"
       width="1.172987"
       y="-0.34687498"
       height="1.69375"
       color-interpolation-filters="sRGB">
      <feGaussianBlur
         inkscape:collect="always"
         stdDeviation="9.9107141"
         id="feGaussianBlur3996" />
    </filter>
    <radialGradient
       inkscape:collect="always"
       xlink:href="#linearGradient4018"
       id="radialGradient4278"
       gradientUnits="userSpaceOnUse"
       gradientTransform="matrix(0.55198337,0.43118226,-0.46276359,0.59241261,213.79886,128.17486)"
       cx="72.547798"
       cy="391.76859"
       fx="72.547798"
       fy="391.76859"
       r="334.33612" />
  </defs>
  <sodipodi:namedview
     id="base"
     pagecolor="#ffffff"
     bordercolor="#666666"
     borderopacity="1.0"
     inkscape:pageopacity="0.0"
     inkscape:pageshadow="2"
     inkscape:zoom="2.8"
     inkscape:cx="-40.54887"
     inkscape:cy="31.900618"
     inkscape:document-units="px"
     inkscape:current-layer="layer1"
     showgrid="false"
     fit-margin-top="0"
     fit-margin-left="0"
     fit-margin-right="0"
     fit-margin-bottom="0"
     inkscape:window-width="1360"
     inkscape:window-height="706"
     inkscape:window-x="-8"
     inkscape:window-y="-8"
     inkscape:window-maximized="1" />
  <metadata
     id="metadata7">
    <rdf:RDF>
      <cc:Work
         rdf:about="">
        <dc:format>image/svg+xml</dc:format>
        <dc:type
           rdf:resource="http://purl.org/dc/dcmitype/StillImage" />
        <dc:title></dc:title>
      </cc:Work>
    </rdf:RDF>
  </metadata>
  <g
     inkscape:label="Ebene 1"
     inkscape:groupmode="layer"
     id="layer1"
     transform="translate(-1301.0543,-578.99338)">
    <g
       id="g4185"
       transform="matrix(0.0403755,0,0,0.0403755,1264.3786,574.23808)"
       inkscape:export-xdpi="180"
       inkscape:export-ydpi="180">
      <path
         transform="matrix(0.70710678,-0.70710678,0.70710678,0.70710678,929.3266,267.18809)"
         inkscape:transform-center-y="-27.86671"
         inkscape:transform-center-x="-2.4958762"
         d="M 387.14285,576.64789 C 361.0609,624.64745 190.03908,522.55592 140.7249,546.05779 91.410728,569.55966 62.994341,766.69833 9.284279,756.7256 -44.425781,746.75287 -0.17961691,552.55343 -37.770144,512.91534 -75.360672,473.27725 -271.63183,507.17086 -278.74452,453.00781 -285.85722,398.84477 -87.489759,380.91444 -61.407807,332.91488 -35.325854,284.91532 -128.21171,108.72406 -78.897538,85.222185 -29.583363,61.720311 48.768303,244.8382 102.47836,254.81093 c 53.71006,9.97273 192.57461,-132.81307 230.16513,-93.17498 37.59053,39.63809 -112.35293,170.7415 -105.24024,224.90454 7.11269,54.16305 185.82156,142.10784 159.7396,190.1074 z"
         inkscape:randomized="0"
         inkscape:rounded="0.22"
         inkscape:flatsided="false"
         sodipodi:arg2="1.1260642"
         sodipodi:arg1="0.4977457"
         sodipodi:r2="154.43214"
         sodipodi:r1="356.06122"
         sodipodi:cy="406.64789"
         sodipodi:cx="74.285713"
         sodipodi:sides="5"
         id="path2996"
         style="fill:url(#radialGradient4278);fill-opacity:1;fill-rule:nonzero;stroke:none"
         sodipodi:type="star" />
      <path
         transform="matrix(0.55183021,0,0,0.55183021,372.86535,202.13382)"
         inkscape:transform-center-y="-2.1262948"
         inkscape:transform-center-x="-1.1986732"
         d="m 1684.9431,598.27223 c -14.3176,8.26627 -124.7303,-3.33858 -137.0164,-14.40101 -12.286,-11.06242 -35.3686,-119.65726 -28.6442,-134.76048 6.7244,-15.10322 102.8713,-70.61367 119.3133,-68.88555 16.442,1.72812 98.9466,76.01561 102.3839,92.18687 3.4373,16.17126 -41.719,117.59391 -56.0366,125.86017 z"
         inkscape:randomized="0"
         inkscape:rounded="0.12"
         inkscape:flatsided="true"
         sodipodi:arg2="1.6755161"
         sodipodi:arg1="1.0471976"
         sodipodi:r2="94.812836"
         sodipodi:r1="117.19511"
         sodipodi:cy="496.77829"
         sodipodi:cx="1626.3456"
         sodipodi:sides="5"
         id="path3842"
         style="fill:#b56830;fill-opacity:1;fill-rule:nonzero;stroke:#c87538;stroke-width:18.12151527;stroke-linecap:round;stroke-linejoin:round;stroke-miterlimit:4;stroke-opacity:1;stroke-dasharray:none;filter:url(#filter3946)"
         sodipodi:type="star" />
      <path
         inkscape:connector-curvature="0"
         id="path3844"
         d="M 1057.1429,785.21933 1229.2857,522.36218"
         style="fill:#000000;fill-opacity:0;stroke:#d1864e;stroke-width:10;stroke-linecap:round;stroke-linejoin:round;stroke-miterlimit:4;stroke-opacity:1;stroke-dasharray:none;filter:url(#filter3978)" />
      <path
         inkscape:connector-curvature="0"
         id="path3846"
         d="m 937.14286,379.50504 275.00004,68.57143"
         style="fill:#000000;fill-opacity:0;stroke:#d1864e;stroke-width:10;stroke-linecap:round;stroke-linejoin:round;stroke-miterlimit:4;stroke-opacity:1;stroke-dasharray:none;filter:url(#filter3994)" />
      <path
         inkscape:connector-curvature="0"
         id="path3848"
         d="m 1280.7143,146.6479 -3.5714,266.42857"
         style="fill:#000000;fill-opacity:0;stroke:#d1864e;stroke-width:10;stroke-linecap:round;stroke-linejoin:round;stroke-miterlimit:4;stroke-opacity:1;stroke-dasharray:none;filter:url(#filter3990)" />
      <path
         inkscape:connector-curvature="0"
         id="path3850"
         d="m 1609.2857,396.6479 -277.8571,66.42857"
         style="fill:#000000;fill-opacity:0;stroke:#d1864e;stroke-width:10;stroke-linecap:round;stroke-linejoin:round;stroke-miterlimit:4;stroke-opacity:1;stroke-dasharray:none;filter:url(#filter3986)" />
      <path
         inkscape:connector-curvature="0"
         id="path3852"
         d="M 1468.5714,795.93361 1302.8571,532.36218"
         style="fill:#000000;fill-opacity:0;stroke:#d1864e;stroke-width:10;stroke-linecap:round;stroke-linejoin:round;stroke-miterlimit:4;stroke-opacity:1;stroke-dasharray:none;filter:url(#filter3982)" />
      <path
         transform="matrix(0.30025894,0,0,0.30025894,883.81256,539.3962)"
         d="m 600.03059,676.58545 c 0,13.3894 -10.85426,24.24366 -24.24366,24.24366 -13.38941,0 -24.24367,-10.85426 -24.24367,-24.24366 0,-13.38941 10.85426,-24.24366 24.24367,-24.24366 13.3894,0 24.24366,10.85425 24.24366,24.24366 z"
         sodipodi:ry="24.243662"
         sodipodi:rx="24.243662"
         sodipodi:cy="676.58545"
         sodipodi:cx="575.78693"
         id="path3998"
         style="fill:#ce8147;fill-opacity:1;fill-rule:nonzero;stroke:none"
         sodipodi:type="arc" />
      <path
         sodipodi:type="arc"
         style="fill:#ce8147;fill-opacity:1;fill-rule:nonzero;stroke:none"
         id="path4000"
         sodipodi:cx="575.78693"
         sodipodi:cy="676.58545"
         sodipodi:rx="24.243662"
         sodipodi:ry="24.243662"
         d="m 600.03059,676.58545 c 0,13.3894 -10.85426,24.24366 -24.24366,24.24366 -13.38941,0 -24.24367,-10.85426 -24.24367,-24.24366 0,-13.38941 10.85426,-24.24366 24.24367,-24.24366 13.3894,0 24.24366,10.85425 24.24366,24.24366 z"
         transform="matrix(0.30025894,0,0,0.30025894,916.31256,514.03906)" />
      <path
         transform="matrix(0.30025894,0,0,0.30025894,912.38399,476.53906)"
         d="m 600.03059,676.58545 c 0,13.3894 -10.85426,24.24366 -24.24366,24.24366 -13.38941,0 -24.24367,-10.85426 -24.24367,-24.24366 0,-13.38941 10.85426,-24.24366 24.24367,-24.24366 13.3894,0 24.24366,10.85425 24.24366,24.24366 z"
         sodipodi:ry="24.243662"
         sodipodi:rx="24.243662"
         sodipodi:cy="676.58545"
         sodipodi:cx="575.78693"
         id="path4002"
         style="fill:#ce8147;fill-opacity:1;fill-rule:nonzero;stroke:none"
         sodipodi:type="arc" />
      <path
         sodipodi:type="arc"
         style="fill:#ce8147;fill-opacity:1;fill-rule:nonzero;stroke:none"
         id="path4004"
         sodipodi:cx="575.78693"
         sodipodi:cy="676.58545"
         sodipodi:rx="24.243662"
         sodipodi:ry="24.243662"
         d="m 600.03059,676.58545 c 0,13.3894 -10.85426,24.24366 -24.24366,24.24366 -13.38941,0 -24.24367,-10.85426 -24.24367,-24.24366 0,-13.38941 10.85426,-24.24366 24.24367,-24.24366 13.3894,0 24.24366,10.85425 24.24366,24.24366 z"
         transform="matrix(0.30025894,0,0,0.30025894,946.6697,461.8962)" />
      <path
         transform="matrix(0.30025894,0,0,0.30025894,946.6697,461.8962)"
         d="m 600.03059,676.58545 c 0,13.3894 -10.85426,24.24366 -24.24366,24.24366 -13.38941,0 -24.24367,-10.85426 -24.24367,-24.24366 0,-13.38941 10.85426,-24.24366 24.24367,-24.24366 13.3894,0 24.24366,10.85425 24.24366,24.24366 z"
         sodipodi:ry="24.243662"
         sodipodi:rx="24.243662"
         sodipodi:cy="676.58545"
         sodipodi:cx="575.78693"
         id="path4006"
         style="fill:#ce8147;fill-opacity:1;fill-rule:nonzero;stroke:none"
         sodipodi:type="arc" />
      <path
         sodipodi:type="arc"
         style="fill:#ce8147;fill-opacity:1;fill-rule:nonzero;stroke:none"
         id="path4008"
         sodipodi:cx="575.78693"
         sodipodi:cy="676.58545"
         sodipodi:rx="24.243662"
         sodipodi:ry="24.243662"
         d="m 600.03059,676.58545 c 0,13.3894 -10.85426,24.24366 -24.24366,24.24366 -13.38941,0 -24.24367,-10.85426 -24.24367,-24.24366 0,-13.38941 10.85426,-24.24366 24.24367,-24.24366 13.3894,0 24.24366,10.85425 24.24366,24.24366 z"
         transform="matrix(0.30025894,0,0,0.30025894,939.1697,423.32477)" />
      <path
         transform="matrix(0.30025894,0,0,0.30025894,939.1697,423.32477)"
         d="m 600.03059,676.58545 c 0,13.3894 -10.85426,24.24366 -24.24366,24.24366 -13.38941,0 -24.24367,-10.85426 -24.24367,-24.24366 0,-13.38941 10.85426,-24.24366 24.24367,-24.24366 13.3894,0 24.24366,10.85425 24.24366,24.24366 z"
         sodipodi:ry="24.243662"
         sodipodi:rx="24.243662"
         sodipodi:cy="676.58545"
         sodipodi:cx="575.78693"
         id="path4010"
         style="fill:#ce8147;fill-opacity:1;fill-rule:nonzero;stroke:none"
         sodipodi:type="arc" />
      <path
         sodipodi:type="arc"
         style="fill:#ce8147;fill-opacity:1;fill-rule:nonzero;stroke:none"
         id="path4012"
         sodipodi:cx="575.78693"
         sodipodi:cy="676.58545"
         sodipodi:rx="24.243662"
         sodipodi:ry="24.243662"
         d="m 600.03059,676.58545 c 0,13.3894 -10.85426,24.24366 -24.24366,24.24366 -13.38941,0 -24.24367,-10.85426 -24.24367,-24.24366 0,-13.38941 10.85426,-24.24366 24.24367,-24.24366 13.3894,0 24.24366,10.85425 24.24366,24.24366 z"
         transform="matrix(0.30025894,0,0,0.30025894,988.81256,392.96763)" />
      <path
         transform="matrix(0.30025894,0,0,0.30025894,958.45542,372.61049)"
         d="m 600.03059,676.58545 c 0,13.3894 -10.85426,24.24366 -24.24366,24.24366 -13.38941,0 -24.24367,-10.85426 -24.24367,-24.24366 0,-13.38941 10.85426,-24.24366 24.24367,-24.24366 13.3894,0 24.24366,10.85425 24.24366,24.24366 z"
         sodipodi:ry="24.243662"
         sodipodi:rx="24.243662"
         sodipodi:cy="676.58545"
         sodipodi:cx="575.78693"
         id="path4014"
         style="fill:#ce8147;fill-opacity:1;fill-rule:nonzero;stroke:none"
         sodipodi:type="arc" />
      <path
         sodipodi:type="arc"
         style="fill:#ce8147;fill-opacity:1;fill-rule:nonzero;stroke:none"
         id="path4016"
         sodipodi:cx="575.78693"
         sodipodi:cy="676.58545"
         sodipodi:rx="24.243662"
         sodipodi:ry="24.243662"
         d="m 600.03059,676.58545 c 0,13.3894 -10.85426,24.24366 -24.24366,24.24366 -13.38941,0 -24.24367,-10.85426 -24.24367,-24.24366 0,-13.38941 10.85426,-24.24366 24.24367,-24.24366 13.3894,0 24.24366,10.85425 24.24366,24.24366 z"
         transform="matrix(0.30025894,0,0,0.30025894,958.45542,372.61049)" />
      <path
         sodipodi:type="arc"
         style="fill:#ce8147;fill-opacity:1;fill-rule:nonzero;stroke:none"
         id="path4026"
         sodipodi:cx="575.78693"
         sodipodi:cy="676.58545"
         sodipodi:rx="24.243662"
         sodipodi:ry="24.243662"
         d="m 600.03059,676.58545 c 0,13.3894 -10.85426,24.24366 -24.24366,24.24366 -13.38941,0 -24.24367,-10.85426 -24.24367,-24.24366 0,-13.38941 10.85426,-24.24366 24.24367,-24.24366 13.3894,0 24.24366,10.85425 24.24366,24.24366 z"
         transform="matrix(0.30025894,0,0,0.30025894,901.82016,568.0271)" />
      <path
         transform="matrix(0.30025894,0,0,0.30025894,935.39159,548.38425)"
         d="m 600.03059,676.58545 c 0,13.3894 -10.85426,24.24366 -24.24366,24.24366 -13.38941,0 -24.24367,-10.85426 -24.24367,-24.24366 0,-13.38941 10.85426,-24.24366 24.24367,-24.24366 13.3894,0 24.24366,10.85425 24.24366,24.24366 z"
         sodipodi:ry="24.243662"
         sodipodi:rx="24.243662"
         sodipodi:cy="676.58545"
         sodipodi:cx="575.78693"
         id="path4028"
         style="fill:#ce8147;fill-opacity:1;fill-rule:nonzero;stroke:none"
         sodipodi:type="arc" />
      <path
         sodipodi:type="arc"
         style="fill:#ce8147;fill-opacity:1;fill-rule:nonzero;stroke:none"
         id="path4030"
         sodipodi:cx="575.78693"
         sodipodi:cy="676.58545"
         sodipodi:rx="24.243662"
         sodipodi:ry="24.243662"
         d="m 600.03059,676.58545 c 0,13.3894 -10.85426,24.24366 -24.24366,24.24366 -13.38941,0 -24.24367,-10.85426 -24.24367,-24.24366 0,-13.38941 10.85426,-24.24366 24.24367,-24.24366 13.3894,0 24.24366,10.85425 24.24366,24.24366 z"
         transform="matrix(0.30025894,0,0,0.30025894,961.10585,510.88425)" />
      <path
         transform="matrix(0.30025894,0,0,0.30025894,997.17726,496.24139)"
         d="m 600.03059,676.58545 c 0,13.3894 -10.85426,24.24366 -24.24366,24.24366 -13.38941,0 -24.24367,-10.85426 -24.24367,-24.24366 0,-13.38941 10.85426,-24.24366 24.24367,-24.24366 13.3894,0 24.24366,10.85425 24.24366,24.24366 z"
         sodipodi:ry="24.243662"
         sodipodi:rx="24.243662"
         sodipodi:cy="676.58545"
         sodipodi:cx="575.78693"
         id="path4032"
         style="fill:#ce8147;fill-opacity:1;fill-rule:nonzero;stroke:none"
         sodipodi:type="arc" />
      <path
         sodipodi:type="arc"
         style="fill:#ce8147;fill-opacity:1;fill-rule:nonzero;stroke:none"
         id="path4034"
         sodipodi:cx="575.78693"
         sodipodi:cy="676.58545"
         sodipodi:rx="24.243662"
         sodipodi:ry="24.243662"
         d="m 600.03059,676.58545 c 0,13.3894 -10.85426,24.24366 -24.24366,24.24366 -13.38941,0 -24.24367,-10.85426 -24.24367,-24.24366 0,-13.38941 10.85426,-24.24366 24.24367,-24.24366 13.3894,0 24.24366,10.85425 24.24366,24.24366 z"
         transform="matrix(0.30025894,0,0,0.30025894,1075.9535,364.80231)" />
      <path
         transform="matrix(0.30025894,0,0,0.30025894,989.67726,457.66996)"
         d="m 600.03059,676.58545 c 0,13.3894 -10.85426,24.24366 -24.24366,24.24366 -13.38941,0 -24.24367,-10.85426 -24.24367,-24.24366 0,-13.38941 10.85426,-24.24366 24.24367,-24.24366 13.3894,0 24.24366,10.85425 24.24366,24.24366 z"
         sodipodi:ry="24.243662"
         sodipodi:rx="24.243662"
         sodipodi:cy="676.58545"
         sodipodi:cx="575.78693"
         id="path4036"
         style="fill:#ce8147;fill-opacity:1;fill-rule:nonzero;stroke:none"
         sodipodi:type="arc" />
      <path
         sodipodi:type="arc"
         style="fill:#ce8147;fill-opacity:1;fill-rule:nonzero;stroke:none"
         id="path4038"
         sodipodi:cx="575.78693"
         sodipodi:cy="676.58545"
         sodipodi:rx="24.243662"
         sodipodi:ry="24.243662"
         d="m 600.03059,676.58545 c 0,13.3894 -10.85426,24.24366 -24.24366,24.24366 -13.38941,0 -24.24367,-10.85426 -24.24367,-24.24366 0,-13.38941 10.85426,-24.24366 24.24367,-24.24366 13.3894,0 24.24366,10.85425 24.24366,24.24366 z"
         transform="matrix(0.30025894,0,0,0.30025894,1094.3201,410.88425)" />
      <path
         transform="matrix(0.30025894,0,0,0.30025894,1053.2488,453.74139)"
         d="m 600.03059,676.58545 c 0,13.3894 -10.85426,24.24366 -24.24366,24.24366 -13.38941,0 -24.24367,-10.85426 -24.24367,-24.24366 0,-13.38941 10.85426,-24.24366 24.24367,-24.24366 13.3894,0 24.24366,10.85425 24.24366,24.24366 z"
         sodipodi:ry="24.243662"
         sodipodi:rx="24.243662"
         sodipodi:cy="676.58545"
         sodipodi:cx="575.78693"
         id="path4040"
         style="fill:#ce8147;fill-opacity:1;fill-rule:nonzero;stroke:none"
         sodipodi:type="arc" />
      <path
         sodipodi:type="arc"
         style="fill:#ce8147;fill-opacity:1;fill-rule:nonzero;stroke:none"
         id="path4042"
         sodipodi:cx="575.78693"
         sodipodi:cy="676.58545"
         sodipodi:rx="24.243662"
         sodipodi:ry="24.243662"
         d="m 600.03059,676.58545 c 0,13.3894 -10.85426,24.24366 -24.24366,24.24366 -13.38941,0 -24.24367,-10.85426 -24.24367,-24.24366 0,-13.38941 10.85426,-24.24366 24.24367,-24.24366 13.3894,0 24.24366,10.85425 24.24366,24.24366 z"
         transform="matrix(0.30025894,0,0,0.30025894,1017.5345,435.16997)" />
      <path
         transform="matrix(0.30025894,0,0,0.30025894,1040.7488,400.16997)"
         d="m 600.03059,676.58545 c 0,13.3894 -10.85426,24.24366 -24.24366,24.24366 -13.38941,0 -24.24367,-10.85426 -24.24367,-24.24366 0,-13.38941 10.85426,-24.24366 24.24367,-24.24366 13.3894,0 24.24366,10.85425 24.24366,24.24366 z"
         sodipodi:ry="24.243662"
         sodipodi:rx="24.243662"
         sodipodi:cy="676.58545"
         sodipodi:cx="575.78693"
         id="path4044"
         style="fill:#ce8147;fill-opacity:1;fill-rule:nonzero;stroke:none"
         sodipodi:type="arc" />
      <path
         transform="matrix(0.30025894,0,0,0.30025894,1125.9535,389.80231)"
         d="m 600.03059,676.58545 c 0,13.3894 -10.85426,24.24366 -24.24366,24.24366 -13.38941,0 -24.24367,-10.85426 -24.24367,-24.24366 0,-13.38941 10.85426,-24.24366 24.24367,-24.24366 13.3894,0 24.24366,10.85425 24.24366,24.24366 z"
         sodipodi:ry="24.243662"
         sodipodi:rx="24.243662"
         sodipodi:cy="676.58545"
         sodipodi:cx="575.78693"
         id="path4046"
         style="fill:#ce8147;fill-opacity:1;fill-rule:nonzero;stroke:none"
         sodipodi:type="arc" />
      <path
         sodipodi:type="arc"
         style="fill:#ce8147;fill-opacity:1;fill-rule:nonzero;stroke:none"
         id="path4048"
         sodipodi:cx="575.78693"
         sodipodi:cy="676.58545"
         sodipodi:rx="24.243662"
         sodipodi:ry="24.243662"
         d="m 600.03059,676.58545 c 0,13.3894 -10.85426,24.24366 -24.24366,24.24366 -13.38941,0 -24.24367,-10.85426 -24.24367,-24.24366 0,-13.38941 10.85426,-24.24366 24.24367,-24.24366 13.3894,0 24.24366,10.85425 24.24366,24.24366 z"
         transform="matrix(0.30025894,0,0,0.30025894,1124.8821,446.58802)" />
      <path
         transform="matrix(0.30025894,0,0,0.30025894,1173.4535,458.01659)"
         d="m 600.03059,676.58545 c 0,13.3894 -10.85426,24.24366 -24.24366,24.24366 -13.38941,0 -24.24367,-10.85426 -24.24367,-24.24366 0,-13.38941 10.85426,-24.24366 24.24367,-24.24366 13.3894,0 24.24366,10.85425 24.24366,24.24366 z"
         sodipodi:ry="24.243662"
         sodipodi:rx="24.243662"
         sodipodi:cy="676.58545"
         sodipodi:cx="575.78693"
         id="path4050"
         style="fill:#ce8147;fill-opacity:1;fill-rule:nonzero;stroke:none"
         sodipodi:type="arc" />
      <path
         sodipodi:type="arc"
         style="fill:#ce8147;fill-opacity:1;fill-rule:nonzero;stroke:none"
         id="path4052"
         sodipodi:cx="575.78693"
         sodipodi:cy="676.58545"
         sodipodi:rx="24.243662"
         sodipodi:ry="24.243662"
         d="m 600.03059,676.58545 c 0,13.3894 -10.85426,24.24366 -24.24366,24.24366 -13.38941,0 -24.24367,-10.85426 -24.24367,-24.24366 0,-13.38941 10.85426,-24.24366 24.24367,-24.24366 13.3894,0 24.24366,10.85425 24.24366,24.24366 z"
         transform="matrix(0.30025894,0,0,0.30025894,1175.9535,494.44516)" />
      <path
         transform="matrix(0.30025894,0,0,0.30025894,1218.4535,518.73087)"
         d="m 600.03059,676.58545 c 0,13.3894 -10.85426,24.24366 -24.24366,24.24366 -13.38941,0 -24.24367,-10.85426 -24.24367,-24.24366 0,-13.38941 10.85426,-24.24366 24.24367,-24.24366 13.3894,0 24.24366,10.85425 24.24366,24.24366 z"
         sodipodi:ry="24.243662"
         sodipodi:rx="24.243662"
         sodipodi:cy="676.58545"
         sodipodi:cx="575.78693"
         id="path4054"
         style="fill:#ce8147;fill-opacity:1;fill-rule:nonzero;stroke:none"
         sodipodi:type="arc" />
      <path
         sodipodi:type="arc"
         style="fill:#ce8147;fill-opacity:1;fill-rule:nonzero;stroke:none"
         id="path4056"
         sodipodi:cx="575.78693"
         sodipodi:cy="676.58545"
         sodipodi:rx="24.243662"
         sodipodi:ry="24.243662"
         d="m 600.03059,676.58545 c 0,13.3894 -10.85426,24.24366 -24.24366,24.24366 -13.38941,0 -24.24367,-10.85426 -24.24367,-24.24366 0,-13.38941 10.85426,-24.24366 24.24367,-24.24366 13.3894,0 24.24366,10.85425 24.24366,24.24366 z"
         transform="matrix(0.30025894,0,0,0.30025894,1228.0964,546.94516)" />
      <path
         transform="matrix(0.30025894,0,0,0.30025894,1261.6678,573.37373)"
         d="m 600.03059,676.58545 c 0,13.3894 -10.85426,24.24366 -24.24366,24.24366 -13.38941,0 -24.24367,-10.85426 -24.24367,-24.24366 0,-13.38941 10.85426,-24.24366 24.24367,-24.24366 13.3894,0 24.24366,10.85425 24.24366,24.24366 z"
         sodipodi:ry="24.243662"
         sodipodi:rx="24.243662"
         sodipodi:cy="676.58545"
         sodipodi:cx="575.78693"
         id="path4058"
         style="fill:#ce8147;fill-opacity:1;fill-rule:nonzero;stroke:none"
         sodipodi:type="arc" />
      <path
         sodipodi:type="arc"
         style="fill:#ce8147;fill-opacity:1;fill-rule:nonzero;stroke:none"
         id="path4060"
         sodipodi:cx="575.78693"
         sodipodi:cy="676.58545"
         sodipodi:rx="24.243662"
         sodipodi:ry="24.243662"
         d="m 600.03059,676.58545 c 0,13.3894 -10.85426,24.24366 -24.24366,24.24366 -13.38941,0 -24.24367,-10.85426 -24.24367,-24.24366 0,-13.38941 10.85426,-24.24366 24.24367,-24.24366 13.3894,0 24.24366,10.85425 24.24366,24.24366 z"
         transform="matrix(0.30025894,0,0,0.30025894,1290.2392,541.94516)" />
      <path
         transform="matrix(0.30025894,0,0,0.30025894,1266.3106,479.08802)"
         d="m 600.03059,676.58545 c 0,13.3894 -10.85426,24.24366 -24.24366,24.24366 -13.38941,0 -24.24367,-10.85426 -24.24367,-24.24366 0,-13.38941 10.85426,-24.24366 24.24367,-24.24366 13.3894,0 24.24366,10.85425 24.24366,24.24366 z"
         sodipodi:ry="24.243662"
         sodipodi:rx="24.243662"
         sodipodi:cy="676.58545"
         sodipodi:cx="575.78693"
         id="path4062"
         style="fill:#ce8147;fill-opacity:1;fill-rule:nonzero;stroke:none"
         sodipodi:type="arc" />
      <path
         sodipodi:type="arc"
         style="fill:#ce8147;fill-opacity:1;fill-rule:nonzero;stroke:none"
         id="path4064"
         sodipodi:cx="575.78693"
         sodipodi:cy="676.58545"
         sodipodi:rx="24.243662"
         sodipodi:ry="24.243662"
         d="m 600.03059,676.58545 c 0,13.3894 -10.85426,24.24366 -24.24366,24.24366 -13.38941,0 -24.24367,-10.85426 -24.24367,-24.24366 0,-13.38941 10.85426,-24.24366 24.24367,-24.24366 13.3894,0 24.24366,10.85425 24.24366,24.24366 z"
         transform="matrix(0.30025894,0,0,0.30025894,1233.0963,457.65945)" />
      <path
         transform="matrix(0.30025894,0,0,0.30025894,1265.2392,512.65945)"
         d="m 600.03059,676.58545 c 0,13.3894 -10.85426,24.24366 -24.24366,24.24366 -13.38941,0 -24.24367,-10.85426 -24.24367,-24.24366 0,-13.38941 10.85426,-24.24366 24.24367,-24.24366 13.3894,0 24.24366,10.85425 24.24366,24.24366 z"
         sodipodi:ry="24.243662"
         sodipodi:rx="24.243662"
         sodipodi:cy="676.58545"
         sodipodi:cx="575.78693"
         id="path4066"
         style="fill:#ce8147;fill-opacity:1;fill-rule:nonzero;stroke:none"
         sodipodi:type="arc" />
      <path
         sodipodi:type="arc"
         style="fill:#ce8147;fill-opacity:1;fill-rule:nonzero;stroke:none"
         id="path4068"
         sodipodi:cx="575.78693"
         sodipodi:cy="676.58545"
         sodipodi:rx="24.243662"
         sodipodi:ry="24.243662"
         d="m 600.03059,676.58545 c 0,13.3894 -10.85426,24.24366 -24.24366,24.24366 -13.38941,0 -24.24367,-10.85426 -24.24367,-24.24366 0,-13.38941 10.85426,-24.24366 24.24367,-24.24366 13.3894,0 24.24366,10.85425 24.24366,24.24366 z"
         transform="matrix(0.30025894,0,0,0.30025894,1241.6678,415.87374)" />
      <path
         transform="matrix(0.30025894,0,0,0.30025894,1205.2392,402.30231)"
         d="m 600.03059,676.58545 c 0,13.3894 -10.85426,24.24366 -24.24366,24.24366 -13.38941,0 -24.24367,-10.85426 -24.24367,-24.24366 0,-13.38941 10.85426,-24.24366 24.24367,-24.24366 13.3894,0 24.24366,10.85425 24.24366,24.24366 z"
         sodipodi:ry="24.243662"
         sodipodi:rx="24.243662"
         sodipodi:cy="676.58545"
         sodipodi:cx="575.78693"
         id="path4070"
         style="fill:#ce8147;fill-opacity:1;fill-rule:nonzero;stroke:none"
         sodipodi:type="arc" />
      <path
         sodipodi:type="arc"
         style="fill:#ce8147;fill-opacity:1;fill-rule:nonzero;stroke:none"
         id="path4072"
         sodipodi:cx="575.78693"
         sodipodi:cy="676.58545"
         sodipodi:rx="24.243662"
         sodipodi:ry="24.243662"
         d="m 600.03059,676.58545 c 0,13.3894 -10.85426,24.24366 -24.24366,24.24366 -13.38941,0 -24.24367,-10.85426 -24.24367,-24.24366 0,-13.38941 10.85426,-24.24366 24.24367,-24.24366 13.3894,0 24.24366,10.85425 24.24366,24.24366 z"
         transform="matrix(0.30025894,0,0,0.30025894,1228.8106,366.94517)" />
      <path
         transform="matrix(0.30025894,0,0,0.30025894,1178.8106,347.30231)"
         d="m 600.03059,676.58545 c 0,13.3894 -10.85426,24.24366 -24.24366,24.24366 -13.38941,0 -24.24367,-10.85426 -24.24367,-24.24366 0,-13.38941 10.85426,-24.24366 24.24367,-24.24366 13.3894,0 24.24366,10.85425 24.24366,24.24366 z"
         sodipodi:ry="24.243662"
         sodipodi:rx="24.243662"
         sodipodi:cy="676.58545"
         sodipodi:cx="575.78693"
         id="path4074"
         style="fill:#ce8147;fill-opacity:1;fill-rule:nonzero;stroke:none"
         sodipodi:type="arc" />
      <path
         sodipodi:type="arc"
         style="fill:#ce8147;fill-opacity:1;fill-rule:nonzero;stroke:none"
         id="path4076"
         sodipodi:cx="575.78693"
         sodipodi:cy="676.58545"
         sodipodi:rx="24.243662"
         sodipodi:ry="24.243662"
         d="m 600.03059,676.58545 c 0,13.3894 -10.85426,24.24366 -24.24366,24.24366 -13.38941,0 -24.24367,-10.85426 -24.24367,-24.24366 0,-13.38941 10.85426,-24.24366 24.24367,-24.24366 13.3894,0 24.24366,10.85425 24.24366,24.24366 z"
         transform="matrix(0.30025894,0,0,0.30025894,1195.9535,312.65945)" />
      <path
         transform="matrix(0.30025894,0,0,0.30025894,1234.5249,323.73088)"
         d="m 600.03059,676.58545 c 0,13.3894 -10.85426,24.24366 -24.24366,24.24366 -13.38941,0 -24.24367,-10.85426 -24.24367,-24.24366 0,-13.38941 10.85426,-24.24366 24.24367,-24.24366 13.3894,0 24.24366,10.85425 24.24366,24.24366 z"
         sodipodi:ry="24.243662"
         sodipodi:rx="24.243662"
         sodipodi:cy="676.58545"
         sodipodi:cx="575.78693"
         id="path4078"
         style="fill:#ce8147;fill-opacity:1;fill-rule:nonzero;stroke:none"
         sodipodi:type="arc" />
      <path
         sodipodi:type="arc"
         style="fill:#ce8147;fill-opacity:1;fill-rule:nonzero;stroke:none"
         id="path4080"
         sodipodi:cx="575.78693"
         sodipodi:cy="676.58545"
         sodipodi:rx="24.243662"
         sodipodi:ry="24.243662"
         d="m 600.03059,676.58545 c 0,13.3894 -10.85426,24.24366 -24.24366,24.24366 -13.38941,0 -24.24367,-10.85426 -24.24367,-24.24366 0,-13.38941 10.85426,-24.24366 24.24367,-24.24366 13.3894,0 24.24366,10.85425 24.24366,24.24366 z"
         transform="matrix(0.30025894,0,0,0.30025894,1236.3107,277.65945)" />
      <path
         transform="matrix(0.30025894,0,0,0.30025894,1303.8106,257.30231)"
         d="m 600.03059,676.58545 c 0,13.3894 -10.85426,24.24366 -24.24366,24.24366 -13.38941,0 -24.24367,-10.85426 -24.24367,-24.24366 0,-13.38941 10.85426,-24.24366 24.24367,-24.24366 13.3894,0 24.24366,10.85425 24.24366,24.24366 z"
         sodipodi:ry="24.243662"
         sodipodi:rx="24.243662"
         sodipodi:cy="676.58545"
         sodipodi:cx="575.78693"
         id="path4082"
         style="fill:#ce8147;fill-opacity:1;fill-rule:nonzero;stroke:none"
         sodipodi:type="arc" />
      <path
         sodipodi:type="arc"
         style="fill:#ce8147;fill-opacity:1;fill-rule:nonzero;stroke:none"
         id="path4084"
         sodipodi:cx="575.78693"
         sodipodi:cy="676.58545"
         sodipodi:rx="24.243662"
         sodipodi:ry="24.243662"
         d="m 600.03059,676.58545 c 0,13.3894 -10.85426,24.24366 -24.24366,24.24366 -13.38941,0 -24.24367,-10.85426 -24.24367,-24.24366 0,-13.38941 10.85426,-24.24366 24.24367,-24.24366 13.3894,0 24.24366,10.85425 24.24366,24.24366 z"
         transform="matrix(0.30025894,0,0,0.30025894,1278.0963,293.0166)" />
      <path
         sodipodi:type="arc"
         style="fill:#ce8147;fill-opacity:1;fill-rule:nonzero;stroke:none"
         id="path4086"
         sodipodi:cx="575.78693"
         sodipodi:cy="676.58545"
         sodipodi:rx="24.243662"
         sodipodi:ry="24.243662"
         d="m 600.03059,676.58545 c 0,13.3894 -10.85426,24.24366 -24.24366,24.24366 -13.38941,0 -24.24367,-10.85426 -24.24367,-24.24366 0,-13.38941 10.85426,-24.24366 24.24367,-24.24366 13.3894,0 24.24366,10.85425 24.24366,24.24366 z"
         transform="matrix(0.30025894,0,0,0.30025894,1343.4535,264.80231)" />
      <path
         transform="matrix(0.30025894,0,0,0.30025894,1375.9535,236.23088)"
         d="m 600.03059,676.58545 c 0,13.3894 -10.85426,24.24366 -24.24366,24.24366 -13.38941,0 -24.24367,-10.85426 -24.24367,-24.24366 0,-13.38941 10.85426,-24.24366 24.24367,-24.24366 13.3894,0 24.24366,10.85425 24.24366,24.24366 z"
         sodipodi:ry="24.243662"
         sodipodi:rx="24.243662"
         sodipodi:cy="676.58545"
         sodipodi:cx="575.78693"
         id="path4088"
         style="fill:#ce8147;fill-opacity:1;fill-rule:nonzero;stroke:none"
         sodipodi:type="arc" />
      <path
         sodipodi:type="arc"
         style="fill:#ce8147;fill-opacity:1;fill-rule:nonzero;stroke:none"
         id="path4090"
         sodipodi:cx="575.78693"
         sodipodi:cy="676.58545"
         sodipodi:rx="24.243662"
         sodipodi:ry="24.243662"
         d="m 600.03059,676.58545 c 0,13.3894 -10.85426,24.24366 -24.24366,24.24366 -13.38941,0 -24.24367,-10.85426 -24.24367,-24.24366 0,-13.38941 10.85426,-24.24366 24.24367,-24.24366 13.3894,0 24.24366,10.85425 24.24366,24.24366 z"
         transform="matrix(0.30025894,0,0,0.30025894,1382.3821,185.15945)" />
      <path
         transform="matrix(0.30025894,0,0,0.30025894,1343.8107,191.23088)"
         d="m 600.03059,676.58545 c 0,13.3894 -10.85426,24.24366 -24.24366,24.24366 -13.38941,0 -24.24367,-10.85426 -24.24367,-24.24366 0,-13.38941 10.85426,-24.24366 24.24367,-24.24366 13.3894,0 24.24366,10.85425 24.24366,24.24366 z"
         sodipodi:ry="24.243662"
         sodipodi:rx="24.243662"
         sodipodi:cy="676.58545"
         sodipodi:cx="575.78693"
         id="path4092"
         style="fill:#ce8147;fill-opacity:1;fill-rule:nonzero;stroke:none"
         sodipodi:type="arc" />
      <path
         sodipodi:type="arc"
         style="fill:#ce8147;fill-opacity:1;fill-rule:nonzero;stroke:none"
         id="path4094"
         sodipodi:cx="575.78693"
         sodipodi:cy="676.58545"
         sodipodi:rx="24.243662"
         sodipodi:ry="24.243662"
         d="m 600.03059,676.58545 c 0,13.3894 -10.85426,24.24366 -24.24366,24.24366 -13.38941,0 -24.24367,-10.85426 -24.24367,-24.24366 0,-13.38941 10.85426,-24.24366 24.24367,-24.24366 13.3894,0 24.24366,10.85425 24.24366,24.24366 z"
         transform="matrix(0.30025894,0,0,0.30025894,1310.5964,207.3023)" />
      <path
         transform="matrix(0.30025894,0,0,0.30025894,1282.7393,194.8023)"
         d="m 600.03059,676.58545 c 0,13.3894 -10.85426,24.24366 -24.24366,24.24366 -13.38941,0 -24.24367,-10.85426 -24.24367,-24.24366 0,-13.38941 10.85426,-24.24366 24.24367,-24.24366 13.3894,0 24.24366,10.85425 24.24366,24.24366 z"
         sodipodi:ry="24.243662"
         sodipodi:rx="24.243662"
         sodipodi:cy="676.58545"
         sodipodi:cx="575.78693"
         id="path4096"
         style="fill:#ce8147;fill-opacity:1;fill-rule:nonzero;stroke:none"
         sodipodi:type="arc" />
      <path
         sodipodi:type="arc"
         style="fill:#ce8147;fill-opacity:1;fill-rule:nonzero;stroke:none"
         id="path4098"
         sodipodi:cx="575.78693"
         sodipodi:cy="676.58545"
         sodipodi:rx="24.243662"
         sodipodi:ry="24.243662"
         d="m 600.03059,676.58545 c 0,13.3894 -10.85426,24.24366 -24.24366,24.24366 -13.38941,0 -24.24367,-10.85426 -24.24367,-24.24366 0,-13.38941 10.85426,-24.24366 24.24367,-24.24366 13.3894,0 24.24366,10.85425 24.24366,24.24366 z"
         transform="matrix(0.30025894,0,0,0.30025894,1254.8822,220.87373)" />
      <path
         transform="matrix(0.30025894,0,0,0.30025894,1230.9536,198.01659)"
         d="m 600.03059,676.58545 c 0,13.3894 -10.85426,24.24366 -24.24366,24.24366 -13.38941,0 -24.24367,-10.85426 -24.24367,-24.24366 0,-13.38941 10.85426,-24.24366 24.24367,-24.24366 13.3894,0 24.24366,10.85425 24.24366,24.24366 z"
         sodipodi:ry="24.243662"
         sodipodi:rx="24.243662"
         sodipodi:cy="676.58545"
         sodipodi:cx="575.78693"
         id="path4100"
         style="fill:#ce8147;fill-opacity:1;fill-rule:nonzero;stroke:none"
         sodipodi:type="arc" />
      <path
         sodipodi:type="arc"
         style="fill:#ce8147;fill-opacity:1;fill-rule:nonzero;stroke:none"
         id="path4102"
         sodipodi:cx="575.78693"
         sodipodi:cy="676.58545"
         sodipodi:rx="24.243662"
         sodipodi:ry="24.243662"
         d="m 600.03059,676.58545 c 0,13.3894 -10.85426,24.24366 -24.24366,24.24366 -13.38941,0 -24.24367,-10.85426 -24.24367,-24.24366 0,-13.38941 10.85426,-24.24366 24.24367,-24.24366 13.3894,0 24.24366,10.85425 24.24366,24.24366 z"
         transform="matrix(0.30025894,0,0,0.30025894,1202.7393,225.15945)" />
      <path
         transform="matrix(0.30025894,0,0,0.30025894,1184.8822,194.80231)"
         d="m 600.03059,676.58545 c 0,13.3894 -10.85426,24.24366 -24.24366,24.24366 -13.38941,0 -24.24367,-10.85426 -24.24367,-24.24366 0,-13.38941 10.85426,-24.24366 24.24367,-24.24366 13.3894,0 24.24366,10.85425 24.24366,24.24366 z"
         sodipodi:ry="24.243662"
         sodipodi:rx="24.243662"
         sodipodi:cy="676.58545"
         sodipodi:cx="575.78693"
         id="path4104"
         style="fill:#ce8147;fill-opacity:1;fill-rule:nonzero;stroke:none"
         sodipodi:type="arc" />
      <path
         sodipodi:type="arc"
         style="fill:#ce8147;fill-opacity:1;fill-rule:nonzero;stroke:none"
         id="path4106"
         sodipodi:cx="575.78693"
         sodipodi:cy="676.58545"
         sodipodi:rx="24.243662"
         sodipodi:ry="24.243662"
         d="m 600.03059,676.58545 c 0,13.3894 -10.85426,24.24366 -24.24366,24.24366 -13.38941,0 -24.24367,-10.85426 -24.24367,-24.24366 0,-13.38941 10.85426,-24.24366 24.24367,-24.24366 13.3894,0 24.24366,10.85425 24.24366,24.24366 z"
         transform="matrix(0.30025894,0,0,0.30025894,1155.9536,214.44517)" />
      <path
         transform="matrix(0.30025894,0,0,0.30025894,1132.025,183.0166)"
         d="m 600.03059,676.58545 c 0,13.3894 -10.85426,24.24366 -24.24366,24.24366 -13.38941,0 -24.24367,-10.85426 -24.24367,-24.24366 0,-13.38941 10.85426,-24.24366 24.24367,-24.24366 13.3894,0 24.24366,10.85425 24.24366,24.24366 z"
         sodipodi:ry="24.243662"
         sodipodi:rx="24.243662"
         sodipodi:cy="676.58545"
         sodipodi:cx="575.78693"
         id="path4108"
         style="fill:#ce8147;fill-opacity:1;fill-rule:nonzero;stroke:none"
         sodipodi:type="arc" />
      <path
         sodipodi:type="arc"
         style="fill:#ce8147;fill-opacity:1;fill-rule:nonzero;stroke:none"
         id="path4110"
         sodipodi:cx="575.78693"
         sodipodi:cy="676.58545"
         sodipodi:rx="24.243662"
         sodipodi:ry="24.243662"
         d="m 600.03059,676.58545 c 0,13.3894 -10.85426,24.24366 -24.24366,24.24366 -13.38941,0 -24.24367,-10.85426 -24.24367,-24.24366 0,-13.38941 10.85426,-24.24366 24.24367,-24.24366 13.3894,0 24.24366,10.85425 24.24366,24.24366 z"
         transform="matrix(0.30025894,0,0,0.30025894,1156.3107,148.0166)" />
      <path
         transform="matrix(0.30025894,0,0,0.30025894,1132.7393,124.08803)"
         d="m 600.03059,676.58545 c 0,13.3894 -10.85426,24.24366 -24.24366,24.24366 -13.38941,0 -24.24367,-10.85426 -24.24367,-24.24366 0,-13.38941 10.85426,-24.24366 24.24367,-24.24366 13.3894,0 24.24366,10.85425 24.24366,24.24366 z"
         sodipodi:ry="24.243662"
         sodipodi:rx="24.243662"
         sodipodi:cy="676.58545"
         sodipodi:cx="575.78693"
         id="path4112"
         style="fill:#ce8147;fill-opacity:1;fill-rule:nonzero;stroke:none"
         sodipodi:type="arc" />
      <path
         sodipodi:type="arc"
         style="fill:#ce8147;fill-opacity:1;fill-rule:nonzero;stroke:none"
         id="path4114"
         sodipodi:cx="575.78693"
         sodipodi:cy="676.58545"
         sodipodi:rx="24.243662"
         sodipodi:ry="24.243662"
         d="m 600.03059,676.58545 c 0,13.3894 -10.85426,24.24366 -24.24366,24.24366 -13.38941,0 -24.24367,-10.85426 -24.24367,-24.24366 0,-13.38941 10.85426,-24.24366 24.24367,-24.24366 13.3894,0 24.24366,10.85425 24.24366,24.24366 z"
         transform="matrix(0.30025894,0,0,0.30025894,1149.1679,91.230887)" />
      <path
         transform="matrix(0.30025894,0,0,0.30025894,1131.6679,51.230887)"
         d="m 600.03059,676.58545 c 0,13.3894 -10.85426,24.24366 -24.24366,24.24366 -13.38941,0 -24.24367,-10.85426 -24.24367,-24.24366 0,-13.38941 10.85426,-24.24366 24.24367,-24.24366 13.3894,0 24.24366,10.85425 24.24366,24.24366 z"
         sodipodi:ry="24.243662"
         sodipodi:rx="24.243662"
         sodipodi:cy="676.58545"
         sodipodi:cx="575.78693"
         id="path4116"
         style="fill:#ce8147;fill-opacity:1;fill-rule:nonzero;stroke:none"
         sodipodi:type="arc" />
      <path
         sodipodi:type="arc"
         style="fill:#ce8147;fill-opacity:1;fill-rule:nonzero;stroke:none"
         id="path4118"
         sodipodi:cx="575.78693"
         sodipodi:cy="676.58545"
         sodipodi:rx="24.243662"
         sodipodi:ry="24.243662"
         d="m 600.03059,676.58545 c 0,13.3894 -10.85426,24.24366 -24.24366,24.24366 -13.38941,0 -24.24367,-10.85426 -24.24367,-24.24366 0,-13.38941 10.85426,-24.24366 24.24367,-24.24366 13.3894,0 24.24366,10.85425 24.24366,24.24366 z"
         transform="matrix(0.30025894,0,0,0.30025894,1133.4536,8.0166012)" />
      <path
         transform="matrix(0.30025894,0,0,0.30025894,1082.946,-19.257518)"
         d="m 600.03059,676.58545 c 0,13.3894 -10.85426,24.24366 -24.24366,24.24366 -13.38941,0 -24.24367,-10.85426 -24.24367,-24.24366 0,-13.38941 10.85426,-24.24366 24.24367,-24.24366 13.3894,0 24.24366,10.85425 24.24366,24.24366 z"
         sodipodi:ry="24.243662"
         sodipodi:rx="24.243662"
         sodipodi:cy="676.58545"
         sodipodi:cx="575.78693"
         id="path4120"
         style="fill:#ce8147;fill-opacity:1;fill-rule:nonzero;stroke:none"
         sodipodi:type="arc" />
      <path
         sodipodi:type="arc"
         style="fill:#ce8147;fill-opacity:1;fill-rule:nonzero;stroke:none"
         id="path4122"
         sodipodi:cx="575.78693"
         sodipodi:cy="676.58545"
         sodipodi:rx="24.243662"
         sodipodi:ry="24.243662"
         d="m 600.03059,676.58545 c 0,13.3894 -10.85426,24.24366 -24.24366,24.24366 -13.38941,0 -24.24367,-10.85426 -24.24367,-24.24366 0,-13.38941 10.85426,-24.24366 24.24367,-24.24366 13.3894,0 24.24366,10.85425 24.24366,24.24366 z"
         transform="matrix(0.30025894,0,0,0.30025894,1092.0374,10.541982)" />
      <path
         transform="matrix(0.30025894,0,0,0.30025894,1067.7937,43.37194)"
         d="m 600.03059,676.58545 c 0,13.3894 -10.85426,24.24366 -24.24366,24.24366 -13.38941,0 -24.24367,-10.85426 -24.24367,-24.24366 0,-13.38941 10.85426,-24.24366 24.24367,-24.24366 13.3894,0 24.24366,10.85425 24.24366,24.24366 z"
         sodipodi:ry="24.243662"
         sodipodi:rx="24.243662"
         sodipodi:cy="676.58545"
         sodipodi:cx="575.78693"
         id="path4124"
         style="fill:#ce8147;fill-opacity:1;fill-rule:nonzero;stroke:none"
         sodipodi:type="arc" />
      <path
         sodipodi:type="arc"
         style="fill:#ce8147;fill-opacity:1;fill-rule:nonzero;stroke:none"
         id="path4126"
         sodipodi:cx="575.78693"
         sodipodi:cy="676.58545"
         sodipodi:rx="24.243662"
         sodipodi:ry="24.243662"
         d="m 600.03059,676.58545 c 0,13.3894 -10.85426,24.24366 -24.24366,24.24366 -13.38941,0 -24.24367,-10.85426 -24.24367,-24.24366 0,-13.38941 10.85426,-24.24366 24.24367,-24.24366 13.3894,0 24.24366,10.85425 24.24366,24.24366 z"
         transform="matrix(0.30025894,0,0,0.30025894,1092.0374,63.574991)" />
      <path
         transform="matrix(0.30025894,0,0,0.30025894,1077.3902,95.899872)"
         d="m 600.03059,676.58545 c 0,13.3894 -10.85426,24.24366 -24.24366,24.24366 -13.38941,0 -24.24367,-10.85426 -24.24367,-24.24366 0,-13.38941 10.85426,-24.24366 24.24367,-24.24366 13.3894,0 24.24366,10.85425 24.24366,24.24366 z"
         sodipodi:ry="24.243662"
         sodipodi:rx="24.243662"
         sodipodi:cy="676.58545"
         sodipodi:cx="575.78693"
         id="path4128"
         style="fill:#ce8147;fill-opacity:1;fill-rule:nonzero;stroke:none"
         sodipodi:type="arc" />
      <path
         sodipodi:type="arc"
         style="fill:#ce8147;fill-opacity:1;fill-rule:nonzero;stroke:none"
         id="path4130"
         sodipodi:cx="575.78693"
         sodipodi:cy="676.58545"
         sodipodi:rx="24.243662"
         sodipodi:ry="24.243662"
         d="m 600.03059,676.58545 c 0,13.3894 -10.85426,24.24366 -24.24366,24.24366 -13.38941,0 -24.24367,-10.85426 -24.24367,-24.24366 0,-13.38941 10.85426,-24.24366 24.24367,-24.24366 13.3894,0 24.24366,10.85425 24.24366,24.24366 z"
         transform="matrix(0.30025894,0,0,0.30025894,1051.1262,123.17399)" />
      <path
         transform="matrix(0.30025894,0,0,0.30025894,1089.512,128.22475)"
         d="m 600.03059,676.58545 c 0,13.3894 -10.85426,24.24366 -24.24366,24.24366 -13.38941,0 -24.24367,-10.85426 -24.24367,-24.24366 0,-13.38941 10.85426,-24.24366 24.24367,-24.24366 13.3894,0 24.24366,10.85425 24.24366,24.24366 z"
         sodipodi:ry="24.243662"
         sodipodi:rx="24.243662"
         sodipodi:cy="676.58545"
         sodipodi:cx="575.78693"
         id="path4132"
         style="fill:#ce8147;fill-opacity:1;fill-rule:nonzero;stroke:none"
         sodipodi:type="arc" />
      <path
         sodipodi:type="arc"
         style="fill:#ce8147;fill-opacity:1;fill-rule:nonzero;stroke:none"
         id="path4134"
         sodipodi:cx="575.78693"
         sodipodi:cy="676.58545"
         sodipodi:rx="24.243662"
         sodipodi:ry="24.243662"
         d="m 600.03059,676.58545 c 0,13.3894 -10.85426,24.24366 -24.24366,24.24366 -13.38941,0 -24.24367,-10.85426 -24.24367,-24.24366 0,-13.38941 10.85426,-24.24366 24.24367,-24.24366 13.3894,0 24.24366,10.85425 24.24366,24.24366 z"
         transform="matrix(0.30025894,0,0,0.30025894,1071.8343,166.10547)" />
      <path
         transform="matrix(0.30025894,0,0,0.30025894,1035.9739,177.21715)"
         d="m 600.03059,676.58545 c 0,13.3894 -10.85426,24.24366 -24.24366,24.24366 -13.38941,0 -24.24367,-10.85426 -24.24367,-24.24366 0,-13.38941 10.85426,-24.24366 24.24367,-24.24366 13.3894,0 24.24366,10.85425 24.24366,24.24366 z"
         sodipodi:ry="24.243662"
         sodipodi:rx="24.243662"
         sodipodi:cy="676.58545"
         sodipodi:cx="575.78693"
         id="path4136"
         style="fill:#ce8147;fill-opacity:1;fill-rule:nonzero;stroke:none"
         sodipodi:type="arc" />
      <path
         sodipodi:type="arc"
         style="fill:#ce8147;fill-opacity:1;fill-rule:nonzero;stroke:none"
         id="path4138"
         sodipodi:cx="575.78693"
         sodipodi:cy="676.58545"
         sodipodi:rx="24.243662"
         sodipodi:ry="24.243662"
         d="m 600.03059,676.58545 c 0,13.3894 -10.85426,24.24366 -24.24366,24.24366 -13.38941,0 -24.24367,-10.85426 -24.24367,-24.24366 0,-13.38941 10.85426,-24.24366 24.24367,-24.24366 13.3894,0 24.24366,10.85425 24.24366,24.24366 z"
         transform="matrix(0.30025894,0,0,0.30025894,1054.6617,205.50142)" />
      <path
         transform="matrix(0.30025894,0,0,0.30025894,1004.6591,215.09787)"
         d="m 600.03059,676.58545 c 0,13.3894 -10.85426,24.24366 -24.24366,24.24366 -13.38941,0 -24.24367,-10.85426 -24.24367,-24.24366 0,-13.38941 10.85426,-24.24366 24.24367,-24.24366 13.3894,0 24.24366,10.85425 24.24366,24.24366 z"
         sodipodi:ry="24.243662"
         sodipodi:rx="24.243662"
         sodipodi:cy="676.58545"
         sodipodi:cx="575.78693"
         id="path4140"
         style="fill:#ce8147;fill-opacity:1;fill-rule:nonzero;stroke:none"
         sodipodi:type="arc" />
      <path
         sodipodi:type="arc"
         style="fill:#ce8147;fill-opacity:1;fill-rule:nonzero;stroke:none"
         id="path4142"
         sodipodi:cx="575.78693"
         sodipodi:cy="676.58545"
         sodipodi:rx="24.243662"
         sodipodi:ry="24.243662"
         d="m 600.03059,676.58545 c 0,13.3894 -10.85426,24.24366 -24.24366,24.24366 -13.38941,0 -24.24367,-10.85426 -24.24367,-24.24366 0,-13.38941 10.85426,-24.24366 24.24367,-24.24366 13.3894,0 24.24366,10.85425 24.24366,24.24366 z"
         transform="matrix(0.30025894,0,0,0.30025894,970.31391,191.86436)" />
      <path
         transform="matrix(0.30025894,0,0,0.30025894,937.98903,205.50142)"
         d="m 600.03059,676.58545 c 0,13.3894 -10.85426,24.24366 -24.24366,24.24366 -13.38941,0 -24.24367,-10.85426 -24.24367,-24.24366 0,-13.38941 10.85426,-24.24366 24.24367,-24.24366 13.3894,0 24.24366,10.85425 24.24366,24.24366 z"
         sodipodi:ry="24.243662"
         sodipodi:rx="24.243662"
         sodipodi:cy="676.58545"
         sodipodi:cx="575.78693"
         id="path4144"
         style="fill:#ce8147;fill-opacity:1;fill-rule:nonzero;stroke:none"
         sodipodi:type="arc" />
      <path
         sodipodi:type="arc"
         style="fill:#ce8147;fill-opacity:1;fill-rule:nonzero;stroke:none"
         id="path4146"
         sodipodi:cx="575.78693"
         sodipodi:cy="676.58545"
         sodipodi:rx="24.243662"
         sodipodi:ry="24.243662"
         d="m 600.03059,676.58545 c 0,13.3894 -10.85426,24.24366 -24.24366,24.24366 -13.38941,0 -24.24367,-10.85426 -24.24367,-24.24366 0,-13.38941 10.85426,-24.24366 24.24367,-24.24366 13.3894,0 24.24366,10.85425 24.24366,24.24366 z"
         transform="matrix(0.30025894,0,0,0.30025894,905.15907,183.78314)" />
      <path
         transform="matrix(0.30025894,0,0,0.30025894,860.20728,186.30852)"
         d="m 600.03059,676.58545 c 0,13.3894 -10.85426,24.24366 -24.24366,24.24366 -13.38941,0 -24.24367,-10.85426 -24.24367,-24.24366 0,-13.38941 10.85426,-24.24366 24.24367,-24.24366 13.3894,0 24.24366,10.85425 24.24366,24.24366 z"
         sodipodi:ry="24.243662"
         sodipodi:rx="24.243662"
         sodipodi:cy="676.58545"
         sodipodi:cx="575.78693"
         id="path4148"
         style="fill:#ce8147;fill-opacity:1;fill-rule:nonzero;stroke:none"
         sodipodi:type="arc" />
      <path
         sodipodi:type="arc"
         style="fill:#ce8147;fill-opacity:1;fill-rule:nonzero;stroke:none"
         id="path4150"
         sodipodi:cx="575.78693"
         sodipodi:cy="676.58545"
         sodipodi:rx="24.243662"
         sodipodi:ry="24.243662"
         d="m 600.03059,676.58545 c 0,13.3894 -10.85426,24.24366 -24.24366,24.24366 -13.38941,0 -24.24367,-10.85426 -24.24367,-24.24366 0,-13.38941 10.85426,-24.24366 24.24367,-24.24366 13.3894,0 24.24366,10.85425 24.24366,24.24366 z"
         transform="matrix(0.30025894,0,0,0.30025894,830.91286,174.69177)" />
      <path
         transform="matrix(0.30025894,0,0,0.30025894,799.09305,214.08772)"
         d="m 600.03059,676.58545 c 0,13.3894 -10.85426,24.24366 -24.24366,24.24366 -13.38941,0 -24.24367,-10.85426 -24.24367,-24.24366 0,-13.38941 10.85426,-24.24366 24.24367,-24.24366 13.3894,0 24.24366,10.85425 24.24366,24.24366 z"
         sodipodi:ry="24.243662"
         sodipodi:rx="24.243662"
         sodipodi:cy="676.58545"
         sodipodi:cx="575.78693"
         id="path4152"
         style="fill:#ce8147;fill-opacity:1;fill-rule:nonzero;stroke:none"
         sodipodi:type="arc" />
      <path
         sodipodi:type="arc"
         style="fill:#ce8147;fill-opacity:1;fill-rule:nonzero;stroke:none"
         id="path4154"
         sodipodi:cx="575.78693"
         sodipodi:cy="676.58545"
         sodipodi:rx="24.243662"
         sodipodi:ry="24.243662"
         d="m 600.03059,676.58545 c 0,13.3894 -10.85426,24.24366 -24.24366,24.24366 -13.38941,0 -24.24367,-10.85426 -24.24367,-24.24366 0,-13.38941 10.85426,-24.24366 24.24367,-24.24366 13.3894,0 24.24366,10.85425 24.24366,24.24366 z"
         transform="matrix(0.30025894,0,0,0.30025894,835.96362,243.88722)" />
      <path
         transform="matrix(0.30025894,0,0,0.30025894,863.74282,232.27047)"
         d="m 600.03059,676.58545 c 0,13.3894 -10.85426,24.24366 -24.24366,24.24366 -13.38941,0 -24.24367,-10.85426 -24.24367,-24.24366 0,-13.38941 10.85426,-24.24366 24.24367,-24.24366 13.3894,0 24.24366,10.85425 24.24366,24.24366 z"
         sodipodi:ry="24.243662"
         sodipodi:rx="24.243662"
         sodipodi:cy="676.58545"
         sodipodi:cx="575.78693"
         id="path4156"
         style="fill:#ce8147;fill-opacity:1;fill-rule:nonzero;stroke:none"
         sodipodi:type="arc" />
      <path
         sodipodi:type="arc"
         style="fill:#ce8147;fill-opacity:1;fill-rule:nonzero;stroke:none"
         id="path4158"
         sodipodi:cx="575.78693"
         sodipodi:cy="676.58545"
         sodipodi:rx="24.243662"
         sodipodi:ry="24.243662"
         d="m 600.03059,676.58545 c 0,13.3894 -10.85426,24.24366 -24.24366,24.24366 -13.38941,0 -24.24367,-10.85426 -24.24367,-24.24366 0,-13.38941 10.85426,-24.24366 24.24367,-24.24366 13.3894,0 24.24366,10.85425 24.24366,24.24366 z"
         transform="matrix(0.30025894,0,0,0.30025894,885.96618,265.10043)" />
      <path
         transform="matrix(0.30025894,0,0,0.30025894,921.8266,247.42276)"
         d="m 600.03059,676.58545 c 0,13.3894 -10.85426,24.24366 -24.24366,24.24366 -13.38941,0 -24.24367,-10.85426 -24.24367,-24.24366 0,-13.38941 10.85426,-24.24366 24.24367,-24.24366 13.3894,0 24.24366,10.85425 24.24366,24.24366 z"
         sodipodi:ry="24.243662"
         sodipodi:rx="24.243662"
         sodipodi:cy="676.58545"
         sodipodi:cx="575.78693"
         id="path4160"
         style="fill:#ce8147;fill-opacity:1;fill-rule:nonzero;stroke:none"
         sodipodi:type="arc" />
      <path
         sodipodi:type="arc"
         style="fill:#ce8147;fill-opacity:1;fill-rule:nonzero;stroke:none"
         id="path4162"
         sodipodi:cx="575.78693"
         sodipodi:cy="676.58545"
         sodipodi:rx="24.243662"
         sodipodi:ry="24.243662"
         d="m 600.03059,676.58545 c 0,13.3894 -10.85426,24.24366 -24.24366,24.24366 -13.38941,0 -24.24367,-10.85426 -24.24367,-24.24366 0,-13.38941 10.85426,-24.24366 24.24367,-24.24366 13.3894,0 24.24366,10.85425 24.24366,24.24366 z"
         transform="matrix(0.30025894,0,0,0.30025894,958.69717,264.09028)" />
      <path
         transform="matrix(0.30025894,0,0,0.30025894,942.02965,296.92024)"
         d="m 600.03059,676.58545 c 0,13.3894 -10.85426,24.24366 -24.24366,24.24366 -13.38941,0 -24.24367,-10.85426 -24.24367,-24.24366 0,-13.38941 10.85426,-24.24366 24.24367,-24.24366 13.3894,0 24.24366,10.85425 24.24366,24.24366 z"
         sodipodi:ry="24.243662"
         sodipodi:rx="24.243662"
         sodipodi:cy="676.58545"
         sodipodi:cx="575.78693"
         id="path4164"
         style="fill:#ce8147;fill-opacity:1;fill-rule:nonzero;stroke:none"
         sodipodi:type="arc" />
      <path
         sodipodi:type="arc"
         style="fill:#ce8147;fill-opacity:1;fill-rule:nonzero;stroke:none"
         id="path4166"
         sodipodi:cx="575.78693"
         sodipodi:cy="676.58545"
         sodipodi:rx="24.243662"
         sodipodi:ry="24.243662"
         d="m 600.03059,676.58545 c 0,13.3894 -10.85426,24.24366 -24.24366,24.24366 -13.38941,0 -24.24367,-10.85426 -24.24367,-24.24366 0,-13.38941 10.85426,-24.24366 24.24367,-24.24366 13.3894,0 24.24366,10.85425 24.24366,24.24366 z"
         transform="matrix(0.30025894,0,0,0.30025894,1000.6185,274.69688)" />
      <path
         transform="matrix(0.30025894,0,0,0.30025894,970.819,317.12329)"
         d="m 600.03059,676.58545 c 0,13.3894 -10.85426,24.24366 -24.24366,24.24366 -13.38941,0 -24.24367,-10.85426 -24.24367,-24.24366 0,-13.38941 10.85426,-24.24366 24.24367,-24.24366 13.3894,0 24.24366,10.85425 24.24366,24.24366 z"
         sodipodi:ry="24.243662"
         sodipodi:rx="24.243662"
         sodipodi:cy="676.58545"
         sodipodi:cx="575.78693"
         id="path4168"
         style="fill:#ce8147;fill-opacity:1;fill-rule:nonzero;stroke:none"
         sodipodi:type="arc" />
      <path
         sodipodi:type="arc"
         style="fill:#ce8147;fill-opacity:1;fill-rule:nonzero;stroke:none"
         id="path4170"
         sodipodi:cx="575.78693"
         sodipodi:cy="676.58545"
         sodipodi:rx="24.243662"
         sodipodi:ry="24.243662"
         d="m 600.03059,676.58545 c 0,13.3894 -10.85426,24.24366 -24.24366,24.24366 -13.38941,0 -24.24367,-10.85426 -24.24367,-24.24366 0,-13.38941 10.85426,-24.24366 24.24367,-24.24366 13.3894,0 24.24366,10.85425 24.24366,24.24366 z"
         transform="matrix(0.30025894,0,0,0.30025894,1017.286,318.63852)" />
      <path
         transform="matrix(0.30025894,0,0,0.30025894,997.58803,349.95325)"
         d="m 600.03059,676.58545 c 0,13.3894 -10.85426,24.24366 -24.24366,24.24366 -13.38941,0 -24.24367,-10.85426 -24.24367,-24.24366 0,-13.38941 10.85426,-24.24366 24.24367,-24.24366 13.3894,0 24.24366,10.85425 24.24366,24.24366 z"
         sodipodi:ry="24.243662"
         sodipodi:rx="24.243662"
         sodipodi:cy="676.58545"
         sodipodi:cx="575.78693"
         id="path4172"
         style="fill:#ce8147;fill-opacity:1;fill-rule:nonzero;stroke:none"
         sodipodi:type="arc" />
    </g>
  </g>
</svg>
